<svg width="334" height="174" viewBox="0 0 334 174" fill="none" xmlns="http://www.w3.org/2000/svg">
<rect y="45" width="334" height="118" rx="30" fill="#42C83C"/>
<path d="M23.9389 116.545V119.795H22.9233V116.545H23.9389ZM26.3026 116.545V119.795H25.2869V116.545H26.3026ZM29.5329 116.545V126H28.3881V116.545H29.5329ZM32.7702 121.734V126H31.6808V118.909H32.7333V120.017H32.8256C32.9918 119.657 33.2442 119.368 33.5827 119.149C33.9213 118.928 34.3583 118.817 34.8938 118.817C35.3739 118.817 35.794 118.915 36.1541 119.112C36.5142 119.306 36.7943 119.602 36.9943 119.999C37.1944 120.393 37.2944 120.891 37.2944 121.494V126H36.2049V121.568C36.2049 121.011 36.0603 120.577 35.771 120.266C35.4817 119.952 35.0846 119.795 34.5799 119.795C34.2321 119.795 33.9213 119.871 33.6474 120.022C33.3765 120.172 33.1626 120.393 33.0057 120.682C32.8487 120.971 32.7702 121.322 32.7702 121.734ZM41.9628 126.148C41.3719 126.148 40.8502 125.998 40.3978 125.7C39.9454 125.398 39.5915 124.974 39.336 124.426C39.0806 123.875 38.9529 123.224 38.9529 122.473C38.9529 121.728 39.0806 121.082 39.336 120.534C39.5915 119.986 39.9469 119.563 40.4024 119.265C40.8579 118.966 41.3842 118.817 41.9813 118.817C42.4429 118.817 42.8076 118.894 43.0754 119.048C43.3462 119.198 43.5524 119.371 43.694 119.565C43.8386 119.755 43.951 119.912 44.031 120.036H44.1233V116.545H45.2128V126H44.1602V124.911H44.031C43.951 125.04 43.8371 125.203 43.6894 125.4C43.5416 125.594 43.3308 125.768 43.0569 125.922C42.783 126.072 42.4183 126.148 41.9628 126.148ZM42.1105 125.169C42.5476 125.169 42.9169 125.055 43.2185 124.827C43.5201 124.597 43.7494 124.278 43.9063 123.872C44.0633 123.462 44.1418 122.99 44.1418 122.455C44.1418 121.925 44.0648 121.462 43.911 121.065C43.7571 120.665 43.5293 120.354 43.2277 120.132C42.9261 119.908 42.5537 119.795 42.1105 119.795C41.6489 119.795 41.2642 119.914 40.9564 120.151C40.6517 120.385 40.4224 120.703 40.2686 121.107C40.1177 121.507 40.0423 121.956 40.0423 122.455C40.0423 122.959 40.1193 123.418 40.2732 123.83C40.4301 124.24 40.661 124.566 40.9656 124.809C41.2734 125.049 41.655 125.169 42.1105 125.169ZM50.3325 126.148C49.6492 126.148 49.0599 125.997 48.5644 125.695C48.0719 125.391 47.6919 124.966 47.4241 124.421C47.1594 123.873 47.0271 123.236 47.0271 122.51C47.0271 121.784 47.1594 121.143 47.4241 120.589C47.6919 120.032 48.0642 119.598 48.5413 119.288C49.0214 118.974 49.5815 118.817 50.2217 118.817C50.591 118.817 50.9557 118.878 51.3158 119.001C51.6759 119.125 52.0036 119.325 52.2991 119.602C52.5945 119.875 52.83 120.239 53.0054 120.691C53.1808 121.143 53.2686 121.701 53.2686 122.362V122.824H47.8026V121.882H52.1606C52.1606 121.482 52.0806 121.125 51.9205 120.811C51.7636 120.497 51.5389 120.249 51.2465 120.068C50.9572 119.886 50.6156 119.795 50.2217 119.795C49.7877 119.795 49.4123 119.903 49.0953 120.119C48.7813 120.331 48.5397 120.608 48.3705 120.95C48.2012 121.291 48.1166 121.657 48.1166 122.048V122.676C48.1166 123.212 48.2089 123.666 48.3936 124.038C48.5813 124.407 48.8414 124.689 49.1737 124.883C49.5061 125.074 49.8924 125.169 50.3325 125.169C50.6187 125.169 50.8772 125.129 51.108 125.049C51.3419 124.966 51.5435 124.843 51.7128 124.68C51.8821 124.513 52.0129 124.307 52.1052 124.061L53.1578 124.357C53.047 124.714 52.8608 125.027 52.5992 125.298C52.3376 125.566 52.0144 125.775 51.6297 125.926C51.245 126.074 50.8126 126.148 50.3325 126.148ZM57.8989 126.148C57.2156 126.148 56.6263 125.997 56.1308 125.695C55.6383 125.391 55.2583 124.966 54.9905 124.421C54.7258 123.873 54.5935 123.236 54.5935 122.51C54.5935 121.784 54.7258 121.143 54.9905 120.589C55.2583 120.032 55.6307 119.598 56.1077 119.288C56.5878 118.974 57.1479 118.817 57.7881 118.817C58.1574 118.817 58.5221 118.878 58.8822 119.001C59.2423 119.125 59.57 119.325 59.8655 119.602C60.161 119.875 60.3964 120.239 60.5718 120.691C60.7472 121.143 60.835 121.701 60.835 122.362V122.824H55.3691V121.882H59.727C59.727 121.482 59.647 121.125 59.4869 120.811C59.33 120.497 59.1053 120.249 58.8129 120.068C58.5236 119.886 58.182 119.795 57.7881 119.795C57.3541 119.795 56.9787 119.903 56.6617 120.119C56.3477 120.331 56.1061 120.608 55.9369 120.95C55.7676 121.291 55.683 121.657 55.683 122.048V122.676C55.683 123.212 55.7753 123.666 55.96 124.038C56.1477 124.407 56.4078 124.689 56.7401 124.883C57.0725 125.074 57.4588 125.169 57.8989 125.169C58.1851 125.169 58.4436 125.129 58.6744 125.049C58.9084 124.966 59.1099 124.843 59.2792 124.68C59.4485 124.513 59.5793 124.307 59.6716 124.061L60.7242 124.357C60.6134 124.714 60.4272 125.027 60.1656 125.298C59.904 125.566 59.5808 125.775 59.1961 125.926C58.8114 126.074 58.379 126.148 57.8989 126.148ZM65.1698 126.148C64.5789 126.148 64.0573 125.998 63.6048 125.7C63.1524 125.398 62.7985 124.974 62.5431 124.426C62.2876 123.875 62.1599 123.224 62.1599 122.473C62.1599 121.728 62.2876 121.082 62.5431 120.534C62.7985 119.986 63.154 119.563 63.6095 119.265C64.065 118.966 64.5912 118.817 65.1883 118.817C65.6499 118.817 66.0146 118.894 66.2824 119.048C66.5532 119.198 66.7594 119.371 66.901 119.565C67.0457 119.755 67.158 119.912 67.238 120.036H67.3303V116.545H68.4198V126H67.3673V124.911H67.238C67.158 125.04 67.0441 125.203 66.8964 125.4C66.7487 125.594 66.5378 125.768 66.2639 125.922C65.99 126.072 65.6253 126.148 65.1698 126.148ZM65.3176 125.169C65.7546 125.169 66.1239 125.055 66.4255 124.827C66.7271 124.597 66.9564 124.278 67.1134 123.872C67.2703 123.462 67.3488 122.99 67.3488 122.455C67.3488 121.925 67.2719 121.462 67.118 121.065C66.9641 120.665 66.7364 120.354 66.4347 120.132C66.1331 119.908 65.7607 119.795 65.3176 119.795C64.8559 119.795 64.4712 119.914 64.1634 120.151C63.8588 120.385 63.6295 120.703 63.4756 121.107C63.3248 121.507 63.2494 121.956 63.2494 122.455C63.2494 122.959 63.3263 123.418 63.4802 123.83C63.6372 124.24 63.868 124.566 64.1727 124.809C64.4804 125.049 64.8621 125.169 65.3176 125.169ZM72.1915 124.707L72.1176 125.206C72.0653 125.557 71.9853 125.932 71.8776 126.332C71.7729 126.732 71.6637 127.109 71.5498 127.463C71.4359 127.817 71.3421 128.099 71.2682 128.308H70.4372C70.4772 128.111 70.5296 127.851 70.5942 127.528C70.6588 127.205 70.7235 126.843 70.7881 126.443C70.8558 126.046 70.9112 125.64 70.9543 125.224L71.0097 124.707H72.1915ZM78.014 126V116.545H81.2086C81.9503 116.545 82.5566 116.679 83.0275 116.947C83.5015 117.212 83.8523 117.57 84.0801 118.023C84.3078 118.475 84.4217 118.98 84.4217 119.537C84.4217 120.094 84.3078 120.6 84.0801 121.056C83.8554 121.511 83.5076 121.874 83.0368 122.145C82.5659 122.413 81.9627 122.547 81.2271 122.547H78.9373V121.531H81.1902C81.698 121.531 82.1058 121.444 82.4135 121.268C82.7213 121.093 82.9444 120.856 83.0829 120.557C83.2245 120.256 83.2953 119.915 83.2953 119.537C83.2953 119.158 83.2245 118.82 83.0829 118.521C82.9444 118.223 82.7198 117.989 82.4089 117.82C82.0981 117.647 81.6857 117.561 81.1717 117.561H79.1589V126H78.014ZM86.1183 126V118.909H87.1708V119.98H87.2447C87.3739 119.629 87.6078 119.345 87.9464 119.126C88.2849 118.908 88.6665 118.798 89.0913 118.798C89.1713 118.798 89.2713 118.8 89.3913 118.803C89.5114 118.806 89.6022 118.811 89.6637 118.817V119.925C89.6268 119.915 89.5421 119.902 89.4098 119.883C89.2805 119.862 89.1436 119.851 88.9989 119.851C88.6542 119.851 88.3465 119.923 88.0756 120.068C87.8079 120.209 87.5955 120.406 87.4386 120.659C87.2847 120.908 87.2077 121.193 87.2077 121.513V126H86.1183ZM93.0418 126.166C92.5925 126.166 92.1847 126.082 91.8184 125.912C91.4522 125.74 91.1614 125.492 90.9459 125.169C90.7305 124.843 90.6228 124.449 90.6228 123.987C90.6228 123.581 90.7028 123.252 90.8628 122.999C91.0229 122.744 91.2368 122.544 91.5045 122.399C91.7723 122.254 92.0677 122.147 92.3909 122.076C92.7171 122.002 93.0449 121.944 93.3742 121.901C93.8051 121.845 94.1544 121.804 94.4221 121.776C94.693 121.745 94.8899 121.694 95.0131 121.624C95.1392 121.553 95.2023 121.43 95.2023 121.254V121.217C95.2023 120.762 95.0777 120.408 94.8284 120.156C94.5822 119.903 94.2082 119.777 93.7066 119.777C93.1865 119.777 92.7787 119.891 92.4832 120.119C92.1878 120.346 91.98 120.589 91.86 120.848L90.8259 120.479C91.0106 120.048 91.2568 119.712 91.5645 119.472C91.8754 119.229 92.2139 119.06 92.5802 118.964C92.9495 118.866 93.3126 118.817 93.6697 118.817C93.8974 118.817 94.159 118.844 94.4545 118.9C94.753 118.952 95.0407 119.061 95.3177 119.228C95.5978 119.394 95.8302 119.645 96.0148 119.98C96.1995 120.316 96.2918 120.765 96.2918 121.328V126H95.2023V125.04H95.1469C95.0731 125.194 94.95 125.358 94.7776 125.534C94.6053 125.709 94.376 125.858 94.0898 125.982C93.8035 126.105 93.4542 126.166 93.0418 126.166ZM93.208 125.188C93.6389 125.188 94.002 125.103 94.2975 124.934C94.596 124.764 94.8207 124.546 94.9715 124.278C95.1254 124.01 95.2023 123.729 95.2023 123.433V122.436C95.1562 122.491 95.0546 122.542 94.8976 122.588C94.7438 122.632 94.5653 122.67 94.3621 122.704C94.1621 122.735 93.9666 122.762 93.7758 122.787C93.5881 122.808 93.4358 122.827 93.3188 122.842C93.0357 122.879 92.771 122.939 92.5248 123.022C92.2816 123.102 92.0847 123.224 91.9339 123.387C91.7861 123.547 91.7123 123.766 91.7123 124.043C91.7123 124.421 91.8523 124.707 92.1324 124.901C92.4155 125.092 92.7741 125.188 93.208 125.188ZM98.7282 128.659C98.5435 128.659 98.3788 128.644 98.2342 128.613C98.0895 128.585 97.9895 128.558 97.9341 128.53L98.2111 127.57C98.4758 127.637 98.7097 127.662 98.9128 127.643C99.1159 127.625 99.296 127.534 99.4529 127.371C99.613 127.211 99.7592 126.951 99.8915 126.591L100.095 126.037L97.4725 118.909H98.6543L100.612 124.56H100.686L102.643 118.909H103.825L100.815 127.034C100.679 127.4 100.512 127.703 100.312 127.944C100.112 128.187 99.8792 128.367 99.6145 128.484C99.3529 128.601 99.0575 128.659 98.7282 128.659ZM107.982 126.148C107.299 126.148 106.709 125.997 106.214 125.695C105.721 125.391 105.341 124.966 105.074 124.421C104.809 123.873 104.676 123.236 104.676 122.51C104.676 121.784 104.809 121.143 105.074 120.589C105.341 120.032 105.714 119.598 106.191 119.288C106.671 118.974 107.231 118.817 107.871 118.817C108.24 118.817 108.605 118.878 108.965 119.001C109.325 119.125 109.653 119.325 109.949 119.602C110.244 119.875 110.479 120.239 110.655 120.691C110.83 121.143 110.918 121.701 110.918 122.362V122.824H105.452V121.882H109.81C109.81 121.482 109.73 121.125 109.57 120.811C109.413 120.497 109.188 120.249 108.896 120.068C108.607 119.886 108.265 119.795 107.871 119.795C107.437 119.795 107.062 119.903 106.745 120.119C106.431 120.331 106.189 120.608 106.02 120.95C105.851 121.291 105.766 121.657 105.766 122.048V122.676C105.766 123.212 105.858 123.666 106.043 124.038C106.231 124.407 106.491 124.689 106.823 124.883C107.156 125.074 107.542 125.169 107.982 125.169C108.268 125.169 108.527 125.129 108.757 125.049C108.991 124.966 109.193 124.843 109.362 124.68C109.531 124.513 109.662 124.307 109.755 124.061L110.807 124.357C110.696 124.714 110.51 125.027 110.249 125.298C109.987 125.566 109.664 125.775 109.279 125.926C108.894 126.074 108.462 126.148 107.982 126.148ZM112.575 126V118.909H113.628V119.98H113.702C113.831 119.629 114.065 119.345 114.403 119.126C114.742 118.908 115.124 118.798 115.548 118.798C115.628 118.798 115.728 118.8 115.848 118.803C115.968 118.806 116.059 118.811 116.121 118.817V119.925C116.084 119.915 115.999 119.902 115.867 119.883C115.738 119.862 115.601 119.851 115.456 119.851C115.111 119.851 114.804 119.923 114.533 120.068C114.265 120.209 114.053 120.406 113.896 120.659C113.742 120.908 113.665 121.193 113.665 121.513V126H112.575ZM121.216 126V116.545H124.411C125.152 116.545 125.759 116.679 126.23 116.947C126.704 117.212 127.054 117.57 127.282 118.023C127.51 118.475 127.624 118.98 127.624 119.537C127.624 120.094 127.51 120.6 127.282 121.056C127.058 121.511 126.71 121.874 126.239 122.145C125.768 122.413 125.165 122.547 124.429 122.547H122.139V121.531H124.392C124.9 121.531 125.308 121.444 125.616 121.268C125.923 121.093 126.147 120.856 126.285 120.557C126.427 120.256 126.497 119.915 126.497 119.537C126.497 119.158 126.427 118.82 126.285 118.521C126.147 118.223 125.922 117.989 125.611 117.82C125.3 117.647 124.888 117.561 124.374 117.561H122.361V126H121.216ZM129.32 126V118.909H130.373V119.98H130.447C130.576 119.629 130.81 119.345 131.149 119.126C131.487 118.908 131.869 118.798 132.293 118.798C132.373 118.798 132.473 118.8 132.593 118.803C132.714 118.806 132.804 118.811 132.866 118.817V119.925C132.829 119.915 132.744 119.902 132.612 119.883C132.483 119.862 132.346 119.851 132.201 119.851C131.856 119.851 131.549 119.923 131.278 120.068C131.01 120.209 130.798 120.406 130.641 120.659C130.487 120.908 130.41 121.193 130.41 121.513V126H129.32ZM136.822 126.148C136.182 126.148 135.62 125.995 135.137 125.691C134.657 125.386 134.282 124.96 134.011 124.412C133.743 123.864 133.609 123.224 133.609 122.491C133.609 121.753 133.743 121.108 134.011 120.557C134.282 120.006 134.657 119.578 135.137 119.274C135.62 118.969 136.182 118.817 136.822 118.817C137.462 118.817 138.022 118.969 138.503 119.274C138.986 119.578 139.361 120.006 139.629 120.557C139.9 121.108 140.035 121.753 140.035 122.491C140.035 123.224 139.9 123.864 139.629 124.412C139.361 124.96 138.986 125.386 138.503 125.691C138.022 125.995 137.462 126.148 136.822 126.148ZM136.822 125.169C137.308 125.169 137.709 125.044 138.022 124.795C138.336 124.546 138.569 124.218 138.72 123.812C138.87 123.406 138.946 122.965 138.946 122.491C138.946 122.018 138.87 121.576 138.72 121.167C138.569 120.757 138.336 120.426 138.022 120.174C137.709 119.922 137.308 119.795 136.822 119.795C136.336 119.795 135.936 119.922 135.622 120.174C135.308 120.426 135.076 120.757 134.925 121.167C134.774 121.576 134.699 122.018 134.699 122.491C134.699 122.965 134.774 123.406 134.925 123.812C135.076 124.218 135.308 124.546 135.622 124.795C135.936 125.044 136.336 125.169 136.822 125.169ZM142.788 121.734V126H141.698V116.545H142.788V120.017H142.88C143.046 119.651 143.296 119.36 143.628 119.145C143.963 118.926 144.41 118.817 144.967 118.817C145.45 118.817 145.873 118.914 146.236 119.108C146.599 119.298 146.881 119.592 147.081 119.989C147.284 120.383 147.386 120.885 147.386 121.494V126H146.296V121.568C146.296 121.005 146.15 120.569 145.858 120.262C145.568 119.951 145.167 119.795 144.653 119.795C144.296 119.795 143.976 119.871 143.693 120.022C143.413 120.172 143.191 120.393 143.028 120.682C142.868 120.971 142.788 121.322 142.788 121.734ZM149.379 126V118.909H150.468V126H149.379ZM149.933 117.727C149.721 117.727 149.537 117.655 149.384 117.51C149.233 117.366 149.157 117.192 149.157 116.989C149.157 116.786 149.233 116.612 149.384 116.467C149.537 116.322 149.721 116.25 149.933 116.25C150.145 116.25 150.327 116.322 150.478 116.467C150.632 116.612 150.709 116.786 150.709 116.989C150.709 117.192 150.632 117.366 150.478 117.51C150.327 117.655 150.145 117.727 149.933 117.727ZM152.612 126V116.545H153.701V120.036H153.794C153.874 119.912 153.984 119.755 154.126 119.565C154.271 119.371 154.477 119.198 154.744 119.048C155.015 118.894 155.382 118.817 155.843 118.817C156.44 118.817 156.967 118.966 157.422 119.265C157.878 119.563 158.233 119.986 158.488 120.534C158.744 121.082 158.872 121.728 158.872 122.473C158.872 123.224 158.744 123.875 158.488 124.426C158.233 124.974 157.879 125.398 157.427 125.7C156.974 125.998 156.453 126.148 155.862 126.148C155.406 126.148 155.041 126.072 154.768 125.922C154.494 125.768 154.283 125.594 154.135 125.4C153.987 125.203 153.874 125.04 153.794 124.911H153.664V126H152.612ZM153.683 122.455C153.683 122.99 153.761 123.462 153.918 123.872C154.075 124.278 154.304 124.597 154.606 124.827C154.908 125.055 155.277 125.169 155.714 125.169C156.169 125.169 156.55 125.049 156.854 124.809C157.162 124.566 157.393 124.24 157.547 123.83C157.704 123.418 157.782 122.959 157.782 122.455C157.782 121.956 157.705 121.507 157.551 121.107C157.401 120.703 157.171 120.385 156.863 120.151C156.559 119.914 156.176 119.795 155.714 119.795C155.271 119.795 154.898 119.908 154.597 120.132C154.295 120.354 154.067 120.665 153.914 121.065C153.76 121.462 153.683 121.925 153.683 122.455ZM160.538 126V118.909H161.628V126H160.538ZM161.092 117.727C160.88 117.727 160.697 117.655 160.543 117.51C160.392 117.366 160.317 117.192 160.317 116.989C160.317 116.786 160.392 116.612 160.543 116.467C160.697 116.322 160.88 116.25 161.092 116.25C161.305 116.25 161.486 116.322 161.637 116.467C161.791 116.612 161.868 116.786 161.868 116.989C161.868 117.192 161.791 117.366 161.637 117.51C161.486 117.655 161.305 117.727 161.092 117.727ZM166.707 118.909V119.832H163.032V118.909H166.707ZM164.103 117.21H165.193V123.969C165.193 124.277 165.237 124.507 165.327 124.661C165.419 124.812 165.536 124.914 165.677 124.966C165.822 125.015 165.974 125.04 166.134 125.04C166.255 125.04 166.353 125.034 166.43 125.021C166.507 125.006 166.568 124.994 166.615 124.984L166.836 125.963C166.762 125.991 166.659 126.018 166.527 126.046C166.395 126.077 166.227 126.092 166.024 126.092C165.716 126.092 165.414 126.026 165.119 125.894C164.826 125.761 164.583 125.56 164.389 125.289C164.199 125.018 164.103 124.677 164.103 124.264V117.21ZM173.242 120.497L172.263 120.774C172.201 120.611 172.111 120.453 171.991 120.299C171.874 120.142 171.714 120.012 171.51 119.911C171.307 119.809 171.047 119.759 170.73 119.759C170.296 119.759 169.935 119.859 169.645 120.059C169.359 120.256 169.216 120.506 169.216 120.811C169.216 121.082 169.314 121.296 169.511 121.453C169.708 121.61 170.016 121.741 170.435 121.845L171.487 122.104C172.121 122.258 172.594 122.493 172.905 122.81C173.215 123.124 173.371 123.529 173.371 124.024C173.371 124.43 173.254 124.794 173.02 125.114C172.789 125.434 172.466 125.686 172.051 125.871C171.635 126.055 171.152 126.148 170.601 126.148C169.878 126.148 169.279 125.991 168.805 125.677C168.331 125.363 168.031 124.904 167.905 124.301L168.939 124.043C169.037 124.424 169.224 124.71 169.498 124.901C169.775 125.092 170.136 125.188 170.582 125.188C171.09 125.188 171.493 125.08 171.792 124.864C172.094 124.646 172.244 124.384 172.244 124.08C172.244 123.833 172.158 123.627 171.986 123.461C171.814 123.292 171.549 123.165 171.192 123.082L170.01 122.805C169.361 122.652 168.884 122.413 168.579 122.09C168.277 121.764 168.127 121.356 168.127 120.866C168.127 120.466 168.239 120.112 168.464 119.805C168.691 119.497 169.001 119.255 169.391 119.08C169.785 118.904 170.232 118.817 170.73 118.817C171.432 118.817 171.983 118.971 172.383 119.278C172.786 119.586 173.072 119.992 173.242 120.497ZM24.2898 132.545V142H23.1449V132.545H24.2898ZM26.4376 142V134.909H27.4901V136.017H27.5825C27.7302 135.638 27.9687 135.345 28.298 135.135C28.6273 134.923 29.0228 134.817 29.4845 134.817C29.9523 134.817 30.3416 134.923 30.6524 135.135C30.9664 135.345 31.211 135.638 31.3865 136.017H31.4603C31.6419 135.651 31.9143 135.36 32.2774 135.145C32.6406 134.926 33.0761 134.817 33.5839 134.817C34.2179 134.817 34.7365 135.015 35.1396 135.412C35.5428 135.806 35.7444 136.42 35.7444 137.254V142H34.6549V137.254C34.6549 136.731 34.5118 136.357 34.2256 136.132C33.9394 135.908 33.6024 135.795 33.2146 135.795C32.716 135.795 32.3298 135.946 32.0558 136.248C31.7819 136.546 31.645 136.925 31.645 137.384V142H30.537V137.143C30.537 136.74 30.4062 136.416 30.1446 136.169C29.883 135.92 29.546 135.795 29.1336 135.795C28.8505 135.795 28.5858 135.871 28.3396 136.022C28.0964 136.172 27.8995 136.382 27.7487 136.65C27.6009 136.914 27.5271 137.22 27.5271 137.568V142H26.4376ZM37.7364 142V134.909H38.789V136.017H38.8813C39.029 135.638 39.2675 135.345 39.5969 135.135C39.9262 134.923 40.3216 134.817 40.7833 134.817C41.2511 134.817 41.6404 134.923 41.9513 135.135C42.2652 135.345 42.5099 135.638 42.6853 136.017H42.7591C42.9407 135.651 43.2131 135.36 43.5763 135.145C43.9394 134.926 44.3749 134.817 44.8827 134.817C45.5167 134.817 46.0353 135.015 46.4385 135.412C46.8416 135.806 47.0432 136.42 47.0432 137.254V142H45.9537V137.254C45.9537 136.731 45.8106 136.357 45.5244 136.132C45.2382 135.908 44.9012 135.795 44.5134 135.795C44.0148 135.795 43.6286 135.946 43.3547 136.248C43.0808 136.546 42.9438 136.925 42.9438 137.384V142H41.8358V137.143C41.8358 136.74 41.705 136.416 41.4434 136.169C41.1818 135.92 40.8448 135.795 40.4324 135.795C40.1493 135.795 39.8846 135.871 39.6384 136.022C39.3953 136.172 39.1983 136.382 39.0475 136.65C38.8998 136.914 38.8259 137.22 38.8259 137.568V142H37.7364ZM51.9159 142.148C51.2758 142.148 50.7141 141.995 50.2309 141.691C49.7508 141.386 49.3753 140.96 49.1045 140.412C48.8367 139.864 48.7029 139.224 48.7029 138.491C48.7029 137.753 48.8367 137.108 49.1045 136.557C49.3753 136.006 49.7508 135.578 50.2309 135.274C50.7141 134.969 51.2758 134.817 51.9159 134.817C52.5561 134.817 53.1162 134.969 53.5963 135.274C54.0795 135.578 54.455 136.006 54.7227 136.557C54.9936 137.108 55.129 137.753 55.129 138.491C55.129 139.224 54.9936 139.864 54.7227 140.412C54.455 140.96 54.0795 141.386 53.5963 141.691C53.1162 141.995 52.5561 142.148 51.9159 142.148ZM51.9159 141.169C52.4022 141.169 52.8023 141.044 53.1162 140.795C53.4301 140.546 53.6625 140.218 53.8133 139.812C53.9641 139.406 54.0395 138.965 54.0395 138.491C54.0395 138.018 53.9641 137.576 53.8133 137.167C53.6625 136.757 53.4301 136.426 53.1162 136.174C52.8023 135.922 52.4022 135.795 51.9159 135.795C51.4297 135.795 51.0296 135.922 50.7156 136.174C50.4017 136.426 50.1694 136.757 50.0186 137.167C49.8677 137.576 49.7923 138.018 49.7923 138.491C49.7923 138.965 49.8677 139.406 50.0186 139.812C50.1694 140.218 50.4017 140.546 50.7156 140.795C51.0296 141.044 51.4297 141.169 51.9159 141.169ZM56.7921 142V134.909H57.8446V135.98H57.9185C58.0478 135.629 58.2817 135.345 58.6202 135.126C58.9587 134.908 59.3404 134.798 59.7651 134.798C59.8451 134.798 59.9451 134.8 60.0652 134.803C60.1852 134.806 60.276 134.811 60.3375 134.817V135.925C60.3006 135.915 60.216 135.902 60.0836 135.883C59.9544 135.862 59.8174 135.851 59.6728 135.851C59.3281 135.851 59.0203 135.923 58.7495 136.068C58.4817 136.209 58.2694 136.406 58.1124 136.659C57.9585 136.908 57.8816 137.193 57.8816 137.513V142H56.7921ZM63.7156 142.166C63.2663 142.166 62.8585 142.082 62.4923 141.912C62.126 141.74 61.8352 141.492 61.6198 141.169C61.4043 140.843 61.2966 140.449 61.2966 139.987C61.2966 139.581 61.3766 139.252 61.5367 138.999C61.6967 138.744 61.9106 138.544 62.1784 138.399C62.4461 138.254 62.7416 138.147 63.0647 138.076C63.391 138.002 63.7187 137.944 64.048 137.901C64.4789 137.845 64.8282 137.804 65.096 137.776C65.3668 137.745 65.5638 137.694 65.6869 137.624C65.8131 137.553 65.8762 137.43 65.8762 137.254V137.217C65.8762 136.762 65.7515 136.408 65.5022 136.156C65.256 135.903 64.8821 135.777 64.3804 135.777C63.8603 135.777 63.4525 135.891 63.157 136.119C62.8616 136.346 62.6539 136.589 62.5338 136.848L61.4997 136.479C61.6844 136.048 61.9306 135.712 62.2384 135.472C62.5492 135.229 62.8878 135.06 63.254 134.964C63.6233 134.866 63.9865 134.817 64.3435 134.817C64.5712 134.817 64.8328 134.844 65.1283 134.9C65.4268 134.952 65.7146 135.061 65.9916 135.228C66.2716 135.394 66.504 135.645 66.6887 135.98C66.8733 136.316 66.9656 136.765 66.9656 137.328V142H65.8762V141.04H65.8208C65.7469 141.194 65.6238 141.358 65.4514 141.534C65.2791 141.709 65.0498 141.858 64.7636 141.982C64.4774 142.105 64.128 142.166 63.7156 142.166ZM63.8818 141.188C64.3127 141.188 64.6759 141.103 64.9713 140.934C65.2699 140.764 65.4945 140.546 65.6453 140.278C65.7992 140.01 65.8762 139.729 65.8762 139.433V138.436C65.83 138.491 65.7284 138.542 65.5715 138.588C65.4176 138.632 65.2391 138.67 65.036 138.704C64.8359 138.735 64.6405 138.762 64.4497 138.787C64.2619 138.808 64.1096 138.827 63.9926 138.842C63.7095 138.879 63.4448 138.939 63.1986 139.022C62.9555 139.102 62.7585 139.224 62.6077 139.387C62.46 139.547 62.3861 139.766 62.3861 140.043C62.3861 140.421 62.5261 140.707 62.8062 140.901C63.0893 141.092 63.4479 141.188 63.8818 141.188ZM70.0437 132.545V142H68.9542V132.545H70.0437ZM72.0392 142V134.909H73.1286V142H72.0392ZM72.5931 133.727C72.3808 133.727 72.1977 133.655 72.0438 133.51C71.893 133.366 71.8176 133.192 71.8176 132.989C71.8176 132.786 71.893 132.612 72.0438 132.467C72.1977 132.322 72.3808 132.25 72.5931 132.25C72.8055 132.25 72.9871 132.322 73.1379 132.467C73.2918 132.612 73.3687 132.786 73.3687 132.989C73.3687 133.192 73.2918 133.366 73.1379 133.51C72.9871 133.655 72.8055 133.727 72.5931 133.727ZM78.2079 134.909V135.832H74.5332V134.909H78.2079ZM75.6042 133.21H76.6937V139.969C76.6937 140.277 76.7383 140.507 76.8276 140.661C76.9199 140.812 77.0369 140.914 77.1784 140.966C77.3231 141.015 77.4754 141.04 77.6355 141.04C77.7555 141.04 77.854 141.034 77.9309 141.021C78.0079 141.006 78.0694 140.994 78.1156 140.984L78.3372 141.963C78.2633 141.991 78.1602 142.018 78.0279 142.046C77.8955 142.077 77.7278 142.092 77.5247 142.092C77.2169 142.092 76.9153 142.026 76.6199 141.894C76.3275 141.761 76.0843 141.56 75.8904 141.289C75.6996 141.018 75.6042 140.677 75.6042 140.264V133.21ZM80.5485 144.659C80.3638 144.659 80.1992 144.644 80.0545 144.613C79.9099 144.585 79.8098 144.558 79.7544 144.53L80.0314 143.57C80.2961 143.637 80.53 143.662 80.7331 143.643C80.9363 143.625 81.1163 143.534 81.2733 143.371C81.4333 143.211 81.5795 142.951 81.7118 142.591L81.915 142.037L79.2928 134.909H80.4746L82.432 140.56H82.5059L84.4632 134.909H85.6451L82.6351 143.034C82.4997 143.4 82.332 143.703 82.1319 143.944C81.9319 144.187 81.6995 144.367 81.4348 144.484C81.1732 144.601 80.8778 144.659 80.5485 144.659ZM91.2749 142H90.0746L93.5462 132.545H94.728L98.1996 142H96.9993L94.174 134.041H94.1001L91.2749 142ZM91.718 138.307H96.5561V139.322H91.718V138.307ZM100.614 137.734V142H99.5245V134.909H100.577V136.017H100.669C100.836 135.657 101.088 135.368 101.426 135.149C101.765 134.928 102.202 134.817 102.738 134.817C103.218 134.817 103.638 134.915 103.998 135.112C104.358 135.306 104.638 135.602 104.838 135.999C105.038 136.393 105.138 136.891 105.138 137.494V142H104.049V137.568C104.049 137.011 103.904 136.577 103.615 136.266C103.325 135.952 102.928 135.795 102.424 135.795C102.076 135.795 101.765 135.871 101.491 136.022C101.22 136.172 101.006 136.393 100.849 136.682C100.692 136.971 100.614 137.322 100.614 137.734ZM109.807 142.148C109.216 142.148 108.694 141.998 108.242 141.7C107.789 141.398 107.435 140.974 107.18 140.426C106.924 139.875 106.797 139.224 106.797 138.473C106.797 137.728 106.924 137.082 107.18 136.534C107.435 135.986 107.791 135.563 108.246 135.265C108.702 134.966 109.228 134.817 109.825 134.817C110.287 134.817 110.651 134.894 110.919 135.048C111.19 135.198 111.396 135.371 111.538 135.565C111.682 135.755 111.795 135.912 111.875 136.036H111.967V132.545H113.057V142H112.004V140.911H111.875C111.795 141.04 111.681 141.203 111.533 141.4C111.385 141.594 111.175 141.768 110.901 141.922C110.627 142.072 110.262 142.148 109.807 142.148ZM109.954 141.169C110.391 141.169 110.761 141.055 111.062 140.827C111.364 140.597 111.593 140.278 111.75 139.872C111.907 139.462 111.986 138.99 111.986 138.455C111.986 137.925 111.909 137.462 111.755 137.065C111.601 136.665 111.373 136.354 111.071 136.132C110.77 135.908 110.397 135.795 109.954 135.795C109.493 135.795 109.108 135.914 108.8 136.151C108.495 136.385 108.266 136.703 108.112 137.107C107.961 137.507 107.886 137.956 107.886 138.455C107.886 138.959 107.963 139.418 108.117 139.83C108.274 140.24 108.505 140.566 108.809 140.809C109.117 141.049 109.499 141.169 109.954 141.169ZM120.725 142L118.139 132.545H119.303L121.278 140.246H121.371L123.384 132.545H124.676L126.689 140.246H126.781L128.757 132.545H129.921L127.335 142H126.153L124.067 134.466H123.993L121.906 142H120.725ZM130.755 142V134.909H131.808V135.98H131.881C132.011 135.629 132.245 135.345 132.583 135.126C132.922 134.908 133.303 134.798 133.728 134.798C133.808 134.798 133.908 134.8 134.028 134.803C134.148 134.806 134.239 134.811 134.3 134.817V135.925C134.263 135.915 134.179 135.902 134.047 135.883C133.917 135.862 133.78 135.851 133.636 135.851C133.291 135.851 132.983 135.923 132.712 136.068C132.445 136.209 132.232 136.406 132.075 136.659C131.921 136.908 131.844 137.193 131.844 137.513V142H130.755ZM138.257 142.148C137.617 142.148 137.055 141.995 136.572 141.691C136.092 141.386 135.716 140.96 135.445 140.412C135.178 139.864 135.044 139.224 135.044 138.491C135.044 137.753 135.178 137.108 135.445 136.557C135.716 136.006 136.092 135.578 136.572 135.274C137.055 134.969 137.617 134.817 138.257 134.817C138.897 134.817 139.457 134.969 139.937 135.274C140.42 135.578 140.796 136.006 141.064 136.557C141.334 137.108 141.47 137.753 141.47 138.491C141.47 139.224 141.334 139.864 141.064 140.412C140.796 140.96 140.42 141.386 139.937 141.691C139.457 141.995 138.897 142.148 138.257 142.148ZM138.257 141.169C138.743 141.169 139.143 141.044 139.457 140.795C139.771 140.546 140.003 140.218 140.154 139.812C140.305 139.406 140.38 138.965 140.38 138.491C140.38 138.018 140.305 137.576 140.154 137.167C140.003 136.757 139.771 136.426 139.457 136.174C139.143 135.922 138.743 135.795 138.257 135.795C137.77 135.795 137.37 135.922 137.056 136.174C136.743 136.426 136.51 136.757 136.359 137.167C136.209 137.576 136.133 138.018 136.133 138.491C136.133 138.965 136.209 139.406 136.359 139.812C136.51 140.218 136.743 140.546 137.056 140.795C137.37 141.044 137.77 141.169 138.257 141.169ZM144.222 137.734V142H143.133V134.909H144.185V136.017H144.278C144.444 135.657 144.696 135.368 145.035 135.149C145.373 134.928 145.81 134.817 146.346 134.817C146.826 134.817 147.246 134.915 147.606 135.112C147.966 135.306 148.246 135.602 148.446 135.999C148.647 136.393 148.747 136.891 148.747 137.494V142H147.657V137.568C147.657 137.011 147.512 136.577 147.223 136.266C146.934 135.952 146.537 135.795 146.032 135.795C145.684 135.795 145.373 135.871 145.1 136.022C144.829 136.172 144.615 136.393 144.458 136.682C144.301 136.971 144.222 137.322 144.222 137.734ZM153.6 144.807C153.073 144.807 152.621 144.739 152.242 144.604C151.864 144.471 151.548 144.296 151.296 144.077C151.047 143.862 150.848 143.631 150.7 143.385L151.568 142.776C151.667 142.905 151.791 143.053 151.942 143.219C152.093 143.388 152.299 143.534 152.561 143.657C152.826 143.783 153.172 143.847 153.6 143.847C154.172 143.847 154.644 143.708 155.017 143.431C155.389 143.154 155.575 142.72 155.575 142.129V140.689H155.483C155.403 140.818 155.289 140.978 155.142 141.169C154.997 141.357 154.788 141.525 154.514 141.672C154.243 141.817 153.877 141.889 153.415 141.889C152.843 141.889 152.329 141.754 151.873 141.483C151.421 141.212 151.062 140.818 150.797 140.301C150.536 139.784 150.405 139.156 150.405 138.418C150.405 137.691 150.533 137.059 150.788 136.52C151.044 135.979 151.399 135.56 151.855 135.265C152.31 134.966 152.836 134.817 153.433 134.817C153.895 134.817 154.261 134.894 154.532 135.048C154.806 135.198 155.015 135.371 155.16 135.565C155.308 135.755 155.422 135.912 155.502 136.036H155.612V134.909H156.665V142.203C156.665 142.812 156.526 143.308 156.249 143.69C155.976 144.074 155.606 144.356 155.142 144.534C154.68 144.716 154.166 144.807 153.6 144.807ZM153.563 140.911C154 140.911 154.369 140.81 154.671 140.61C154.972 140.41 155.202 140.123 155.358 139.747C155.515 139.372 155.594 138.922 155.594 138.399C155.594 137.888 155.517 137.437 155.363 137.047C155.209 136.656 154.981 136.349 154.68 136.128C154.378 135.906 154.006 135.795 153.563 135.795C153.101 135.795 152.716 135.912 152.409 136.146C152.104 136.38 151.875 136.694 151.721 137.088C151.57 137.482 151.494 137.919 151.494 138.399C151.494 138.892 151.571 139.327 151.725 139.706C151.882 140.081 152.113 140.377 152.418 140.592C152.726 140.804 153.107 140.911 153.563 140.911ZM161.337 142.148C160.746 142.148 160.224 141.998 159.772 141.7C159.319 141.398 158.965 140.974 158.71 140.426C158.455 139.875 158.327 139.224 158.327 138.473C158.327 137.728 158.455 137.082 158.71 136.534C158.965 135.986 159.321 135.563 159.776 135.265C160.232 134.966 160.758 134.817 161.355 134.817C161.817 134.817 162.182 134.894 162.449 135.048C162.72 135.198 162.926 135.371 163.068 135.565C163.213 135.755 163.325 135.912 163.405 136.036H163.497V132.545H164.587V142H163.534V140.911H163.405C163.325 141.04 163.211 141.203 163.063 141.4C162.916 141.594 162.705 141.768 162.431 141.922C162.157 142.072 161.792 142.148 161.337 142.148ZM161.485 141.169C161.922 141.169 162.291 141.055 162.593 140.827C162.894 140.597 163.123 140.278 163.28 139.872C163.437 139.462 163.516 138.99 163.516 138.455C163.516 137.925 163.439 137.462 163.285 137.065C163.131 136.665 162.903 136.354 162.602 136.132C162.3 135.908 161.928 135.795 161.485 135.795C161.023 135.795 160.638 135.914 160.33 136.151C160.026 136.385 159.796 136.703 159.643 137.107C159.492 137.507 159.416 137.956 159.416 138.455C159.416 138.959 159.493 139.418 159.647 139.83C159.804 140.24 160.035 140.566 160.34 140.809C160.647 141.049 161.029 141.169 161.485 141.169ZM169.614 142.148C168.974 142.148 168.412 141.995 167.929 141.691C167.449 141.386 167.074 140.96 166.803 140.412C166.535 139.864 166.401 139.224 166.401 138.491C166.401 137.753 166.535 137.108 166.803 136.557C167.074 136.006 167.449 135.578 167.929 135.274C168.412 134.969 168.974 134.817 169.614 134.817C170.254 134.817 170.814 134.969 171.295 135.274C171.778 135.578 172.153 136.006 172.421 136.557C172.692 137.108 172.827 137.753 172.827 138.491C172.827 139.224 172.692 139.864 172.421 140.412C172.153 140.96 171.778 141.386 171.295 141.691C170.814 141.995 170.254 142.148 169.614 142.148ZM169.614 141.169C170.1 141.169 170.501 141.044 170.814 140.795C171.128 140.546 171.361 140.218 171.512 139.812C171.662 139.406 171.738 138.965 171.738 138.491C171.738 138.018 171.662 137.576 171.512 137.167C171.361 136.757 171.128 136.426 170.814 136.174C170.501 135.922 170.1 135.795 169.614 135.795C169.128 135.795 168.728 135.922 168.414 136.174C168.1 136.426 167.868 136.757 167.717 137.167C167.566 137.576 167.491 138.018 167.491 138.491C167.491 138.965 167.566 139.406 167.717 139.812C167.868 140.218 168.1 140.546 168.414 140.795C168.728 141.044 169.128 141.169 169.614 141.169ZM174.49 142V134.909H175.58V142H174.49ZM175.044 133.727C174.832 133.727 174.649 133.655 174.495 133.51C174.344 133.366 174.269 133.192 174.269 132.989C174.269 132.786 174.344 132.612 174.495 132.467C174.649 132.322 174.832 132.25 175.044 132.25C175.257 132.25 175.438 132.322 175.589 132.467C175.743 132.612 175.82 132.786 175.82 132.989C175.82 133.192 175.743 133.366 175.589 133.51C175.438 133.655 175.257 133.727 175.044 133.727ZM178.665 137.734V142H177.575V134.909H178.628V136.017H178.72C178.886 135.657 179.139 135.368 179.477 135.149C179.816 134.928 180.253 134.817 180.788 134.817C181.268 134.817 181.689 134.915 182.049 135.112C182.409 135.306 182.689 135.602 182.889 135.999C183.089 136.393 183.189 136.891 183.189 137.494V142H182.099V137.568C182.099 137.011 181.955 136.577 181.665 136.266C181.376 135.952 180.979 135.795 180.474 135.795C180.127 135.795 179.816 135.871 179.542 136.022C179.271 136.172 179.057 136.393 178.9 136.682C178.743 136.971 178.665 137.322 178.665 137.734ZM188.042 144.807C187.516 144.807 187.063 144.739 186.685 144.604C186.306 144.471 185.991 144.296 185.738 144.077C185.489 143.862 185.291 143.631 185.143 143.385L186.011 142.776C186.109 142.905 186.234 143.053 186.385 143.219C186.535 143.388 186.742 143.534 187.003 143.657C187.268 143.783 187.614 143.847 188.042 143.847C188.614 143.847 189.087 143.708 189.459 143.431C189.832 143.154 190.018 142.72 190.018 142.129V140.689H189.926C189.845 140.818 189.732 140.978 189.584 141.169C189.439 141.357 189.23 141.525 188.956 141.672C188.685 141.817 188.319 141.889 187.857 141.889C187.285 141.889 186.771 141.754 186.315 141.483C185.863 141.212 185.504 140.818 185.24 140.301C184.978 139.784 184.847 139.156 184.847 138.418C184.847 137.691 184.975 137.059 185.231 136.52C185.486 135.979 185.841 135.56 186.297 135.265C186.752 134.966 187.279 134.817 187.876 134.817C188.337 134.817 188.704 134.894 188.975 135.048C189.248 135.198 189.458 135.371 189.602 135.565C189.75 135.755 189.864 135.912 189.944 136.036H190.055V134.909H191.107V142.203C191.107 142.812 190.969 143.308 190.692 143.69C190.418 144.074 190.049 144.356 189.584 144.534C189.122 144.716 188.608 144.807 188.042 144.807ZM188.005 140.911C188.442 140.911 188.811 140.81 189.113 140.61C189.415 140.41 189.644 140.123 189.801 139.747C189.958 139.372 190.036 138.922 190.036 138.399C190.036 137.888 189.959 137.437 189.805 137.047C189.652 136.656 189.424 136.349 189.122 136.128C188.821 135.906 188.448 135.795 188.005 135.795C187.543 135.795 187.159 135.912 186.851 136.146C186.546 136.38 186.317 136.694 186.163 137.088C186.012 137.482 185.937 137.919 185.937 138.399C185.937 138.892 186.014 139.327 186.168 139.706C186.325 140.081 186.555 140.377 186.86 140.592C187.168 140.804 187.55 140.911 188.005 140.911ZM193.896 142.074C193.668 142.074 193.473 141.992 193.309 141.829C193.146 141.666 193.065 141.471 193.065 141.243C193.065 141.015 193.146 140.82 193.309 140.657C193.473 140.493 193.668 140.412 193.896 140.412C194.123 140.412 194.319 140.493 194.482 140.657C194.645 140.82 194.727 141.015 194.727 141.243C194.727 141.394 194.688 141.532 194.611 141.658C194.537 141.785 194.437 141.886 194.311 141.963C194.188 142.037 194.05 142.074 193.896 142.074ZM196.557 132.545V135.795H195.541V132.545H196.557ZM198.921 132.545V135.795H197.905V132.545H198.921Z" fill="#FBFBFB"/>
<path d="M23.5823 86.477V85.147L28.0663 83.817V85.185L23.5823 86.477ZM19.494 77.468C19.494 77.0247 19.551 76.4737 19.665 75.815C19.7917 75.1437 20.064 74.3457 20.482 73.421L22.819 74.238C22.6037 74.8333 22.439 75.3463 22.325 75.777C22.211 76.195 22.154 76.6067 22.154 77.012C22.154 77.582 22.2807 78.0697 22.534 78.475C22.8 78.8803 23.1863 79.1907 23.693 79.406C24.2123 79.6213 24.8457 79.729 25.593 79.729C26.353 79.729 26.9863 79.6467 27.493 79.482C27.9997 79.3173 28.3987 79.083 28.69 78.779C28.9813 78.4877 29.1903 78.1457 29.317 77.753C29.4437 77.3603 29.507 76.936 29.507 76.48C29.507 76.1253 29.4627 75.7263 29.374 75.283C29.298 74.8397 29.184 74.3583 29.032 73.839C28.88 73.307 28.709 72.7497 28.519 72.167L31.179 71.483C31.3057 71.9643 31.407 72.376 31.483 72.718C31.5717 73.06 31.6477 73.345 31.711 73.573C31.7743 73.7883 31.825 73.9657 31.863 74.105C31.9897 74.485 32.1607 74.77 32.376 74.96C32.5913 75.15 32.87 75.2767 33.212 75.34C33.5667 75.4033 33.991 75.435 34.485 75.435C34.9663 75.435 35.3083 75.5617 35.511 75.815C35.7137 76.0557 35.815 76.3597 35.815 76.727C35.815 77.1197 35.682 77.449 35.416 77.715C35.15 77.9683 34.7763 78.095 34.295 78.095C33.8643 78.095 33.4337 78.038 33.003 77.924C32.585 77.7973 32.224 77.5947 31.92 77.316C31.616 77.0373 31.4197 76.6637 31.331 76.195L32.034 76.955C32.0087 77.8163 31.8377 78.5827 31.521 79.254C31.2043 79.9253 30.761 80.4953 30.191 80.964C29.6337 81.4327 28.956 81.7873 28.158 82.028C27.3727 82.2687 26.4923 82.389 25.517 82.389C24.6683 82.389 23.8767 82.294 23.142 82.104C22.42 81.9267 21.7803 81.6353 21.223 81.23C20.6783 80.8373 20.254 80.3307 19.95 79.71C19.646 79.0893 19.494 78.342 19.494 77.468ZM25.688 70.248C25.2953 70.248 24.9597 70.115 24.681 69.849C24.415 69.583 24.282 69.2537 24.282 68.861C24.282 68.4683 24.415 68.1327 24.681 67.854C24.9597 67.5753 25.2953 67.436 25.688 67.436C26.068 67.436 26.391 67.5753 26.657 67.854C26.9357 68.1327 27.075 68.4683 27.075 68.861C27.075 69.2537 26.9357 69.583 26.657 69.849C26.391 70.115 26.068 70.248 25.688 70.248ZM37.1643 66.79V65.46L41.6483 64.13V65.498L37.1643 66.79ZM34.2891 78.095L34.4791 75.435C35.0744 75.435 35.5304 75.4287 35.8471 75.416C36.1764 75.4033 36.4234 75.3907 36.5881 75.378C36.7527 75.3527 36.8921 75.3337 37.0061 75.321C36.8794 75.1943 36.7147 75.0107 36.5121 74.77C36.3094 74.5293 36.1257 74.219 35.9611 73.839C35.8091 73.459 35.7331 73.003 35.7331 72.471C35.7331 71.6983 35.9294 71.0207 36.3221 70.438C36.7274 69.8553 37.2721 69.3993 37.9561 69.07C38.6401 68.7407 39.4064 68.576 40.2551 68.576C40.6604 68.576 41.0341 68.6013 41.3761 68.652C41.7307 68.7027 42.0854 68.7787 42.4401 68.88L42.0221 71.407C41.7687 71.3437 41.5027 71.293 41.2241 71.255C40.9454 71.217 40.6984 71.198 40.4831 71.198C40.0651 71.198 39.6977 71.2677 39.3811 71.407C39.0771 71.5337 38.8364 71.7173 38.6591 71.958C38.4944 72.186 38.4121 72.4647 38.4121 72.794C38.4121 73.0093 38.4501 73.212 38.5261 73.402C38.6147 73.592 38.7224 73.763 38.8491 73.915C38.9757 74.067 39.1151 74.2 39.2671 74.314C39.4191 74.428 39.5647 74.523 39.7041 74.599C39.8561 74.6623 39.9827 74.7067 40.0841 74.732C40.4007 74.6433 40.6731 74.5673 40.9011 74.504C41.1417 74.428 41.3697 74.3583 41.5851 74.295C41.8131 74.219 42.0601 74.124 42.3261 74.01C42.5921 73.896 42.9214 73.7567 43.3141 73.592L44.1691 76.1C43.1051 76.6193 42.0664 77.0247 41.0531 77.316C40.0397 77.6073 38.9884 77.81 37.8991 77.924C36.8097 78.038 35.6064 78.095 34.2891 78.095ZM52.5886 71.676L52.4556 68.294H54.1846L54.3176 71.676H52.5886ZM49.7567 77.468C49.7567 77.1767 49.782 76.8347 49.8327 76.442C49.8834 76.0493 49.9784 75.606 50.1177 75.112C50.257 74.6053 50.466 74.0417 50.7447 73.421L53.0817 74.238C52.9424 74.6307 52.822 74.9917 52.7207 75.321C52.6194 75.6377 52.5434 75.9353 52.4927 76.214C52.442 76.48 52.4167 76.746 52.4167 77.012C52.4167 77.43 52.5054 77.8037 52.6827 78.133C52.8727 78.475 53.145 78.76 53.4997 78.988C53.8544 79.2287 54.285 79.4123 54.7917 79.539C55.311 79.6657 55.9064 79.729 56.5777 79.729C57.2744 79.729 57.895 79.6973 58.4397 79.634C58.997 79.5707 59.4657 79.4757 59.8457 79.349C60.2384 79.2223 60.536 79.0577 60.7387 78.855C60.9414 78.665 61.0427 78.4433 61.0427 78.19C61.0427 78.076 60.9984 77.9683 60.9097 77.867C60.8337 77.7657 60.7007 77.658 60.5107 77.544C60.3334 77.43 60.0927 77.3097 59.7887 77.183C59.4974 77.0563 59.1427 76.917 58.7247 76.765L59.3517 74.086C59.8964 74.314 60.4094 74.5167 60.8907 74.694C61.3847 74.8587 61.8534 74.998 62.2967 75.112C62.74 75.2133 63.158 75.2957 63.5507 75.359C63.9434 75.4097 64.3107 75.435 64.6527 75.435C65.134 75.435 65.476 75.5617 65.6787 75.815C65.8814 76.0557 65.9827 76.3597 65.9827 76.727C65.9827 77.1197 65.8497 77.449 65.5837 77.715C65.3177 77.9683 64.944 78.095 64.4627 78.095C64.3614 78.095 64.26 78.095 64.1587 78.095C64.07 78.095 63.975 78.095 63.8737 78.095C63.785 78.095 63.69 78.095 63.5887 78.095C63.614 78.2217 63.6267 78.3293 63.6267 78.418C63.6267 78.5193 63.6267 78.6143 63.6267 78.703C63.6267 79.121 63.481 79.5453 63.1897 79.976C62.911 80.4067 62.474 80.8057 61.8787 81.173C61.2834 81.5403 60.5234 81.8317 59.5987 82.047C58.6867 82.275 57.5974 82.389 56.3307 82.389C54.9627 82.389 53.7847 82.2117 52.7967 81.857C51.8214 81.515 51.0677 80.9767 50.5357 80.242C50.0164 79.52 49.7567 78.5953 49.7567 77.468ZM68.3547 66.79V65.46L72.8387 64.13V65.498L68.3547 66.79ZM70.843 82.18C69.9437 82.18 69.114 81.9837 68.354 81.591C67.594 81.211 66.986 80.6093 66.53 79.786C66.074 78.9753 65.846 77.9303 65.846 76.651C65.846 75.5237 65.979 74.4913 66.245 73.554C66.511 72.604 66.872 71.787 67.328 71.103C67.7967 70.4063 68.3223 69.868 68.905 69.488C69.4877 69.108 70.102 68.918 70.748 68.918C71.2293 68.918 71.6853 69.0573 72.116 69.336C72.5467 69.602 72.9013 69.9947 73.18 70.514C73.4587 71.0333 73.598 71.6667 73.598 72.414C73.598 72.8193 73.5157 73.2753 73.351 73.782C73.1863 74.2887 72.895 74.77 72.477 75.226C72.0717 75.6693 71.5017 76.024 70.767 76.29L71.223 74.789C71.6283 74.941 72.0653 75.0677 72.534 75.169C73.0027 75.2577 73.4903 75.3273 73.997 75.378C74.5037 75.416 74.9977 75.435 75.479 75.435C75.9603 75.435 76.3023 75.5617 76.505 75.815C76.7203 76.0557 76.828 76.3597 76.828 76.727C76.828 77.1197 76.695 77.449 76.429 77.715C76.163 77.9683 75.783 78.095 75.289 78.095C74.9343 78.095 74.529 78.076 74.073 78.038C73.6297 78 73.1927 77.9493 72.762 77.886C72.344 77.8227 71.9893 77.753 71.698 77.677L73.769 77.202C74.0603 77.5567 74.2567 77.9493 74.358 78.38C74.472 78.8233 74.4847 79.2667 74.396 79.71C74.32 80.1533 74.1363 80.5587 73.845 80.926C73.5663 81.306 73.1737 81.61 72.667 81.838C72.173 82.066 71.565 82.18 70.843 82.18ZM64.459 78.095L64.649 75.435C64.8643 75.435 65.1493 75.435 65.504 75.435C65.8713 75.435 66.1943 75.435 66.473 75.435L66.682 77.848C66.3147 77.924 65.9157 77.981 65.485 78.019C65.067 78.0697 64.725 78.095 64.459 78.095ZM70.767 79.558C71.0203 79.558 71.2293 79.5137 71.394 79.425C71.5587 79.349 71.679 79.235 71.755 79.083C71.8437 78.9437 71.888 78.7853 71.888 78.608C71.888 78.456 71.8373 78.285 71.736 78.095C71.6347 77.905 71.4447 77.7403 71.166 77.601C70.8873 77.449 70.4883 77.373 69.969 77.373C69.779 77.373 69.57 77.3857 69.342 77.411C69.1267 77.4363 68.8923 77.4743 68.639 77.525C68.3857 77.563 68.126 77.6137 67.86 77.677L67.955 75.397C68.4363 75.359 68.867 75.283 69.247 75.169C69.627 75.0423 69.9437 74.8777 70.197 74.675C70.463 74.4597 70.6657 74.2 70.805 73.896C70.9443 73.592 71.014 73.2373 71.014 72.832C71.014 72.6293 70.995 72.433 70.957 72.243C70.919 72.0403 70.862 71.8757 70.786 71.749C70.71 71.6097 70.615 71.54 70.501 71.54C70.2983 71.54 70.083 71.654 69.855 71.882C69.627 72.11 69.4117 72.4393 69.209 72.87C69.0063 73.288 68.8353 73.7947 68.696 74.39C68.5693 74.9727 68.506 75.625 68.506 76.347C68.506 76.955 68.5693 77.468 68.696 77.886C68.8227 78.2913 68.9937 78.6143 69.209 78.855C69.4243 79.1083 69.665 79.2857 69.931 79.387C70.2097 79.501 70.4883 79.558 70.767 79.558ZM78.8035 64.258C78.1955 64.258 77.7332 64.0743 77.4165 63.707C77.0999 63.327 76.9415 62.8837 76.9415 62.377C76.9415 61.9717 77.0239 61.6043 77.1885 61.275C77.3659 60.933 77.6002 60.6607 77.8915 60.458C78.1829 60.2553 78.5185 60.154 78.8985 60.154C79.2532 60.154 79.5635 60.2553 79.8295 60.458C80.1082 60.6607 80.3235 60.9267 80.4755 61.256C80.6402 61.5727 80.7225 61.9147 80.7225 62.282C80.7225 62.8267 80.5452 63.2953 80.1905 63.688C79.8359 64.068 79.3735 64.258 78.8035 64.258ZM78.7845 63.042C78.9999 63.042 79.1835 62.9723 79.3355 62.833C79.5002 62.6937 79.5825 62.51 79.5825 62.282C79.5825 62.0413 79.5002 61.845 79.3355 61.693C79.1709 61.5283 78.9935 61.446 78.8035 61.446C78.5629 61.446 78.3729 61.5283 78.2335 61.693C78.1069 61.8577 78.0435 62.0477 78.0435 62.263C78.0435 62.491 78.1132 62.681 78.2525 62.833C78.3919 62.9723 78.5692 63.042 78.7845 63.042ZM75.3135 78.095L75.5035 75.435C75.9848 75.435 76.3648 75.3907 76.6435 75.302C76.9348 75.2133 77.1628 75.036 77.3275 74.77C77.5048 74.4913 77.6505 74.086 77.7645 73.554C77.8911 73.022 78.0178 72.3127 78.1445 71.426L80.6335 71.844C80.6081 72.034 80.5701 72.2557 80.5195 72.509C80.4815 72.7623 80.4435 73.022 80.4055 73.288C80.3801 73.5413 80.3675 73.782 80.3675 74.01C80.3675 74.314 80.4308 74.5737 80.5575 74.789C80.6968 74.9917 80.9375 75.15 81.2795 75.264C81.6341 75.378 82.1408 75.435 82.7995 75.435C83.2808 75.435 83.6228 75.5617 83.8255 75.815C84.0281 76.0557 84.1295 76.3597 84.1295 76.727C84.1295 77.1197 83.9965 77.449 83.7305 77.715C83.4771 77.9683 83.1035 78.095 82.6095 78.095C81.7355 78.095 81.0261 78.0127 80.4815 77.848C79.9368 77.6833 79.5315 77.4047 79.2655 77.012C78.9995 76.6193 78.8285 76.081 78.7525 75.397H79.6645C79.4365 76.005 79.1705 76.4927 78.8665 76.86C78.5625 77.2147 78.2205 77.4807 77.8405 77.658C77.4605 77.8353 77.0551 77.9493 76.6245 78C76.2065 78.0633 75.7695 78.095 75.3135 78.095ZM79.1895 69.488C78.7968 69.488 78.4611 69.355 78.1825 69.089C77.9165 68.823 77.7835 68.4937 77.7835 68.101C77.7835 67.7083 77.9165 67.3727 78.1825 67.094C78.4611 66.8153 78.7968 66.676 79.1895 66.676C79.5695 66.676 79.8925 66.8153 80.1585 67.094C80.4371 67.3727 80.5765 67.7083 80.5765 68.101C80.5765 68.4937 80.4371 68.823 80.1585 69.089C79.8925 69.355 79.5695 69.488 79.1895 69.488ZM83.5881 62.79V61.46L88.0721 60.13V61.498L83.5881 62.79ZM82.6055 78.095L82.7955 75.435C83.5555 75.435 84.1381 75.397 84.5435 75.321C84.9488 75.245 85.2275 75.1057 85.3795 74.903C85.5441 74.6877 85.6265 74.3837 85.6265 73.991C85.6265 73.6363 85.5758 73.212 85.4745 72.718C85.3858 72.224 85.2655 71.711 85.1135 71.179C84.9741 70.647 84.8221 70.1593 84.6575 69.716L87.2795 68.994C87.4441 69.4247 87.6025 69.925 87.7545 70.495C87.9065 71.065 88.0331 71.654 88.1345 72.262C88.2358 72.8573 88.2865 73.4337 88.2865 73.991C88.2865 74.8523 88.1471 75.5553 87.8685 76.1C87.5898 76.632 87.1971 77.0437 86.6905 77.335C86.1965 77.6263 85.6011 77.829 84.9045 77.943C84.2078 78.0443 83.4415 78.095 82.6055 78.095ZM87.7545 67.455C87.3871 67.455 87.0705 67.3283 86.8045 67.075C86.5511 66.809 86.4245 66.4987 86.4245 66.144C86.4245 65.7767 86.5511 65.46 86.8045 65.194C87.0705 64.928 87.3871 64.795 87.7545 64.795C88.1091 64.795 88.4131 64.928 88.6665 65.194C88.9198 65.46 89.0465 65.7767 89.0465 66.144C89.0465 66.4987 88.9198 66.809 88.6665 67.075C88.4131 67.3283 88.1091 67.455 87.7545 67.455ZM84.4675 67.436C84.1001 67.436 83.7835 67.3093 83.5175 67.056C83.2641 66.79 83.1375 66.4797 83.1375 66.125C83.1375 65.7577 83.2641 65.441 83.5175 65.175C83.7835 64.909 84.1001 64.776 84.4675 64.776C84.8221 64.776 85.1261 64.909 85.3795 65.175C85.6328 65.441 85.7595 65.7577 85.7595 66.125C85.7595 66.4797 85.6328 66.79 85.3795 67.056C85.1261 67.3093 84.8221 67.436 84.4675 67.436ZM95.6487 61.79V60.46L100.133 59.13V60.498L95.6487 61.79ZM98.0681 78.057C97.3587 78.057 96.7191 77.9367 96.1491 77.696C95.5917 77.4427 95.1484 77.069 94.8191 76.575C94.5024 76.0683 94.3441 75.4413 94.3441 74.694C94.3441 73.9467 94.5974 73.117 95.1041 72.205C95.6107 71.2803 96.4594 70.3557 97.6501 69.431L97.4601 71.179L95.7501 69.849L97.5361 67.664C98.4987 68.3987 99.3221 69.1143 100.006 69.811C100.703 70.495 101.235 71.198 101.602 71.92C101.969 72.642 102.153 73.4083 102.153 74.219C102.153 74.6117 102.09 75.036 101.963 75.492C101.836 75.9353 101.621 76.3533 101.317 76.746C101.013 77.126 100.595 77.4427 100.063 77.696C99.5437 77.9367 98.8787 78.057 98.0681 78.057ZM98.2771 75.435C98.5937 75.435 98.8471 75.3717 99.0371 75.245C99.2397 75.1183 99.3917 74.9537 99.4931 74.751C99.5944 74.5483 99.6451 74.333 99.6451 74.105C99.6451 73.877 99.5944 73.63 99.4931 73.364C99.3917 73.098 99.1954 72.8003 98.9041 72.471C98.6127 72.1417 98.1821 71.7617 97.6121 71.331L99.0561 71.141C98.5367 71.4957 98.1187 71.8567 97.8021 72.224C97.4854 72.5913 97.2574 72.946 97.1181 73.288C96.9914 73.6173 96.9281 73.9213 96.9281 74.2C96.9281 74.6053 97.0611 74.9157 97.3271 75.131C97.5931 75.3337 97.9097 75.435 98.2771 75.435ZM99.8351 66.239C99.4677 66.239 99.1511 66.1123 98.8851 65.859C98.6317 65.593 98.5051 65.2827 98.5051 64.928C98.5051 64.5607 98.6317 64.244 98.8851 63.978C99.1511 63.712 99.4677 63.579 99.8351 63.579C100.19 63.579 100.494 63.712 100.747 63.978C101 64.244 101.127 64.5607 101.127 64.928C101.127 65.2827 101 65.593 100.747 65.859C100.494 66.1123 100.19 66.239 99.8351 66.239ZM96.5481 66.22C96.1807 66.22 95.8641 66.0933 95.5981 65.84C95.3447 65.574 95.2181 65.2637 95.2181 64.909C95.2181 64.5417 95.3447 64.225 95.5981 63.959C95.8641 63.693 96.1807 63.56 96.5481 63.56C96.9027 63.56 97.2067 63.693 97.4601 63.959C97.7134 64.225 97.8401 64.5417 97.8401 64.909C97.8401 65.2637 97.7134 65.574 97.4601 65.84C97.2067 66.0933 96.9027 66.22 96.5481 66.22ZM109.843 61.79V60.46L114.327 59.13V60.498L109.843 61.79ZM115.694 78.095C114.808 78.095 114.073 78.0317 113.49 77.905C112.92 77.7657 112.471 77.5567 112.141 77.278C111.812 76.9867 111.578 76.6257 111.438 76.195C111.299 75.7643 111.217 75.2513 111.191 74.656L110.792 64.092H113.452L113.851 73.383C113.877 73.9657 113.94 74.4027 114.041 74.694C114.143 74.9853 114.333 75.1817 114.611 75.283C114.903 75.3843 115.327 75.435 115.884 75.435C116.366 75.435 116.708 75.5617 116.91 75.815C117.126 76.0557 117.233 76.3597 117.233 76.727C117.233 77.1197 117.1 77.449 116.834 77.715C116.568 77.9683 116.188 78.095 115.694 78.095ZM105.472 78.095C105.13 78.095 104.782 78.0633 104.427 78C104.085 77.9493 103.845 77.9113 103.705 77.886L104.066 75.131C104.94 75.245 105.789 75.2703 106.612 75.207C107.448 75.131 108.196 74.9283 108.854 74.599C109.526 74.257 110.058 73.763 110.45 73.117C110.843 72.4583 111.039 71.6097 111.039 70.571L112.065 73.554C111.913 74.4153 111.654 75.131 111.286 75.701C110.932 76.2583 110.507 76.7017 110.013 77.031C109.532 77.3477 109.019 77.582 108.474 77.734C107.93 77.886 107.398 77.981 106.878 78.019C106.359 78.0697 105.89 78.095 105.472 78.095ZM109.595 75.492C109.405 75.1247 109.133 74.694 108.778 74.2C108.424 73.6933 107.987 73.136 107.467 72.528C106.961 71.9073 106.378 71.255 105.719 70.571C105.061 69.8743 104.332 69.1587 103.534 68.424L105.187 66.619C106.365 67.7337 107.322 68.671 108.056 69.431C108.791 70.191 109.374 70.8307 109.804 71.35C110.248 71.8567 110.583 72.2937 110.811 72.661C111.052 73.0283 111.255 73.383 111.419 73.725L109.595 75.492ZM126.264 63.79V62.46L130.748 61.13V62.498L126.264 63.79ZM127.343 67.771C126.875 67.771 126.558 67.6063 126.393 67.277C126.229 66.9477 126.146 66.5867 126.146 66.194C126.146 66.0547 126.153 65.909 126.165 65.757C126.191 65.5923 126.222 65.4087 126.26 65.206L127.4 64.94C127.362 65.1553 127.331 65.358 127.305 65.548C127.293 65.7253 127.286 65.8837 127.286 66.023C127.286 66.1877 127.318 66.3143 127.381 66.403C127.445 66.4917 127.533 66.536 127.647 66.536C127.799 66.536 127.92 66.4473 128.008 66.27C128.11 66.0927 128.16 65.7507 128.16 65.244V64.674L129.262 64.332V65.491C129.262 65.6303 129.288 65.7443 129.338 65.833C129.402 65.9217 129.497 65.966 129.623 65.966C129.801 65.966 129.921 65.9153 129.984 65.814C130.06 65.7 130.098 65.567 130.098 65.415C130.098 65.1997 130.073 64.9843 130.022 64.769C129.972 64.541 129.902 64.3193 129.813 64.104L130.858 63.838C130.985 64.0787 131.086 64.3573 131.162 64.674C131.251 64.978 131.295 65.2567 131.295 65.51C131.295 65.928 131.175 66.308 130.934 66.65C130.694 66.9793 130.301 67.144 129.756 67.144C129.414 67.144 129.123 67.0427 128.882 66.84C128.642 66.6247 128.521 66.3713 128.521 66.08L128.958 66.251C128.958 66.6817 128.806 67.0427 128.502 67.334C128.211 67.6253 127.825 67.771 127.343 67.771ZM134.764 78.095C134.118 78.095 133.497 78.038 132.902 77.924C132.307 77.7973 131.768 77.6327 131.287 77.43C130.818 77.2273 130.432 76.9993 130.128 76.746L131.838 74.903C132.294 75.093 132.763 75.2323 133.244 75.321C133.725 75.397 134.295 75.435 134.954 75.435C135.435 75.435 135.777 75.5617 135.98 75.815C136.195 76.0557 136.303 76.3597 136.303 76.727C136.303 77.1197 136.17 77.449 135.904 77.715C135.638 77.9683 135.258 78.095 134.764 78.095ZM125.549 78.342C124.371 78.342 123.389 78.2913 122.604 78.19C121.831 78.0887 121.204 77.943 120.723 77.753C120.242 77.563 119.862 77.335 119.583 77.069C119.304 76.803 119.076 76.5117 118.899 76.195L119.431 76.043C119.114 76.651 118.753 77.1007 118.348 77.392C117.943 77.6833 117.518 77.8733 117.075 77.962C116.632 78.0507 116.176 78.095 115.707 78.095L115.897 75.435C116.29 75.435 116.6 75.3717 116.828 75.245C117.056 75.1183 117.24 74.9093 117.379 74.618C117.531 74.3267 117.67 73.9403 117.797 73.459C117.924 72.9777 118.076 72.3887 118.253 71.692L120.666 72.281C120.577 72.623 120.501 72.9207 120.438 73.174C120.387 73.4273 120.343 73.649 120.305 73.839C120.28 74.0163 120.267 74.162 120.267 74.276C120.267 74.5167 120.324 74.732 120.438 74.922C120.552 75.0993 120.774 75.245 121.103 75.359C121.432 75.4603 121.914 75.5427 122.547 75.606C123.193 75.6567 124.035 75.682 125.074 75.682C126.176 75.682 127.094 75.644 127.829 75.568C128.564 75.4793 129.146 75.359 129.577 75.207C130.02 75.0423 130.337 74.846 130.527 74.618C130.717 74.3773 130.812 74.105 130.812 73.801C130.812 73.5603 130.755 73.3387 130.641 73.136C130.54 72.9207 130.369 72.7433 130.128 72.604C129.887 72.4647 129.577 72.395 129.197 72.395C128.741 72.395 128.279 72.509 127.81 72.737C127.354 72.9523 126.904 73.2437 126.461 73.611C126.018 73.9657 125.593 74.3647 125.188 74.808C124.795 75.2513 124.441 75.6947 124.124 76.138L121.274 75.815C121.768 75.017 122.325 74.2507 122.946 73.516C123.567 72.7813 124.232 72.1353 124.941 71.578C125.65 71.008 126.385 70.5583 127.145 70.229C127.905 69.8997 128.678 69.735 129.463 69.735C130.312 69.735 131.034 69.8997 131.629 70.229C132.224 70.5583 132.68 71.0143 132.997 71.597C133.314 72.1797 133.472 72.851 133.472 73.611C133.472 74.5357 133.206 75.3527 132.674 76.062C132.155 76.7713 131.312 77.3287 130.147 77.734C128.994 78.1393 127.462 78.342 125.549 78.342ZM134.781 78.095L134.971 75.435C135.554 75.435 135.972 75.378 136.225 75.264C136.479 75.1373 136.631 74.9093 136.681 74.58C136.732 74.238 136.745 73.744 136.719 73.098L136.377 64.092H139.056L139.436 73.288C139.462 74.0227 139.43 74.6877 139.341 75.283C139.265 75.8657 139.069 76.366 138.752 76.784C138.448 77.202 137.973 77.525 137.327 77.753C136.694 77.981 135.845 78.095 134.781 78.095ZM141.942 78L141.543 64.092H144.203L144.602 78H141.942ZM153.873 60.79V59.46L158.357 58.13V59.498L153.873 60.79ZM154.953 65.771C154.484 65.771 154.167 65.6063 154.003 65.277C153.838 64.9477 153.756 64.5867 153.756 64.194C153.756 64.0547 153.762 63.909 153.775 63.757C153.8 63.5923 153.832 63.4087 153.87 63.206L155.01 62.94C154.972 63.1553 154.94 63.358 154.915 63.548C154.902 63.7253 154.896 63.8837 154.896 64.023C154.896 64.1877 154.927 64.3143 154.991 64.403C155.054 64.4917 155.143 64.536 155.257 64.536C155.409 64.536 155.529 64.4473 155.618 64.27C155.719 64.0927 155.77 63.7507 155.77 63.244V62.674L156.872 62.332V63.491C156.872 63.6303 156.897 63.7443 156.948 63.833C157.011 63.9217 157.106 63.966 157.233 63.966C157.41 63.966 157.53 63.9153 157.594 63.814C157.67 63.7 157.708 63.567 157.708 63.415C157.708 63.1997 157.682 62.9843 157.632 62.769C157.581 62.541 157.511 62.3193 157.423 62.104L158.468 61.838C158.594 62.0787 158.696 62.3573 158.772 62.674C158.86 62.978 158.905 63.2567 158.905 63.51C158.905 63.928 158.784 64.308 158.544 64.65C158.303 64.9793 157.91 65.144 157.366 65.144C157.024 65.144 156.732 65.0427 156.492 64.84C156.251 64.6247 156.131 64.3713 156.131 64.08L156.568 64.251C156.568 64.6817 156.416 65.0427 156.112 65.334C155.82 65.6253 155.434 65.771 154.953 65.771ZM150.509 77.468C150.509 77.1767 150.534 76.8347 150.585 76.442C150.635 76.0493 150.73 75.606 150.87 75.112C151.009 74.6053 151.218 74.0417 151.497 73.421L153.834 74.238C153.694 74.6307 153.574 74.9917 153.473 75.321C153.371 75.6377 153.295 75.9353 153.245 76.214C153.194 76.48 153.169 76.746 153.169 77.012C153.169 77.6327 153.308 78.1393 153.587 78.532C153.878 78.9373 154.283 79.235 154.803 79.425C155.322 79.6277 155.924 79.729 156.608 79.729C157.393 79.729 158.039 79.6213 158.546 79.406C159.052 79.2033 159.445 78.931 159.724 78.589C160.002 78.2597 160.199 77.8987 160.313 77.506C160.427 77.1007 160.484 76.708 160.484 76.328C160.484 75.8087 160.395 75.1943 160.218 74.485C160.04 73.763 159.724 72.9523 159.268 72.053L161.719 71.008C161.972 71.4513 162.206 71.9707 162.422 72.566C162.637 73.1487 162.808 73.7567 162.935 74.39C163.074 75.0233 163.144 75.625 163.144 76.195C163.144 76.7017 163.08 77.24 162.954 77.81C162.827 78.3673 162.612 78.9183 162.308 79.463C162.016 80.0077 161.617 80.4953 161.111 80.926C160.604 81.3693 159.977 81.724 159.23 81.99C158.482 82.256 157.589 82.389 156.551 82.389C155.715 82.389 154.929 82.294 154.195 82.104C153.473 81.9267 152.833 81.6417 152.276 81.249C151.731 80.8563 151.3 80.3433 150.984 79.71C150.667 79.0893 150.509 78.342 150.509 77.468ZM156.703 70.248C156.31 70.248 155.974 70.115 155.696 69.849C155.43 69.583 155.297 69.2537 155.297 68.861C155.297 68.4683 155.43 68.1327 155.696 67.854C155.974 67.5753 156.31 67.436 156.703 67.436C157.083 67.436 157.406 67.5753 157.672 67.854C157.95 68.1327 158.09 68.4683 158.09 68.861C158.09 69.2537 157.95 69.583 157.672 69.849C157.406 70.115 157.083 70.248 156.703 70.248ZM165.136 87.477V86.147L169.62 84.817V86.185L165.136 87.477ZM165.618 78L165.219 64.092H167.879L168.278 78H165.618ZM165.504 83.871L165.181 82.541C165.624 82.465 165.953 82.4017 166.169 82.351C166.397 82.3003 166.637 82.2433 166.891 82.18L166.701 82.655C166.371 82.541 166.055 82.313 165.751 81.971C165.459 81.6417 165.314 81.2617 165.314 80.831C165.314 80.375 165.415 80.0077 165.618 79.729C165.82 79.4503 166.08 79.2477 166.397 79.121C166.713 78.9943 167.043 78.931 167.385 78.931C167.575 78.931 167.752 78.9437 167.917 78.969C168.094 78.9943 168.252 79.0323 168.392 79.083L168.24 80.451C168.113 80.4257 167.986 80.4003 167.86 80.375C167.733 80.3497 167.594 80.337 167.442 80.337C167.277 80.337 167.125 80.3877 166.986 80.489C166.859 80.603 166.796 80.736 166.796 80.888C166.796 81.1033 166.872 81.2933 167.024 81.458C167.176 81.6227 167.353 81.7493 167.556 81.838C167.771 81.9393 167.948 81.9963 168.088 82.009L167.043 82.123C167.385 82.0343 167.708 81.9393 168.012 81.838C168.316 81.7493 168.601 81.6543 168.867 81.553L169.247 82.826C168.93 82.94 168.556 83.0603 168.126 83.187C167.708 83.3263 167.271 83.453 166.815 83.567C166.371 83.681 165.934 83.7823 165.504 83.871ZM20.1682 109.477V108.147L24.6522 106.817V108.185L20.1682 109.477ZM19.304 105.389L18.335 103.033C19.0063 102.805 19.6207 102.539 20.178 102.235C20.748 101.931 21.242 101.595 21.66 101.228C22.078 100.861 22.401 100.462 22.629 100.031C22.857 99.5877 22.971 99.1127 22.971 98.606C22.971 98.074 22.8507 97.4913 22.61 96.858C22.3693 96.2247 22.078 95.5787 21.736 94.92L24.225 93.723C24.453 94.1157 24.6493 94.54 24.814 94.996C24.9913 95.4393 25.137 95.8383 25.251 96.193C25.365 96.5477 25.441 96.7883 25.479 96.915C25.6563 97.523 25.897 97.9283 26.201 98.131C26.5177 98.3337 27.0243 98.435 27.721 98.435C28.2023 98.435 28.5443 98.5617 28.747 98.815C28.9623 99.0557 29.07 99.3597 29.07 99.727C29.07 100.12 28.937 100.449 28.671 100.715C28.405 100.968 28.025 101.095 27.531 101.095C27.0117 101.095 26.5557 101.019 26.163 100.867C25.7703 100.715 25.4537 100.493 25.213 100.202C24.985 99.9107 24.8393 99.5687 24.776 99.176L25.479 99.575C25.403 100.246 25.1813 100.88 24.814 101.475C24.4593 102.083 23.997 102.64 23.427 103.147C22.857 103.654 22.2173 104.097 21.508 104.477C20.7987 104.857 20.064 105.161 19.304 105.389ZM27.7756 86.79V85.46L32.2596 84.13V85.498L27.7756 86.79ZM27.5537 101.095L27.7437 98.435H30.4037C30.847 98.435 31.1827 98.4097 31.4107 98.359C31.6514 98.3083 31.816 98.2323 31.9047 98.131C31.9934 98.017 32.0377 97.884 32.0377 97.732C32.0377 97.504 31.9364 97.238 31.7337 96.934C31.5437 96.63 31.2904 96.3133 30.9737 95.984C30.6697 95.6547 30.3467 95.3253 30.0047 94.996C29.6627 94.654 29.3334 94.3373 29.0167 94.046C28.7127 93.7547 28.4594 93.5013 28.2567 93.286C28.0667 93.058 27.9717 92.8933 27.9717 92.792C27.9717 92.4373 27.9907 92.1587 28.0287 91.956C28.0667 91.7407 28.1174 91.5697 28.1807 91.443C28.2567 91.3163 28.339 91.2087 28.4277 91.12C28.643 90.9047 28.966 90.664 29.3967 90.398C29.8274 90.1193 30.334 89.828 30.9167 89.524C31.512 89.2073 32.177 88.878 32.9117 88.536C33.6464 88.1813 34.4254 87.814 35.2487 87.434L36.3317 89.752C35.4957 90.1193 34.7484 90.4613 34.0897 90.778C33.4437 91.082 32.861 91.367 32.3417 91.633C31.835 91.8863 31.379 92.127 30.9737 92.355C30.581 92.583 30.2264 92.7983 29.9097 93.001L30.0997 91.595C30.6444 92.0637 31.1384 92.507 31.5817 92.925C32.025 93.343 32.4367 93.761 32.8167 94.179C33.1967 94.597 33.5514 95.0277 33.8807 95.471C34.2227 95.9143 34.552 96.3957 34.8687 96.915C35.1474 97.3583 35.4324 97.6877 35.7237 97.903C36.0277 98.1183 36.319 98.264 36.5977 98.34C36.889 98.4033 37.1487 98.435 37.3767 98.435C37.858 98.435 38.2 98.5617 38.4027 98.815C38.618 99.0557 38.7257 99.3597 38.7257 99.727C38.7257 100.12 38.5927 100.449 38.3267 100.715C38.0607 100.968 37.6807 101.095 37.1867 101.095C36.7687 101.095 36.319 101.025 35.8377 100.886C35.3564 100.734 34.9067 100.493 34.4887 100.164C34.0707 99.8347 33.754 99.385 33.5387 98.815L34.5647 98.891C34.3747 99.2963 34.1467 99.6447 33.8807 99.936C33.6274 100.215 33.3234 100.443 32.9687 100.62C32.614 100.785 32.2087 100.905 31.7527 100.981C31.2967 101.057 30.7837 101.095 30.2137 101.095H27.5537ZM37.2021 101.095L37.3921 98.435C37.8735 98.435 38.2535 98.3907 38.5321 98.302C38.8235 98.2133 39.0515 98.036 39.2161 97.77C39.3935 97.4913 39.5391 97.086 39.6531 96.554C39.7798 96.022 39.9065 95.3127 40.0331 94.426L42.5221 94.844C42.4968 95.034 42.4588 95.2557 42.4081 95.509C42.3701 95.7623 42.3321 96.022 42.2941 96.288C42.2688 96.5413 42.2561 96.782 42.2561 97.01C42.2561 97.314 42.3195 97.5737 42.4461 97.789C42.5855 97.9917 42.8261 98.15 43.1681 98.264C43.5228 98.378 44.0295 98.435 44.6881 98.435C45.1695 98.435 45.5115 98.5617 45.7141 98.815C45.9168 99.0557 46.0181 99.3597 46.0181 99.727C46.0181 100.12 45.8851 100.449 45.6191 100.715C45.3658 100.968 44.9921 101.095 44.4981 101.095C43.6241 101.095 42.9148 101.013 42.3701 100.848C41.8255 100.683 41.4201 100.405 41.1541 100.012C40.8881 99.6193 40.7171 99.081 40.6411 98.397H41.5531C41.3251 99.005 41.0591 99.4927 40.7551 99.86C40.4511 100.215 40.1091 100.481 39.7291 100.658C39.3491 100.835 38.9438 100.949 38.5131 101C38.0951 101.063 37.6581 101.095 37.2021 101.095ZM41.0781 92.488C40.6855 92.488 40.3498 92.355 40.0711 92.089C39.8051 91.823 39.6721 91.4937 39.6721 91.101C39.6721 90.7083 39.8051 90.3727 40.0711 90.094C40.3498 89.8153 40.6855 89.676 41.0781 89.676C41.4581 89.676 41.7811 89.8153 42.0471 90.094C42.3258 90.3727 42.4651 90.7083 42.4651 91.101C42.4651 91.4937 42.3258 91.823 42.0471 92.089C41.7811 92.355 41.4581 92.488 41.0781 92.488ZM47.3455 90.942L47.1365 89.745C47.8078 89.745 48.4348 89.65 49.0175 89.46C49.6001 89.2573 50.0688 89.004 50.4235 88.7C50.7781 88.396 50.9555 88.0983 50.9555 87.807C50.9555 87.6297 50.9048 87.4713 50.8035 87.332C50.7021 87.1927 50.5565 87.123 50.3665 87.123C50.2018 87.123 50.0561 87.1863 49.9295 87.313C49.8028 87.4397 49.7395 87.598 49.7395 87.788C49.7395 88.0287 49.8345 88.244 50.0245 88.434C50.2145 88.6113 50.4425 88.757 50.7085 88.871L49.8915 89.593C49.5115 89.4157 49.1821 89.1813 48.9035 88.89C48.6248 88.586 48.4855 88.1997 48.4855 87.731C48.4855 87.2117 48.6628 86.781 49.0175 86.439C49.3848 86.097 49.8408 85.926 50.3855 85.926C50.9808 85.926 51.4305 86.116 51.7345 86.496C52.0385 86.876 52.1905 87.3067 52.1905 87.788C52.1905 88.396 51.9688 88.928 51.5255 89.384C51.0948 89.84 50.5121 90.201 49.7775 90.467C49.0555 90.733 48.2448 90.8913 47.3455 90.942ZM44.4941 101.095L44.6841 98.435C45.0008 98.435 45.2415 98.3717 45.4061 98.245C45.5708 98.1183 45.7355 97.8967 45.9001 97.58C46.0648 97.2633 46.2928 96.8327 46.5841 96.288C46.9008 95.68 47.2301 95.1733 47.5721 94.768C47.9141 94.35 48.2561 94.0207 48.5981 93.78C48.9528 93.5267 49.3011 93.3493 49.6431 93.248C49.9978 93.134 50.3461 93.077 50.6881 93.077C51.1568 93.077 51.5938 93.1783 51.9991 93.381C52.4171 93.571 52.8161 93.9067 53.1961 94.388C53.5761 94.8567 53.9371 95.5027 54.2791 96.326C54.5198 96.896 54.7605 97.333 55.0011 97.637C55.2418 97.941 55.4888 98.15 55.7421 98.264C56.0081 98.378 56.2741 98.435 56.5401 98.435C57.0215 98.435 57.3635 98.5617 57.5661 98.815C57.7688 99.0557 57.8701 99.3597 57.8701 99.727C57.8701 100.12 57.7371 100.449 57.4711 100.715C57.2051 100.968 56.8315 101.095 56.3501 101.095C55.7295 101.095 55.1658 100.994 54.6591 100.791C54.1525 100.588 53.7535 100.284 53.4621 99.879L54.0131 99.461C53.8991 99.727 53.7281 100.006 53.5001 100.297C53.2848 100.588 52.9998 100.835 52.6451 101.038C52.3031 101.241 51.8915 101.342 51.4101 101.342C51.0935 101.342 50.7198 101.279 50.2891 101.152C49.8711 101.038 49.4341 100.842 48.9781 100.563C48.5348 100.272 48.1231 99.879 47.7431 99.385C47.5025 99.8283 47.2365 100.177 46.9451 100.43C46.6538 100.671 46.3118 100.842 45.9191 100.943C45.5265 101.044 45.0515 101.095 44.4941 101.095ZM48.8451 97.143C48.9718 97.333 49.1238 97.523 49.3011 97.713C49.4785 97.903 49.6748 98.074 49.8901 98.226C50.1055 98.3653 50.3335 98.4793 50.5741 98.568C50.8275 98.6567 51.0745 98.701 51.3151 98.701C51.5685 98.701 51.7775 98.606 51.9421 98.416C52.1068 98.2133 52.1131 97.9157 51.9611 97.523C51.8978 97.3583 51.8091 97.1747 51.6951 96.972C51.5938 96.7567 51.4735 96.554 51.3341 96.364C51.2075 96.174 51.0618 96.0157 50.8971 95.889C50.7451 95.7623 50.5868 95.699 50.4221 95.699C50.2575 95.699 50.0865 95.7497 49.9091 95.851C49.7318 95.9523 49.5545 96.1107 49.3771 96.326C49.1998 96.5287 49.0225 96.801 48.8451 97.143ZM59.284 84.258C58.676 84.258 58.2137 84.0743 57.897 83.707C57.5803 83.327 57.422 82.8837 57.422 82.377C57.422 81.9717 57.5043 81.6043 57.669 81.275C57.8463 80.933 58.0807 80.6607 58.372 80.458C58.6633 80.2553 58.999 80.154 59.379 80.154C59.7337 80.154 60.044 80.2553 60.31 80.458C60.5887 80.6607 60.804 80.9267 60.956 81.256C61.1207 81.5727 61.203 81.9147 61.203 82.282C61.203 82.8267 61.0257 83.2953 60.671 83.688C60.3163 84.068 59.854 84.258 59.284 84.258ZM59.265 83.042C59.4803 83.042 59.664 82.9723 59.816 82.833C59.9807 82.6937 60.063 82.51 60.063 82.282C60.063 82.0413 59.9807 81.845 59.816 81.693C59.6513 81.5283 59.474 81.446 59.284 81.446C59.0433 81.446 58.8533 81.5283 58.714 81.693C58.5873 81.8577 58.524 82.0477 58.524 82.263C58.524 82.491 58.5937 82.681 58.733 82.833C58.8723 82.9723 59.0497 83.042 59.265 83.042ZM56.3506 101.095L56.5406 98.435C57.1233 98.435 57.5413 98.378 57.7946 98.264C58.0479 98.1373 58.1999 97.9093 58.2506 97.58C58.3013 97.238 58.3139 96.744 58.2886 96.098L57.9466 87.092H60.6256L61.0056 96.288C61.0309 97.0227 60.9993 97.6877 60.9106 98.283C60.8346 98.8657 60.6383 99.366 60.3216 99.784C60.0176 100.202 59.5426 100.525 58.8966 100.753C58.2633 100.981 57.4146 101.095 56.3506 101.095ZM63.5112 101L63.1122 87.092H65.7722L66.1712 101H63.5112ZM69.6907 91.79V90.46L74.1747 89.13V90.498L69.6907 91.79ZM68.2695 105.37L67.7185 102.71C68.6179 102.596 69.4032 102.457 70.0745 102.292C70.7459 102.14 71.3095 101.925 71.7655 101.646C72.2215 101.367 72.5635 100.987 72.7915 100.506C73.0195 100.012 73.1335 99.3787 73.1335 98.606C73.1335 98.3273 73.1082 98.0487 73.0575 97.77C73.0069 97.4787 72.9309 97.2127 72.8295 96.972C72.7282 96.7313 72.5952 96.535 72.4305 96.383C72.2785 96.231 72.0949 96.155 71.8795 96.155C71.6515 96.155 71.4489 96.2373 71.2715 96.402C71.0942 96.554 70.9549 96.7503 70.8535 96.991C70.7522 97.219 70.7015 97.4533 70.7015 97.694C70.7015 97.8713 70.7459 98.0233 70.8345 98.15C70.9232 98.264 71.0562 98.3527 71.2335 98.416C71.4109 98.4667 71.6325 98.492 71.8985 98.492C72.2025 98.492 72.5129 98.4603 72.8295 98.397C73.1589 98.321 73.4565 98.2197 73.7225 98.093L73.7985 100.164C73.4945 100.405 73.1462 100.62 72.7535 100.81C72.3609 100.987 71.8859 101.076 71.3285 101.076C70.8725 101.076 70.4482 101.025 70.0555 100.924C69.6629 100.81 69.3145 100.639 69.0105 100.411C68.7192 100.183 68.4912 99.8917 68.3265 99.537C68.1619 99.1697 68.0795 98.7327 68.0795 98.226C68.0795 97.6053 68.1809 97.0037 68.3835 96.421C68.5862 95.8383 68.8649 95.319 69.2195 94.863C69.5869 94.3943 70.0049 94.027 70.4735 93.761C70.9549 93.4823 71.4615 93.343 71.9935 93.343C72.6269 93.343 73.1779 93.5013 73.6465 93.818C74.1279 94.1347 74.5269 94.5527 74.8435 95.072C75.1602 95.5787 75.4009 96.1297 75.5655 96.725C75.7302 97.3203 75.8125 97.8903 75.8125 98.435C75.8125 99.8663 75.5085 101.082 74.9005 102.083C74.2925 103.084 73.4249 103.856 72.2975 104.401C71.1702 104.958 69.8275 105.281 68.2695 105.37ZM83.6067 105.477V104.147L88.0907 102.817V104.185L83.6067 105.477ZM83.7829 99.138C83.5802 99.0367 83.3775 98.8973 83.1749 98.72C82.9722 98.53 82.7885 98.3083 82.6239 98.055C82.4592 97.8017 82.3262 97.5293 82.2249 97.238C82.1362 96.934 82.0919 96.6237 82.0919 96.307C82.0919 95.6103 82.2565 94.996 82.5859 94.464C82.9152 93.9193 83.3585 93.495 83.9159 93.191C84.4732 92.8743 85.0875 92.716 85.7589 92.716C86.1262 92.716 86.4619 92.7413 86.7659 92.792C87.0825 92.83 87.3992 92.8933 87.7159 92.982L87.2979 95.452C87.0699 95.3887 86.8482 95.3443 86.6329 95.319C86.4302 95.281 86.2465 95.262 86.0819 95.262C85.8159 95.262 85.5815 95.319 85.3789 95.433C85.1762 95.5343 85.0179 95.6863 84.9039 95.889C84.8025 96.079 84.7519 96.3007 84.7519 96.554C84.7519 96.8453 84.8152 97.105 84.9419 97.333C85.0812 97.561 85.2839 97.7573 85.5499 97.922C85.8285 98.074 86.1705 98.1943 86.5759 98.283L83.7829 99.138ZM82.0729 102.083L81.2179 99.594C81.8765 99.4167 82.5922 99.214 83.3649 98.986C84.1375 98.7453 84.9482 98.473 85.7969 98.169C86.6582 97.865 87.5322 97.5357 88.4189 97.181L89.4069 99.613C88.9002 99.8157 88.3365 100.037 87.7159 100.278C87.0952 100.506 86.4492 100.734 85.7779 100.962C85.1065 101.19 84.4542 101.399 83.8209 101.589C83.1875 101.779 82.6049 101.944 82.0729 102.083ZM95.9947 101.095C94.8167 101.095 93.9047 100.975 93.2587 100.734C92.6253 100.493 92.182 100.12 91.9287 99.613C91.6753 99.0937 91.5297 98.4413 91.4917 97.656L91.0927 87.092H93.7527L94.1517 96.383C94.177 96.9657 94.2403 97.4027 94.3417 97.694C94.443 97.9853 94.633 98.1817 94.9117 98.283C95.203 98.3843 95.6273 98.435 96.1847 98.435C96.666 98.435 97.008 98.5617 97.2107 98.815C97.426 99.0557 97.5337 99.3597 97.5337 99.727C97.5337 100.12 97.4007 100.449 97.1347 100.715C96.8687 100.968 96.4887 101.095 95.9947 101.095ZM103.442 84.79V83.46L107.926 82.13V83.498L103.442 84.79ZM96.0205 101.095L96.2105 98.435C96.6285 98.435 96.9705 98.4033 97.2365 98.34C97.5025 98.264 97.7178 98.1057 97.8825 97.865C98.0598 97.6117 98.2118 97.238 98.3385 96.744C98.4778 96.2373 98.6298 95.5533 98.7945 94.692L101.265 95.148C101.214 95.4267 101.144 95.775 101.056 96.193C100.98 96.611 100.942 96.972 100.942 97.276C100.942 97.5167 100.986 97.7257 101.075 97.903C101.176 98.0677 101.341 98.2007 101.569 98.302C101.809 98.3907 102.139 98.435 102.557 98.435C102.886 98.435 103.165 98.4033 103.393 98.34C103.633 98.264 103.836 98.1057 104.001 97.865C104.178 97.6117 104.33 97.2253 104.457 96.706C104.596 96.174 104.729 95.4583 104.856 94.559L107.364 94.958C107.313 95.2493 107.262 95.5597 107.212 95.889C107.161 96.2183 107.117 96.5223 107.079 96.801C107.041 97.0797 107.022 97.3077 107.022 97.485C107.022 97.6497 107.066 97.808 107.155 97.96C107.256 98.0993 107.433 98.2133 107.687 98.302C107.953 98.3907 108.32 98.435 108.789 98.435C109.359 98.435 109.777 98.3147 110.043 98.074C110.321 97.8207 110.461 97.4407 110.461 96.934C110.461 96.6427 110.454 96.3323 110.442 96.003C110.429 95.661 110.404 95.281 110.366 94.863C110.34 94.4323 110.29 93.9447 110.214 93.4L112.665 93.21C112.753 94.2993 112.855 95.186 112.969 95.87C113.083 96.554 113.235 97.086 113.425 97.466C113.627 97.8333 113.893 98.0867 114.223 98.226C114.565 98.3653 115.008 98.435 115.553 98.435C116.034 98.435 116.376 98.5617 116.579 98.815C116.794 99.0557 116.902 99.3597 116.902 99.727C116.902 100.12 116.769 100.449 116.503 100.715C116.249 100.968 115.869 101.095 115.363 101.095C115.021 101.095 114.666 101.063 114.299 101C113.931 100.949 113.577 100.842 113.235 100.677C112.893 100.5 112.589 100.246 112.323 99.917C112.057 99.5877 111.848 99.1507 111.696 98.606L112.038 98.72C111.86 99.3533 111.62 99.841 111.316 100.183C111.012 100.525 110.638 100.766 110.195 100.905C109.751 101.032 109.219 101.095 108.599 101.095C108.029 101.095 107.522 101.019 107.079 100.867C106.635 100.715 106.281 100.468 106.015 100.126C105.761 99.7713 105.628 99.2963 105.616 98.701H106.262C106.008 99.4103 105.717 99.936 105.388 100.278C105.058 100.62 104.659 100.842 104.191 100.943C103.722 101.044 103.133 101.095 102.424 101.095C101.993 101.095 101.569 101.051 101.151 100.962C100.733 100.861 100.359 100.639 100.03 100.297C99.7002 99.9423 99.4595 99.385 99.3075 98.625L100.334 98.587C100.068 99.3343 99.7192 99.8853 99.2885 100.24C98.8705 100.595 98.3892 100.829 97.8445 100.943C97.2998 101.044 96.6918 101.095 96.0205 101.095ZM105.768 89.334C105.451 89.334 105.172 89.2137 104.932 88.973C104.704 88.7323 104.59 88.4473 104.59 88.118C104.59 87.7887 104.704 87.51 104.932 87.282C105.172 87.054 105.451 86.94 105.768 86.94C106.097 86.94 106.376 87.054 106.604 87.282C106.832 87.51 106.946 87.7887 106.946 88.118C106.946 88.4473 106.832 88.7323 106.604 88.973C106.376 89.2137 106.097 89.334 105.768 89.334ZM104.248 91.842C103.931 91.842 103.652 91.7217 103.412 91.481C103.184 91.2403 103.07 90.9553 103.07 90.626C103.07 90.2967 103.184 90.018 103.412 89.79C103.652 89.562 103.931 89.448 104.248 89.448C104.577 89.448 104.856 89.562 105.084 89.79C105.312 90.018 105.426 90.2967 105.426 90.626C105.426 90.9553 105.312 91.2403 105.084 91.481C104.856 91.7217 104.577 91.842 104.248 91.842ZM107.193 91.842C106.876 91.842 106.597 91.7217 106.357 91.481C106.129 91.2403 106.015 90.9553 106.015 90.626C106.015 90.2967 106.129 90.018 106.357 89.79C106.597 89.562 106.876 89.448 107.193 89.448C107.522 89.448 107.801 89.562 108.029 89.79C108.257 90.018 108.371 90.2967 108.371 90.626C108.371 90.9553 108.257 91.2403 108.029 91.481C107.801 91.7217 107.522 91.842 107.193 91.842ZM118.436 90.258C117.828 90.258 117.366 90.0743 117.049 89.707C116.733 89.327 116.574 88.8837 116.574 88.377C116.574 87.9717 116.657 87.6043 116.821 87.275C116.999 86.933 117.233 86.6607 117.524 86.458C117.816 86.2553 118.151 86.154 118.531 86.154C118.886 86.154 119.196 86.2553 119.462 86.458C119.741 86.6607 119.956 86.9267 120.108 87.256C120.273 87.5727 120.355 87.9147 120.355 88.282C120.355 88.8267 120.178 89.2953 119.823 89.688C119.469 90.068 119.006 90.258 118.436 90.258ZM118.417 89.042C118.633 89.042 118.816 88.9723 118.968 88.833C119.133 88.6937 119.215 88.51 119.215 88.282C119.215 88.0413 119.133 87.845 118.968 87.693C118.804 87.5283 118.626 87.446 118.436 87.446C118.196 87.446 118.006 87.5283 117.866 87.693C117.74 87.8577 117.676 88.0477 117.676 88.263C117.676 88.491 117.746 88.681 117.885 88.833C118.025 88.9723 118.202 89.042 118.417 89.042ZM127.799 101.095C127.216 101.095 126.672 101.051 126.165 100.962C125.671 100.873 125.215 100.721 124.797 100.506C124.379 100.278 124.005 99.9677 123.676 99.575C123.359 99.1823 123.093 98.6883 122.878 98.093L124.379 96.896C124.607 97.3013 124.886 97.618 125.215 97.846C125.544 98.0613 125.937 98.2133 126.393 98.302C126.849 98.3907 127.381 98.435 127.989 98.435C128.47 98.435 128.812 98.5617 129.015 98.815C129.218 99.0557 129.319 99.3597 129.319 99.727C129.319 100.12 129.186 100.449 128.92 100.715C128.667 100.968 128.293 101.095 127.799 101.095ZM115.373 101.095L115.563 98.435C116.247 98.435 116.925 98.397 117.596 98.321C118.267 98.245 118.92 98.131 119.553 97.979C120.186 97.827 120.788 97.6307 121.358 97.39C121.941 97.1493 122.485 96.858 122.992 96.516C122.612 96.288 122.2 96.0917 121.757 95.927C121.314 95.7623 120.839 95.642 120.332 95.566C119.838 95.4773 119.312 95.433 118.755 95.433C118.552 95.433 118.337 95.4393 118.109 95.452C117.894 95.4647 117.672 95.49 117.444 95.528C117.216 95.5533 116.988 95.5913 116.76 95.642L116.38 93.039C116.747 92.9377 117.134 92.868 117.539 92.83C117.957 92.7793 118.324 92.754 118.641 92.754C119.325 92.754 119.952 92.83 120.522 92.982C121.105 93.134 121.637 93.324 122.118 93.552C122.612 93.78 123.068 94.008 123.486 94.236C123.917 94.464 124.322 94.654 124.702 94.806C125.095 94.958 125.475 95.034 125.842 95.034H126.545L126.849 97.561C126.304 97.5863 125.791 97.694 125.31 97.884C124.841 98.0613 124.373 98.2893 123.904 98.568C123.448 98.834 122.954 99.1127 122.422 99.404C121.903 99.6953 121.314 99.9677 120.655 100.221C119.996 100.474 119.236 100.683 118.375 100.848C117.514 101.013 116.513 101.095 115.373 101.095ZM130.494 84.79V83.46L134.978 82.13V83.498L130.494 84.79ZM127.805 101.095L127.995 98.454C128.489 98.4667 128.945 98.4603 129.363 98.435C129.781 98.4097 130.154 98.3717 130.484 98.321C130.826 98.2703 131.123 98.2133 131.377 98.15C131.643 98.0867 131.864 98.0297 132.042 97.979C132.472 97.8397 132.84 97.675 133.144 97.485C133.448 97.2823 133.682 97.0543 133.847 96.801C134.011 96.5477 134.094 96.2753 134.094 95.984C134.094 95.756 134.043 95.528 133.942 95.3C133.853 95.0593 133.72 94.863 133.543 94.711C133.365 94.559 133.156 94.483 132.916 94.483C132.688 94.483 132.479 94.5527 132.289 94.692C132.099 94.8313 131.947 95.0213 131.833 95.262C131.719 95.49 131.662 95.756 131.662 96.06C131.662 96.326 131.725 96.5793 131.852 96.82C131.978 97.048 132.156 97.2697 132.384 97.485C132.612 97.7003 132.884 97.903 133.201 98.093L130.674 99.062C130.395 98.796 130.129 98.511 129.876 98.207C129.635 97.903 129.432 97.561 129.268 97.181C129.116 96.7883 129.04 96.3513 129.04 95.87C129.04 95.2873 129.154 94.7553 129.382 94.274C129.61 93.7927 129.914 93.381 130.294 93.039C130.674 92.6843 131.098 92.412 131.567 92.222C132.035 92.032 132.504 91.937 132.973 91.937C133.733 91.937 134.391 92.1143 134.949 92.469C135.506 92.8237 135.937 93.286 136.241 93.856C136.557 94.426 136.716 95.0467 136.716 95.718C136.716 96.3387 136.602 96.896 136.374 97.39C136.146 97.8713 135.835 98.302 135.443 98.682C135.063 99.0493 134.638 99.3723 134.17 99.651C133.714 99.9297 133.251 100.164 132.783 100.354C132.555 100.455 132.27 100.55 131.928 100.639C131.586 100.728 131.199 100.81 130.769 100.886C130.338 100.949 129.876 101 129.382 101.038C128.888 101.076 128.362 101.095 127.805 101.095ZM137.837 101.095C137.102 101.095 136.38 101.057 135.671 100.981C134.961 100.905 134.303 100.791 133.695 100.639C133.099 100.487 132.58 100.303 132.137 100.088L133.448 98.036C133.828 98.1373 134.271 98.2197 134.778 98.283C135.297 98.3337 135.835 98.3717 136.393 98.397C136.963 98.4223 137.507 98.435 138.027 98.435C138.508 98.435 138.85 98.5617 139.053 98.815C139.268 99.0557 139.376 99.3597 139.376 99.727C139.376 100.12 139.243 100.449 138.977 100.715C138.711 100.968 138.331 101.095 137.837 101.095ZM132.992 90.17C132.599 90.17 132.263 90.037 131.985 89.771C131.719 89.505 131.586 89.1757 131.586 88.783C131.586 88.3903 131.719 88.0547 131.985 87.776C132.263 87.4973 132.599 87.358 132.992 87.358C133.372 87.358 133.695 87.4973 133.961 87.776C134.239 88.0547 134.379 88.3903 134.379 88.783C134.379 89.1757 134.239 89.505 133.961 89.771C133.695 90.037 133.372 90.17 132.992 90.17ZM140.795 84.258C140.187 84.258 139.724 84.0743 139.408 83.707C139.091 83.327 138.933 82.8837 138.933 82.377C138.933 81.9717 139.015 81.6043 139.18 81.275C139.357 80.933 139.591 80.6607 139.883 80.458C140.174 80.2553 140.51 80.154 140.89 80.154C141.244 80.154 141.555 80.2553 141.821 80.458C142.099 80.6607 142.315 80.9267 142.467 81.256C142.631 81.5727 142.714 81.9147 142.714 82.282C142.714 82.8267 142.536 83.2953 142.182 83.688C141.827 84.068 141.365 84.258 140.795 84.258ZM140.776 83.042C140.991 83.042 141.175 82.9723 141.327 82.833C141.491 82.6937 141.574 82.51 141.574 82.282C141.574 82.0413 141.491 81.845 141.327 81.693C141.162 81.5283 140.985 81.446 140.795 81.446C140.554 81.446 140.364 81.5283 140.225 81.693C140.098 81.8577 140.035 82.0477 140.035 82.263C140.035 82.491 140.104 82.681 140.244 82.833C140.383 82.9723 140.56 83.042 140.776 83.042ZM137.861 101.095L138.051 98.435C138.634 98.435 139.052 98.378 139.305 98.264C139.559 98.1373 139.711 97.9093 139.761 97.58C139.812 97.238 139.825 96.744 139.799 96.098L139.457 87.092H142.136L142.516 96.288C142.542 97.0227 142.51 97.6877 142.421 98.283C142.345 98.8657 142.149 99.366 141.832 99.784C141.528 100.202 141.053 100.525 140.407 100.753C139.774 100.981 138.925 101.095 137.861 101.095ZM145.022 101L144.623 87.092H147.283L147.682 101H145.022Z" fill="#FBFBFB"/>
</svg>
