<svg width="334" height="118" viewBox="0 0 334 118" fill="none" xmlns="http://www.w3.org/2000/svg">
<rect width="334" height="118" rx="30" fill="#42C83C"/>
<path d="M20.52 37L20.121 23.092H22.781L23.18 37H20.52ZM25.5491 25.795V24.465L30.0331 23.135V24.503L25.5491 25.795ZM25.5491 27.79V26.46L30.0331 25.13V26.498L25.5491 27.79ZM24.0169 41.389L23.0479 39.033C23.7192 38.805 24.3336 38.539 24.8909 38.235C25.4609 37.931 25.9549 37.5953 26.3729 37.228C26.7909 36.8607 27.1139 36.4617 27.3419 36.031C27.5699 35.5877 27.6839 35.1127 27.6839 34.606C27.6839 34.074 27.5636 33.4913 27.3229 32.858C27.0822 32.2247 26.7909 31.5787 26.4489 30.92L28.9379 29.723C29.1659 30.1157 29.3622 30.54 29.5269 30.996C29.7042 31.4393 29.8499 31.8383 29.9639 32.193C30.0779 32.5477 30.1539 32.7883 30.1919 32.915C30.3692 33.523 30.6099 33.9283 30.9139 34.131C31.2306 34.3337 31.7372 34.435 32.4339 34.435C32.9152 34.435 33.2572 34.5617 33.4599 34.815C33.6752 35.0557 33.7829 35.3597 33.7829 35.727C33.7829 36.1197 33.6499 36.449 33.3839 36.715C33.1179 36.9683 32.7379 37.095 32.2439 37.095C31.7246 37.095 31.2686 37.019 30.8759 36.867C30.4832 36.715 30.1666 36.4933 29.9259 36.202C29.6979 35.9107 29.5522 35.5687 29.4889 35.176L30.1919 35.575C30.1159 36.2463 29.8942 36.8797 29.5269 37.475C29.1722 38.083 28.7099 38.6403 28.1399 39.147C27.5699 39.6537 26.9302 40.097 26.2209 40.477C25.5116 40.857 24.7769 41.161 24.0169 41.389ZM41.6756 27.258C41.0676 27.258 40.6053 27.0743 40.2886 26.707C39.9719 26.327 39.8136 25.8837 39.8136 25.377C39.8136 24.9717 39.8959 24.6043 40.0606 24.275C40.2379 23.933 40.4723 23.6607 40.7636 23.458C41.0549 23.2553 41.3906 23.154 41.7706 23.154C42.1253 23.154 42.4356 23.2553 42.7016 23.458C42.9803 23.6607 43.1956 23.9267 43.3476 24.256C43.5123 24.5727 43.5946 24.9147 43.5946 25.282C43.5946 25.8267 43.4173 26.2953 43.0626 26.688C42.7079 27.068 42.2456 27.258 41.6756 27.258ZM41.6566 26.042C41.8719 26.042 42.0556 25.9723 42.2076 25.833C42.3723 25.6937 42.4546 25.51 42.4546 25.282C42.4546 25.0413 42.3723 24.845 42.2076 24.693C42.0429 24.5283 41.8656 24.446 41.6756 24.446C41.4349 24.446 41.2449 24.5283 41.1056 24.693C40.9789 24.8577 40.9156 25.0477 40.9156 25.263C40.9156 25.491 40.9853 25.681 41.1246 25.833C41.2639 25.9723 41.4413 26.042 41.6566 26.042ZM32.2666 37.095L32.4566 34.435C32.8746 34.435 33.2166 34.4033 33.4826 34.34C33.7486 34.264 33.9639 34.1057 34.1286 33.865C34.3059 33.6117 34.4579 33.238 34.5846 32.744C34.7239 32.2373 34.8759 31.5533 35.0406 30.692L37.5106 31.148C37.4599 31.4267 37.3903 31.775 37.3016 32.193C37.2256 32.611 37.1876 32.972 37.1876 33.276C37.1876 33.5167 37.2319 33.7257 37.3206 33.903C37.4219 34.0677 37.5866 34.2007 37.8146 34.302C38.0553 34.3907 38.3846 34.435 38.8026 34.435C39.1319 34.435 39.4106 34.4033 39.6386 34.34C39.8793 34.264 40.0819 34.1057 40.2466 33.865C40.4239 33.6117 40.5759 33.2253 40.7026 32.706C40.8419 32.174 40.9749 31.4583 41.1016 30.559L43.6096 30.958C43.5589 31.2493 43.5083 31.5597 43.4576 31.889C43.4069 32.2183 43.3626 32.5223 43.3246 32.801C43.2866 33.0797 43.2676 33.3077 43.2676 33.485C43.2676 33.6497 43.3119 33.808 43.4006 33.96C43.5019 34.0993 43.6793 34.2133 43.9326 34.302C44.1986 34.3907 44.5659 34.435 45.0346 34.435C45.6046 34.435 46.0226 34.3147 46.2886 34.074C46.5673 33.8207 46.7066 33.4407 46.7066 32.934C46.7066 32.6427 46.7003 32.3323 46.6876 32.003C46.6749 31.661 46.6496 31.281 46.6116 30.863C46.5863 30.4323 46.5356 29.9447 46.4596 29.4L48.9106 29.21C48.9993 30.2993 49.1006 31.186 49.2146 31.87C49.3286 32.554 49.4806 33.086 49.6706 33.466C49.8733 33.8333 50.1393 34.0867 50.4686 34.226C50.8106 34.3653 51.2539 34.435 51.7986 34.435C52.2799 34.435 52.6219 34.5617 52.8246 34.815C53.0399 35.0557 53.1476 35.3597 53.1476 35.727C53.1476 36.1197 53.0146 36.449 52.7486 36.715C52.4953 36.9683 52.1153 37.095 51.6086 37.095C51.2666 37.095 50.9119 37.0633 50.5446 37C50.1773 36.9493 49.8226 36.8417 49.4806 36.677C49.1386 36.4997 48.8346 36.2463 48.5686 35.917C48.3026 35.5877 48.0936 35.1507 47.9416 34.606L48.2836 34.72C48.1063 35.3533 47.8656 35.841 47.5616 36.183C47.2576 36.525 46.8839 36.7657 46.4406 36.905C45.9973 37.0317 45.4653 37.095 44.8446 37.095C44.2746 37.095 43.7679 37.019 43.3246 36.867C42.8813 36.715 42.5266 36.468 42.2606 36.126C42.0073 35.7713 41.8743 35.2963 41.8616 34.701H42.5076C42.2543 35.4103 41.9629 35.936 41.6336 36.278C41.3043 36.62 40.9053 36.8417 40.4366 36.943C39.9679 37.0443 39.3789 37.095 38.6696 37.095C38.2389 37.095 37.8146 37.0507 37.3966 36.962C36.9786 36.8607 36.6049 36.639 36.2756 36.297C35.9463 35.9423 35.7056 35.385 35.5536 34.625L36.5796 34.587C36.3136 35.3343 35.9653 35.8853 35.5346 36.24C35.1166 36.5947 34.6353 36.829 34.0906 36.943C33.5459 37.0443 32.9379 37.095 32.2666 37.095ZM52.0955 25.942L51.8865 24.745C52.5578 24.745 53.1848 24.65 53.7675 24.46C54.3501 24.2573 54.8188 24.004 55.1735 23.7C55.5281 23.396 55.7055 23.0983 55.7055 22.807C55.7055 22.6297 55.6548 22.4713 55.5535 22.332C55.4521 22.1927 55.3065 22.123 55.1165 22.123C54.9518 22.123 54.8061 22.1863 54.6795 22.313C54.5528 22.4397 54.4895 22.598 54.4895 22.788C54.4895 23.0287 54.5845 23.244 54.7745 23.434C54.9645 23.6113 55.1925 23.757 55.4585 23.871L54.6415 24.593C54.2615 24.4157 53.9321 24.1813 53.6535 23.89C53.3748 23.586 53.2355 23.1997 53.2355 22.731C53.2355 22.2117 53.4128 21.781 53.7675 21.439C54.1348 21.097 54.5908 20.926 55.1355 20.926C55.7308 20.926 56.1805 21.116 56.4845 21.496C56.7885 21.876 56.9405 22.3067 56.9405 22.788C56.9405 23.396 56.7188 23.928 56.2755 24.384C55.8448 24.84 55.2621 25.201 54.5275 25.467C53.8055 25.733 52.9948 25.8913 52.0955 25.942ZM51.6191 37.095L51.8091 34.435C52.5691 34.435 53.1518 34.397 53.5571 34.321C53.9625 34.245 54.2411 34.1057 54.3931 33.903C54.5578 33.6877 54.6401 33.3837 54.6401 32.991C54.6401 32.6363 54.5895 32.212 54.4881 31.718C54.3995 31.224 54.2791 30.711 54.1271 30.179C53.9878 29.647 53.8358 29.1593 53.6711 28.716L56.2931 27.994C56.4578 28.4247 56.6161 28.925 56.7681 29.495C56.9201 30.065 57.0468 30.654 57.1481 31.262C57.2495 31.8573 57.3001 32.4337 57.3001 32.991C57.3001 33.8523 57.1608 34.5553 56.8821 35.1C56.6035 35.632 56.2108 36.0437 55.7041 36.335C55.2101 36.6263 54.6148 36.829 53.9181 36.943C53.2215 37.0443 52.4551 37.095 51.6191 37.095ZM56.3121 41.503C55.9448 41.503 55.6281 41.37 55.3621 41.104C55.1088 40.8507 54.9821 40.5467 54.9821 40.192C54.9821 39.8247 55.1088 39.508 55.3621 39.242C55.6281 38.976 55.9448 38.843 56.3121 38.843C56.6668 38.843 56.9708 38.976 57.2241 39.242C57.4775 39.508 57.6041 39.8247 57.6041 40.192C57.6041 40.5467 57.4775 40.8507 57.2241 41.104C56.9708 41.37 56.6668 41.503 56.3121 41.503ZM53.0251 41.503C52.6578 41.503 52.3411 41.37 52.0751 41.104C51.8218 40.8507 51.6951 40.5467 51.6951 40.192C51.6951 39.8247 51.8218 39.508 52.0751 39.242C52.3411 38.976 52.6578 38.843 53.0251 38.843C53.3798 38.843 53.6838 38.976 53.9371 39.242C54.1905 39.508 54.3171 39.8247 54.3171 40.192C54.3171 40.5467 54.1905 40.8507 53.9371 41.104C53.6838 41.37 53.3798 41.503 53.0251 41.503ZM64.0129 45.477V44.147L68.4969 42.817V44.185L64.0129 45.477ZM63.1487 41.389L62.1797 39.033C62.8511 38.805 63.4654 38.539 64.0227 38.235C64.5927 37.931 65.0867 37.5953 65.5047 37.228C65.9227 36.8607 66.2457 36.4617 66.4737 36.031C66.7017 35.5877 66.8157 35.1127 66.8157 34.606C66.8157 34.074 66.6954 33.4913 66.4547 32.858C66.2141 32.2247 65.9227 31.5787 65.5807 30.92L68.0697 29.723C68.2977 30.1157 68.4941 30.54 68.6587 30.996C68.8361 31.4393 68.9817 31.8383 69.0957 32.193C69.2097 32.5477 69.2857 32.7883 69.3237 32.915C69.5011 33.523 69.7417 33.9283 70.0457 34.131C70.3624 34.3337 70.8691 34.435 71.5657 34.435C72.0471 34.435 72.3891 34.5617 72.5917 34.815C72.8071 35.0557 72.9147 35.3597 72.9147 35.727C72.9147 36.1197 72.7817 36.449 72.5157 36.715C72.2497 36.9683 71.8697 37.095 71.3757 37.095C70.8564 37.095 70.4004 37.019 70.0077 36.867C69.6151 36.715 69.2984 36.4933 69.0577 36.202C68.8297 35.9107 68.6841 35.5687 68.6207 35.176L69.3237 35.575C69.2477 36.2463 69.0261 36.8797 68.6587 37.475C68.3041 38.083 67.8417 38.6403 67.2717 39.147C66.7017 39.6537 66.0621 40.097 65.3527 40.477C64.6434 40.857 63.9087 41.161 63.1487 41.389ZM80.8074 27.258C80.1994 27.258 79.7371 27.0743 79.4204 26.707C79.1038 26.327 78.9454 25.8837 78.9454 25.377C78.9454 24.9717 79.0278 24.6043 79.1924 24.275C79.3698 23.933 79.6041 23.6607 79.8954 23.458C80.1868 23.2553 80.5224 23.154 80.9024 23.154C81.2571 23.154 81.5674 23.2553 81.8334 23.458C82.1121 23.6607 82.3274 23.9267 82.4794 24.256C82.6441 24.5727 82.7264 24.9147 82.7264 25.282C82.7264 25.8267 82.5491 26.2953 82.1944 26.688C81.8398 27.068 81.3774 27.258 80.8074 27.258ZM80.7884 26.042C81.0038 26.042 81.1874 25.9723 81.3394 25.833C81.5041 25.6937 81.5864 25.51 81.5864 25.282C81.5864 25.0413 81.5041 24.845 81.3394 24.693C81.1748 24.5283 80.9974 24.446 80.8074 24.446C80.5668 24.446 80.3768 24.5283 80.2374 24.693C80.1108 24.8577 80.0474 25.0477 80.0474 25.263C80.0474 25.491 80.1171 25.681 80.2564 25.833C80.3958 25.9723 80.5731 26.042 80.7884 26.042ZM71.3984 37.095L71.5884 34.435C72.0064 34.435 72.3484 34.4033 72.6144 34.34C72.8804 34.264 73.0958 34.1057 73.2604 33.865C73.4378 33.6117 73.5898 33.238 73.7164 32.744C73.8558 32.2373 74.0078 31.5533 74.1724 30.692L76.6424 31.148C76.5918 31.4267 76.5221 31.775 76.4334 32.193C76.3574 32.611 76.3194 32.972 76.3194 33.276C76.3194 33.5167 76.3638 33.7257 76.4524 33.903C76.5538 34.0677 76.7184 34.2007 76.9464 34.302C77.1871 34.3907 77.5164 34.435 77.9344 34.435C78.2638 34.435 78.5424 34.4033 78.7704 34.34C79.0111 34.264 79.2138 34.1057 79.3784 33.865C79.5558 33.6117 79.7078 33.2253 79.8344 32.706C79.9738 32.174 80.1068 31.4583 80.2334 30.559L82.7414 30.958C82.6908 31.2493 82.6401 31.5597 82.5894 31.889C82.5388 32.2183 82.4944 32.5223 82.4564 32.801C82.4184 33.0797 82.3994 33.3077 82.3994 33.485C82.3994 33.6497 82.4438 33.808 82.5324 33.96C82.6338 34.0993 82.8111 34.2133 83.0644 34.302C83.3304 34.3907 83.6978 34.435 84.1664 34.435C84.7364 34.435 85.1544 34.3147 85.4204 34.074C85.6991 33.8207 85.8384 33.4407 85.8384 32.934C85.8384 32.6427 85.8321 32.3323 85.8194 32.003C85.8068 31.661 85.7814 31.281 85.7434 30.863C85.7181 30.4323 85.6674 29.9447 85.5914 29.4L88.0424 29.21C88.1311 30.2993 88.2324 31.186 88.3464 31.87C88.4604 32.554 88.6124 33.086 88.8024 33.466C89.0051 33.8333 89.2711 34.0867 89.6004 34.226C89.9424 34.3653 90.3858 34.435 90.9304 34.435C91.4118 34.435 91.7538 34.5617 91.9564 34.815C92.1718 35.0557 92.2794 35.3597 92.2794 35.727C92.2794 36.1197 92.1464 36.449 91.8804 36.715C91.6271 36.9683 91.2471 37.095 90.7404 37.095C90.3984 37.095 90.0438 37.0633 89.6764 37C89.3091 36.9493 88.9544 36.8417 88.6124 36.677C88.2704 36.4997 87.9664 36.2463 87.7004 35.917C87.4344 35.5877 87.2254 35.1507 87.0734 34.606L87.4154 34.72C87.2381 35.3533 86.9974 35.841 86.6934 36.183C86.3894 36.525 86.0158 36.7657 85.5724 36.905C85.1291 37.0317 84.5971 37.095 83.9764 37.095C83.4064 37.095 82.8998 37.019 82.4564 36.867C82.0131 36.715 81.6584 36.468 81.3924 36.126C81.1391 35.7713 81.0061 35.2963 80.9934 34.701H81.6394C81.3861 35.4103 81.0948 35.936 80.7654 36.278C80.4361 36.62 80.0371 36.8417 79.5684 36.943C79.0998 37.0443 78.5108 37.095 77.8014 37.095C77.3708 37.095 76.9464 37.0507 76.5284 36.962C76.1104 36.8607 75.7368 36.639 75.4074 36.297C75.0781 35.9423 74.8374 35.385 74.6854 34.625L75.7114 34.587C75.4454 35.3343 75.0971 35.8853 74.6664 36.24C74.2484 36.5947 73.7671 36.829 73.2224 36.943C72.6778 37.0443 72.0698 37.095 71.3984 37.095ZM93.4168 25.942L93.2078 24.745C93.8791 24.745 94.5061 24.65 95.0888 24.46C95.6714 24.2573 96.1401 24.004 96.4948 23.7C96.8494 23.396 97.0268 23.0983 97.0268 22.807C97.0268 22.6297 96.9761 22.4713 96.8748 22.332C96.7734 22.1927 96.6278 22.123 96.4378 22.123C96.2731 22.123 96.1274 22.1863 96.0008 22.313C95.8741 22.4397 95.8108 22.598 95.8108 22.788C95.8108 23.0287 95.9058 23.244 96.0958 23.434C96.2858 23.6113 96.5138 23.757 96.7798 23.871L95.9628 24.593C95.5828 24.4157 95.2534 24.1813 94.9748 23.89C94.6961 23.586 94.5568 23.1997 94.5568 22.731C94.5568 22.2117 94.7341 21.781 95.0888 21.439C95.4561 21.097 95.9121 20.926 96.4568 20.926C97.0521 20.926 97.5018 21.116 97.8058 21.496C98.1098 21.876 98.2618 22.3067 98.2618 22.788C98.2618 23.396 98.0401 23.928 97.5968 24.384C97.1661 24.84 96.5834 25.201 95.8488 25.467C95.1268 25.733 94.3161 25.8913 93.4168 25.942ZM90.675 37.095L90.865 34.435C91.7516 34.435 92.5496 34.378 93.259 34.264C93.9683 34.1373 94.589 33.9727 95.121 33.77C95.6656 33.5673 96.1153 33.333 96.47 33.067C96.8373 32.801 97.1096 32.5223 97.287 32.231C97.477 31.927 97.572 31.6293 97.572 31.338C97.572 31.1733 97.5276 31.0213 97.439 30.882C97.363 30.73 97.23 30.6097 97.04 30.521C96.85 30.4197 96.5903 30.369 96.261 30.369C96.0963 30.369 95.9 30.388 95.672 30.426C95.444 30.464 95.216 30.521 94.988 30.597C94.76 30.6603 94.5446 30.749 94.342 30.863C94.608 31.0657 94.8993 31.3253 95.216 31.642C95.5326 31.946 95.8493 32.269 96.166 32.611C96.4826 32.9403 96.755 33.2633 96.983 33.58C97.249 33.694 97.5403 33.808 97.857 33.922C98.1863 34.0233 98.541 34.112 98.921 34.188C99.301 34.264 99.7 34.3273 100.118 34.378C100.536 34.416 100.967 34.435 101.41 34.435C101.891 34.435 102.233 34.5617 102.436 34.815C102.651 35.0557 102.759 35.3597 102.759 35.727C102.759 36.1197 102.626 36.449 102.36 36.715C102.094 36.9683 101.714 37.095 101.22 37.095C100.207 37.095 99.3073 37.019 98.522 36.867C97.7366 36.7023 97.0336 36.468 96.413 36.164C95.805 35.8473 95.235 35.4673 94.703 35.024C94.551 34.758 94.3356 34.473 94.057 34.169C93.791 33.8523 93.506 33.5483 93.202 33.257C92.9106 32.9657 92.6446 32.725 92.404 32.535C92.3406 32.4843 92.2646 32.3513 92.176 32.136C92.1 31.908 92.0303 31.6737 91.967 31.433C91.9036 31.1797 91.872 31.0023 91.872 30.901C91.872 30.6097 92.005 30.2993 92.271 29.97C92.5496 29.6407 92.917 29.3367 93.373 29.058C93.8416 28.7667 94.3546 28.5323 94.912 28.355C95.482 28.165 96.0583 28.07 96.641 28.07C97.4263 28.07 98.0786 28.1903 98.598 28.431C99.13 28.659 99.529 28.982 99.795 29.4C100.061 29.8053 100.194 30.2803 100.194 30.825C100.194 31.433 100.061 32.041 99.795 32.649C99.529 33.2443 99.1363 33.808 98.617 34.34C98.1103 34.872 97.4706 35.347 96.698 35.765C95.938 36.1703 95.0513 36.4933 94.038 36.734C93.0373 36.9747 91.9163 37.095 90.675 37.095ZM104.168 20.258C103.56 20.258 103.097 20.0743 102.781 19.707C102.464 19.327 102.306 18.8837 102.306 18.377C102.306 17.9717 102.388 17.6043 102.553 17.275C102.73 16.933 102.964 16.6607 103.256 16.458C103.547 16.2553 103.883 16.154 104.263 16.154C104.617 16.154 104.928 16.2553 105.194 16.458C105.472 16.6607 105.688 16.9267 105.84 17.256C106.004 17.5727 106.087 17.9147 106.087 18.282C106.087 18.8267 105.909 19.2953 105.555 19.688C105.2 20.068 104.738 20.258 104.168 20.258ZM104.149 19.042C104.364 19.042 104.548 18.9723 104.7 18.833C104.864 18.6937 104.947 18.51 104.947 18.282C104.947 18.0413 104.864 17.845 104.7 17.693C104.535 17.5283 104.358 17.446 104.168 17.446C103.927 17.446 103.737 17.5283 103.598 17.693C103.471 17.8577 103.408 18.0477 103.408 18.263C103.408 18.491 103.477 18.681 103.617 18.833C103.756 18.9723 103.933 19.042 104.149 19.042ZM101.234 37.095L101.424 34.435C102.007 34.435 102.425 34.378 102.678 34.264C102.932 34.1373 103.084 33.9093 103.134 33.58C103.185 33.238 103.198 32.744 103.172 32.098L102.83 23.092H105.509L105.889 32.288C105.915 33.0227 105.883 33.6877 105.794 34.283C105.718 34.8657 105.522 35.366 105.205 35.784C104.901 36.202 104.426 36.525 103.78 36.753C103.147 36.981 102.298 37.095 101.234 37.095ZM108.395 37L107.996 23.092H110.656L111.055 37H108.395ZM120.252 25.79V24.46L124.736 23.13V24.498L120.252 25.79ZM122.662 44.486C121.826 44.486 121.04 44.3973 120.306 44.22C119.571 44.0427 118.925 43.7703 118.368 43.403C117.823 43.0357 117.392 42.5607 117.076 41.978C116.772 41.3953 116.62 40.705 116.62 39.907C116.62 39.0837 116.791 38.3553 117.133 37.722C117.475 37.1013 117.912 36.5567 118.444 36.088C118.976 35.6067 119.539 35.176 120.135 34.796C120.743 34.4033 121.313 34.0297 121.845 33.675C122.377 33.3203 122.814 32.9593 123.156 32.592C123.498 32.212 123.669 31.794 123.669 31.338C123.669 31.1733 123.624 31.0213 123.536 30.882C123.46 30.73 123.327 30.6097 123.137 30.521C122.959 30.4197 122.706 30.369 122.377 30.369C122.161 30.369 121.94 30.3943 121.712 30.445C121.484 30.483 121.262 30.54 121.047 30.616C120.831 30.6793 120.629 30.7617 120.439 30.863C120.768 31.129 121.091 31.4267 121.408 31.756C121.737 32.0727 122.035 32.383 122.301 32.687C122.579 32.9783 122.795 33.2317 122.947 33.447C123.238 33.599 123.555 33.7383 123.897 33.865C124.239 33.979 124.6 34.0803 124.98 34.169C125.372 34.2577 125.778 34.3273 126.196 34.378C126.614 34.416 127.044 34.435 127.488 34.435C127.969 34.435 128.311 34.5617 128.514 34.815C128.716 35.0557 128.818 35.3597 128.818 35.727C128.818 36.1197 128.685 36.449 128.419 36.715C128.153 36.9683 127.779 37.095 127.298 37.095C126.246 37.095 125.347 37.019 124.6 36.867C123.865 36.715 123.2 36.487 122.605 36.183C122.022 35.8663 121.42 35.48 120.8 35.024C120.648 34.758 120.426 34.4667 120.135 34.15C119.843 33.8207 119.546 33.5103 119.242 33.219C118.95 32.9277 118.703 32.6997 118.501 32.535C118.463 32.497 118.399 32.3703 118.311 32.155C118.222 31.927 118.14 31.6863 118.064 31.433C118 31.1797 117.969 31.0023 117.969 30.901C117.969 30.6477 118.089 30.3627 118.33 30.046C118.57 29.7167 118.906 29.4063 119.337 29.115C119.78 28.811 120.293 28.564 120.876 28.374C121.458 28.1713 122.092 28.07 122.776 28.07C124.017 28.07 124.91 28.336 125.455 28.868C126.012 29.3873 126.291 30.0587 126.291 30.882C126.291 31.642 126.12 32.3197 125.778 32.915C125.448 33.5103 125.018 34.055 124.486 34.549C123.954 35.043 123.39 35.499 122.795 35.917C122.212 36.335 121.655 36.7403 121.123 37.133C120.591 37.5383 120.154 37.9437 119.812 38.349C119.482 38.767 119.318 39.2167 119.318 39.698C119.318 40.1033 119.419 40.439 119.622 40.705C119.837 40.9837 120.109 41.2053 120.439 41.37C120.768 41.5347 121.129 41.6487 121.522 41.712C121.927 41.788 122.32 41.826 122.7 41.826C123.092 41.826 123.498 41.7943 123.916 41.731C124.346 41.6677 124.79 41.5663 125.246 41.427C125.714 41.3003 126.196 41.1357 126.69 40.933L127.488 43.213C127.006 43.4663 126.493 43.688 125.949 43.878C125.404 44.0807 124.853 44.2327 124.296 44.334C123.738 44.4353 123.194 44.486 122.662 44.486ZM131.515 26.79V25.46L135.999 24.13V25.498L131.515 26.79ZM127.304 37.095L127.494 34.435C127.785 34.435 128.032 34.3653 128.235 34.226C128.45 34.074 128.672 33.827 128.9 33.485C129.128 33.1303 129.394 32.6553 129.698 32.06C130.078 31.3 130.47 30.7047 130.876 30.274C131.294 29.8433 131.718 29.5393 132.149 29.362C132.592 29.172 133.035 29.077 133.479 29.077C134.036 29.077 134.555 29.1973 135.037 29.438C135.518 29.6787 135.936 30.008 136.291 30.426C136.645 30.8313 136.918 31.3 137.108 31.832C137.31 32.3513 137.412 32.8897 137.412 33.447C137.412 34.1183 137.266 34.7263 136.975 35.271C136.696 35.803 136.303 36.2273 135.797 36.544C135.303 36.848 134.733 37 134.087 37C133.542 37 132.909 36.905 132.187 36.715C131.465 36.525 130.705 36.126 129.907 35.518L130.876 33.219C131.446 33.6117 131.978 33.8967 132.472 34.074C132.978 34.2513 133.396 34.34 133.726 34.34C133.979 34.34 134.188 34.3147 134.353 34.264C134.517 34.2133 134.638 34.131 134.714 34.017C134.79 33.903 134.828 33.751 134.828 33.561C134.828 33.295 134.764 33.0227 134.638 32.744C134.511 32.4653 134.34 32.231 134.125 32.041C133.922 31.8383 133.681 31.737 133.403 31.737C133.137 31.737 132.909 31.8383 132.719 32.041C132.541 32.231 132.364 32.5097 132.187 32.877C132.022 33.2317 131.819 33.6497 131.579 34.131C131.287 34.7137 131.002 35.2013 130.724 35.594C130.445 35.974 130.147 36.278 129.831 36.506C129.527 36.7213 129.166 36.8733 128.748 36.962C128.342 37.0507 127.861 37.095 127.304 37.095ZM146.618 19.79V18.46L151.102 17.13V18.498L146.618 19.79ZM147.698 24.771C147.229 24.771 146.913 24.6063 146.748 24.277C146.583 23.9477 146.501 23.5867 146.501 23.194C146.501 23.0547 146.507 22.909 146.52 22.757C146.545 22.5923 146.577 22.4087 146.615 22.206L147.755 21.94C147.717 22.1553 147.685 22.358 147.66 22.548C147.647 22.7253 147.641 22.8837 147.641 23.023C147.641 23.1877 147.673 23.3143 147.736 23.403C147.799 23.4917 147.888 23.536 148.002 23.536C148.154 23.536 148.274 23.4473 148.363 23.27C148.464 23.0927 148.515 22.7507 148.515 22.244V21.674L149.617 21.332V22.491C149.617 22.6303 149.642 22.7443 149.693 22.833C149.756 22.9217 149.851 22.966 149.978 22.966C150.155 22.966 150.276 22.9153 150.339 22.814C150.415 22.7 150.453 22.567 150.453 22.415C150.453 22.1997 150.428 21.9843 150.377 21.769C150.326 21.541 150.257 21.3193 150.168 21.104L151.213 20.838C151.34 21.0787 151.441 21.3573 151.517 21.674C151.606 21.978 151.65 22.2567 151.65 22.51C151.65 22.928 151.53 23.308 151.289 23.65C151.048 23.9793 150.656 24.144 150.111 24.144C149.769 24.144 149.478 24.0427 149.237 23.84C148.996 23.6247 148.876 23.3713 148.876 23.08L149.313 23.251C149.313 23.6817 149.161 24.0427 148.857 24.334C148.566 24.6253 148.179 24.771 147.698 24.771ZM143.254 36.468C143.254 36.1767 143.279 35.8347 143.33 35.442C143.38 35.0493 143.475 34.606 143.615 34.112C143.754 33.6053 143.963 33.0417 144.242 32.421L146.579 33.238C146.439 33.6307 146.319 33.9917 146.218 34.321C146.116 34.6377 146.04 34.9353 145.99 35.214C145.939 35.48 145.914 35.746 145.914 36.012C145.914 36.6327 146.053 37.1393 146.332 37.532C146.623 37.9373 147.028 38.235 147.548 38.425C148.067 38.6277 148.669 38.729 149.353 38.729C150.138 38.729 150.784 38.6213 151.291 38.406C151.797 38.2033 152.19 37.931 152.469 37.589C152.747 37.2597 152.944 36.8987 153.058 36.506C153.172 36.1007 153.229 35.708 153.229 35.328C153.229 34.8087 153.14 34.1943 152.963 33.485C152.785 32.763 152.469 31.9523 152.013 31.053L154.464 30.008C154.717 30.4513 154.951 30.9707 155.167 31.566C155.382 32.1487 155.553 32.7567 155.68 33.39C155.819 34.0233 155.889 34.625 155.889 35.195C155.889 35.7017 155.825 36.24 155.699 36.81C155.572 37.3673 155.357 37.9183 155.053 38.463C154.761 39.0077 154.362 39.4953 153.856 39.926C153.349 40.3693 152.722 40.724 151.975 40.99C151.227 41.256 150.334 41.389 149.296 41.389C148.46 41.389 147.674 41.294 146.94 41.104C146.218 40.9267 145.578 40.6417 145.021 40.249C144.476 39.8563 144.045 39.3433 143.729 38.71C143.412 38.0893 143.254 37.342 143.254 36.468ZM149.448 29.248C149.055 29.248 148.719 29.115 148.441 28.849C148.175 28.583 148.042 28.2537 148.042 27.861C148.042 27.4683 148.175 27.1327 148.441 26.854C148.719 26.5753 149.055 26.436 149.448 26.436C149.828 26.436 150.151 26.5753 150.417 26.854C150.695 27.1327 150.835 27.4683 150.835 27.861C150.835 28.2537 150.695 28.583 150.417 28.849C150.151 29.115 149.828 29.248 149.448 29.248ZM157.881 46.477V45.147L162.365 43.817V45.185L157.881 46.477ZM158.363 37L157.964 23.092H160.624L161.023 37H158.363ZM158.249 42.871L157.926 41.541C158.369 41.465 158.698 41.4017 158.914 41.351C159.142 41.3003 159.382 41.2433 159.636 41.18L159.446 41.655C159.116 41.541 158.8 41.313 158.496 40.971C158.204 40.6417 158.059 40.2617 158.059 39.831C158.059 39.375 158.16 39.0077 158.363 38.729C158.565 38.4503 158.825 38.2477 159.142 38.121C159.458 37.9943 159.788 37.931 160.13 37.931C160.32 37.931 160.497 37.9437 160.662 37.969C160.839 37.9943 160.997 38.0323 161.137 38.083L160.985 39.451C160.858 39.4257 160.731 39.4003 160.605 39.375C160.478 39.3497 160.339 39.337 160.187 39.337C160.022 39.337 159.87 39.3877 159.731 39.489C159.604 39.603 159.541 39.736 159.541 39.888C159.541 40.1033 159.617 40.2933 159.769 40.458C159.921 40.6227 160.098 40.7493 160.301 40.838C160.516 40.9393 160.693 40.9963 160.833 41.009L159.788 41.123C160.13 41.0343 160.453 40.9393 160.757 40.838C161.061 40.7493 161.346 40.6543 161.612 40.553L161.992 41.826C161.675 41.94 161.301 42.0603 160.871 42.187C160.453 42.3263 160.016 42.453 159.56 42.567C159.116 42.681 158.679 42.7823 158.249 42.871Z" fill="#FBFBFB"/>
<path d="M20.9389 70.5455V73.7955H19.9233V70.5455H20.9389ZM23.3026 70.5455V73.7955H22.2869V70.5455H23.3026ZM26.5329 70.5455V80H25.3881V70.5455H26.5329ZM29.7702 75.7344V80H28.6808V72.9091H29.7333V74.017H29.8256C29.9918 73.657 30.2442 73.3677 30.5827 73.1491C30.9213 72.9276 31.3583 72.8168 31.8938 72.8168C32.3739 72.8168 32.794 72.9152 33.1541 73.1122C33.5142 73.3061 33.7943 73.6016 33.9943 73.9986C34.1944 74.3925 34.2944 74.8911 34.2944 75.4943V80H33.2049V75.5682C33.2049 75.0111 33.0603 74.5772 32.771 74.2663C32.4817 73.9524 32.0846 73.7955 31.5799 73.7955C31.2321 73.7955 30.9213 73.8709 30.6474 74.0217C30.3765 74.1725 30.1626 74.3925 30.0057 74.6818C29.8487 74.9711 29.7702 75.322 29.7702 75.7344ZM38.9628 80.1477C38.3719 80.1477 37.8502 79.9985 37.3978 79.6999C36.9454 79.3983 36.5915 78.9736 36.336 78.4258C36.0806 77.8749 35.9529 77.224 35.9529 76.473C35.9529 75.7282 36.0806 75.0819 36.336 74.5341C36.5915 73.9863 36.9469 73.5631 37.4024 73.2646C37.8579 72.966 38.3842 72.8168 38.9813 72.8168C39.4429 72.8168 39.8076 72.8937 40.0754 73.0476C40.3462 73.1984 40.5524 73.3707 40.694 73.5646C40.8386 73.7554 40.951 73.9124 41.031 74.0355H41.1233V70.5455H42.2128V80H41.1602V78.9105H41.031C40.951 79.0398 40.8371 79.2029 40.6894 79.3999C40.5416 79.5937 40.3308 79.7676 40.0569 79.9215C39.783 80.0723 39.4183 80.1477 38.9628 80.1477ZM39.1105 79.169C39.5476 79.169 39.9169 79.0552 40.2185 78.8274C40.5201 78.5966 40.7494 78.2781 40.9063 77.8718C41.0633 77.4625 41.1418 76.9901 41.1418 76.4545C41.1418 75.9252 41.0648 75.462 40.911 75.065C40.7571 74.6649 40.5293 74.354 40.2277 74.1325C39.9261 73.9078 39.5537 73.7955 39.1105 73.7955C38.6489 73.7955 38.2642 73.9139 37.9564 74.1509C37.6517 74.3848 37.4224 74.7034 37.2686 75.1065C37.1177 75.5066 37.0423 75.956 37.0423 76.4545C37.0423 76.9593 37.1193 77.4179 37.2732 77.8303C37.4301 78.2396 37.661 78.5658 37.9656 78.8089C38.2734 79.049 38.655 79.169 39.1105 79.169ZM47.3325 80.1477C46.6492 80.1477 46.0599 79.9969 45.5644 79.6953C45.0719 79.3906 44.6919 78.9659 44.4241 78.4212C44.1594 77.8733 44.0271 77.2363 44.0271 76.5099C44.0271 75.7836 44.1594 75.1435 44.4241 74.5895C44.6919 74.0324 45.0642 73.5985 45.5413 73.2876C46.0214 72.9737 46.5815 72.8168 47.2217 72.8168C47.591 72.8168 47.9557 72.8783 48.3158 73.0014C48.6759 73.1245 49.0036 73.3246 49.2991 73.6016C49.5945 73.8755 49.83 74.2386 50.0054 74.6911C50.1808 75.1435 50.2686 75.7005 50.2686 76.3622V76.8239H44.8026V75.8821H49.1606C49.1606 75.482 49.0806 75.125 48.9205 74.8111C48.7636 74.4972 48.5389 74.2494 48.2465 74.0678C47.9572 73.8862 47.6156 73.7955 47.2217 73.7955C46.7877 73.7955 46.4123 73.9032 46.0953 74.1186C45.7813 74.331 45.5397 74.608 45.3705 74.9496C45.2012 75.2912 45.1166 75.6574 45.1166 76.0483V76.6761C45.1166 77.2116 45.2089 77.6656 45.3936 78.038C45.5813 78.4073 45.8414 78.6889 46.1737 78.8828C46.5061 79.0736 46.8924 79.169 47.3325 79.169C47.6187 79.169 47.8772 79.129 48.108 79.049C48.3419 78.9659 48.5435 78.8428 48.7128 78.6797C48.8821 78.5135 49.0129 78.3073 49.1052 78.0611L50.1578 78.3565C50.047 78.7135 49.8608 79.0275 49.5992 79.2983C49.3376 79.5661 49.0144 79.7753 48.6297 79.9261C48.245 80.0739 47.8126 80.1477 47.3325 80.1477ZM54.8989 80.1477C54.2156 80.1477 53.6263 79.9969 53.1308 79.6953C52.6383 79.3906 52.2583 78.9659 51.9905 78.4212C51.7258 77.8733 51.5935 77.2363 51.5935 76.5099C51.5935 75.7836 51.7258 75.1435 51.9905 74.5895C52.2583 74.0324 52.6307 73.5985 53.1077 73.2876C53.5878 72.9737 54.1479 72.8168 54.7881 72.8168C55.1574 72.8168 55.5221 72.8783 55.8822 73.0014C56.2423 73.1245 56.57 73.3246 56.8655 73.6016C57.161 73.8755 57.3964 74.2386 57.5718 74.6911C57.7472 75.1435 57.835 75.7005 57.835 76.3622V76.8239H52.3691V75.8821H56.727C56.727 75.482 56.647 75.125 56.4869 74.8111C56.33 74.4972 56.1053 74.2494 55.8129 74.0678C55.5236 73.8862 55.182 73.7955 54.7881 73.7955C54.3541 73.7955 53.9787 73.9032 53.6617 74.1186C53.3477 74.331 53.1061 74.608 52.9369 74.9496C52.7676 75.2912 52.683 75.6574 52.683 76.0483V76.6761C52.683 77.2116 52.7753 77.6656 52.96 78.038C53.1477 78.4073 53.4078 78.6889 53.7401 78.8828C54.0725 79.0736 54.4588 79.169 54.8989 79.169C55.1851 79.169 55.4436 79.129 55.6744 79.049C55.9084 78.9659 56.1099 78.8428 56.2792 78.6797C56.4485 78.5135 56.5793 78.3073 56.6716 78.0611L57.7242 78.3565C57.6134 78.7135 57.4272 79.0275 57.1656 79.2983C56.904 79.5661 56.5808 79.7753 56.1961 79.9261C55.8114 80.0739 55.379 80.1477 54.8989 80.1477ZM62.1698 80.1477C61.5789 80.1477 61.0573 79.9985 60.6048 79.6999C60.1524 79.3983 59.7985 78.9736 59.5431 78.4258C59.2876 77.8749 59.1599 77.224 59.1599 76.473C59.1599 75.7282 59.2876 75.0819 59.5431 74.5341C59.7985 73.9863 60.154 73.5631 60.6095 73.2646C61.065 72.966 61.5912 72.8168 62.1883 72.8168C62.6499 72.8168 63.0146 72.8937 63.2824 73.0476C63.5532 73.1984 63.7594 73.3707 63.901 73.5646C64.0457 73.7554 64.158 73.9124 64.238 74.0355H64.3303V70.5455H65.4198V80H64.3673V78.9105H64.238C64.158 79.0398 64.0441 79.2029 63.8964 79.3999C63.7487 79.5937 63.5378 79.7676 63.2639 79.9215C62.99 80.0723 62.6253 80.1477 62.1698 80.1477ZM62.3176 79.169C62.7546 79.169 63.1239 79.0552 63.4255 78.8274C63.7271 78.5966 63.9564 78.2781 64.1134 77.8718C64.2703 77.4625 64.3488 76.9901 64.3488 76.4545C64.3488 75.9252 64.2719 75.462 64.118 75.065C63.9641 74.6649 63.7364 74.354 63.4347 74.1325C63.1331 73.9078 62.7607 73.7955 62.3176 73.7955C61.8559 73.7955 61.4712 73.9139 61.1634 74.1509C60.8588 74.3848 60.6295 74.7034 60.4756 75.1065C60.3248 75.5066 60.2494 75.956 60.2494 76.4545C60.2494 76.9593 60.3263 77.4179 60.4802 77.8303C60.6372 78.2396 60.868 78.5658 61.1727 78.8089C61.4804 79.049 61.8621 79.169 62.3176 79.169ZM69.1915 78.7074L69.1176 79.206C69.0653 79.5568 68.9853 79.9323 68.8776 80.3324C68.7729 80.7325 68.6637 81.1095 68.5498 81.4634C68.4359 81.8174 68.3421 82.099 68.2682 82.3082H67.4372C67.4772 82.1113 67.5296 81.8512 67.5942 81.5281C67.6588 81.2049 67.7235 80.8433 67.7881 80.4432C67.8558 80.0462 67.9112 79.6399 67.9543 79.2244L68.0097 78.7074H69.1915ZM76.7314 80L74.1461 70.5455H75.3095L77.2853 78.2457H77.3777L79.3904 70.5455H80.6831L82.6958 78.2457H82.7882L84.764 70.5455H85.9274L83.3422 80H82.1603L80.0737 72.4659H79.9998L77.9132 80H76.7314ZM87.2061 80V72.9091H88.2956V80H87.2061ZM87.7601 71.7273C87.5478 71.7273 87.3646 71.6549 87.2108 71.5103C87.06 71.3656 86.9846 71.1918 86.9846 70.9886C86.9846 70.7855 87.06 70.6116 87.2108 70.467C87.3646 70.3223 87.5478 70.25 87.7601 70.25C87.9725 70.25 88.1541 70.3223 88.3049 70.467C88.4587 70.6116 88.5357 70.7855 88.5357 70.9886C88.5357 71.1918 88.4587 71.3656 88.3049 71.5103C88.1541 71.6549 87.9725 71.7273 87.7601 71.7273ZM93.3749 72.9091V73.8324H89.7002V72.9091H93.3749ZM90.7712 71.2102H91.8607V77.9688C91.8607 78.2765 91.9053 78.5073 91.9946 78.6612C92.0869 78.812 92.2039 78.9136 92.3454 78.9659C92.4901 79.0152 92.6424 79.0398 92.8025 79.0398C92.9225 79.0398 93.021 79.0336 93.0979 79.0213C93.1749 79.0059 93.2364 78.9936 93.2826 78.9844L93.5042 79.9631C93.4303 79.9908 93.3272 80.0185 93.1949 80.0462C93.0625 80.0769 92.8948 80.0923 92.6917 80.0923C92.3839 80.0923 92.0823 80.0262 91.7868 79.8938C91.4945 79.7615 91.2513 79.5599 91.0574 79.2891C90.8666 79.0182 90.7712 78.6766 90.7712 78.2642V71.2102ZM96.2556 75.7344V80H95.1661V70.5455H96.2556V74.017H96.3479C96.5141 73.6508 96.7634 73.36 97.0958 73.1445C97.4313 72.926 97.8775 72.8168 98.4346 72.8168C98.9178 72.8168 99.3409 72.9137 99.7041 73.1076C100.067 73.2984 100.349 73.5923 100.549 73.9893C100.752 74.3833 100.854 74.8849 100.854 75.4943V80H99.7641V75.5682C99.7641 75.005 99.6179 74.5695 99.3256 74.2617C99.0363 73.9509 98.6346 73.7955 98.1206 73.7955C97.7636 73.7955 97.4436 73.8709 97.1604 74.0217C96.8804 74.1725 96.6588 74.3925 96.4956 74.6818C96.3356 74.9711 96.2556 75.322 96.2556 75.7344ZM20.1449 96V86.5455H21.2898V90.7557H26.331V86.5455H27.4759V96H26.331V91.7713H21.2898V96H20.1449ZM31.7069 96.1662C31.2575 96.1662 30.8497 96.0816 30.4835 95.9123C30.1172 95.7399 29.8264 95.4922 29.611 95.169C29.3955 94.8428 29.2878 94.4489 29.2878 93.9872C29.2878 93.581 29.3678 93.2517 29.5279 92.9993C29.6879 92.7438 29.9018 92.5438 30.1696 92.3991C30.4373 92.2545 30.7328 92.1468 31.0559 92.076C31.3822 92.0021 31.7099 91.9437 32.0392 91.9006C32.4701 91.8452 32.8194 91.8036 33.0872 91.7759C33.358 91.7451 33.555 91.6944 33.6781 91.6236C33.8043 91.5528 33.8674 91.4297 33.8674 91.2543V91.2173C33.8674 90.7618 33.7427 90.4079 33.4934 90.1555C33.2472 89.9032 32.8733 89.777 32.3716 89.777C31.8515 89.777 31.4437 89.8909 31.1483 90.1186C30.8528 90.3464 30.6451 90.5895 30.525 90.848L29.4909 90.4787C29.6756 90.0478 29.9218 89.7124 30.2296 89.4723C30.5404 89.2292 30.879 89.0599 31.2452 88.9645C31.6145 88.866 31.9777 88.8168 32.3347 88.8168C32.5624 88.8168 32.824 88.8445 33.1195 88.8999C33.418 88.9522 33.7058 89.0614 33.9828 89.2276C34.2628 89.3938 34.4952 89.6446 34.6799 89.9801C34.8645 90.3156 34.9569 90.7649 34.9569 91.3281V96H33.8674V95.0398H33.812C33.7381 95.1937 33.615 95.3583 33.4426 95.5337C33.2703 95.7092 33.041 95.8584 32.7548 95.9815C32.4686 96.1046 32.1193 96.1662 31.7069 96.1662ZM31.873 95.1875C32.3039 95.1875 32.6671 95.1029 32.9625 94.9336C33.2611 94.7643 33.4857 94.5458 33.6365 94.2781C33.7904 94.0103 33.8674 93.7287 33.8674 93.4332V92.4361C33.8212 92.4915 33.7196 92.5423 33.5627 92.5884C33.4088 92.6315 33.2303 92.67 33.0272 92.7038C32.8271 92.7346 32.6317 92.7623 32.4409 92.7869C32.2531 92.8085 32.1008 92.8269 31.9838 92.8423C31.7007 92.8793 31.436 92.9393 31.1898 93.0224C30.9467 93.1024 30.7497 93.224 30.5989 93.3871C30.4512 93.5471 30.3773 93.7656 30.3773 94.0426C30.3773 94.4212 30.5173 94.7074 30.7974 94.9013C31.0806 95.0921 31.4391 95.1875 31.873 95.1875ZM36.9454 96V88.9091H37.998V89.9801H38.0718C38.2011 89.6293 38.435 89.3446 38.7735 89.1261C39.1121 88.9076 39.4937 88.7983 39.9184 88.7983C39.9984 88.7983 40.0985 88.7998 40.2185 88.8029C40.3385 88.806 40.4293 88.8106 40.4909 88.8168V89.9247C40.4539 89.9155 40.3693 89.9016 40.2369 89.8832C40.1077 89.8616 39.9707 89.8509 39.8261 89.8509C39.4814 89.8509 39.1736 89.9232 38.9028 90.0678C38.635 90.2094 38.4227 90.4064 38.2657 90.6587C38.1118 90.908 38.0349 91.1927 38.0349 91.5128V96H36.9454ZM44.2441 96.1477C43.6531 96.1477 43.1315 95.9985 42.6791 95.6999C42.2267 95.3983 41.8727 94.9736 41.6173 94.4258C41.3618 93.8749 41.2341 93.224 41.2341 92.473C41.2341 91.7282 41.3618 91.0819 41.6173 90.5341C41.8727 89.9863 42.2282 89.5631 42.6837 89.2646C43.1392 88.966 43.6655 88.8168 44.2625 88.8168C44.7242 88.8168 45.0889 88.8937 45.3566 89.0476C45.6275 89.1984 45.8337 89.3707 45.9752 89.5646C46.1199 89.7554 46.2322 89.9124 46.3122 90.0355H46.4046V86.5455H47.4941V96H46.4415V94.9105H46.3122C46.2322 95.0398 46.1183 95.2029 45.9706 95.3999C45.8229 95.5937 45.6121 95.7676 45.3382 95.9215C45.0642 96.0723 44.6995 96.1477 44.2441 96.1477ZM44.3918 95.169C44.8288 95.169 45.1981 95.0552 45.4997 94.8274C45.8013 94.5966 46.0306 94.2781 46.1876 93.8718C46.3445 93.4625 46.423 92.9901 46.423 92.4545C46.423 91.9252 46.3461 91.462 46.1922 91.065C46.0383 90.6649 45.8106 90.354 45.509 90.1325C45.2074 89.9078 44.835 89.7955 44.3918 89.7955C43.9301 89.7955 43.5454 89.9139 43.2377 90.1509C42.933 90.3848 42.7037 90.7034 42.5498 91.1065C42.399 91.5066 42.3236 91.956 42.3236 92.4545C42.3236 92.9593 42.4005 93.4179 42.5544 93.8303C42.7114 94.2396 42.9422 94.5658 43.2469 94.8089C43.5547 95.049 43.9363 95.169 44.3918 95.169ZM54.6634 90.4972L53.6847 90.7741C53.6232 90.611 53.5324 90.4525 53.4124 90.2987C53.2954 90.1417 53.1354 90.0124 52.9323 89.9109C52.7291 89.8093 52.4691 89.7585 52.1521 89.7585C51.7181 89.7585 51.3565 89.8585 51.0672 90.0586C50.781 90.2556 50.6379 90.5064 50.6379 90.8111C50.6379 91.0819 50.7364 91.2958 50.9333 91.4528C51.1303 91.6097 51.4381 91.7405 51.8566 91.8452L52.9092 92.1037C53.5432 92.2576 54.0156 92.493 54.3264 92.81C54.6373 93.1239 54.7927 93.5286 54.7927 94.0241C54.7927 94.4304 54.6758 94.7936 54.4419 95.1136C54.211 95.4337 53.8879 95.6861 53.4724 95.8707C53.0569 96.0554 52.5737 96.1477 52.0228 96.1477C51.2996 96.1477 50.701 95.9908 50.227 95.6768C49.753 95.3629 49.453 94.9044 49.3268 94.3011L50.3609 94.0426C50.4594 94.4242 50.6456 94.7105 50.9195 94.9013C51.1965 95.0921 51.5581 95.1875 52.0044 95.1875C52.5122 95.1875 52.9153 95.0798 53.2139 94.8643C53.5155 94.6458 53.6663 94.3842 53.6663 94.0795C53.6663 93.8333 53.5801 93.6271 53.4078 93.4609C53.2354 93.2917 52.9707 93.1655 52.6137 93.0824L51.4319 92.8054C50.7825 92.6515 50.3055 92.413 50.0008 92.0898C49.6992 91.7636 49.5484 91.3558 49.5484 90.8665C49.5484 90.4664 49.6607 90.1125 49.8854 89.8047C50.1131 89.4969 50.4224 89.2553 50.8133 89.0799C51.2072 88.9045 51.6535 88.8168 52.1521 88.8168C52.8538 88.8168 53.4047 88.9706 53.8048 89.2784C54.2079 89.5862 54.4942 89.9924 54.6634 90.4972ZM57.5222 91.7344V96H56.4327V86.5455H57.5222V90.017H57.6145C57.7807 89.6508 58.03 89.36 58.3624 89.1445C58.6979 88.926 59.1441 88.8168 59.7012 88.8168C60.1844 88.8168 60.6075 88.9137 60.9707 89.1076C61.3339 89.2984 61.6155 89.5923 61.8155 89.9893C62.0186 90.3833 62.1202 90.8849 62.1202 91.4943V96H61.0307V91.5682C61.0307 91.005 60.8845 90.5695 60.5922 90.2617C60.3029 89.9509 59.9012 89.7955 59.3873 89.7955C59.0302 89.7955 58.7102 89.8709 58.427 90.0217C58.147 90.1725 57.9254 90.3925 57.7623 90.6818C57.6022 90.9711 57.5222 91.322 57.5222 91.7344ZM64.1134 96V88.9091H65.2029V96H64.1134ZM64.6673 87.7273C64.455 87.7273 64.2719 87.6549 64.118 87.5103C63.9672 87.3656 63.8918 87.1918 63.8918 86.9886C63.8918 86.7855 63.9672 86.6116 64.118 86.467C64.2719 86.3223 64.455 86.25 64.6673 86.25C64.8797 86.25 65.0613 86.3223 65.2121 86.467C65.366 86.6116 65.4429 86.7855 65.4429 86.9886C65.4429 87.1918 65.366 87.3656 65.2121 87.5103C65.0613 87.6549 64.8797 87.7273 64.6673 87.7273ZM67.1983 98.6591V88.9091H68.2509V90.0355H68.3801C68.4602 89.9124 68.571 89.7554 68.7125 89.5646C68.8572 89.3707 69.0634 89.1984 69.3311 89.0476C69.602 88.8937 69.9682 88.8168 70.4299 88.8168C71.0269 88.8168 71.5532 88.966 72.0087 89.2646C72.4642 89.5631 72.8197 89.9863 73.0751 90.5341C73.3306 91.0819 73.4583 91.7282 73.4583 92.473C73.4583 93.224 73.3306 93.8749 73.0751 94.4258C72.8197 94.9736 72.4657 95.3983 72.0133 95.6999C71.5609 95.9985 71.0392 96.1477 70.4483 96.1477C69.9928 96.1477 69.6281 96.0723 69.3542 95.9215C69.0803 95.7676 68.8695 95.5937 68.7218 95.3999C68.574 95.2029 68.4602 95.0398 68.3801 94.9105H68.2878V98.6591H67.1983ZM68.2694 92.4545C68.2694 92.9901 68.3478 93.4625 68.5048 93.8718C68.6618 94.2781 68.891 94.5966 69.1926 94.8274C69.4943 95.0552 69.8636 95.169 70.3006 95.169C70.7561 95.169 71.1362 95.049 71.4409 94.8089C71.7486 94.5658 71.9795 94.2396 72.1333 93.8303C72.2903 93.4179 72.3688 92.9593 72.3688 92.4545C72.3688 91.956 72.2918 91.5066 72.138 91.1065C71.9872 90.7034 71.7579 90.3848 71.4501 90.1509C71.1454 89.9139 70.7623 89.7955 70.3006 89.7955C69.8574 89.7955 69.485 89.9078 69.1834 90.1325C68.8818 90.354 68.6541 90.6649 68.5002 91.065C68.3463 91.462 68.2694 91.9252 68.2694 92.4545ZM86.5321 89.5H85.3873C85.3195 89.1707 85.2011 88.8814 85.0318 88.6321C84.8656 88.3828 84.6625 88.1735 84.4224 88.0043C84.1854 87.8319 83.9223 87.7027 83.633 87.6165C83.3437 87.5303 83.0421 87.4872 82.7282 87.4872C82.1557 87.4872 81.6371 87.6319 81.1724 87.9212C80.7108 88.2105 80.343 88.6367 80.0691 89.1999C79.7982 89.7631 79.6628 90.4541 79.6628 91.2727C79.6628 92.0914 79.7982 92.7823 80.0691 93.3455C80.343 93.9087 80.7108 94.335 81.1724 94.6243C81.6371 94.9136 82.1557 95.0582 82.7282 95.0582C83.0421 95.0582 83.3437 95.0152 83.633 94.929C83.9223 94.8428 84.1854 94.7151 84.4224 94.5458C84.6625 94.3735 84.8656 94.1626 85.0318 93.9134C85.2011 93.661 85.3195 93.3717 85.3873 93.0455H86.5321C86.446 93.5286 86.289 93.9611 86.0613 94.3427C85.8335 94.7243 85.5504 95.049 85.2118 95.3168C84.8733 95.5814 84.4932 95.783 84.0716 95.9215C83.653 96.06 83.2052 96.1293 82.7282 96.1293C81.9218 96.1293 81.2047 95.9323 80.5769 95.5384C79.949 95.1444 79.4551 94.5843 79.095 93.858C78.7349 93.1316 78.5549 92.2699 78.5549 91.2727C78.5549 90.2756 78.7349 89.4138 79.095 88.6875C79.4551 87.9612 79.949 87.401 80.5769 87.0071C81.2047 86.6132 81.9218 86.4162 82.7282 86.4162C83.2052 86.4162 83.653 86.4854 84.0716 86.6239C84.4932 86.7624 84.8733 86.9656 85.2118 87.2333C85.5504 87.498 85.8335 87.8211 86.0613 88.2028C86.289 88.5813 86.446 89.0137 86.5321 89.5ZM91.1151 96.1477C90.475 96.1477 89.9133 95.9954 89.4301 95.6907C88.95 95.386 88.5745 94.9598 88.3037 94.4119C88.036 93.8641 87.9021 93.224 87.9021 92.4915C87.9021 91.7528 88.036 91.1081 88.3037 90.5572C88.5745 90.0063 88.95 89.5785 89.4301 89.2738C89.9133 88.9691 90.475 88.8168 91.1151 88.8168C91.7553 88.8168 92.3154 88.9691 92.7955 89.2738C93.2787 89.5785 93.6542 90.0063 93.922 90.5572C94.1928 91.1081 94.3282 91.7528 94.3282 92.4915C94.3282 93.224 94.1928 93.8641 93.922 94.4119C93.6542 94.9598 93.2787 95.386 92.7955 95.6907C92.3154 95.9954 91.7553 96.1477 91.1151 96.1477ZM91.1151 95.169C91.6014 95.169 92.0015 95.0444 92.3154 94.7951C92.6294 94.5458 92.8617 94.218 93.0125 93.8118C93.1633 93.4055 93.2387 92.9654 93.2387 92.4915C93.2387 92.0175 93.1633 91.5759 93.0125 91.1665C92.8617 90.7572 92.6294 90.4264 92.3154 90.174C92.0015 89.9216 91.6014 89.7955 91.1151 89.7955C90.6289 89.7955 90.2288 89.9216 89.9149 90.174C89.6009 90.4264 89.3686 90.7572 89.2178 91.1665C89.067 91.5759 88.9916 92.0175 88.9916 92.4915C88.9916 92.9654 89.067 93.4055 89.2178 93.8118C89.3686 94.218 89.6009 94.5458 89.9149 94.7951C90.2288 95.0444 90.6289 95.169 91.1151 95.169ZM95.9913 96V88.9091H97.0439V90.017H97.1362C97.2839 89.6385 97.5224 89.3446 97.8517 89.1353C98.181 88.9229 98.5765 88.8168 99.0382 88.8168C99.506 88.8168 99.8953 88.9229 100.206 89.1353C100.52 89.3446 100.765 89.6385 100.94 90.017H101.014C101.196 89.6508 101.468 89.36 101.831 89.1445C102.194 88.926 102.63 88.8168 103.138 88.8168C103.772 88.8168 104.29 89.0153 104.693 89.4123C105.097 89.8062 105.298 90.4202 105.298 91.2543V96H104.209V91.2543C104.209 90.7311 104.066 90.3571 103.779 90.1325C103.493 89.9078 103.156 89.7955 102.768 89.7955C102.27 89.7955 101.883 89.9463 101.61 90.2479C101.336 90.5464 101.199 90.925 101.199 91.3835V96H100.091V91.1435C100.091 90.7403 99.9599 90.4156 99.6983 90.1694C99.4367 89.9201 99.0997 89.7955 98.6873 89.7955C98.4042 89.7955 98.1395 89.8709 97.8933 90.0217C97.6502 90.1725 97.4532 90.3817 97.3024 90.6495C97.1547 90.9142 97.0808 91.2204 97.0808 91.5682V96H95.9913ZM110.263 96.1477C109.58 96.1477 108.991 95.9969 108.495 95.6953C108.003 95.3906 107.623 94.9659 107.355 94.4212C107.09 93.8733 106.958 93.2363 106.958 92.5099C106.958 91.7836 107.09 91.1435 107.355 90.5895C107.623 90.0324 107.995 89.5985 108.472 89.2876C108.952 88.9737 109.512 88.8168 110.152 88.8168C110.522 88.8168 110.886 88.8783 111.246 89.0014C111.607 89.1245 111.934 89.3246 112.23 89.6016C112.525 89.8755 112.761 90.2386 112.936 90.6911C113.112 91.1435 113.199 91.7005 113.199 92.3622V92.8239H107.733V91.8821H112.091C112.091 91.482 112.011 91.125 111.851 90.8111C111.694 90.4972 111.47 90.2494 111.177 90.0678C110.888 89.8862 110.546 89.7955 110.152 89.7955C109.718 89.7955 109.343 89.9032 109.026 90.1186C108.712 90.331 108.47 90.608 108.301 90.9496C108.132 91.2912 108.047 91.6574 108.047 92.0483V92.6761C108.047 93.2116 108.14 93.6656 108.324 94.038C108.512 94.4073 108.772 94.6889 109.104 94.8828C109.437 95.0736 109.823 95.169 110.263 95.169C110.549 95.169 110.808 95.129 111.039 95.049C111.273 94.9659 111.474 94.8428 111.643 94.6797C111.813 94.5135 111.944 94.3073 112.036 94.0611L113.088 94.3565C112.978 94.7135 112.791 95.0275 112.53 95.2983C112.268 95.5661 111.945 95.7753 111.56 95.9261C111.176 96.0739 110.743 96.1477 110.263 96.1477ZM119.879 90.4972L118.901 90.7741C118.839 90.611 118.748 90.4525 118.628 90.2987C118.511 90.1417 118.351 90.0124 118.148 89.9109C117.945 89.8093 117.685 89.7585 117.368 89.7585C116.934 89.7585 116.572 89.8585 116.283 90.0586C115.997 90.2556 115.854 90.5064 115.854 90.8111C115.854 91.0819 115.952 91.2958 116.149 91.4528C116.346 91.6097 116.654 91.7405 117.072 91.8452L118.125 92.1037C118.759 92.2576 119.231 92.493 119.542 92.81C119.853 93.1239 120.009 93.5286 120.009 94.0241C120.009 94.4304 119.892 94.7936 119.658 95.1136C119.427 95.4337 119.104 95.6861 118.688 95.8707C118.273 96.0554 117.79 96.1477 117.239 96.1477C116.515 96.1477 115.917 95.9908 115.443 95.6768C114.969 95.3629 114.669 94.9044 114.543 94.3011L115.577 94.0426C115.675 94.4242 115.861 94.7105 116.135 94.9013C116.412 95.0921 116.774 95.1875 117.22 95.1875C117.728 95.1875 118.131 95.0798 118.43 94.8643C118.731 94.6458 118.882 94.3842 118.882 94.0795C118.882 93.8333 118.796 93.6271 118.624 93.4609C118.451 93.2917 118.187 93.1655 117.83 93.0824L116.648 92.8054C115.998 92.6515 115.521 92.413 115.217 92.0898C114.915 91.7636 114.764 91.3558 114.764 90.8665C114.764 90.4664 114.877 90.1125 115.101 89.8047C115.329 89.4969 115.638 89.2553 116.029 89.0799C116.423 88.9045 116.869 88.8168 117.368 88.8168C118.07 88.8168 118.621 88.9706 119.021 89.2784C119.424 89.5862 119.71 89.9924 119.879 90.4972ZM125.453 96V86.5455H131.158V87.5611H126.597V90.7557H130.863V91.7713H126.597V94.9844H131.232V96H125.453ZM135.161 96.1662C134.712 96.1662 134.304 96.0816 133.938 95.9123C133.571 95.7399 133.281 95.4922 133.065 95.169C132.85 94.8428 132.742 94.4489 132.742 93.9872C132.742 93.581 132.822 93.2517 132.982 92.9993C133.142 92.7438 133.356 92.5438 133.624 92.3991C133.891 92.2545 134.187 92.1468 134.51 92.076C134.836 92.0021 135.164 91.9437 135.493 91.9006C135.924 91.8452 136.274 91.8036 136.541 91.7759C136.812 91.7451 137.009 91.6944 137.132 91.6236C137.258 91.5528 137.321 91.4297 137.321 91.2543V91.2173C137.321 90.7618 137.197 90.4079 136.948 90.1555C136.701 89.9032 136.327 89.777 135.826 89.777C135.306 89.777 134.898 89.8909 134.602 90.1186C134.307 90.3464 134.099 90.5895 133.979 90.848L132.945 90.4787C133.13 90.0478 133.376 89.7124 133.684 89.4723C133.995 89.2292 134.333 89.0599 134.699 88.9645C135.069 88.866 135.432 88.8168 135.789 88.8168C136.017 88.8168 136.278 88.8445 136.574 88.8999C136.872 88.9522 137.16 89.0614 137.437 89.2276C137.717 89.3938 137.949 89.6446 138.134 89.9801C138.319 90.3156 138.411 90.7649 138.411 91.3281V96H137.321V95.0398H137.266C137.192 95.1937 137.069 95.3583 136.897 95.5337C136.724 95.7092 136.495 95.8584 136.209 95.9815C135.923 96.1046 135.573 96.1662 135.161 96.1662ZM135.327 95.1875C135.758 95.1875 136.121 95.1029 136.417 94.9336C136.715 94.7643 136.94 94.5458 137.091 94.2781C137.245 94.0103 137.321 93.7287 137.321 93.4332V92.4361C137.275 92.4915 137.174 92.5423 137.017 92.5884C136.863 92.6315 136.684 92.67 136.481 92.7038C136.281 92.7346 136.086 92.7623 135.895 92.7869C135.707 92.8085 135.555 92.8269 135.438 92.8423C135.155 92.8793 134.89 92.9393 134.644 93.0224C134.401 93.1024 134.204 93.224 134.053 93.3871C133.905 93.5471 133.831 93.7656 133.831 94.0426C133.831 94.4212 133.971 94.7074 134.252 94.9013C134.535 95.0921 134.893 95.1875 135.327 95.1875ZM145.422 90.4972L144.444 90.7741C144.382 90.611 144.291 90.4525 144.171 90.2987C144.054 90.1417 143.894 90.0124 143.691 89.9109C143.488 89.8093 143.228 89.7585 142.911 89.7585C142.477 89.7585 142.115 89.8585 141.826 90.0586C141.54 90.2556 141.397 90.5064 141.397 90.8111C141.397 91.0819 141.495 91.2958 141.692 91.4528C141.889 91.6097 142.197 91.7405 142.615 91.8452L143.668 92.1037C144.302 92.2576 144.774 92.493 145.085 92.81C145.396 93.1239 145.551 93.5286 145.551 94.0241C145.551 94.4304 145.435 94.7936 145.201 95.1136C144.97 95.4337 144.647 95.6861 144.231 95.8707C143.816 96.0554 143.333 96.1477 142.782 96.1477C142.058 96.1477 141.46 95.9908 140.986 95.6768C140.512 95.3629 140.212 94.9044 140.086 94.3011L141.12 94.0426C141.218 94.4242 141.404 94.7105 141.678 94.9013C141.955 95.0921 142.317 95.1875 142.763 95.1875C143.271 95.1875 143.674 95.0798 143.973 94.8643C144.274 94.6458 144.425 94.3842 144.425 94.0795C144.425 93.8333 144.339 93.6271 144.167 93.4609C143.994 93.2917 143.73 93.1655 143.373 93.0824L142.191 92.8054C141.541 92.6515 141.064 92.413 140.76 92.0898C140.458 91.7636 140.307 91.3558 140.307 90.8665C140.307 90.4664 140.42 90.1125 140.644 89.8047C140.872 89.4969 141.181 89.2553 141.572 89.0799C141.966 88.9045 142.412 88.8168 142.911 88.8168C143.613 88.8168 144.163 88.9706 144.564 89.2784C144.967 89.5862 145.253 89.9924 145.422 90.4972ZM150.165 96.1477C149.481 96.1477 148.892 95.9969 148.396 95.6953C147.904 95.3906 147.524 94.9659 147.256 94.4212C146.991 93.8733 146.859 93.2363 146.859 92.5099C146.859 91.7836 146.991 91.1435 147.256 90.5895C147.524 90.0324 147.896 89.5985 148.373 89.2876C148.853 88.9737 149.414 88.8168 150.054 88.8168C150.423 88.8168 150.788 88.8783 151.148 89.0014C151.508 89.1245 151.836 89.3246 152.131 89.6016C152.427 89.8755 152.662 90.2386 152.837 90.6911C153.013 91.1435 153.101 91.7005 153.101 92.3622V92.8239H147.635V91.8821H151.993C151.993 91.482 151.913 91.125 151.753 90.8111C151.596 90.4972 151.371 90.2494 151.079 90.0678C150.789 89.8862 150.448 89.7955 150.054 89.7955C149.62 89.7955 149.244 89.9032 148.927 90.1186C148.613 90.331 148.372 90.608 148.203 90.9496C148.033 91.2912 147.949 91.6574 147.949 92.0483V92.6761C147.949 93.2116 148.041 93.6656 148.226 94.038C148.413 94.4073 148.673 94.6889 149.006 94.8828C149.338 95.0736 149.724 95.169 150.165 95.169C150.451 95.169 150.709 95.129 150.94 95.049C151.174 94.9659 151.376 94.8428 151.545 94.6797C151.714 94.5135 151.845 94.3073 151.937 94.0611L152.99 94.3565C152.879 94.7135 152.693 95.0275 152.431 95.2983C152.17 95.5661 151.846 95.7753 151.462 95.9261C151.077 96.0739 150.645 96.1477 150.165 96.1477ZM155.552 96.0739C155.324 96.0739 155.129 95.9923 154.966 95.8292C154.803 95.6661 154.721 95.4706 154.721 95.2429C154.721 95.0152 154.803 94.8197 154.966 94.6566C155.129 94.4935 155.324 94.4119 155.552 94.4119C155.78 94.4119 155.975 94.4935 156.138 94.6566C156.301 94.8197 156.383 95.0152 156.383 95.2429C156.383 95.3937 156.344 95.5322 156.267 95.6584C156.194 95.7846 156.094 95.8861 155.967 95.9631C155.844 96.0369 155.706 96.0739 155.552 96.0739ZM158.213 86.5455V89.7955H157.198V86.5455H158.213ZM160.577 86.5455V89.7955H159.561V86.5455H160.577Z" fill="#FBFBFB"/>
</svg>
