<svg width="334" height="118" viewBox="0 0 334 118" fill="none" xmlns="http://www.w3.org/2000/svg">
<rect width="334" height="118" rx="30" fill="#42C83C"/>
<path d="M19.6278 73.5V72.669C19.6278 72.4167 19.6725 72.1489 19.7617 71.8658C19.854 71.5795 19.9864 71.3041 20.1587 71.0394C20.3342 70.7717 20.545 70.5393 20.7912 70.3423L21.3821 70.8224C21.1882 71.0994 21.0189 71.3887 20.8743 71.6903C20.7327 71.9889 20.6619 72.3089 20.6619 72.6506V73.5H19.6278ZM21.9915 73.5V72.669C21.9915 72.4167 22.0361 72.1489 22.1254 71.8658C22.2177 71.5795 22.35 71.3041 22.5224 71.0394C22.6978 70.7717 22.9086 70.5393 23.1548 70.3423L23.7457 70.8224C23.5518 71.0994 23.3826 71.3887 23.2379 71.6903C23.0964 71.9889 23.0256 72.3089 23.0256 72.6506V73.5H21.9915ZM30.2665 72.9091C30.2111 72.4413 29.9864 72.0781 29.5925 71.8196C29.1986 71.5611 28.7154 71.4318 28.1429 71.4318C27.7244 71.4318 27.3581 71.4995 27.0442 71.6349C26.7334 71.7704 26.4902 71.9566 26.3148 72.1935C26.1425 72.4305 26.0563 72.6998 26.0563 73.0014C26.0563 73.2538 26.1163 73.4708 26.2363 73.6523C26.3594 73.8308 26.5164 73.9801 26.7072 74.1001C26.898 74.2171 27.0981 74.314 27.3074 74.391C27.5166 74.4648 27.709 74.5249 27.8844 74.571L28.8446 74.8295C29.0909 74.8942 29.3648 74.9834 29.6664 75.0973C29.9711 75.2112 30.2619 75.3666 30.5389 75.5636C30.819 75.7575 31.0498 76.0067 31.2314 76.3114C31.4129 76.6161 31.5037 76.9901 31.5037 77.4332C31.5037 77.9441 31.3699 78.4058 31.1021 78.8182C30.8374 79.2306 30.4496 79.5584 29.9387 79.8015C29.4309 80.0446 28.8139 80.1662 28.0875 80.1662C27.4105 80.1662 26.8242 80.0569 26.3287 79.8384C25.8362 79.6199 25.4484 79.3152 25.1653 78.9244C24.8852 78.5335 24.7267 78.0795 24.6898 77.5625H25.8716C25.9024 77.9195 26.0224 78.215 26.2317 78.4489C26.4441 78.6797 26.7118 78.852 27.035 78.9659C27.3612 79.0767 27.7121 79.1321 28.0875 79.1321C28.5246 79.1321 28.917 79.0613 29.2647 78.9197C29.6125 78.7751 29.888 78.575 30.0911 78.3196C30.2942 78.0611 30.3958 77.7595 30.3958 77.4148C30.3958 77.1009 30.3081 76.8454 30.1326 76.6484C29.9572 76.4515 29.7264 76.2914 29.4402 76.1683C29.1539 76.0452 28.8446 75.9375 28.5123 75.8452L27.3489 75.5128C26.6103 75.3004 26.0255 74.9973 25.5946 74.6033C25.1638 74.2094 24.9483 73.6939 24.9483 73.0568C24.9483 72.5275 25.0914 72.0658 25.3777 71.6719C25.667 71.2749 26.0547 70.9671 26.541 70.7486C27.0304 70.527 27.5766 70.4162 28.1799 70.4162C28.7892 70.4162 29.3309 70.5254 29.8049 70.744C30.2788 70.9594 30.6543 71.2549 30.9313 71.6303C31.2114 72.0058 31.3591 72.4321 31.3745 72.9091H30.2665ZM36.1191 80.1477C35.4789 80.1477 34.9172 79.9954 34.434 79.6907C33.9539 79.386 33.5785 78.9598 33.3076 78.4119C33.0399 77.8641 32.906 77.224 32.906 76.4915C32.906 75.7528 33.0399 75.1081 33.3076 74.5572C33.5785 74.0063 33.9539 73.5785 34.434 73.2738C34.9172 72.9691 35.4789 72.8168 36.1191 72.8168C36.7592 72.8168 37.3193 72.9691 37.7994 73.2738C38.2826 73.5785 38.6581 74.0063 38.9259 74.5572C39.1967 75.1081 39.3321 75.7528 39.3321 76.4915C39.3321 77.224 39.1967 77.8641 38.9259 78.4119C38.6581 78.9598 38.2826 79.386 37.7994 79.6907C37.3193 79.9954 36.7592 80.1477 36.1191 80.1477ZM36.1191 79.169C36.6053 79.169 37.0054 79.0444 37.3193 78.7951C37.6333 78.5458 37.8656 78.218 38.0164 77.8118C38.1672 77.4055 38.2426 76.9654 38.2426 76.4915C38.2426 76.0175 38.1672 75.5759 38.0164 75.1665C37.8656 74.7572 37.6333 74.4264 37.3193 74.174C37.0054 73.9216 36.6053 73.7955 36.1191 73.7955C35.6328 73.7955 35.2327 73.9216 34.9188 74.174C34.6048 74.4264 34.3725 74.7572 34.2217 75.1665C34.0709 75.5759 33.9955 76.0175 33.9955 76.4915C33.9955 76.9654 34.0709 77.4055 34.2217 77.8118C34.3725 78.218 34.6048 78.5458 34.9188 78.7951C35.2327 79.0444 35.6328 79.169 36.1191 79.169ZM46.5165 80L43.9313 70.5455H45.0946L47.0705 78.2457H47.1628L49.1756 70.5455H50.4682L52.481 78.2457H52.5733L54.5492 70.5455H55.7125L53.1273 80H51.9455L49.8588 72.4659H49.785L47.6983 80H46.5165ZM58.0808 75.7344V80H56.9913V70.5455H58.0808V74.017H58.1731C58.3393 73.6508 58.5886 73.36 58.921 73.1445C59.2565 72.926 59.7027 72.8168 60.2598 72.8168C60.743 72.8168 61.1661 72.9137 61.5293 73.1076C61.8925 73.2984 62.1741 73.5923 62.3741 73.9893C62.5772 74.3833 62.6788 74.8849 62.6788 75.4943V80H61.5893V75.5682C61.5893 75.005 61.4431 74.5695 61.1507 74.2617C60.8614 73.9509 60.4598 73.7955 59.9458 73.7955C59.5888 73.7955 59.2688 73.8709 58.9856 74.0217C58.7056 74.1725 58.484 74.3925 58.3208 74.6818C58.1608 74.9711 58.0808 75.322 58.0808 75.7344ZM64.672 80V72.9091H65.7615V80H64.672ZM65.2259 71.7273C65.0136 71.7273 64.8305 71.6549 64.6766 71.5103C64.5258 71.3656 64.4504 71.1918 64.4504 70.9886C64.4504 70.7855 64.5258 70.6116 64.6766 70.467C64.8305 70.3223 65.0136 70.25 65.2259 70.25C65.4383 70.25 65.6199 70.3223 65.7707 70.467C65.9246 70.6116 66.0015 70.7855 66.0015 70.9886C66.0015 71.1918 65.9246 71.3656 65.7707 71.5103C65.6199 71.6549 65.4383 71.7273 65.2259 71.7273ZM70.6376 80.1477C69.9728 80.1477 69.4004 79.9908 68.9203 79.6768C68.4402 79.3629 68.0708 78.9305 67.8123 78.3796C67.5538 77.8287 67.4245 77.1993 67.4245 76.4915C67.4245 75.7713 67.5569 75.1358 67.8216 74.5849C68.0893 74.0309 68.4617 73.5985 68.9387 73.2876C69.4189 72.9737 69.979 72.8168 70.6191 72.8168C71.1177 72.8168 71.5671 72.9091 71.9672 73.0938C72.3672 73.2784 72.695 73.5369 72.9505 73.8693C73.2059 74.2017 73.3644 74.5895 73.426 75.0327H72.3365C72.2534 74.7095 72.0687 74.4233 71.7825 74.174C71.4993 73.9216 71.1177 73.7955 70.6376 73.7955C70.2129 73.7955 69.8405 73.9062 69.5204 74.1278C69.2034 74.3464 68.9557 74.6557 68.7772 75.0558C68.6017 75.4528 68.514 75.919 68.514 76.4545C68.514 77.0024 68.6002 77.4794 68.7725 77.8857C68.948 78.2919 69.1942 78.6074 69.5112 78.832C69.8313 79.0567 70.2067 79.169 70.6376 79.169C70.9208 79.169 71.1777 79.1198 71.4086 79.0213C71.6394 78.9228 71.8348 78.7812 71.9949 78.5966C72.1549 78.4119 72.2688 78.1903 72.3365 77.9318H73.426C73.3644 78.3504 73.2121 78.7274 72.9689 79.0629C72.7289 79.3952 72.4103 79.6599 72.0133 79.8569C71.6194 80.0508 71.1608 80.1477 70.6376 80.1477ZM76.1081 75.7344V80H75.0186V70.5455H76.1081V74.017H76.2005C76.3667 73.6508 76.6159 73.36 76.9483 73.1445C77.2838 72.926 77.7301 72.8168 78.2871 72.8168C78.7703 72.8168 79.1935 72.9137 79.5566 73.1076C79.9198 73.2984 80.2014 73.5923 80.4015 73.9893C80.6046 74.3833 80.7061 74.8849 80.7061 75.4943V80H79.6167V75.5682C79.6167 75.005 79.4705 74.5695 79.1781 74.2617C78.8888 73.9509 78.4872 73.7955 77.9732 73.7955C77.6162 73.7955 77.2961 73.8709 77.013 74.0217C76.7329 74.1725 76.5113 74.3925 76.3482 74.6818C76.1882 74.9711 76.1081 75.322 76.1081 75.7344ZM94.4806 75.2727C94.4806 76.2699 94.3005 77.1316 93.9404 77.858C93.5803 78.5843 93.0864 79.1444 92.4585 79.5384C91.8307 79.9323 91.1136 80.1293 90.3073 80.1293C89.5009 80.1293 88.7838 79.9323 88.156 79.5384C87.5281 79.1444 87.0342 78.5843 86.6741 77.858C86.314 77.1316 86.134 76.2699 86.134 75.2727C86.134 74.2756 86.314 73.4138 86.6741 72.6875C87.0342 71.9612 87.5281 71.401 88.156 71.0071C88.7838 70.6132 89.5009 70.4162 90.3073 70.4162C91.1136 70.4162 91.8307 70.6132 92.4585 71.0071C93.0864 71.401 93.5803 71.9612 93.9404 72.6875C94.3005 73.4138 94.4806 74.2756 94.4806 75.2727ZM93.3726 75.2727C93.3726 74.4541 93.2356 73.7631 92.9617 73.1999C92.6909 72.6367 92.3231 72.2105 91.8584 71.9212C91.3968 71.6319 90.8797 71.4872 90.3073 71.4872C89.7348 71.4872 89.2162 71.6319 88.7515 71.9212C88.2899 72.2105 87.9221 72.6367 87.6482 73.1999C87.3773 73.7631 87.2419 74.4541 87.2419 75.2727C87.2419 76.0914 87.3773 76.7823 87.6482 77.3455C87.9221 77.9087 88.2899 78.335 88.7515 78.6243C89.2162 78.9136 89.7348 79.0582 90.3073 79.0582C90.8797 79.0582 91.3968 78.9136 91.8584 78.6243C92.3231 78.335 92.6909 77.9087 92.9617 77.3455C93.2356 76.7823 93.3726 76.0914 93.3726 75.2727ZM99.4156 72.9091V73.8324H95.5931V72.9091H99.4156ZM96.738 80V71.9304C96.738 71.5241 96.8334 71.1856 97.0242 70.9148C97.2151 70.6439 97.4628 70.4408 97.7675 70.3054C98.0722 70.17 98.3938 70.1023 98.7323 70.1023C99.0001 70.1023 99.2186 70.1238 99.3879 70.1669C99.5571 70.21 99.6833 70.25 99.7664 70.2869L99.4525 71.2287C99.3971 71.2102 99.3202 71.1871 99.2217 71.1594C99.1263 71.1317 99.0001 71.1179 98.8431 71.1179C98.483 71.1179 98.223 71.2087 98.0629 71.3903C97.906 71.5719 97.8275 71.8381 97.8275 72.1889V80H96.738ZM104.229 71.5611V70.5455H111.32V71.5611H108.347V80H107.202V71.5611H104.229ZM114.029 75.7344V80H112.94V70.5455H114.029V74.017H114.121C114.288 73.6508 114.537 73.36 114.869 73.1445C115.205 72.926 115.651 72.8168 116.208 72.8168C116.691 72.8168 117.114 72.9137 117.478 73.1076C117.841 73.2984 118.122 73.5923 118.322 73.9893C118.525 74.3833 118.627 74.8849 118.627 75.4943V80H117.538V75.5682C117.538 75.005 117.391 74.5695 117.099 74.2617C116.81 73.9509 116.408 73.7955 115.894 73.7955C115.537 73.7955 115.217 73.8709 114.934 74.0217C114.654 74.1725 114.432 74.3925 114.269 74.6818C114.109 74.9711 114.029 75.322 114.029 75.7344ZM123.593 80.1477C122.91 80.1477 122.321 79.9969 121.825 79.6953C121.333 79.3906 120.953 78.9659 120.685 78.4212C120.42 77.8733 120.288 77.2363 120.288 76.5099C120.288 75.7836 120.42 75.1435 120.685 74.5895C120.953 74.0324 121.325 73.5985 121.802 73.2876C122.282 72.9737 122.842 72.8168 123.482 72.8168C123.852 72.8168 124.216 72.8783 124.577 73.0014C124.937 73.1245 125.264 73.3246 125.56 73.6016C125.855 73.8755 126.091 74.2386 126.266 74.6911C126.442 75.1435 126.529 75.7005 126.529 76.3622V76.8239H121.063V75.8821H125.421C125.421 75.482 125.341 75.125 125.181 74.8111C125.024 74.4972 124.8 74.2494 124.507 74.0678C124.218 73.8862 123.876 73.7955 123.482 73.7955C123.048 73.7955 122.673 73.9032 122.356 74.1186C122.042 74.331 121.8 74.608 121.631 74.9496C121.462 75.2912 121.377 75.6574 121.377 76.0483V76.6761C121.377 77.2116 121.47 77.6656 121.654 78.038C121.842 78.4073 122.102 78.6889 122.434 78.8828C122.767 79.0736 123.153 79.169 123.593 79.169C123.879 79.169 124.138 79.129 124.369 79.049C124.603 78.9659 124.804 78.8428 124.974 78.6797C125.143 78.5135 125.274 78.3073 125.366 78.0611L126.419 78.3565C126.308 78.7135 126.122 79.0275 125.86 79.2983C125.598 79.5661 125.275 79.7753 124.89 79.9261C124.506 80.0739 124.073 80.1477 123.593 80.1477ZM131.991 80V70.5455H137.66V71.5611H133.135V74.7557H137.235V75.7713H133.135V80H131.991ZM141.559 80.1662C141.11 80.1662 140.702 80.0816 140.336 79.9123C139.97 79.7399 139.679 79.4922 139.464 79.169C139.248 78.8428 139.14 78.4489 139.14 77.9872C139.14 77.581 139.22 77.2517 139.38 76.9993C139.54 76.7438 139.754 76.5438 140.022 76.3991C140.29 76.2545 140.585 76.1468 140.908 76.076C141.235 76.0021 141.562 75.9437 141.892 75.9006C142.323 75.8452 142.672 75.8036 142.94 75.7759C143.211 75.7451 143.408 75.6944 143.531 75.6236C143.657 75.5528 143.72 75.4297 143.72 75.2543V75.2173C143.72 74.7618 143.595 74.4079 143.346 74.1555C143.1 73.9032 142.726 73.777 142.224 73.777C141.704 73.777 141.296 73.8909 141.001 74.1186C140.705 74.3464 140.498 74.5895 140.378 74.848L139.343 74.4787C139.528 74.0478 139.774 73.7124 140.082 73.4723C140.393 73.2292 140.732 73.0599 141.098 72.9645C141.467 72.866 141.83 72.8168 142.187 72.8168C142.415 72.8168 142.677 72.8445 142.972 72.8999C143.271 72.9522 143.558 73.0614 143.835 73.2276C144.115 73.3938 144.348 73.6446 144.532 73.9801C144.717 74.3156 144.809 74.7649 144.809 75.3281V80H143.72V79.0398H143.665C143.591 79.1937 143.468 79.3583 143.295 79.5337C143.123 79.7092 142.894 79.8584 142.607 79.9815C142.321 80.1046 141.972 80.1662 141.559 80.1662ZM141.726 79.1875C142.156 79.1875 142.52 79.1029 142.815 78.9336C143.114 78.7643 143.338 78.5458 143.489 78.2781C143.643 78.0103 143.72 77.7287 143.72 77.4332V76.4361C143.674 76.4915 143.572 76.5423 143.415 76.5884C143.261 76.6315 143.083 76.67 142.88 76.7038C142.68 76.7346 142.484 76.7623 142.293 76.7869C142.106 76.8085 141.953 76.8269 141.836 76.8423C141.553 76.8793 141.289 76.9393 141.042 77.0224C140.799 77.1024 140.602 77.224 140.451 77.3871C140.304 77.5471 140.23 77.7656 140.23 78.0426C140.23 78.4212 140.37 78.7074 140.65 78.9013C140.933 79.0921 141.292 79.1875 141.726 79.1875ZM152.342 72.9091L149.72 80H148.612L145.99 72.9091H147.172L149.129 78.5597H149.203L151.161 72.9091H152.342ZM156.407 80.1477C155.767 80.1477 155.205 79.9954 154.722 79.6907C154.242 79.386 153.867 78.9598 153.596 78.4119C153.328 77.8641 153.194 77.224 153.194 76.4915C153.194 75.7528 153.328 75.1081 153.596 74.5572C153.867 74.0063 154.242 73.5785 154.722 73.2738C155.205 72.9691 155.767 72.8168 156.407 72.8168C157.047 72.8168 157.607 72.9691 158.088 73.2738C158.571 73.5785 158.946 74.0063 159.214 74.5572C159.485 75.1081 159.62 75.7528 159.62 76.4915C159.62 77.224 159.485 77.8641 159.214 78.4119C158.946 78.9598 158.571 79.386 158.088 79.6907C157.607 79.9954 157.047 80.1477 156.407 80.1477ZM156.407 79.169C156.893 79.169 157.294 79.0444 157.607 78.7951C157.921 78.5458 158.154 78.218 158.305 77.8118C158.455 77.4055 158.531 76.9654 158.531 76.4915C158.531 76.0175 158.455 75.5759 158.305 75.1665C158.154 74.7572 157.921 74.4264 157.607 74.174C157.294 73.9216 156.893 73.7955 156.407 73.7955C155.921 73.7955 155.521 73.9216 155.207 74.174C154.893 74.4264 154.661 74.7572 154.51 75.1665C154.359 75.5759 154.284 76.0175 154.284 76.4915C154.284 76.9654 154.359 77.4055 154.51 77.8118C154.661 78.218 154.893 78.5458 155.207 78.7951C155.521 79.0444 155.921 79.169 156.407 79.169ZM161.283 80V72.9091H162.336V73.9801H162.41C162.539 73.6293 162.773 73.3446 163.111 73.1261C163.45 72.9076 163.832 72.7983 164.256 72.7983C164.336 72.7983 164.436 72.7998 164.556 72.8029C164.676 72.806 164.767 72.8106 164.829 72.8168V73.9247C164.792 73.9155 164.707 73.9016 164.575 73.8832C164.446 73.8616 164.309 73.8509 164.164 73.8509C163.819 73.8509 163.512 73.9232 163.241 74.0678C162.973 74.2094 162.761 74.4064 162.604 74.6587C162.45 74.908 162.373 75.1927 162.373 75.5128V80H161.283ZM171.143 74.4972L170.164 74.7741C170.103 74.611 170.012 74.4525 169.892 74.2987C169.775 74.1417 169.615 74.0124 169.412 73.9109C169.209 73.8093 168.949 73.7585 168.632 73.7585C168.198 73.7585 167.836 73.8585 167.547 74.0586C167.26 74.2556 167.117 74.5064 167.117 74.8111C167.117 75.0819 167.216 75.2958 167.413 75.4528C167.61 75.6097 167.918 75.7405 168.336 75.8452L169.389 76.1037C170.023 76.2576 170.495 76.493 170.806 76.81C171.117 77.1239 171.272 77.5286 171.272 78.0241C171.272 78.4304 171.155 78.7936 170.921 79.1136C170.691 79.4337 170.367 79.6861 169.952 79.8707C169.536 80.0554 169.053 80.1477 168.502 80.1477C167.779 80.1477 167.18 79.9908 166.706 79.6768C166.233 79.3629 165.932 78.9044 165.806 78.3011L166.84 78.0426C166.939 78.4242 167.125 78.7105 167.399 78.9013C167.676 79.0921 168.038 79.1875 168.484 79.1875C168.992 79.1875 169.395 79.0798 169.693 78.8643C169.995 78.6458 170.146 78.3842 170.146 78.0795C170.146 77.8333 170.06 77.6271 169.887 77.4609C169.715 77.2917 169.45 77.1655 169.093 77.0824L167.911 76.8054C167.262 76.6515 166.785 76.413 166.48 76.0898C166.179 75.7636 166.028 75.3558 166.028 74.8665C166.028 74.4664 166.14 74.1125 166.365 73.8047C166.593 73.4969 166.902 73.2553 167.293 73.0799C167.687 72.9045 168.133 72.8168 168.632 72.8168C169.333 72.8168 169.884 72.9706 170.284 73.2784C170.687 73.5862 170.974 73.9924 171.143 74.4972ZM184.693 75.2727C184.693 76.2699 184.513 77.1316 184.153 77.858C183.793 78.5843 183.299 79.1444 182.671 79.5384C182.044 79.9323 181.326 80.1293 180.52 80.1293C179.714 80.1293 178.997 79.9323 178.369 79.5384C177.741 79.1444 177.247 78.5843 176.887 77.858C176.527 77.1316 176.347 76.2699 176.347 75.2727C176.347 74.2756 176.527 73.4138 176.887 72.6875C177.247 71.9612 177.741 71.401 178.369 71.0071C178.997 70.6132 179.714 70.4162 180.52 70.4162C181.326 70.4162 182.044 70.6132 182.671 71.0071C183.299 71.401 183.793 71.9612 184.153 72.6875C184.513 73.4138 184.693 74.2756 184.693 75.2727ZM183.585 75.2727C183.585 74.4541 183.449 73.7631 183.175 73.1999C182.904 72.6367 182.536 72.2105 182.071 71.9212C181.61 71.6319 181.093 71.4872 180.52 71.4872C179.948 71.4872 179.429 71.6319 178.964 71.9212C178.503 72.2105 178.135 72.6367 177.861 73.1999C177.59 73.7631 177.455 74.4541 177.455 75.2727C177.455 76.0914 177.59 76.7823 177.861 77.3455C178.135 77.9087 178.503 78.335 178.964 78.6243C179.429 78.9136 179.948 79.0582 180.52 79.0582C181.093 79.0582 181.61 78.9136 182.071 78.6243C182.536 78.335 182.904 77.9087 183.175 77.3455C183.449 76.7823 183.585 76.0914 183.585 75.2727ZM189.628 72.9091V73.8324H185.806V72.9091H189.628ZM186.951 80V71.9304C186.951 71.5241 187.046 71.1856 187.237 70.9148C187.428 70.6439 187.676 70.4408 187.98 70.3054C188.285 70.17 188.607 70.1023 188.945 70.1023C189.213 70.1023 189.431 70.1238 189.601 70.1669C189.77 70.21 189.896 70.25 189.979 70.2869L189.665 71.2287C189.61 71.2102 189.533 71.1871 189.435 71.1594C189.339 71.1317 189.213 71.1179 189.056 71.1179C188.696 71.1179 188.436 71.2087 188.276 71.3903C188.119 71.5719 188.04 71.8381 188.04 72.1889V80H186.951ZM19.3324 86.5455H20.6435L23.2656 90.9588H23.3764L25.9986 86.5455H27.3097L23.8935 92.1037V96H22.7486V92.1037L19.3324 86.5455ZM30.5204 96.1477C29.8803 96.1477 29.3186 95.9954 28.8354 95.6907C28.3553 95.386 27.9798 94.9598 27.709 94.4119C27.4412 93.8641 27.3074 93.224 27.3074 92.4915C27.3074 91.7528 27.4412 91.1081 27.709 90.5572C27.9798 90.0063 28.3553 89.5785 28.8354 89.2738C29.3186 88.9691 29.8803 88.8168 30.5204 88.8168C31.1606 88.8168 31.7207 88.9691 32.2008 89.2738C32.684 89.5785 33.0595 90.0063 33.3272 90.5572C33.5981 91.1081 33.7335 91.7528 33.7335 92.4915C33.7335 93.224 33.5981 93.8641 33.3272 94.4119C33.0595 94.9598 32.684 95.386 32.2008 95.6907C31.7207 95.9954 31.1606 96.1477 30.5204 96.1477ZM30.5204 95.169C31.0067 95.169 31.4068 95.0444 31.7207 94.7951C32.0346 94.5458 32.267 94.218 32.4178 93.8118C32.5686 93.4055 32.644 92.9654 32.644 92.4915C32.644 92.0175 32.5686 91.5759 32.4178 91.1665C32.267 90.7572 32.0346 90.4264 31.7207 90.174C31.4068 89.9216 31.0067 89.7955 30.5204 89.7955C30.0342 89.7955 29.6341 89.9216 29.3201 90.174C29.0062 90.4264 28.7739 90.7572 28.623 91.1665C28.4722 91.5759 28.3968 92.0175 28.3968 92.4915C28.3968 92.9654 28.4722 93.4055 28.623 93.8118C28.7739 94.218 29.0062 94.5458 29.3201 94.7951C29.6341 95.0444 30.0342 95.169 30.5204 95.169ZM39.8653 93.1009V88.9091H40.9548V96H39.8653V94.7997H39.7915C39.6253 95.1598 39.3667 95.466 39.0159 95.7184C38.665 95.9677 38.2219 96.0923 37.6863 96.0923C37.2432 96.0923 36.8492 95.9954 36.5045 95.8015C36.1598 95.6045 35.889 95.3091 35.692 94.9151C35.4951 94.5181 35.3966 94.018 35.3966 93.4148V88.9091H36.4861V93.3409C36.4861 93.858 36.6307 94.2704 36.92 94.5781C37.2124 94.8859 37.5848 95.0398 38.0372 95.0398C38.308 95.0398 38.5835 94.9705 38.8635 94.832C39.1467 94.6935 39.3837 94.4812 39.5745 94.195C39.7684 93.9087 39.8653 93.544 39.8653 93.1009ZM42.9503 96V88.9091H44.0028V89.9801H44.0767C44.206 89.6293 44.4399 89.3446 44.7784 89.1261C45.117 88.9076 45.4986 88.7983 45.9233 88.7983C46.0033 88.7983 46.1033 88.7998 46.2234 88.8029C46.3434 88.806 46.4342 88.8106 46.4957 88.8168V89.9247C46.4588 89.9155 46.3742 89.9016 46.2418 89.8832C46.1126 89.8616 45.9756 89.8509 45.831 89.8509C45.4863 89.8509 45.1785 89.9232 44.9077 90.0678C44.6399 90.2094 44.4276 90.4064 44.2706 90.6587C44.1167 90.908 44.0398 91.1927 44.0398 91.5128V96H42.9503ZM51.5912 96V86.5455H52.7361V94.9844H57.1309V96H51.5912ZM61.6366 96.1477C60.9965 96.1477 60.4348 95.9954 59.9516 95.6907C59.4715 95.386 59.096 94.9598 58.8252 94.4119C58.5574 93.8641 58.4236 93.224 58.4236 92.4915C58.4236 91.7528 58.5574 91.1081 58.8252 90.5572C59.096 90.0063 59.4715 89.5785 59.9516 89.2738C60.4348 88.9691 60.9965 88.8168 61.6366 88.8168C62.2768 88.8168 62.8369 88.9691 63.317 89.2738C63.8002 89.5785 64.1757 90.0063 64.4434 90.5572C64.7143 91.1081 64.8497 91.7528 64.8497 92.4915C64.8497 93.224 64.7143 93.8641 64.4434 94.4119C64.1757 94.9598 63.8002 95.386 63.317 95.6907C62.8369 95.9954 62.2768 96.1477 61.6366 96.1477ZM61.6366 95.169C62.1229 95.169 62.523 95.0444 62.8369 94.7951C63.1508 94.5458 63.3832 94.218 63.534 93.8118C63.6848 93.4055 63.7602 92.9654 63.7602 92.4915C63.7602 92.0175 63.6848 91.5759 63.534 91.1665C63.3832 90.7572 63.1508 90.4264 62.8369 90.174C62.523 89.9216 62.1229 89.7955 61.6366 89.7955C61.1504 89.7955 60.7503 89.9216 60.4363 90.174C60.1224 90.4264 59.8901 90.7572 59.7393 91.1665C59.5885 91.5759 59.5131 92.0175 59.5131 92.4915C59.5131 92.9654 59.5885 93.4055 59.7393 93.8118C59.8901 94.218 60.1224 94.5458 60.4363 94.7951C60.7503 95.0444 61.1504 95.169 61.6366 95.169ZM66.5128 96V88.9091H67.5653V89.9801H67.6392C67.7685 89.6293 68.0024 89.3446 68.3409 89.1261C68.6795 88.9076 69.0611 88.7983 69.4858 88.7983C69.5658 88.7983 69.6658 88.7998 69.7859 88.8029C69.9059 88.806 69.9967 88.8106 70.0582 88.8168V89.9247C70.0213 89.9155 69.9367 89.9016 69.8043 89.8832C69.6751 89.8616 69.5381 89.8509 69.3935 89.8509C69.0488 89.8509 68.741 89.9232 68.4702 90.0678C68.2024 90.2094 67.9901 90.4064 67.8331 90.6587C67.6792 90.908 67.6023 91.1927 67.6023 91.5128V96H66.5128ZM73.8114 96.1477C73.2205 96.1477 72.6989 95.9985 72.2464 95.6999C71.794 95.3983 71.4401 94.9736 71.1847 94.4258C70.9292 93.8749 70.8015 93.224 70.8015 92.473C70.8015 91.7282 70.9292 91.0819 71.1847 90.5341C71.4401 89.9863 71.7956 89.5631 72.2511 89.2646C72.7066 88.966 73.2328 88.8168 73.8299 88.8168C74.2915 88.8168 74.6563 88.8937 74.924 89.0476C75.1948 89.1984 75.401 89.3707 75.5426 89.5646C75.6873 89.7554 75.7996 89.9124 75.8796 90.0355H75.9719V86.5455H77.0614V96H76.0089V94.9105H75.8796C75.7996 95.0398 75.6857 95.2029 75.538 95.3999C75.3903 95.5937 75.1795 95.7676 74.9055 95.9215C74.6316 96.0723 74.2669 96.1477 73.8114 96.1477ZM73.9592 95.169C74.3962 95.169 74.7655 95.0552 75.0671 94.8274C75.3687 94.5966 75.598 94.2781 75.755 93.8718C75.9119 93.4625 75.9904 92.9901 75.9904 92.4545C75.9904 91.9252 75.9135 91.462 75.7596 91.065C75.6057 90.6649 75.378 90.354 75.0763 90.1325C74.7747 89.9078 74.4023 89.7955 73.9592 89.7955C73.4975 89.7955 73.1128 89.9139 72.805 90.1509C72.5004 90.3848 72.2711 90.7034 72.1172 91.1065C71.9664 91.5066 71.891 91.956 71.891 92.4545C71.891 92.9593 71.9679 93.4179 72.1218 93.8303C72.2788 94.2396 72.5096 94.5658 72.8143 94.8089C73.122 95.049 73.5037 95.169 73.9592 95.169ZM84.7294 96L82.1442 86.5455H83.3075L85.2834 94.2457H85.3757L87.3885 86.5455H88.6811L90.6939 94.2457H90.7862L92.7621 86.5455H93.9254L91.3402 96H90.1584L88.0717 88.4659H87.9979L85.9112 96H84.7294ZM97.4247 96.1477C96.7846 96.1477 96.2229 95.9954 95.7397 95.6907C95.2596 95.386 94.8841 94.9598 94.6133 94.4119C94.3455 93.8641 94.2116 93.224 94.2116 92.4915C94.2116 91.7528 94.3455 91.1081 94.6133 90.5572C94.8841 90.0063 95.2596 89.5785 95.7397 89.2738C96.2229 88.9691 96.7846 88.8168 97.4247 88.8168C98.0649 88.8168 98.625 88.9691 99.1051 89.2738C99.5883 89.5785 99.9638 90.0063 100.232 90.5572C100.502 91.1081 100.638 91.7528 100.638 92.4915C100.638 93.224 100.502 93.8641 100.232 94.4119C99.9638 94.9598 99.5883 95.386 99.1051 95.6907C98.625 95.9954 98.0649 96.1477 97.4247 96.1477ZM97.4247 95.169C97.911 95.169 98.3111 95.0444 98.625 94.7951C98.9389 94.5458 99.1713 94.218 99.3221 93.8118C99.4729 93.4055 99.5483 92.9654 99.5483 92.4915C99.5483 92.0175 99.4729 91.5759 99.3221 91.1665C99.1713 90.7572 98.9389 90.4264 98.625 90.174C98.3111 89.9216 97.911 89.7955 97.4247 89.7955C96.9384 89.7955 96.5384 89.9216 96.2244 90.174C95.9105 90.4264 95.6781 90.7572 95.5273 91.1665C95.3765 91.5759 95.3011 92.0175 95.3011 92.4915C95.3011 92.9654 95.3765 93.4055 95.5273 93.8118C95.6781 94.218 95.9105 94.5458 96.2244 94.7951C96.5384 95.0444 96.9384 95.169 97.4247 95.169ZM106.77 93.1009V88.9091H107.859V96H106.77V94.7997H106.696C106.53 95.1598 106.271 95.466 105.92 95.7184C105.569 95.9677 105.126 96.0923 104.591 96.0923C104.147 96.0923 103.754 95.9954 103.409 95.8015C103.064 95.6045 102.793 95.3091 102.596 94.9151C102.399 94.5181 102.301 94.018 102.301 93.4148V88.9091H103.39V93.3409C103.39 93.858 103.535 94.2704 103.824 94.5781C104.117 94.8859 104.489 95.0398 104.941 95.0398C105.212 95.0398 105.488 94.9705 105.768 94.832C106.051 94.6935 106.288 94.4812 106.479 94.195C106.673 93.9087 106.77 93.544 106.77 93.1009ZM110.944 86.5455V96H109.855V86.5455H110.944ZM115.617 96.1477C115.026 96.1477 114.505 95.9985 114.052 95.6999C113.6 95.3983 113.246 94.9736 112.99 94.4258C112.735 93.8749 112.607 93.224 112.607 92.473C112.607 91.7282 112.735 91.0819 112.99 90.5341C113.246 89.9863 113.601 89.5631 114.057 89.2646C114.512 88.966 115.039 88.8168 115.636 88.8168C116.097 88.8168 116.462 88.8937 116.73 89.0476C117.001 89.1984 117.207 89.3707 117.348 89.5646C117.493 89.7554 117.605 89.9124 117.685 90.0355H117.778V86.5455H118.867V96H117.815V94.9105H117.685C117.605 95.0398 117.491 95.2029 117.344 95.3999C117.196 95.5937 116.985 95.7676 116.711 95.9215C116.437 96.0723 116.073 96.1477 115.617 96.1477ZM115.765 95.169C116.202 95.169 116.571 95.0552 116.873 94.8274C117.174 94.5966 117.404 94.2781 117.561 93.8718C117.718 93.4625 117.796 92.9901 117.796 92.4545C117.796 91.9252 117.719 91.462 117.565 91.065C117.411 90.6649 117.184 90.354 116.882 90.1325C116.58 89.9078 116.208 89.7955 115.765 89.7955C115.303 89.7955 114.918 89.9139 114.611 90.1509C114.306 90.3848 114.077 90.7034 113.923 91.1065C113.772 91.5066 113.697 91.956 113.697 92.4545C113.697 92.9593 113.774 93.4179 113.927 93.8303C114.084 94.2396 114.315 94.5658 114.62 94.8089C114.928 95.049 115.309 95.169 115.765 95.169ZM124.005 86.5455H125.316L127.938 90.9588H128.049L130.671 86.5455H131.983L128.566 92.1037V96H127.421V92.1037L124.005 86.5455ZM135.193 96.1477C134.553 96.1477 133.991 95.9954 133.508 95.6907C133.028 95.386 132.653 94.9598 132.382 94.4119C132.114 93.8641 131.98 93.224 131.98 92.4915C131.98 91.7528 132.114 91.1081 132.382 90.5572C132.653 90.0063 133.028 89.5785 133.508 89.2738C133.991 88.9691 134.553 88.8168 135.193 88.8168C135.833 88.8168 136.394 88.9691 136.874 89.2738C137.357 89.5785 137.732 90.0063 138 90.5572C138.271 91.1081 138.406 91.7528 138.406 92.4915C138.406 93.224 138.271 93.8641 138 94.4119C137.732 94.9598 137.357 95.386 136.874 95.6907C136.394 95.9954 135.833 96.1477 135.193 96.1477ZM135.193 95.169C135.68 95.169 136.08 95.0444 136.394 94.7951C136.707 94.5458 136.94 94.218 137.091 93.8118C137.241 93.4055 137.317 92.9654 137.317 92.4915C137.317 92.0175 137.241 91.5759 137.091 91.1665C136.94 90.7572 136.707 90.4264 136.394 90.174C136.08 89.9216 135.68 89.7955 135.193 89.7955C134.707 89.7955 134.307 89.9216 133.993 90.174C133.679 90.4264 133.447 90.7572 133.296 91.1665C133.145 91.5759 133.07 92.0175 133.07 92.4915C133.07 92.9654 133.145 93.4055 133.296 93.8118C133.447 94.218 133.679 94.5458 133.993 94.7951C134.307 95.0444 134.707 95.169 135.193 95.169ZM144.538 93.1009V88.9091H145.628V96H144.538V94.7997H144.464C144.298 95.1598 144.04 95.466 143.689 95.7184C143.338 95.9677 142.895 96.0923 142.359 96.0923C141.916 96.0923 141.522 95.9954 141.177 95.8015C140.833 95.6045 140.562 95.3091 140.365 94.9151C140.168 94.5181 140.069 94.018 140.069 93.4148V88.9091H141.159V93.3409C141.159 93.858 141.304 94.2704 141.593 94.5781C141.885 94.8859 142.258 95.0398 142.71 95.0398C142.981 95.0398 143.256 94.9705 143.536 94.832C143.82 94.6935 144.057 94.4812 144.247 94.195C144.441 93.9087 144.538 93.544 144.538 93.1009ZM154.345 96H151.427V86.5455H154.474C155.391 86.5455 156.176 86.7347 156.828 87.1133C157.481 87.4888 157.981 88.0289 158.329 88.7337C158.677 89.4354 158.85 90.2756 158.85 91.2543C158.85 92.2391 158.675 93.087 158.324 93.7979C157.973 94.5058 157.462 95.0505 156.791 95.4322C156.121 95.8107 155.305 96 154.345 96ZM152.572 94.9844H154.271C155.053 94.9844 155.7 94.8336 156.214 94.532C156.728 94.2304 157.112 93.801 157.364 93.244C157.616 92.6869 157.742 92.0237 157.742 91.2543C157.742 90.491 157.618 89.8339 157.369 89.283C157.119 88.729 156.747 88.3043 156.251 88.0089C155.756 87.7103 155.139 87.5611 154.4 87.5611H152.572V94.9844ZM163.596 96.1477C162.913 96.1477 162.324 95.9969 161.828 95.6953C161.336 95.3906 160.956 94.9659 160.688 94.4212C160.423 93.8733 160.291 93.2363 160.291 92.5099C160.291 91.7836 160.423 91.1435 160.688 90.5895C160.956 90.0324 161.328 89.5985 161.805 89.2876C162.285 88.9737 162.845 88.8168 163.485 88.8168C163.855 88.8168 164.219 88.8783 164.579 89.0014C164.94 89.1245 165.267 89.3246 165.563 89.6016C165.858 89.8755 166.094 90.2386 166.269 90.6911C166.445 91.1435 166.532 91.7005 166.532 92.3622V92.8239H161.066V91.8821H165.424C165.424 91.482 165.344 91.125 165.184 90.8111C165.027 90.4972 164.803 90.2494 164.51 90.0678C164.221 89.8862 163.879 89.7955 163.485 89.7955C163.051 89.7955 162.676 89.9032 162.359 90.1186C162.045 90.331 161.803 90.608 161.634 90.9496C161.465 91.2912 161.38 91.6574 161.38 92.0483V92.6761C161.38 93.2116 161.473 93.6656 161.657 94.038C161.845 94.4073 162.105 94.6889 162.437 94.8828C162.77 95.0736 163.156 95.169 163.596 95.169C163.882 95.169 164.141 95.129 164.372 95.049C164.606 94.9659 164.807 94.8428 164.976 94.6797C165.146 94.5135 165.277 94.3073 165.369 94.0611L166.421 94.3565C166.311 94.7135 166.124 95.0275 165.863 95.2983C165.601 95.5661 165.278 95.7753 164.893 95.9261C164.509 96.0739 164.076 96.1477 163.596 96.1477ZM169.279 91.7344V96H168.19V88.9091H169.242V90.017H169.334C169.501 89.657 169.753 89.3677 170.092 89.1491C170.43 88.9276 170.867 88.8168 171.403 88.8168C171.883 88.8168 172.303 88.9152 172.663 89.1122C173.023 89.3061 173.303 89.6016 173.503 89.9986C173.703 90.3925 173.803 90.8911 173.803 91.4943V96H172.714V91.5682C172.714 91.0111 172.569 90.5772 172.28 90.2663C171.99 89.9524 171.593 89.7955 171.089 89.7955C170.741 89.7955 170.43 89.8709 170.156 90.0217C169.885 90.1725 169.671 90.3925 169.514 90.6818C169.358 90.9711 169.279 91.322 169.279 91.7344ZM176.242 98.6591C176.057 98.6591 175.893 98.6437 175.748 98.6129C175.603 98.5852 175.503 98.5575 175.448 98.5298L175.725 97.5696C175.989 97.6373 176.223 97.6619 176.426 97.6435C176.63 97.625 176.81 97.5342 176.967 97.3711C177.127 97.2111 177.273 96.951 177.405 96.5909L177.608 96.0369L174.986 88.9091H176.168L178.125 94.5597H178.199L180.157 88.9091H181.338L178.328 97.0341C178.193 97.4003 178.025 97.7035 177.825 97.9435C177.625 98.1867 177.393 98.3667 177.128 98.4837C176.867 98.6006 176.571 98.6591 176.242 98.6591ZM184.194 86.5455V87.3764C184.194 87.6288 184.148 87.8981 184.055 88.1843C183.966 88.4674 183.834 88.7429 183.658 89.0107C183.486 89.2753 183.277 89.5062 183.03 89.7031L182.439 89.223C182.633 88.946 182.801 88.6583 182.943 88.3597C183.087 88.0581 183.16 87.7365 183.16 87.3949V86.5455H184.194ZM186.557 86.5455V87.3764C186.557 87.6288 186.511 87.8981 186.419 88.1843C186.33 88.4674 186.197 88.7429 186.022 89.0107C185.849 89.2753 185.64 89.5062 185.394 89.7031L184.803 89.223C184.997 88.946 185.165 88.6583 185.306 88.3597C185.451 88.0581 185.523 87.7365 185.523 87.3949V86.5455H186.557Z" fill="#FBFBFB"/>
<path d="M23.6008 45.477V44.147L28.0848 42.817V44.185L23.6008 45.477ZM19.494 36.468C19.494 36.1767 19.5193 35.8347 19.57 35.442C19.6207 35.0493 19.7157 34.606 19.855 34.112C19.9943 33.6053 20.2033 33.0417 20.482 32.421L22.819 33.238C22.6797 33.6307 22.5593 33.9917 22.458 34.321C22.3567 34.6377 22.2807 34.9353 22.23 35.214C22.1793 35.48 22.154 35.746 22.154 36.012C22.154 36.6327 22.2933 37.1393 22.572 37.532C22.8633 37.9373 23.2687 38.235 23.788 38.425C24.3073 38.6277 24.909 38.729 25.593 38.729C26.3783 38.729 27.0243 38.6213 27.531 38.406C28.0377 38.2033 28.4303 37.931 28.709 37.589C28.9877 37.2597 29.184 36.8987 29.298 36.506C29.412 36.1007 29.469 35.708 29.469 35.328C29.469 34.8087 29.3803 34.1943 29.203 33.485C29.0257 32.763 28.709 31.9523 28.253 31.053L30.704 30.008C30.9573 30.4513 31.1917 30.9707 31.407 31.566C31.6223 32.1487 31.7933 32.7567 31.92 33.39C32.0593 34.0233 32.129 34.625 32.129 35.195C32.129 35.7017 32.0657 36.24 31.939 36.81C31.8123 37.3673 31.597 37.9183 31.293 38.463C31.0017 39.0077 30.6027 39.4953 30.096 39.926C29.5893 40.3693 28.9623 40.724 28.215 40.99C27.4677 41.256 26.5747 41.389 25.536 41.389C24.7 41.389 23.9147 41.294 23.18 41.104C22.458 40.9267 21.8183 40.6417 21.261 40.249C20.7163 39.8563 20.2857 39.3433 19.969 38.71C19.6523 38.0893 19.494 37.342 19.494 36.468ZM25.688 29.248C25.2953 29.248 24.9597 29.115 24.681 28.849C24.415 28.583 24.282 28.2537 24.282 27.861C24.282 27.4683 24.415 27.1327 24.681 26.854C24.9597 26.5753 25.2953 26.436 25.688 26.436C26.068 26.436 26.391 26.5753 26.657 26.854C26.9357 27.1327 27.075 27.4683 27.075 27.861C27.075 28.2537 26.9357 28.583 26.657 28.849C26.391 29.115 26.068 29.248 25.688 29.248ZM39.106 37.095C37.928 37.095 37.016 36.9747 36.37 36.734C35.7367 36.4933 35.2933 36.1197 35.04 35.613C34.7867 35.0937 34.641 34.4413 34.603 33.656L34.204 23.092H36.864L37.263 32.383C37.2883 32.9657 37.3517 33.4027 37.453 33.694C37.5543 33.9853 37.7443 34.1817 38.023 34.283C38.3143 34.3843 38.7387 34.435 39.296 34.435C39.7773 34.435 40.1193 34.5617 40.322 34.815C40.5373 35.0557 40.645 35.3597 40.645 35.727C40.645 36.1197 40.512 36.449 40.246 36.715C39.98 36.9683 39.6 37.095 39.106 37.095ZM39.5207 25.79V24.46L44.0047 23.13V24.498L39.5207 25.79ZM39.1318 37.095L39.3218 34.435C39.8792 34.435 40.3162 34.397 40.6328 34.321C40.9622 34.245 41.1965 34.1057 41.3358 33.903C41.4752 33.6877 41.5448 33.3837 41.5448 32.991C41.5448 32.6363 41.4942 32.212 41.3928 31.718C41.3042 31.224 41.1838 30.711 41.0318 30.179C40.8798 29.647 40.7278 29.1593 40.5758 28.716L43.1978 27.994C43.3498 28.4247 43.5018 28.925 43.6538 29.495C43.8058 30.065 43.9325 30.654 44.0338 31.262C44.1478 31.8573 44.2048 32.4337 44.2048 32.991C44.2048 33.6877 44.1162 34.2767 43.9388 34.758C43.7615 35.2267 43.5145 35.6193 43.1978 35.936C42.8938 36.24 42.5265 36.4807 42.0958 36.658C41.6778 36.8227 41.2155 36.9367 40.7088 37C40.2022 37.0633 39.6765 37.095 39.1318 37.095ZM41.4688 41.465C41.1015 41.465 40.7848 41.3383 40.5188 41.085C40.2655 40.8317 40.1388 40.5213 40.1388 40.154C40.1388 39.7867 40.2655 39.4637 40.5188 39.185C40.7848 38.919 41.1015 38.786 41.4688 38.786C41.8362 38.786 42.1465 38.919 42.3998 39.185C42.6658 39.4637 42.7988 39.7867 42.7988 40.154C42.7988 40.5213 42.6658 40.8317 42.3998 41.085C42.1465 41.3383 41.8362 41.465 41.4688 41.465ZM46.9144 20.99V19.66L51.3984 18.33V19.698L46.9144 20.99ZM47.7314 17.38C47.2627 17.38 46.9461 17.2153 46.7814 16.886C46.6167 16.5567 46.5344 16.1957 46.5344 15.803C46.5344 15.6637 46.5407 15.518 46.5534 15.366C46.5787 15.2013 46.6104 15.0177 46.6484 14.815L47.7884 14.549C47.7504 14.7643 47.7187 14.967 47.6934 15.157C47.6807 15.3343 47.6744 15.4927 47.6744 15.632C47.6744 15.7967 47.7061 15.9233 47.7694 16.012C47.8327 16.1007 47.9214 16.145 48.0354 16.145C48.1874 16.145 48.3077 16.0563 48.3964 15.879C48.4977 15.7017 48.5484 15.3597 48.5484 14.853V14.283L49.6504 13.941V15.1C49.6504 15.2393 49.6757 15.3533 49.7264 15.442C49.7897 15.5307 49.8847 15.575 50.0114 15.575C50.1887 15.575 50.3091 15.5243 50.3724 15.423C50.4484 15.309 50.4864 15.176 50.4864 15.024C50.4864 14.8087 50.4611 14.5933 50.4104 14.378C50.3597 14.15 50.2901 13.9283 50.2014 13.713L51.2464 13.447C51.3731 13.6877 51.4744 13.9663 51.5504 14.283C51.6391 14.587 51.6834 14.8657 51.6834 15.119C51.6834 15.537 51.5631 15.917 51.3224 16.259C51.0817 16.5883 50.6891 16.753 50.1444 16.753C49.8024 16.753 49.5111 16.6517 49.2704 16.449C49.0297 16.2337 48.9094 15.9803 48.9094 15.689L49.3464 15.86C49.3464 16.2907 49.1944 16.6517 48.8904 16.943C48.5991 17.2343 48.2127 17.38 47.7314 17.38ZM49.3041 34.435C49.8741 34.435 50.3111 34.3843 50.6151 34.283C50.9191 34.1817 51.1281 34.0487 51.2421 33.884C51.3561 33.7193 51.4131 33.542 51.4131 33.352C51.4131 33.048 51.3244 32.6933 51.1471 32.288C50.9824 31.8827 50.7734 31.4583 50.5201 31.015C50.2668 30.5717 50.0008 30.1473 49.7221 29.742C49.4561 29.3367 49.2154 28.982 49.0001 28.678L51.2611 27.177C51.8058 27.9117 52.2744 28.64 52.6671 29.362C53.0598 30.0713 53.3764 30.73 53.6171 31.338C53.8704 31.946 54.0478 32.4653 54.1491 32.896C54.2504 33.3013 54.4024 33.618 54.6051 33.846C54.8204 34.0613 55.0674 34.2133 55.3461 34.302C55.6248 34.3907 55.9034 34.435 56.1821 34.435C56.6634 34.435 57.0054 34.5617 57.2081 34.815C57.4234 35.0557 57.5311 35.3597 57.5311 35.727C57.5311 36.1197 57.3981 36.449 57.1321 36.715C56.8788 36.9683 56.4988 37.095 55.9921 37.095C55.4348 37.095 54.9471 37.019 54.5291 36.867C54.1111 36.715 53.7564 36.4743 53.4651 36.145C53.1738 35.8157 52.9268 35.3977 52.7241 34.891L53.8831 35.138C53.7818 35.4927 53.5474 35.822 53.1801 36.126C52.8254 36.4173 52.3504 36.658 51.7551 36.848C51.1724 37.0253 50.4821 37.114 49.6841 37.114C49.3041 37.114 48.8798 37.0823 48.4111 37.019C47.9551 36.9557 47.4991 36.8607 47.0431 36.734C46.5998 36.6073 46.1944 36.4427 45.8271 36.24L46.7581 33.827C47.2268 34.0297 47.6764 34.1817 48.1071 34.283C48.5504 34.3843 48.9494 34.435 49.3041 34.435ZM49.4181 25.733C49.0254 25.733 48.6898 25.6 48.4111 25.334C48.1451 25.068 48.0121 24.7387 48.0121 24.346C48.0121 23.9533 48.1451 23.6177 48.4111 23.339C48.6898 23.0603 49.0254 22.921 49.4181 22.921C49.7981 22.921 50.1211 23.0603 50.3871 23.339C50.6658 23.6177 50.8051 23.9533 50.8051 24.346C50.8051 24.7387 50.6658 25.068 50.3871 25.334C50.1211 25.6 49.7981 25.733 49.4181 25.733ZM56.2385 22.79V21.46L60.7225 20.13V21.498L56.2385 22.79ZM56.0166 37.095L56.2066 34.435H58.8666C59.3099 34.435 59.6456 34.4097 59.8736 34.359C60.1143 34.3083 60.2789 34.2323 60.3676 34.131C60.4563 34.017 60.5006 33.884 60.5006 33.732C60.5006 33.504 60.3993 33.238 60.1966 32.934C60.0066 32.63 59.7533 32.3133 59.4366 31.984C59.1326 31.6547 58.8096 31.3253 58.4676 30.996C58.1256 30.654 57.7963 30.3373 57.4796 30.046C57.1756 29.7547 56.9223 29.5013 56.7196 29.286C56.5296 29.058 56.4346 28.8933 56.4346 28.792C56.4346 28.4373 56.4536 28.1587 56.4916 27.956C56.5296 27.7407 56.5803 27.5697 56.6436 27.443C56.7196 27.3163 56.8019 27.2087 56.8906 27.12C57.1059 26.9047 57.4289 26.664 57.8596 26.398C58.2903 26.1193 58.7969 25.828 59.3796 25.524C59.9749 25.2073 60.6399 24.878 61.3746 24.536C62.1093 24.1813 62.8883 23.814 63.7116 23.434L64.7946 25.752C63.9586 26.1193 63.2113 26.4613 62.5526 26.778C61.9066 27.082 61.3239 27.367 60.8046 27.633C60.2979 27.8863 59.8419 28.127 59.4366 28.355C59.0439 28.583 58.6893 28.7983 58.3726 29.001L58.5626 27.595C59.1073 28.0637 59.6013 28.507 60.0446 28.925C60.4879 29.343 60.8996 29.761 61.2796 30.179C61.6596 30.597 62.0143 31.0277 62.3436 31.471C62.6856 31.9143 63.0149 32.3957 63.3316 32.915C63.6103 33.3583 63.8953 33.6877 64.1866 33.903C64.4906 34.1183 64.7819 34.264 65.0606 34.34C65.3519 34.4033 65.6116 34.435 65.8396 34.435C66.3209 34.435 66.6629 34.5617 66.8656 34.815C67.0809 35.0557 67.1886 35.3597 67.1886 35.727C67.1886 36.1197 67.0556 36.449 66.7896 36.715C66.5236 36.9683 66.1436 37.095 65.6496 37.095C65.2316 37.095 64.7819 37.0253 64.3006 36.886C63.8193 36.734 63.3696 36.4933 62.9516 36.164C62.5336 35.8347 62.2169 35.385 62.0016 34.815L63.0276 34.891C62.8376 35.2963 62.6096 35.6447 62.3436 35.936C62.0903 36.2147 61.7863 36.4427 61.4316 36.62C61.0769 36.7847 60.6716 36.905 60.2156 36.981C59.7596 37.057 59.2466 37.095 58.6766 37.095H56.0166ZM65.9558 21.942L65.7468 20.745C66.4182 20.745 67.0452 20.65 67.6278 20.46C68.2105 20.2573 68.6792 20.004 69.0338 19.7C69.3885 19.396 69.5658 19.0983 69.5658 18.807C69.5658 18.6297 69.5152 18.4713 69.4138 18.332C69.3125 18.1927 69.1668 18.123 68.9768 18.123C68.8122 18.123 68.6665 18.1863 68.5398 18.313C68.4132 18.4397 68.3498 18.598 68.3498 18.788C68.3498 19.0287 68.4448 19.244 68.6348 19.434C68.8248 19.6113 69.0528 19.757 69.3188 19.871L68.5018 20.593C68.1218 20.4157 67.7925 20.1813 67.5138 19.89C67.2352 19.586 67.0958 19.1997 67.0958 18.731C67.0958 18.2117 67.2732 17.781 67.6278 17.439C67.9952 17.097 68.4512 16.926 68.9958 16.926C69.5912 16.926 70.0408 17.116 70.3448 17.496C70.6488 17.876 70.8008 18.3067 70.8008 18.788C70.8008 19.396 70.5792 19.928 70.1358 20.384C69.7052 20.84 69.1225 21.201 68.3878 21.467C67.6658 21.733 66.8552 21.8913 65.9558 21.942ZM65.665 37.095L65.855 34.435C66.615 34.435 67.1977 34.397 67.603 34.321C68.0084 34.245 68.287 34.1057 68.439 33.903C68.6037 33.6877 68.686 33.3837 68.686 32.991C68.686 32.6363 68.6354 32.212 68.534 31.718C68.4454 31.224 68.325 30.711 68.173 30.179C68.0337 29.647 67.8817 29.1593 67.717 28.716L70.339 27.994C70.5037 28.4247 70.662 28.925 70.814 29.495C70.966 30.065 71.0927 30.654 71.194 31.262C71.2954 31.8573 71.346 32.4337 71.346 32.991C71.346 33.8523 71.2067 34.5553 70.928 35.1C70.6494 35.632 70.2567 36.0437 69.75 36.335C69.256 36.6263 68.6607 36.829 67.964 36.943C67.2674 37.0443 66.501 37.095 65.665 37.095ZM70.814 26.455C70.4467 26.455 70.13 26.3283 69.864 26.075C69.6107 25.809 69.484 25.4987 69.484 25.144C69.484 24.7767 69.6107 24.46 69.864 24.194C70.13 23.928 70.4467 23.795 70.814 23.795C71.1687 23.795 71.4727 23.928 71.726 24.194C71.9794 24.46 72.106 24.7767 72.106 25.144C72.106 25.4987 71.9794 25.809 71.726 26.075C71.4727 26.3283 71.1687 26.455 70.814 26.455ZM67.527 26.436C67.1597 26.436 66.843 26.3093 66.577 26.056C66.3237 25.79 66.197 25.4797 66.197 25.125C66.197 24.7577 66.3237 24.441 66.577 24.175C66.843 23.909 67.1597 23.776 67.527 23.776C67.8817 23.776 68.1857 23.909 68.439 24.175C68.6924 24.441 68.819 24.7577 68.819 25.125C68.819 25.4797 68.6924 25.79 68.439 26.056C68.1857 26.3093 67.8817 26.436 67.527 26.436ZM82.9136 37.095C81.7356 37.095 80.8236 36.9747 80.1776 36.734C79.5443 36.4933 79.101 36.1197 78.8476 35.613C78.5943 35.0937 78.4486 34.4413 78.4106 33.656L78.0116 23.092H80.6716L81.0706 32.383C81.096 32.9657 81.1593 33.4027 81.2606 33.694C81.362 33.9853 81.552 34.1817 81.8306 34.283C82.122 34.3843 82.5463 34.435 83.1036 34.435C83.585 34.435 83.927 34.5617 84.1296 34.815C84.345 35.0557 84.4526 35.3597 84.4526 35.727C84.4526 36.1197 84.3196 36.449 84.0536 36.715C83.7876 36.9683 83.4076 37.095 82.9136 37.095ZM86.4641 26.79V25.46L90.9481 24.13V25.498L86.4641 26.79ZM82.9395 37.095L83.1295 34.435C83.4461 34.435 83.6868 34.3717 83.8515 34.245C84.0161 34.1183 84.1808 33.8967 84.3455 33.58C84.5101 33.2633 84.7381 32.8327 85.0295 32.288C85.3461 31.68 85.6755 31.1733 86.0175 30.768C86.3595 30.35 86.7015 30.0207 87.0435 29.78C87.3981 29.5267 87.7465 29.3493 88.0885 29.248C88.4431 29.134 88.7915 29.077 89.1335 29.077C89.6021 29.077 90.0391 29.1783 90.4445 29.381C90.8625 29.571 91.2615 29.9067 91.6415 30.388C92.0215 30.8567 92.3825 31.5027 92.7245 32.326C92.9651 32.896 93.2058 33.333 93.4465 33.637C93.6871 33.941 93.9341 34.15 94.1875 34.264C94.4535 34.378 94.7195 34.435 94.9855 34.435C95.4668 34.435 95.8088 34.5617 96.0115 34.815C96.2141 35.0557 96.3155 35.3597 96.3155 35.727C96.3155 36.1197 96.1825 36.449 95.9165 36.715C95.6505 36.9683 95.2768 37.095 94.7955 37.095C94.1748 37.095 93.6111 36.9937 93.1045 36.791C92.5978 36.5883 92.1988 36.2843 91.9075 35.879L92.4585 35.461C92.3445 35.727 92.1735 36.0057 91.9455 36.297C91.7301 36.5883 91.4451 36.8353 91.0905 37.038C90.7485 37.2407 90.3368 37.342 89.8555 37.342C89.5388 37.342 89.1651 37.2787 88.7345 37.152C88.3165 37.038 87.8795 36.8417 87.4235 36.563C86.9801 36.2717 86.5685 35.879 86.1885 35.385C85.9478 35.8283 85.6818 36.1767 85.3905 36.43C85.0991 36.6707 84.7571 36.8417 84.3645 36.943C83.9718 37.0443 83.4968 37.095 82.9395 37.095ZM87.2905 33.143C87.4171 33.333 87.5691 33.523 87.7465 33.713C87.9238 33.903 88.1201 34.074 88.3355 34.226C88.5508 34.3653 88.7788 34.4793 89.0195 34.568C89.2728 34.6567 89.5198 34.701 89.7605 34.701C90.0138 34.701 90.2228 34.606 90.3875 34.416C90.5521 34.2133 90.5585 33.9157 90.4065 33.523C90.3431 33.3583 90.2545 33.1747 90.1405 32.972C90.0391 32.7567 89.9188 32.554 89.7795 32.364C89.6528 32.174 89.5071 32.0157 89.3425 31.889C89.1905 31.7623 89.0321 31.699 88.8675 31.699C88.7028 31.699 88.5318 31.7497 88.3545 31.851C88.1771 31.9523 87.9998 32.1107 87.8225 32.326C87.6451 32.5287 87.4678 32.801 87.2905 33.143ZM94.3445 22.942L94.1355 21.745C94.8068 21.745 95.4338 21.65 96.0165 21.46C96.5992 21.2573 97.0678 21.004 97.4225 20.7C97.7772 20.396 97.9545 20.0983 97.9545 19.807C97.9545 19.6297 97.9038 19.4713 97.8025 19.332C97.7012 19.1927 97.5555 19.123 97.3655 19.123C97.2008 19.123 97.0552 19.1863 96.9285 19.313C96.8018 19.4397 96.7385 19.598 96.7385 19.788C96.7385 20.0287 96.8335 20.244 97.0235 20.434C97.2135 20.6113 97.4415 20.757 97.7075 20.871L96.8905 21.593C96.5105 21.4157 96.1812 21.1813 95.9025 20.89C95.6238 20.586 95.4845 20.1997 95.4845 19.731C95.4845 19.2117 95.6618 18.781 96.0165 18.439C96.3838 18.097 96.8398 17.926 97.3845 17.926C97.9798 17.926 98.4295 18.116 98.7335 18.496C99.0375 18.876 99.1895 19.3067 99.1895 19.788C99.1895 20.396 98.9678 20.928 98.5245 21.384C98.0938 21.84 97.5112 22.201 96.7765 22.467C96.0545 22.733 95.2438 22.8913 94.3445 22.942ZM94.7959 37.095L94.9859 34.435H97.6459C98.0892 34.435 98.4249 34.4097 98.6529 34.359C98.8936 34.3083 99.0582 34.2323 99.1469 34.131C99.2356 34.017 99.2799 33.884 99.2799 33.732C99.2799 33.504 99.1786 33.238 98.9759 32.934C98.7859 32.63 98.5326 32.3133 98.2159 31.984C97.9119 31.6547 97.5889 31.3253 97.2469 30.996C96.9049 30.654 96.5756 30.3373 96.2589 30.046C95.9549 29.7547 95.7016 29.5013 95.4989 29.286C95.3089 29.058 95.2139 28.8933 95.2139 28.792C95.2139 28.4373 95.2329 28.1587 95.2709 27.956C95.3089 27.7407 95.3596 27.5697 95.4229 27.443C95.4989 27.3163 95.5812 27.2087 95.6699 27.12C95.8852 26.9047 96.2082 26.664 96.6389 26.398C97.0696 26.1193 97.5762 25.828 98.1589 25.524C98.7542 25.2073 99.4192 24.878 100.154 24.536C100.889 24.1813 101.668 23.814 102.491 23.434L103.574 25.752C102.738 26.1193 101.991 26.4613 101.332 26.778C100.686 27.082 100.103 27.367 99.5839 27.633C99.0772 27.8863 98.6212 28.127 98.2159 28.355C97.8232 28.583 97.4686 28.7983 97.1519 29.001L97.3419 27.595C97.8866 28.0637 98.3806 28.507 98.8239 28.925C99.2672 29.343 99.6789 29.761 100.059 30.179C100.439 30.597 100.794 31.0277 101.123 31.471C101.465 31.9143 101.794 32.3957 102.111 32.915C102.39 33.3583 102.675 33.6877 102.966 33.903C103.27 34.1183 103.561 34.264 103.84 34.34C104.131 34.4033 104.391 34.435 104.619 34.435C105.1 34.435 105.442 34.5617 105.645 34.815C105.86 35.0557 105.968 35.3597 105.968 35.727C105.968 36.1197 105.835 36.449 105.569 36.715C105.303 36.9683 104.923 37.095 104.429 37.095C104.011 37.095 103.561 37.0253 103.08 36.886C102.599 36.734 102.149 36.4933 101.731 36.164C101.313 35.8347 100.996 35.385 100.781 34.815L101.807 34.891C101.617 35.2963 101.389 35.6447 101.123 35.936C100.87 36.2147 100.566 36.4427 100.211 36.62C99.8562 36.7847 99.4509 36.905 98.9949 36.981C98.5389 37.057 98.0259 37.095 97.4559 37.095H94.7959ZM104.824 25.99V24.66L109.308 23.33V24.698L104.824 25.99ZM105.641 22.38C105.172 22.38 104.855 22.2153 104.691 21.886C104.526 21.5567 104.444 21.1957 104.444 20.803C104.444 20.6637 104.45 20.518 104.463 20.366C104.488 20.2013 104.52 20.0177 104.558 19.815L105.698 19.549C105.66 19.7643 105.628 19.967 105.603 20.157C105.59 20.3343 105.584 20.4927 105.584 20.632C105.584 20.7967 105.615 20.9233 105.679 21.012C105.742 21.1007 105.831 21.145 105.945 21.145C106.097 21.145 106.217 21.0563 106.306 20.879C106.407 20.7017 106.458 20.3597 106.458 19.853V19.283L107.56 18.941V20.1C107.56 20.2393 107.585 20.3533 107.636 20.442C107.699 20.5307 107.794 20.575 107.921 20.575C108.098 20.575 108.218 20.5243 108.282 20.423C108.358 20.309 108.396 20.176 108.396 20.024C108.396 19.8087 108.37 19.5933 108.32 19.378C108.269 19.15 108.199 18.9283 108.111 18.713L109.156 18.447C109.282 18.6877 109.384 18.9663 109.46 19.283C109.548 19.587 109.593 19.8657 109.593 20.119C109.593 20.537 109.472 20.917 109.232 21.259C108.991 21.5883 108.598 21.753 108.054 21.753C107.712 21.753 107.42 21.6517 107.18 21.449C106.939 21.2337 106.819 20.9803 106.819 20.689L107.256 20.86C107.256 21.2907 107.104 21.6517 106.8 21.943C106.508 22.2343 106.122 22.38 105.641 22.38ZM104.444 37.095L104.634 34.435C105.192 34.435 105.629 34.397 105.945 34.321C106.275 34.245 106.509 34.1057 106.648 33.903C106.788 33.6877 106.857 33.3837 106.857 32.991C106.857 32.6363 106.807 32.212 106.705 31.718C106.617 31.224 106.496 30.711 106.344 30.179C106.192 29.647 106.04 29.1593 105.888 28.716L108.51 27.994C108.662 28.4247 108.814 28.925 108.966 29.495C109.118 30.065 109.245 30.654 109.346 31.262C109.46 31.8573 109.517 32.4337 109.517 32.991C109.517 33.6877 109.429 34.2767 109.251 34.758C109.074 35.2267 108.827 35.6193 108.51 35.936C108.206 36.24 107.839 36.4807 107.408 36.658C106.99 36.8227 106.528 36.9367 106.021 37C105.515 37.0633 104.989 37.095 104.444 37.095ZM106.781 41.465C106.414 41.465 106.097 41.3383 105.831 41.085C105.578 40.8317 105.451 40.5213 105.451 40.154C105.451 39.7867 105.578 39.4637 105.831 39.185C106.097 38.919 106.414 38.786 106.781 38.786C107.149 38.786 107.459 38.919 107.712 39.185C107.978 39.4637 108.111 39.7867 108.111 40.154C108.111 40.5213 107.978 40.8317 107.712 41.085C107.459 41.3383 107.149 41.465 106.781 41.465ZM112.589 27.79V26.46L117.073 25.13V26.498L112.589 27.79ZM110.779 41.37L109.81 38.938C110.899 38.558 111.779 38.14 112.451 37.684C113.135 37.228 113.635 36.7403 113.952 36.221C114.281 35.7017 114.446 35.1633 114.446 34.606C114.446 34.2513 114.395 33.884 114.294 33.504C114.192 33.1113 114.047 32.6997 113.857 32.269C113.679 31.8383 113.464 31.3887 113.211 30.92L115.7 29.723C116.143 30.5717 116.485 31.3823 116.726 32.155C116.979 32.9277 117.106 33.6497 117.106 34.321C117.106 34.9417 117.023 35.537 116.859 36.107C116.707 36.677 116.466 37.209 116.137 37.703C115.82 38.2097 115.408 38.6847 114.902 39.128C114.395 39.5713 113.8 39.9767 113.116 40.344C112.432 40.724 111.653 41.066 110.779 41.37ZM125.206 41.477V40.147L129.69 38.817V40.185L125.206 41.477ZM125.382 35.138C125.18 35.0367 124.977 34.8973 124.774 34.72C124.572 34.53 124.388 34.3083 124.223 34.055C124.059 33.8017 123.926 33.5293 123.824 33.238C123.736 32.934 123.691 32.6237 123.691 32.307C123.691 31.6103 123.856 30.996 124.185 30.464C124.515 29.9193 124.958 29.495 125.515 29.191C126.073 28.8743 126.687 28.716 127.358 28.716C127.726 28.716 128.061 28.7413 128.365 28.792C128.682 28.83 128.999 28.8933 129.315 28.982L128.897 31.452C128.669 31.3887 128.448 31.3443 128.232 31.319C128.03 31.281 127.846 31.262 127.681 31.262C127.415 31.262 127.181 31.319 126.978 31.433C126.776 31.5343 126.617 31.6863 126.503 31.889C126.402 32.079 126.351 32.3007 126.351 32.554C126.351 32.8453 126.415 33.105 126.541 33.333C126.681 33.561 126.883 33.7573 127.149 33.922C127.428 34.074 127.77 34.1943 128.175 34.283L125.382 35.138ZM123.672 38.083L122.817 35.594C123.476 35.4167 124.192 35.214 124.964 34.986C125.737 34.7453 126.548 34.473 127.396 34.169C128.258 33.865 129.132 33.5357 130.018 33.181L131.006 35.613C130.5 35.8157 129.936 36.0373 129.315 36.278C128.695 36.506 128.049 36.734 127.377 36.962C126.706 37.19 126.054 37.399 125.42 37.589C124.787 37.779 124.204 37.9437 123.672 38.083ZM137.694 20.79V19.46L142.178 18.13V19.498L137.694 20.79ZM139.057 26.816C139.057 26.398 139.032 25.98 138.981 25.562C138.943 25.144 138.893 24.7513 138.829 24.384C138.766 24.004 138.709 23.6747 138.658 23.396L141.318 23.016C141.369 23.2693 141.42 23.605 141.47 24.023C141.521 24.441 141.565 24.8843 141.603 25.353C141.641 25.809 141.66 26.246 141.66 26.664C141.66 27.3227 141.603 27.9433 141.489 28.526C141.375 29.1087 141.204 29.6597 140.976 30.179C140.748 30.6857 140.463 31.1733 140.121 31.642L139.779 32.098C139.45 32.5033 139.064 32.9023 138.62 33.295C138.19 33.6877 137.715 34.0677 137.195 34.435H138.43C138.861 34.435 139.19 34.4097 139.418 34.359C139.646 34.3083 139.798 34.2387 139.874 34.15C139.963 34.0487 140.007 33.9347 140.007 33.808C140.007 33.58 139.811 33.2443 139.418 32.801C139.026 32.345 138.481 31.8257 137.784 31.243C137.088 30.6477 136.271 30.0207 135.333 29.362C134.409 28.6907 133.408 28.0193 132.331 27.348L133.718 25.315C135.213 26.2397 136.473 27.0883 137.499 27.861C138.538 28.6337 139.387 29.3367 140.045 29.97C140.717 30.6033 141.236 31.1797 141.603 31.699C141.971 32.2183 142.224 32.687 142.363 33.105C142.503 33.5103 142.572 33.8777 142.572 34.207C142.572 34.5743 142.515 34.929 142.401 35.271C142.287 35.6003 142.104 35.898 141.85 36.164C141.597 36.4173 141.268 36.62 140.862 36.772C140.457 36.924 139.957 37 139.361 37H133.775V34.454C135.08 33.5167 136.112 32.63 136.872 31.794C137.645 30.958 138.202 30.1347 138.544 29.324C138.886 28.5133 139.057 27.6773 139.057 26.816ZM145.058 37L144.697 24.422H147.357L147.718 37H145.058ZM147.224 22.579C146.844 22.579 146.502 22.5157 146.198 22.389C145.894 22.2497 145.616 22.1167 145.362 21.99C145.109 21.8633 144.875 21.8 144.659 21.8C144.431 21.8 144.222 21.857 144.032 21.971C143.855 22.085 143.665 22.2433 143.462 22.446L142.569 21.61C142.911 21.1793 143.253 20.8563 143.595 20.641C143.95 20.4257 144.305 20.318 144.659 20.318C144.976 20.318 145.267 20.3813 145.533 20.508C145.799 20.6347 146.065 20.7613 146.331 20.888C146.61 21.0147 146.908 21.078 147.224 21.078C147.427 21.078 147.617 21.0463 147.794 20.983C147.972 20.907 148.187 20.793 148.44 20.641L149.105 21.686C148.649 22.0787 148.269 22.3257 147.965 22.427C147.674 22.5283 147.427 22.579 147.224 22.579ZM155.144 30.99V29.66L159.628 28.33V29.698L155.144 30.99ZM155.961 27.38C155.492 27.38 155.176 27.2153 155.011 26.886C154.846 26.5567 154.764 26.1957 154.764 25.803C154.764 25.6637 154.77 25.518 154.783 25.366C154.808 25.2013 154.84 25.0177 154.878 24.815L156.018 24.549C155.98 24.7643 155.948 24.967 155.923 25.157C155.91 25.3343 155.904 25.4927 155.904 25.632C155.904 25.7967 155.936 25.9233 155.999 26.012C156.062 26.1007 156.151 26.145 156.265 26.145C156.417 26.145 156.537 26.0563 156.626 25.879C156.727 25.7017 156.778 25.3597 156.778 24.853V24.283L157.88 23.941V25.1C157.88 25.2393 157.905 25.3533 157.956 25.442C158.019 25.5307 158.114 25.575 158.241 25.575C158.418 25.575 158.539 25.5243 158.602 25.423C158.678 25.309 158.716 25.176 158.716 25.024C158.716 24.8087 158.691 24.5933 158.64 24.378C158.589 24.15 158.52 23.9283 158.431 23.713L159.476 23.447C159.603 23.6877 159.704 23.9663 159.78 24.283C159.869 24.587 159.913 24.8657 159.913 25.119C159.913 25.537 159.793 25.917 159.552 26.259C159.311 26.5883 158.919 26.753 158.374 26.753C158.032 26.753 157.741 26.6517 157.5 26.449C157.259 26.2337 157.139 25.9803 157.139 25.689L157.576 25.86C157.576 26.2907 157.424 26.6517 157.12 26.943C156.829 27.2343 156.442 27.38 155.961 27.38ZM153.626 36.468C153.626 36.1767 153.651 35.8347 153.702 35.442C153.753 35.0493 153.848 34.606 153.987 34.112C154.126 33.6053 154.335 33.0417 154.614 32.421L156.951 33.238C156.812 33.6307 156.691 33.9917 156.59 34.321C156.489 34.6377 156.413 34.9353 156.362 35.214C156.311 35.48 156.286 35.746 156.286 36.012C156.286 36.392 156.368 36.7467 156.533 37.076C156.698 37.4053 156.945 37.6903 157.274 37.931C157.603 38.1843 158.009 38.3807 158.49 38.52C158.984 38.6593 159.554 38.729 160.2 38.729C160.935 38.729 161.581 38.6593 162.138 38.52C162.708 38.3933 163.183 38.2223 163.563 38.007C163.956 37.8043 164.253 37.589 164.456 37.361C164.659 37.133 164.76 36.924 164.76 36.734C164.76 36.582 164.652 36.449 164.437 36.335C164.234 36.221 163.962 36.107 163.62 35.993C163.291 35.8663 162.936 35.727 162.556 35.575C162.189 35.423 161.834 35.233 161.492 35.005C161.163 34.777 160.89 34.4983 160.675 34.169C160.472 33.8397 160.371 33.4407 160.371 32.972C160.371 32.4907 160.498 31.965 160.751 31.395C161.004 30.8123 161.365 30.2613 161.834 29.742C162.303 29.21 162.86 28.7793 163.506 28.45C164.165 28.108 164.887 27.937 165.672 27.937C166.229 27.937 166.736 28.0257 167.192 28.203C167.661 28.3803 168.053 28.583 168.37 28.811L167.382 31.034C167.116 30.8567 166.831 30.7237 166.527 30.635C166.223 30.5337 165.932 30.483 165.653 30.483C165.298 30.483 164.956 30.5527 164.627 30.692C164.31 30.8313 164.025 31.015 163.772 31.243C163.531 31.4583 163.341 31.6927 163.202 31.946C163.063 32.1993 162.993 32.44 162.993 32.668C162.993 32.896 163.101 33.0987 163.316 33.276C163.544 33.4407 163.835 33.599 164.19 33.751C164.545 33.8903 164.918 34.036 165.311 34.188C165.704 34.34 166.077 34.511 166.432 34.701C166.787 34.891 167.072 35.119 167.287 35.385C167.515 35.651 167.629 35.974 167.629 36.354C167.629 36.8987 167.458 37.4623 167.116 38.045C166.787 38.6403 166.293 39.1913 165.634 39.698C164.975 40.2047 164.165 40.61 163.202 40.914C162.252 41.2307 161.15 41.389 159.896 41.389C158.984 41.389 158.148 41.2813 157.388 41.066C156.628 40.8633 155.963 40.553 155.393 40.135C154.836 39.7297 154.399 39.2167 154.082 38.596C153.778 37.988 153.626 37.2787 153.626 36.468ZM161.625 45.797C161.258 45.797 160.941 45.664 160.675 45.398C160.422 45.1447 160.295 44.8407 160.295 44.486C160.295 44.1187 160.422 43.802 160.675 43.536C160.941 43.27 161.258 43.137 161.625 43.137C161.98 43.137 162.284 43.27 162.537 43.536C162.79 43.802 162.917 44.1187 162.917 44.486C162.917 44.8407 162.79 45.1447 162.537 45.398C162.284 45.664 161.98 45.797 161.625 45.797ZM158.338 45.797C157.971 45.797 157.654 45.664 157.388 45.398C157.135 45.1447 157.008 44.8407 157.008 44.486C157.008 44.1187 157.135 43.802 157.388 43.536C157.654 43.27 157.971 43.137 158.338 43.137C158.693 43.137 158.997 43.27 159.25 43.536C159.503 43.802 159.63 44.1187 159.63 44.486C159.63 44.8407 159.503 45.1447 159.25 45.398C158.997 45.664 158.693 45.797 158.338 45.797ZM168.847 17.79V16.46L173.331 15.13V16.498L168.847 17.79ZM174.721 37.095C173.543 37.095 172.631 36.9747 171.985 36.734C171.352 36.4933 170.909 36.1197 170.655 35.613C170.402 35.0937 170.256 34.4413 170.218 33.656L169.857 24.422H172.517L172.878 32.383C172.904 32.9657 172.967 33.4027 173.068 33.694C173.17 33.9853 173.36 34.1817 173.638 34.283C173.93 34.3843 174.354 34.435 174.911 34.435C175.393 34.435 175.735 34.5617 175.937 34.815C176.153 35.0557 176.26 35.3597 176.26 35.727C176.26 36.1197 176.127 36.449 175.861 36.715C175.595 36.9683 175.215 37.095 174.721 37.095ZM169.306 23.206L168.983 21.876C169.427 21.8 169.756 21.7367 169.971 21.686C170.199 21.6353 170.44 21.5783 170.693 21.515L170.503 21.99C170.174 21.876 169.857 21.6543 169.553 21.325C169.262 20.983 169.116 20.5967 169.116 20.166C169.116 19.71 169.218 19.3427 169.42 19.064C169.623 18.7853 169.883 18.5827 170.199 18.456C170.516 18.3293 170.845 18.266 171.187 18.266C171.377 18.266 171.555 18.2787 171.719 18.304C171.897 18.3293 172.055 18.3673 172.194 18.418L172.042 19.786C171.916 19.7607 171.789 19.7353 171.662 19.71C171.536 19.6847 171.396 19.672 171.244 19.672C171.08 19.672 170.928 19.729 170.788 19.843C170.662 19.9443 170.598 20.071 170.598 20.223C170.598 20.4383 170.674 20.6283 170.826 20.793C170.978 20.9577 171.156 21.0907 171.358 21.192C171.574 21.2807 171.751 21.3313 171.89 21.344L170.845 21.458C171.187 21.3693 171.51 21.2807 171.814 21.192C172.118 21.0907 172.403 20.9893 172.669 20.888L173.049 22.161C172.733 22.275 172.359 22.4017 171.928 22.541C171.51 22.6677 171.073 22.788 170.617 22.902C170.174 23.016 169.737 23.1173 169.306 23.206ZM176.195 45.477V44.147L180.679 42.817V44.185L176.195 45.477ZM174.748 37.095L174.938 34.435C175.419 34.435 175.799 34.3907 176.078 34.302C176.369 34.2133 176.597 34.036 176.762 33.77C176.939 33.4913 177.085 33.086 177.199 32.554C177.326 32.022 177.452 31.3127 177.579 30.426L180.068 30.844C180.043 31.034 180.005 31.2557 179.954 31.509C179.916 31.7623 179.878 32.022 179.84 32.288C179.815 32.5413 179.802 32.782 179.802 33.01C179.802 33.314 179.865 33.5737 179.992 33.789C180.131 33.9917 180.372 34.15 180.714 34.264C181.069 34.378 181.575 34.435 182.234 34.435C182.715 34.435 183.057 34.5617 183.26 34.815C183.463 35.0557 183.564 35.3597 183.564 35.727C183.564 36.1197 183.431 36.449 183.165 36.715C182.912 36.9683 182.538 37.095 182.044 37.095C181.17 37.095 180.461 37.0127 179.916 36.848C179.371 36.6833 178.966 36.4047 178.7 36.012C178.434 35.6193 178.263 35.081 178.187 34.397H179.099C178.871 35.005 178.605 35.4927 178.301 35.86C177.997 36.2147 177.655 36.4807 177.275 36.658C176.895 36.8353 176.49 36.9493 176.059 37C175.641 37.0633 175.204 37.095 174.748 37.095ZM178.13 41.465C177.763 41.465 177.446 41.3383 177.18 41.085C176.927 40.8317 176.8 40.5213 176.8 40.154C176.8 39.7867 176.927 39.4637 177.18 39.185C177.446 38.919 177.763 38.786 178.13 38.786C178.497 38.786 178.808 38.919 179.061 39.185C179.327 39.4637 179.46 39.7867 179.46 40.154C179.46 40.5213 179.327 40.8317 179.061 41.085C178.808 41.3383 178.497 41.465 178.13 41.465ZM184.544 19.79V18.46L189.028 17.13V18.498L184.544 19.79ZM182.04 37.095L182.23 34.454C183.281 34.454 184.124 34.4477 184.757 34.435C185.403 34.4223 185.903 34.397 186.258 34.359C186.625 34.3083 186.898 34.2513 187.075 34.188C187.252 34.112 187.404 34.0297 187.531 33.941C187.683 33.827 187.81 33.675 187.911 33.485C188.025 33.2823 188.114 33.0163 188.177 32.687C188.24 32.3577 188.272 31.946 188.272 31.452C188.272 30.8313 188.215 30.312 188.101 29.894C188 29.4633 187.848 29.1403 187.645 28.925C187.455 28.7097 187.221 28.602 186.942 28.602C186.739 28.602 186.549 28.6717 186.372 28.811C186.195 28.9377 186.049 29.115 185.935 29.343C185.821 29.571 185.764 29.8307 185.764 30.122C185.764 30.2867 185.808 30.4323 185.897 30.559C185.986 30.6857 186.125 30.7807 186.315 30.844C186.505 30.9073 186.746 30.939 187.037 30.939C187.316 30.939 187.607 30.9073 187.911 30.844C188.228 30.768 188.519 30.6667 188.785 30.54L188.861 32.801C188.658 32.9403 188.424 33.067 188.158 33.181C187.892 33.295 187.607 33.3837 187.303 33.447C187.012 33.4977 186.714 33.523 186.41 33.523C185.739 33.523 185.156 33.4343 184.662 33.257C184.181 33.067 183.807 32.763 183.541 32.345C183.275 31.927 183.142 31.357 183.142 30.635C183.142 30.0777 183.237 29.5267 183.427 28.982C183.617 28.4247 183.889 27.9243 184.244 27.481C184.599 27.025 185.017 26.664 185.498 26.398C185.979 26.1193 186.511 25.98 187.094 25.98C187.955 25.98 188.665 26.2333 189.222 26.74C189.792 27.234 190.21 27.9053 190.476 28.754C190.755 29.59 190.894 30.521 190.894 31.547C190.894 32.4463 190.761 33.2317 190.495 33.903C190.229 34.5617 189.912 35.081 189.545 35.461C189.241 35.7777 188.893 36.0437 188.5 36.259C188.107 36.4743 187.626 36.6453 187.056 36.772C186.499 36.886 185.808 36.9683 184.985 37.019C184.174 37.0697 183.193 37.095 182.04 37.095ZM187.056 24.213C186.663 24.213 186.328 24.08 186.049 23.814C185.783 23.548 185.65 23.2187 185.65 22.826C185.65 22.4333 185.783 22.0977 186.049 21.819C186.328 21.5403 186.663 21.401 187.056 21.401C187.436 21.401 187.759 21.5403 188.025 21.819C188.304 22.0977 188.443 22.4333 188.443 22.826C188.443 23.2187 188.304 23.548 188.025 23.814C187.759 24.08 187.436 24.213 187.056 24.213Z" fill="#FBFBFB"/>
</svg>
