<svg width="334" height="118" viewBox="0 0 334 118" fill="none" xmlns="http://www.w3.org/2000/svg">
<rect width="334" height="118" rx="30" fill="#42C83C"/>
<path d="M20.9389 70.5455V73.7955H19.9233V70.5455H20.9389ZM23.3026 70.5455V73.7955H22.2869V70.5455H23.3026ZM26.5329 70.5455V80H25.3881V70.5455H26.5329ZM29.7702 75.7344V80H28.6808V72.9091H29.7333V74.017H29.8256C29.9918 73.657 30.2442 73.3677 30.5827 73.1491C30.9213 72.9276 31.3583 72.8168 31.8938 72.8168C32.3739 72.8168 32.794 72.9152 33.1541 73.1122C33.5142 73.3061 33.7943 73.6016 33.9943 73.9986C34.1944 74.3925 34.2944 74.8911 34.2944 75.4943V80H33.2049V75.5682C33.2049 75.0111 33.0603 74.5772 32.771 74.2663C32.4817 73.9524 32.0846 73.7955 31.5799 73.7955C31.2321 73.7955 30.9213 73.8709 30.6474 74.0217C30.3765 74.1725 30.1626 74.3925 30.0057 74.6818C29.8487 74.9711 29.7702 75.322 29.7702 75.7344ZM38.9628 80.1477C38.3719 80.1477 37.8502 79.9985 37.3978 79.6999C36.9454 79.3983 36.5915 78.9736 36.336 78.4258C36.0806 77.8749 35.9529 77.224 35.9529 76.473C35.9529 75.7282 36.0806 75.0819 36.336 74.5341C36.5915 73.9863 36.9469 73.5631 37.4024 73.2646C37.8579 72.966 38.3842 72.8168 38.9813 72.8168C39.4429 72.8168 39.8076 72.8937 40.0754 73.0476C40.3462 73.1984 40.5524 73.3707 40.694 73.5646C40.8386 73.7554 40.951 73.9124 41.031 74.0355H41.1233V70.5455H42.2128V80H41.1602V78.9105H41.031C40.951 79.0398 40.8371 79.2029 40.6894 79.3999C40.5416 79.5937 40.3308 79.7676 40.0569 79.9215C39.783 80.0723 39.4183 80.1477 38.9628 80.1477ZM39.1105 79.169C39.5476 79.169 39.9169 79.0552 40.2185 78.8274C40.5201 78.5966 40.7494 78.2781 40.9063 77.8718C41.0633 77.4625 41.1418 76.9901 41.1418 76.4545C41.1418 75.9252 41.0648 75.462 40.911 75.065C40.7571 74.6649 40.5293 74.354 40.2277 74.1325C39.9261 73.9078 39.5537 73.7955 39.1105 73.7955C38.6489 73.7955 38.2642 73.9139 37.9564 74.1509C37.6517 74.3848 37.4224 74.7034 37.2686 75.1065C37.1177 75.5066 37.0423 75.956 37.0423 76.4545C37.0423 76.9593 37.1193 77.4179 37.2732 77.8303C37.4301 78.2396 37.661 78.5658 37.9656 78.8089C38.2734 79.049 38.655 79.169 39.1105 79.169ZM47.3325 80.1477C46.6492 80.1477 46.0599 79.9969 45.5644 79.6953C45.0719 79.3906 44.6919 78.9659 44.4241 78.4212C44.1594 77.8733 44.0271 77.2363 44.0271 76.5099C44.0271 75.7836 44.1594 75.1435 44.4241 74.5895C44.6919 74.0324 45.0642 73.5985 45.5413 73.2876C46.0214 72.9737 46.5815 72.8168 47.2217 72.8168C47.591 72.8168 47.9557 72.8783 48.3158 73.0014C48.6759 73.1245 49.0036 73.3246 49.2991 73.6016C49.5945 73.8755 49.83 74.2386 50.0054 74.6911C50.1808 75.1435 50.2686 75.7005 50.2686 76.3622V76.8239H44.8026V75.8821H49.1606C49.1606 75.482 49.0806 75.125 48.9205 74.8111C48.7636 74.4972 48.5389 74.2494 48.2465 74.0678C47.9572 73.8862 47.6156 73.7955 47.2217 73.7955C46.7877 73.7955 46.4123 73.9032 46.0953 74.1186C45.7813 74.331 45.5397 74.608 45.3705 74.9496C45.2012 75.2912 45.1166 75.6574 45.1166 76.0483V76.6761C45.1166 77.2116 45.2089 77.6656 45.3936 78.038C45.5813 78.4073 45.8414 78.6889 46.1737 78.8828C46.5061 79.0736 46.8924 79.169 47.3325 79.169C47.6187 79.169 47.8772 79.129 48.108 79.049C48.3419 78.9659 48.5435 78.8428 48.7128 78.6797C48.8821 78.5135 49.0129 78.3073 49.1052 78.0611L50.1578 78.3565C50.047 78.7135 49.8608 79.0275 49.5992 79.2983C49.3376 79.5661 49.0144 79.7753 48.6297 79.9261C48.245 80.0739 47.8126 80.1477 47.3325 80.1477ZM54.8989 80.1477C54.2156 80.1477 53.6263 79.9969 53.1308 79.6953C52.6383 79.3906 52.2583 78.9659 51.9905 78.4212C51.7258 77.8733 51.5935 77.2363 51.5935 76.5099C51.5935 75.7836 51.7258 75.1435 51.9905 74.5895C52.2583 74.0324 52.6307 73.5985 53.1077 73.2876C53.5878 72.9737 54.1479 72.8168 54.7881 72.8168C55.1574 72.8168 55.5221 72.8783 55.8822 73.0014C56.2423 73.1245 56.57 73.3246 56.8655 73.6016C57.161 73.8755 57.3964 74.2386 57.5718 74.6911C57.7472 75.1435 57.835 75.7005 57.835 76.3622V76.8239H52.3691V75.8821H56.727C56.727 75.482 56.647 75.125 56.4869 74.8111C56.33 74.4972 56.1053 74.2494 55.8129 74.0678C55.5236 73.8862 55.182 73.7955 54.7881 73.7955C54.3541 73.7955 53.9787 73.9032 53.6617 74.1186C53.3477 74.331 53.1061 74.608 52.9369 74.9496C52.7676 75.2912 52.683 75.6574 52.683 76.0483V76.6761C52.683 77.2116 52.7753 77.6656 52.96 78.038C53.1477 78.4073 53.4078 78.6889 53.7401 78.8828C54.0725 79.0736 54.4588 79.169 54.8989 79.169C55.1851 79.169 55.4436 79.129 55.6744 79.049C55.9084 78.9659 56.1099 78.8428 56.2792 78.6797C56.4485 78.5135 56.5793 78.3073 56.6716 78.0611L57.7242 78.3565C57.6134 78.7135 57.4272 79.0275 57.1656 79.2983C56.904 79.5661 56.5808 79.7753 56.1961 79.9261C55.8114 80.0739 55.379 80.1477 54.8989 80.1477ZM62.1698 80.1477C61.5789 80.1477 61.0573 79.9985 60.6048 79.6999C60.1524 79.3983 59.7985 78.9736 59.5431 78.4258C59.2876 77.8749 59.1599 77.224 59.1599 76.473C59.1599 75.7282 59.2876 75.0819 59.5431 74.5341C59.7985 73.9863 60.154 73.5631 60.6095 73.2646C61.065 72.966 61.5912 72.8168 62.1883 72.8168C62.6499 72.8168 63.0146 72.8937 63.2824 73.0476C63.5532 73.1984 63.7594 73.3707 63.901 73.5646C64.0457 73.7554 64.158 73.9124 64.238 74.0355H64.3303V70.5455H65.4198V80H64.3673V78.9105H64.238C64.158 79.0398 64.0441 79.2029 63.8964 79.3999C63.7487 79.5937 63.5378 79.7676 63.2639 79.9215C62.99 80.0723 62.6253 80.1477 62.1698 80.1477ZM62.3176 79.169C62.7546 79.169 63.1239 79.0552 63.4255 78.8274C63.7271 78.5966 63.9564 78.2781 64.1134 77.8718C64.2703 77.4625 64.3488 76.9901 64.3488 76.4545C64.3488 75.9252 64.2719 75.462 64.118 75.065C63.9641 74.6649 63.7364 74.354 63.4347 74.1325C63.1331 73.9078 62.7607 73.7955 62.3176 73.7955C61.8559 73.7955 61.4712 73.9139 61.1634 74.1509C60.8588 74.3848 60.6295 74.7034 60.4756 75.1065C60.3248 75.5066 60.2494 75.956 60.2494 76.4545C60.2494 76.9593 60.3263 77.4179 60.4802 77.8303C60.6372 78.2396 60.868 78.5658 61.1727 78.8089C61.4804 79.049 61.8621 79.169 62.3176 79.169ZM69.1915 78.7074L69.1176 79.206C69.0653 79.5568 68.9853 79.9323 68.8776 80.3324C68.7729 80.7325 68.6637 81.1095 68.5498 81.4634C68.4359 81.8174 68.3421 82.099 68.2682 82.3082H67.4372C67.4772 82.1113 67.5296 81.8512 67.5942 81.5281C67.6588 81.2049 67.7235 80.8433 67.7881 80.4432C67.8558 80.0462 67.9112 79.6399 67.9543 79.2244L68.0097 78.7074H69.1915ZM75.014 80V70.5455H78.2086C78.9503 70.5455 79.5566 70.6793 80.0275 70.9471C80.5015 71.2118 80.8523 71.5703 81.0801 72.0227C81.3078 72.4751 81.4217 72.9799 81.4217 73.5369C81.4217 74.094 81.3078 74.6003 81.0801 75.0558C80.8554 75.5112 80.5076 75.8744 80.0368 76.1452C79.5659 76.413 78.9627 76.5469 78.2271 76.5469H75.9373V75.5312H78.1902C78.698 75.5312 79.1058 75.4435 79.4135 75.2681C79.7213 75.0927 79.9444 74.8557 80.0829 74.5572C80.2245 74.2556 80.2953 73.9155 80.2953 73.5369C80.2953 73.1584 80.2245 72.8198 80.0829 72.5213C79.9444 72.2228 79.7198 71.9889 79.4089 71.8196C79.0981 71.6473 78.6857 71.5611 78.1717 71.5611H76.1589V80H75.014ZM83.1183 80V72.9091H84.1708V73.9801H84.2447C84.3739 73.6293 84.6078 73.3446 84.9464 73.1261C85.2849 72.9076 85.6665 72.7983 86.0913 72.7983C86.1713 72.7983 86.2713 72.7998 86.3913 72.8029C86.5114 72.806 86.6022 72.8106 86.6637 72.8168V73.9247C86.6268 73.9155 86.5421 73.9016 86.4098 73.8832C86.2805 73.8616 86.1436 73.8509 85.9989 73.8509C85.6542 73.8509 85.3465 73.9232 85.0756 74.0678C84.8079 74.2094 84.5955 74.4064 84.4386 74.6587C84.2847 74.908 84.2077 75.1927 84.2077 75.5128V80H83.1183ZM90.0418 80.1662C89.5925 80.1662 89.1847 80.0816 88.8184 79.9123C88.4522 79.7399 88.1614 79.4922 87.9459 79.169C87.7305 78.8428 87.6228 78.4489 87.6228 77.9872C87.6228 77.581 87.7028 77.2517 87.8628 76.9993C88.0229 76.7438 88.2368 76.5438 88.5045 76.3991C88.7723 76.2545 89.0677 76.1468 89.3909 76.076C89.7171 76.0021 90.0449 75.9437 90.3742 75.9006C90.8051 75.8452 91.1544 75.8036 91.4221 75.7759C91.693 75.7451 91.8899 75.6944 92.0131 75.6236C92.1392 75.5528 92.2023 75.4297 92.2023 75.2543V75.2173C92.2023 74.7618 92.0777 74.4079 91.8284 74.1555C91.5822 73.9032 91.2082 73.777 90.7066 73.777C90.1865 73.777 89.7787 73.8909 89.4832 74.1186C89.1878 74.3464 88.98 74.5895 88.86 74.848L87.8259 74.4787C88.0106 74.0478 88.2568 73.7124 88.5645 73.4723C88.8754 73.2292 89.2139 73.0599 89.5802 72.9645C89.9495 72.866 90.3126 72.8168 90.6697 72.8168C90.8974 72.8168 91.159 72.8445 91.4545 72.8999C91.753 72.9522 92.0407 73.0614 92.3177 73.2276C92.5978 73.3938 92.8302 73.6446 93.0148 73.9801C93.1995 74.3156 93.2918 74.7649 93.2918 75.3281V80H92.2023V79.0398H92.1469C92.0731 79.1937 91.95 79.3583 91.7776 79.5337C91.6053 79.7092 91.376 79.8584 91.0898 79.9815C90.8035 80.1046 90.4542 80.1662 90.0418 80.1662ZM90.208 79.1875C90.6389 79.1875 91.002 79.1029 91.2975 78.9336C91.596 78.7643 91.8207 78.5458 91.9715 78.2781C92.1254 78.0103 92.2023 77.7287 92.2023 77.4332V76.4361C92.1562 76.4915 92.0546 76.5423 91.8976 76.5884C91.7438 76.6315 91.5653 76.67 91.3621 76.7038C91.1621 76.7346 90.9666 76.7623 90.7758 76.7869C90.5881 76.8085 90.4358 76.8269 90.3188 76.8423C90.0357 76.8793 89.771 76.9393 89.5248 77.0224C89.2816 77.1024 89.0847 77.224 88.9339 77.3871C88.7861 77.5471 88.7123 77.7656 88.7123 78.0426C88.7123 78.4212 88.8523 78.7074 89.1324 78.9013C89.4155 79.0921 89.7741 79.1875 90.208 79.1875ZM95.7282 82.6591C95.5435 82.6591 95.3788 82.6437 95.2342 82.6129C95.0895 82.5852 94.9895 82.5575 94.9341 82.5298L95.2111 81.5696C95.4758 81.6373 95.7097 81.6619 95.9128 81.6435C96.1159 81.625 96.296 81.5342 96.4529 81.3711C96.613 81.2111 96.7592 80.951 96.8915 80.5909L97.0946 80.0369L94.4725 72.9091H95.6543L97.6117 78.5597H97.6855L99.6429 72.9091H100.825L97.8148 81.0341C97.6794 81.4003 97.5117 81.7035 97.3116 81.9435C97.1116 82.1867 96.8792 82.3667 96.6145 82.4837C96.3529 82.6006 96.0575 82.6591 95.7282 82.6591ZM104.982 80.1477C104.299 80.1477 103.709 79.9969 103.214 79.6953C102.721 79.3906 102.341 78.9659 102.074 78.4212C101.809 77.8733 101.676 77.2363 101.676 76.5099C101.676 75.7836 101.809 75.1435 102.074 74.5895C102.341 74.0324 102.714 73.5985 103.191 73.2876C103.671 72.9737 104.231 72.8168 104.871 72.8168C105.24 72.8168 105.605 72.8783 105.965 73.0014C106.325 73.1245 106.653 73.3246 106.949 73.6016C107.244 73.8755 107.479 74.2386 107.655 74.6911C107.83 75.1435 107.918 75.7005 107.918 76.3622V76.8239H102.452V75.8821H106.81C106.81 75.482 106.73 75.125 106.57 74.8111C106.413 74.4972 106.188 74.2494 105.896 74.0678C105.607 73.8862 105.265 73.7955 104.871 73.7955C104.437 73.7955 104.062 73.9032 103.745 74.1186C103.431 74.331 103.189 74.608 103.02 74.9496C102.851 75.2912 102.766 75.6574 102.766 76.0483V76.6761C102.766 77.2116 102.858 77.6656 103.043 78.038C103.231 78.4073 103.491 78.6889 103.823 78.8828C104.156 79.0736 104.542 79.169 104.982 79.169C105.268 79.169 105.527 79.129 105.757 79.049C105.991 78.9659 106.193 78.8428 106.362 78.6797C106.531 78.5135 106.662 78.3073 106.755 78.0611L107.807 78.3565C107.696 78.7135 107.51 79.0275 107.249 79.2983C106.987 79.5661 106.664 79.7753 106.279 79.9261C105.894 80.0739 105.462 80.1477 104.982 80.1477ZM109.575 80V72.9091H110.628V73.9801H110.702C110.831 73.6293 111.065 73.3446 111.403 73.1261C111.742 72.9076 112.124 72.7983 112.548 72.7983C112.628 72.7983 112.728 72.7998 112.848 72.8029C112.968 72.806 113.059 72.8106 113.121 72.8168V73.9247C113.084 73.9155 112.999 73.9016 112.867 73.8832C112.738 73.8616 112.601 73.8509 112.456 73.8509C112.111 73.8509 111.804 73.9232 111.533 74.0678C111.265 74.2094 111.053 74.4064 110.896 74.6587C110.742 74.908 110.665 75.1927 110.665 75.5128V80H109.575ZM118.216 80V70.5455H121.411C122.152 70.5455 122.759 70.6793 123.23 70.9471C123.704 71.2118 124.054 71.5703 124.282 72.0227C124.51 72.4751 124.624 72.9799 124.624 73.5369C124.624 74.094 124.51 74.6003 124.282 75.0558C124.058 75.5112 123.71 75.8744 123.239 76.1452C122.768 76.413 122.165 76.5469 121.429 76.5469H119.139V75.5312H121.392C121.9 75.5312 122.308 75.4435 122.616 75.2681C122.923 75.0927 123.147 74.8557 123.285 74.5572C123.427 74.2556 123.497 73.9155 123.497 73.5369C123.497 73.1584 123.427 72.8198 123.285 72.5213C123.147 72.2228 122.922 71.9889 122.611 71.8196C122.3 71.6473 121.888 71.5611 121.374 71.5611H119.361V80H118.216ZM126.32 80V72.9091H127.373V73.9801H127.447C127.576 73.6293 127.81 73.3446 128.149 73.1261C128.487 72.9076 128.869 72.7983 129.293 72.7983C129.373 72.7983 129.473 72.7998 129.593 72.8029C129.714 72.806 129.804 72.8106 129.866 72.8168V73.9247C129.829 73.9155 129.744 73.9016 129.612 73.8832C129.483 73.8616 129.346 73.8509 129.201 73.8509C128.856 73.8509 128.549 73.9232 128.278 74.0678C128.01 74.2094 127.798 74.4064 127.641 74.6587C127.487 74.908 127.41 75.1927 127.41 75.5128V80H126.32ZM133.822 80.1477C133.182 80.1477 132.62 79.9954 132.137 79.6907C131.657 79.386 131.282 78.9598 131.011 78.4119C130.743 77.8641 130.609 77.224 130.609 76.4915C130.609 75.7528 130.743 75.1081 131.011 74.5572C131.282 74.0063 131.657 73.5785 132.137 73.2738C132.62 72.9691 133.182 72.8168 133.822 72.8168C134.462 72.8168 135.022 72.9691 135.503 73.2738C135.986 73.5785 136.361 74.0063 136.629 74.5572C136.9 75.1081 137.035 75.7528 137.035 76.4915C137.035 77.224 136.9 77.8641 136.629 78.4119C136.361 78.9598 135.986 79.386 135.503 79.6907C135.022 79.9954 134.462 80.1477 133.822 80.1477ZM133.822 79.169C134.308 79.169 134.709 79.0444 135.022 78.7951C135.336 78.5458 135.569 78.218 135.72 77.8118C135.87 77.4055 135.946 76.9654 135.946 76.4915C135.946 76.0175 135.87 75.5759 135.72 75.1665C135.569 74.7572 135.336 74.4264 135.022 74.174C134.709 73.9216 134.308 73.7955 133.822 73.7955C133.336 73.7955 132.936 73.9216 132.622 74.174C132.308 74.4264 132.076 74.7572 131.925 75.1665C131.774 75.5759 131.699 76.0175 131.699 76.4915C131.699 76.9654 131.774 77.4055 131.925 77.8118C132.076 78.218 132.308 78.5458 132.622 78.7951C132.936 79.0444 133.336 79.169 133.822 79.169ZM139.788 75.7344V80H138.698V70.5455H139.788V74.017H139.88C140.046 73.6508 140.296 73.36 140.628 73.1445C140.963 72.926 141.41 72.8168 141.967 72.8168C142.45 72.8168 142.873 72.9137 143.236 73.1076C143.599 73.2984 143.881 73.5923 144.081 73.9893C144.284 74.3833 144.386 74.8849 144.386 75.4943V80H143.296V75.5682C143.296 75.005 143.15 74.5695 142.858 74.2617C142.568 73.9509 142.167 73.7955 141.653 73.7955C141.296 73.7955 140.976 73.8709 140.693 74.0217C140.413 74.1725 140.191 74.3925 140.028 74.6818C139.868 74.9711 139.788 75.322 139.788 75.7344ZM146.379 80V72.9091H147.468V80H146.379ZM146.933 71.7273C146.721 71.7273 146.537 71.6549 146.384 71.5103C146.233 71.3656 146.157 71.1918 146.157 70.9886C146.157 70.7855 146.233 70.6116 146.384 70.467C146.537 70.3223 146.721 70.25 146.933 70.25C147.145 70.25 147.327 70.3223 147.478 70.467C147.632 70.6116 147.709 70.7855 147.709 70.9886C147.709 71.1918 147.632 71.3656 147.478 71.5103C147.327 71.6549 147.145 71.7273 146.933 71.7273ZM149.612 80V70.5455H150.701V74.0355H150.794C150.874 73.9124 150.984 73.7554 151.126 73.5646C151.271 73.3707 151.477 73.1984 151.744 73.0476C152.015 72.8937 152.382 72.8168 152.843 72.8168C153.44 72.8168 153.967 72.966 154.422 73.2646C154.878 73.5631 155.233 73.9863 155.488 74.5341C155.744 75.0819 155.872 75.7282 155.872 76.473C155.872 77.224 155.744 77.8749 155.488 78.4258C155.233 78.9736 154.879 79.3983 154.427 79.6999C153.974 79.9985 153.453 80.1477 152.862 80.1477C152.406 80.1477 152.041 80.0723 151.768 79.9215C151.494 79.7676 151.283 79.5937 151.135 79.3999C150.987 79.2029 150.874 79.0398 150.794 78.9105H150.664V80H149.612ZM150.683 76.4545C150.683 76.9901 150.761 77.4625 150.918 77.8718C151.075 78.2781 151.304 78.5966 151.606 78.8274C151.908 79.0552 152.277 79.169 152.714 79.169C153.169 79.169 153.55 79.049 153.854 78.8089C154.162 78.5658 154.393 78.2396 154.547 77.8303C154.704 77.4179 154.782 76.9593 154.782 76.4545C154.782 75.956 154.705 75.5066 154.551 75.1065C154.401 74.7034 154.171 74.3848 153.863 74.1509C153.559 73.9139 153.176 73.7955 152.714 73.7955C152.271 73.7955 151.898 73.9078 151.597 74.1325C151.295 74.354 151.067 74.6649 150.914 75.065C150.76 75.462 150.683 75.9252 150.683 76.4545ZM157.538 80V72.9091H158.628V80H157.538ZM158.092 71.7273C157.88 71.7273 157.697 71.6549 157.543 71.5103C157.392 71.3656 157.317 71.1918 157.317 70.9886C157.317 70.7855 157.392 70.6116 157.543 70.467C157.697 70.3223 157.88 70.25 158.092 70.25C158.305 70.25 158.486 70.3223 158.637 70.467C158.791 70.6116 158.868 70.7855 158.868 70.9886C158.868 71.1918 158.791 71.3656 158.637 71.5103C158.486 71.6549 158.305 71.7273 158.092 71.7273ZM163.707 72.9091V73.8324H160.032V72.9091H163.707ZM161.103 71.2102H162.193V77.9688C162.193 78.2765 162.237 78.5073 162.327 78.6612C162.419 78.812 162.536 78.9136 162.677 78.9659C162.822 79.0152 162.974 79.0398 163.134 79.0398C163.255 79.0398 163.353 79.0336 163.43 79.0213C163.507 79.0059 163.568 78.9936 163.615 78.9844L163.836 79.9631C163.762 79.9908 163.659 80.0185 163.527 80.0462C163.395 80.0769 163.227 80.0923 163.024 80.0923C162.716 80.0923 162.414 80.0262 162.119 79.8938C161.826 79.7615 161.583 79.5599 161.389 79.2891C161.199 79.0182 161.103 78.6766 161.103 78.2642V71.2102ZM170.242 74.4972L169.263 74.7741C169.201 74.611 169.111 74.4525 168.991 74.2987C168.874 74.1417 168.714 74.0124 168.51 73.9109C168.307 73.8093 168.047 73.7585 167.73 73.7585C167.296 73.7585 166.935 73.8585 166.645 74.0586C166.359 74.2556 166.216 74.5064 166.216 74.8111C166.216 75.0819 166.314 75.2958 166.511 75.4528C166.708 75.6097 167.016 75.7405 167.435 75.8452L168.487 76.1037C169.121 76.2576 169.594 76.493 169.905 76.81C170.215 77.1239 170.371 77.5286 170.371 78.0241C170.371 78.4304 170.254 78.7936 170.02 79.1136C169.789 79.4337 169.466 79.6861 169.051 79.8707C168.635 80.0554 168.152 80.1477 167.601 80.1477C166.878 80.1477 166.279 79.9908 165.805 79.6768C165.331 79.3629 165.031 78.9044 164.905 78.3011L165.939 78.0426C166.037 78.4242 166.224 78.7105 166.498 78.9013C166.775 79.0921 167.136 79.1875 167.582 79.1875C168.09 79.1875 168.493 79.0798 168.792 78.8643C169.094 78.6458 169.244 78.3842 169.244 78.0795C169.244 77.8333 169.158 77.6271 168.986 77.4609C168.814 77.2917 168.549 77.1655 168.192 77.0824L167.01 76.8054C166.361 76.6515 165.884 76.413 165.579 76.0898C165.277 75.7636 165.127 75.3558 165.127 74.8665C165.127 74.4664 165.239 74.1125 165.464 73.8047C165.691 73.4969 166.001 73.2553 166.391 73.0799C166.785 72.9045 167.232 72.8168 167.73 72.8168C168.432 72.8168 168.983 72.9706 169.383 73.2784C169.786 73.5862 170.072 73.9924 170.242 74.4972ZM21.2898 86.5455V96H20.1449V86.5455H21.2898ZM23.4376 96V88.9091H24.4901V90.017H24.5825C24.7302 89.6385 24.9687 89.3446 25.298 89.1353C25.6273 88.9229 26.0228 88.8168 26.4845 88.8168C26.9523 88.8168 27.3416 88.9229 27.6524 89.1353C27.9664 89.3446 28.211 89.6385 28.3865 90.017H28.4603C28.6419 89.6508 28.9143 89.36 29.2774 89.1445C29.6406 88.926 30.0761 88.8168 30.5839 88.8168C31.2179 88.8168 31.7365 89.0153 32.1396 89.4123C32.5428 89.8062 32.7444 90.4202 32.7444 91.2543V96H31.6549V91.2543C31.6549 90.7311 31.5118 90.3571 31.2256 90.1325C30.9394 89.9078 30.6024 89.7955 30.2146 89.7955C29.716 89.7955 29.3298 89.9463 29.0558 90.2479C28.7819 90.5464 28.645 90.925 28.645 91.3835V96H27.537V91.1435C27.537 90.7403 27.4062 90.4156 27.1446 90.1694C26.883 89.9201 26.546 89.7955 26.1336 89.7955C25.8505 89.7955 25.5858 89.8709 25.3396 90.0217C25.0964 90.1725 24.8995 90.3817 24.7487 90.6495C24.6009 90.9142 24.5271 91.2204 24.5271 91.5682V96H23.4376ZM34.7364 96V88.9091H35.789V90.017H35.8813C36.029 89.6385 36.2675 89.3446 36.5969 89.1353C36.9262 88.9229 37.3216 88.8168 37.7833 88.8168C38.2511 88.8168 38.6404 88.9229 38.9513 89.1353C39.2652 89.3446 39.5099 89.6385 39.6853 90.017H39.7591C39.9407 89.6508 40.2131 89.36 40.5763 89.1445C40.9394 88.926 41.3749 88.8168 41.8827 88.8168C42.5167 88.8168 43.0353 89.0153 43.4385 89.4123C43.8416 89.8062 44.0432 90.4202 44.0432 91.2543V96H42.9537V91.2543C42.9537 90.7311 42.8106 90.3571 42.5244 90.1325C42.2382 89.9078 41.9012 89.7955 41.5134 89.7955C41.0148 89.7955 40.6286 89.9463 40.3547 90.2479C40.0808 90.5464 39.9438 90.925 39.9438 91.3835V96H38.8358V91.1435C38.8358 90.7403 38.705 90.4156 38.4434 90.1694C38.1818 89.9201 37.8448 89.7955 37.4324 89.7955C37.1493 89.7955 36.8846 89.8709 36.6384 90.0217C36.3953 90.1725 36.1983 90.3817 36.0475 90.6495C35.8998 90.9142 35.8259 91.2204 35.8259 91.5682V96H34.7364ZM48.9159 96.1477C48.2758 96.1477 47.7141 95.9954 47.2309 95.6907C46.7508 95.386 46.3753 94.9598 46.1045 94.4119C45.8367 93.8641 45.7029 93.224 45.7029 92.4915C45.7029 91.7528 45.8367 91.1081 46.1045 90.5572C46.3753 90.0063 46.7508 89.5785 47.2309 89.2738C47.7141 88.9691 48.2758 88.8168 48.9159 88.8168C49.5561 88.8168 50.1162 88.9691 50.5963 89.2738C51.0795 89.5785 51.455 90.0063 51.7227 90.5572C51.9936 91.1081 52.129 91.7528 52.129 92.4915C52.129 93.224 51.9936 93.8641 51.7227 94.4119C51.455 94.9598 51.0795 95.386 50.5963 95.6907C50.1162 95.9954 49.5561 96.1477 48.9159 96.1477ZM48.9159 95.169C49.4022 95.169 49.8023 95.0444 50.1162 94.7951C50.4301 94.5458 50.6625 94.218 50.8133 93.8118C50.9641 93.4055 51.0395 92.9654 51.0395 92.4915C51.0395 92.0175 50.9641 91.5759 50.8133 91.1665C50.6625 90.7572 50.4301 90.4264 50.1162 90.174C49.8023 89.9216 49.4022 89.7955 48.9159 89.7955C48.4297 89.7955 48.0296 89.9216 47.7156 90.174C47.4017 90.4264 47.1694 90.7572 47.0186 91.1665C46.8677 91.5759 46.7923 92.0175 46.7923 92.4915C46.7923 92.9654 46.8677 93.4055 47.0186 93.8118C47.1694 94.218 47.4017 94.5458 47.7156 94.7951C48.0296 95.0444 48.4297 95.169 48.9159 95.169ZM53.7921 96V88.9091H54.8446V89.9801H54.9185C55.0478 89.6293 55.2817 89.3446 55.6202 89.1261C55.9587 88.9076 56.3404 88.7983 56.7651 88.7983C56.8451 88.7983 56.9451 88.7998 57.0652 88.8029C57.1852 88.806 57.276 88.8106 57.3375 88.8168V89.9247C57.3006 89.9155 57.216 89.9016 57.0836 89.8832C56.9544 89.8616 56.8174 89.8509 56.6728 89.8509C56.3281 89.8509 56.0203 89.9232 55.7495 90.0678C55.4817 90.2094 55.2694 90.4064 55.1124 90.6587C54.9585 90.908 54.8816 91.1927 54.8816 91.5128V96H53.7921ZM60.7156 96.1662C60.2663 96.1662 59.8585 96.0816 59.4923 95.9123C59.126 95.7399 58.8352 95.4922 58.6198 95.169C58.4043 94.8428 58.2966 94.4489 58.2966 93.9872C58.2966 93.581 58.3766 93.2517 58.5367 92.9993C58.6967 92.7438 58.9106 92.5438 59.1784 92.3991C59.4461 92.2545 59.7416 92.1468 60.0647 92.076C60.391 92.0021 60.7187 91.9437 61.048 91.9006C61.4789 91.8452 61.8282 91.8036 62.096 91.7759C62.3668 91.7451 62.5638 91.6944 62.6869 91.6236C62.8131 91.5528 62.8762 91.4297 62.8762 91.2543V91.2173C62.8762 90.7618 62.7515 90.4079 62.5022 90.1555C62.256 89.9032 61.8821 89.777 61.3804 89.777C60.8603 89.777 60.4525 89.8909 60.157 90.1186C59.8616 90.3464 59.6539 90.5895 59.5338 90.848L58.4997 90.4787C58.6844 90.0478 58.9306 89.7124 59.2384 89.4723C59.5492 89.2292 59.8878 89.0599 60.254 88.9645C60.6233 88.866 60.9865 88.8168 61.3435 88.8168C61.5712 88.8168 61.8328 88.8445 62.1283 88.8999C62.4268 88.9522 62.7146 89.0614 62.9916 89.2276C63.2716 89.3938 63.504 89.6446 63.6887 89.9801C63.8733 90.3156 63.9656 90.7649 63.9656 91.3281V96H62.8762V95.0398H62.8208C62.7469 95.1937 62.6238 95.3583 62.4514 95.5337C62.2791 95.7092 62.0498 95.8584 61.7636 95.9815C61.4774 96.1046 61.128 96.1662 60.7156 96.1662ZM60.8818 95.1875C61.3127 95.1875 61.6759 95.1029 61.9713 94.9336C62.2699 94.7643 62.4945 94.5458 62.6453 94.2781C62.7992 94.0103 62.8762 93.7287 62.8762 93.4332V92.4361C62.83 92.4915 62.7284 92.5423 62.5715 92.5884C62.4176 92.6315 62.2391 92.67 62.036 92.7038C61.8359 92.7346 61.6405 92.7623 61.4497 92.7869C61.2619 92.8085 61.1096 92.8269 60.9926 92.8423C60.7095 92.8793 60.4448 92.9393 60.1986 93.0224C59.9555 93.1024 59.7585 93.224 59.6077 93.3871C59.46 93.5471 59.3861 93.7656 59.3861 94.0426C59.3861 94.4212 59.5261 94.7074 59.8062 94.9013C60.0893 95.0921 60.4479 95.1875 60.8818 95.1875ZM67.0437 86.5455V96H65.9542V86.5455H67.0437ZM69.0392 96V88.9091H70.1286V96H69.0392ZM69.5931 87.7273C69.3808 87.7273 69.1977 87.6549 69.0438 87.5103C68.893 87.3656 68.8176 87.1918 68.8176 86.9886C68.8176 86.7855 68.893 86.6116 69.0438 86.467C69.1977 86.3223 69.3808 86.25 69.5931 86.25C69.8055 86.25 69.9871 86.3223 70.1379 86.467C70.2918 86.6116 70.3687 86.7855 70.3687 86.9886C70.3687 87.1918 70.2918 87.3656 70.1379 87.5103C69.9871 87.6549 69.8055 87.7273 69.5931 87.7273ZM75.2079 88.9091V89.8324H71.5332V88.9091H75.2079ZM72.6042 87.2102H73.6937V93.9688C73.6937 94.2765 73.7383 94.5073 73.8276 94.6612C73.9199 94.812 74.0369 94.9136 74.1784 94.9659C74.3231 95.0152 74.4754 95.0398 74.6355 95.0398C74.7555 95.0398 74.854 95.0336 74.9309 95.0213C75.0079 95.0059 75.0694 94.9936 75.1156 94.9844L75.3372 95.9631C75.2633 95.9908 75.1602 96.0185 75.0279 96.0462C74.8955 96.0769 74.7278 96.0923 74.5247 96.0923C74.2169 96.0923 73.9153 96.0262 73.6199 95.8938C73.3275 95.7615 73.0843 95.5599 72.8904 95.2891C72.6996 95.0182 72.6042 94.6766 72.6042 94.2642V87.2102ZM77.5485 98.6591C77.3638 98.6591 77.1992 98.6437 77.0545 98.6129C76.9099 98.5852 76.8098 98.5575 76.7544 98.5298L77.0314 97.5696C77.2961 97.6373 77.53 97.6619 77.7331 97.6435C77.9363 97.625 78.1163 97.5342 78.2733 97.3711C78.4333 97.2111 78.5795 96.951 78.7118 96.5909L78.915 96.0369L76.2928 88.9091H77.4746L79.432 94.5597H79.5059L81.4632 88.9091H82.6451L79.6351 97.0341C79.4997 97.4003 79.332 97.7035 79.1319 97.9435C78.9319 98.1867 78.6995 98.3667 78.4348 98.4837C78.1732 98.6006 77.8778 98.6591 77.5485 98.6591ZM88.2749 96H87.0746L90.5462 86.5455H91.728L95.1996 96H93.9993L91.174 88.0412H91.1001L88.2749 96ZM88.718 92.3068H93.5561V93.3224H88.718V92.3068ZM97.614 91.7344V96H96.5245V88.9091H97.5771V90.017H97.6694C97.8356 89.657 98.0879 89.3677 98.4265 89.1491C98.765 88.9276 99.2021 88.8168 99.7376 88.8168C100.218 88.8168 100.638 88.9152 100.998 89.1122C101.358 89.3061 101.638 89.6016 101.838 89.9986C102.038 90.3925 102.138 90.8911 102.138 91.4943V96H101.049V91.5682C101.049 91.0111 100.904 90.5772 100.615 90.2663C100.325 89.9524 99.9284 89.7955 99.4237 89.7955C99.0759 89.7955 98.765 89.8709 98.4911 90.0217C98.2203 90.1725 98.0064 90.3925 97.8494 90.6818C97.6925 90.9711 97.614 91.322 97.614 91.7344ZM106.807 96.1477C106.216 96.1477 105.694 95.9985 105.242 95.6999C104.789 95.3983 104.435 94.9736 104.18 94.4258C103.924 93.8749 103.797 93.224 103.797 92.473C103.797 91.7282 103.924 91.0819 104.18 90.5341C104.435 89.9863 104.791 89.5631 105.246 89.2646C105.702 88.966 106.228 88.8168 106.825 88.8168C107.287 88.8168 107.651 88.8937 107.919 89.0476C108.19 89.1984 108.396 89.3707 108.538 89.5646C108.682 89.7554 108.795 89.9124 108.875 90.0355H108.967V86.5455H110.057V96H109.004V94.9105H108.875C108.795 95.0398 108.681 95.2029 108.533 95.3999C108.385 95.5937 108.175 95.7676 107.901 95.9215C107.627 96.0723 107.262 96.1477 106.807 96.1477ZM106.954 95.169C107.391 95.169 107.761 95.0552 108.062 94.8274C108.364 94.5966 108.593 94.2781 108.75 93.8718C108.907 93.4625 108.986 92.9901 108.986 92.4545C108.986 91.9252 108.909 91.462 108.755 91.065C108.601 90.6649 108.373 90.354 108.071 90.1325C107.77 89.9078 107.397 89.7955 106.954 89.7955C106.493 89.7955 106.108 89.9139 105.8 90.1509C105.495 90.3848 105.266 90.7034 105.112 91.1065C104.961 91.5066 104.886 91.956 104.886 92.4545C104.886 92.9593 104.963 93.4179 105.117 93.8303C105.274 94.2396 105.505 94.5658 105.809 94.8089C106.117 95.049 106.499 95.169 106.954 95.169ZM117.725 96L115.139 86.5455H116.303L118.278 94.2457H118.371L120.384 86.5455H121.676L123.689 94.2457H123.781L125.757 86.5455H126.921L124.335 96H123.153L121.067 88.4659H120.993L118.906 96H117.725ZM127.755 96V88.9091H128.808V89.9801H128.881C129.011 89.6293 129.245 89.3446 129.583 89.1261C129.922 88.9076 130.303 88.7983 130.728 88.7983C130.808 88.7983 130.908 88.7998 131.028 88.8029C131.148 88.806 131.239 88.8106 131.3 88.8168V89.9247C131.263 89.9155 131.179 89.9016 131.047 89.8832C130.917 89.8616 130.78 89.8509 130.636 89.8509C130.291 89.8509 129.983 89.9232 129.712 90.0678C129.445 90.2094 129.232 90.4064 129.075 90.6587C128.921 90.908 128.844 91.1927 128.844 91.5128V96H127.755ZM135.257 96.1477C134.617 96.1477 134.055 95.9954 133.572 95.6907C133.092 95.386 132.716 94.9598 132.445 94.4119C132.178 93.8641 132.044 93.224 132.044 92.4915C132.044 91.7528 132.178 91.1081 132.445 90.5572C132.716 90.0063 133.092 89.5785 133.572 89.2738C134.055 88.9691 134.617 88.8168 135.257 88.8168C135.897 88.8168 136.457 88.9691 136.937 89.2738C137.42 89.5785 137.796 90.0063 138.064 90.5572C138.334 91.1081 138.47 91.7528 138.47 92.4915C138.47 93.224 138.334 93.8641 138.064 94.4119C137.796 94.9598 137.42 95.386 136.937 95.6907C136.457 95.9954 135.897 96.1477 135.257 96.1477ZM135.257 95.169C135.743 95.169 136.143 95.0444 136.457 94.7951C136.771 94.5458 137.003 94.218 137.154 93.8118C137.305 93.4055 137.38 92.9654 137.38 92.4915C137.38 92.0175 137.305 91.5759 137.154 91.1665C137.003 90.7572 136.771 90.4264 136.457 90.174C136.143 89.9216 135.743 89.7955 135.257 89.7955C134.77 89.7955 134.37 89.9216 134.056 90.174C133.743 90.4264 133.51 90.7572 133.359 91.1665C133.209 91.5759 133.133 92.0175 133.133 92.4915C133.133 92.9654 133.209 93.4055 133.359 93.8118C133.51 94.218 133.743 94.5458 134.056 94.7951C134.37 95.0444 134.77 95.169 135.257 95.169ZM141.222 91.7344V96H140.133V88.9091H141.185V90.017H141.278C141.444 89.657 141.696 89.3677 142.035 89.1491C142.373 88.9276 142.81 88.8168 143.346 88.8168C143.826 88.8168 144.246 88.9152 144.606 89.1122C144.966 89.3061 145.246 89.6016 145.446 89.9986C145.647 90.3925 145.747 90.8911 145.747 91.4943V96H144.657V91.5682C144.657 91.0111 144.512 90.5772 144.223 90.2663C143.934 89.9524 143.537 89.7955 143.032 89.7955C142.684 89.7955 142.373 89.8709 142.1 90.0217C141.829 90.1725 141.615 90.3925 141.458 90.6818C141.301 90.9711 141.222 91.322 141.222 91.7344ZM150.6 98.8068C150.073 98.8068 149.621 98.7391 149.242 98.6037C148.864 98.4714 148.548 98.2959 148.296 98.0774C148.047 97.862 147.848 97.6312 147.7 97.3849L148.568 96.7756C148.667 96.9048 148.791 97.0526 148.942 97.2188C149.093 97.388 149.299 97.5342 149.561 97.6573C149.826 97.7835 150.172 97.8466 150.6 97.8466C151.172 97.8466 151.644 97.7081 152.017 97.4311C152.389 97.1541 152.575 96.7202 152.575 96.1293V94.6889H152.483C152.403 94.8182 152.289 94.9782 152.142 95.169C151.997 95.3568 151.788 95.5245 151.514 95.6722C151.243 95.8169 150.877 95.8892 150.415 95.8892C149.843 95.8892 149.329 95.7538 148.873 95.483C148.421 95.2121 148.062 94.8182 147.797 94.3011C147.536 93.7841 147.405 93.1562 147.405 92.4176C147.405 91.6913 147.533 91.0588 147.788 90.5202C148.044 89.9786 148.399 89.56 148.855 89.2646C149.31 88.966 149.836 88.8168 150.433 88.8168C150.895 88.8168 151.261 88.8937 151.532 89.0476C151.806 89.1984 152.015 89.3707 152.16 89.5646C152.308 89.7554 152.422 89.9124 152.502 90.0355H152.612V88.9091H153.665V96.2031C153.665 96.8125 153.526 97.308 153.249 97.6896C152.976 98.0743 152.606 98.3559 152.142 98.5344C151.68 98.716 151.166 98.8068 150.6 98.8068ZM150.563 94.9105C151 94.9105 151.369 94.8105 151.671 94.6104C151.972 94.4104 152.202 94.1226 152.358 93.7472C152.515 93.3717 152.594 92.9223 152.594 92.3991C152.594 91.8883 152.517 91.4374 152.363 91.0465C152.209 90.6557 151.981 90.3494 151.68 90.1278C151.378 89.9062 151.006 89.7955 150.563 89.7955C150.101 89.7955 149.716 89.9124 149.409 90.1463C149.104 90.3802 148.875 90.6941 148.721 91.0881C148.57 91.482 148.494 91.919 148.494 92.3991C148.494 92.8916 148.571 93.3271 148.725 93.7056C148.882 94.0811 149.113 94.3765 149.418 94.592C149.726 94.8043 150.107 94.9105 150.563 94.9105ZM158.337 96.1477C157.746 96.1477 157.224 95.9985 156.772 95.6999C156.319 95.3983 155.965 94.9736 155.71 94.4258C155.455 93.8749 155.327 93.224 155.327 92.473C155.327 91.7282 155.455 91.0819 155.71 90.5341C155.965 89.9863 156.321 89.5631 156.776 89.2646C157.232 88.966 157.758 88.8168 158.355 88.8168C158.817 88.8168 159.182 88.8937 159.449 89.0476C159.72 89.1984 159.926 89.3707 160.068 89.5646C160.213 89.7554 160.325 89.9124 160.405 90.0355H160.497V86.5455H161.587V96H160.534V94.9105H160.405C160.325 95.0398 160.211 95.2029 160.063 95.3999C159.916 95.5937 159.705 95.7676 159.431 95.9215C159.157 96.0723 158.792 96.1477 158.337 96.1477ZM158.485 95.169C158.922 95.169 159.291 95.0552 159.593 94.8274C159.894 94.5966 160.123 94.2781 160.28 93.8718C160.437 93.4625 160.516 92.9901 160.516 92.4545C160.516 91.9252 160.439 91.462 160.285 91.065C160.131 90.6649 159.903 90.354 159.602 90.1325C159.3 89.9078 158.928 89.7955 158.485 89.7955C158.023 89.7955 157.638 89.9139 157.33 90.1509C157.026 90.3848 156.796 90.7034 156.643 91.1065C156.492 91.5066 156.416 91.956 156.416 92.4545C156.416 92.9593 156.493 93.4179 156.647 93.8303C156.804 94.2396 157.035 94.5658 157.34 94.8089C157.647 95.049 158.029 95.169 158.485 95.169ZM166.614 96.1477C165.974 96.1477 165.412 95.9954 164.929 95.6907C164.449 95.386 164.074 94.9598 163.803 94.4119C163.535 93.8641 163.401 93.224 163.401 92.4915C163.401 91.7528 163.535 91.1081 163.803 90.5572C164.074 90.0063 164.449 89.5785 164.929 89.2738C165.412 88.9691 165.974 88.8168 166.614 88.8168C167.254 88.8168 167.814 88.9691 168.295 89.2738C168.778 89.5785 169.153 90.0063 169.421 90.5572C169.692 91.1081 169.827 91.7528 169.827 92.4915C169.827 93.224 169.692 93.8641 169.421 94.4119C169.153 94.9598 168.778 95.386 168.295 95.6907C167.814 95.9954 167.254 96.1477 166.614 96.1477ZM166.614 95.169C167.1 95.169 167.501 95.0444 167.814 94.7951C168.128 94.5458 168.361 94.218 168.512 93.8118C168.662 93.4055 168.738 92.9654 168.738 92.4915C168.738 92.0175 168.662 91.5759 168.512 91.1665C168.361 90.7572 168.128 90.4264 167.814 90.174C167.501 89.9216 167.1 89.7955 166.614 89.7955C166.128 89.7955 165.728 89.9216 165.414 90.174C165.1 90.4264 164.868 90.7572 164.717 91.1665C164.566 91.5759 164.491 92.0175 164.491 92.4915C164.491 92.9654 164.566 93.4055 164.717 93.8118C164.868 94.218 165.1 94.5458 165.414 94.7951C165.728 95.0444 166.128 95.169 166.614 95.169ZM171.49 96V88.9091H172.58V96H171.49ZM172.044 87.7273C171.832 87.7273 171.649 87.6549 171.495 87.5103C171.344 87.3656 171.269 87.1918 171.269 86.9886C171.269 86.7855 171.344 86.6116 171.495 86.467C171.649 86.3223 171.832 86.25 172.044 86.25C172.257 86.25 172.438 86.3223 172.589 86.467C172.743 86.6116 172.82 86.7855 172.82 86.9886C172.82 87.1918 172.743 87.3656 172.589 87.5103C172.438 87.6549 172.257 87.7273 172.044 87.7273ZM175.665 91.7344V96H174.575V88.9091H175.628V90.017H175.72C175.886 89.657 176.139 89.3677 176.477 89.1491C176.816 88.9276 177.253 88.8168 177.788 88.8168C178.268 88.8168 178.689 88.9152 179.049 89.1122C179.409 89.3061 179.689 89.6016 179.889 89.9986C180.089 90.3925 180.189 90.8911 180.189 91.4943V96H179.099V91.5682C179.099 91.0111 178.955 90.5772 178.665 90.2663C178.376 89.9524 177.979 89.7955 177.474 89.7955C177.127 89.7955 176.816 89.8709 176.542 90.0217C176.271 90.1725 176.057 90.3925 175.9 90.6818C175.743 90.9711 175.665 91.322 175.665 91.7344ZM185.042 98.8068C184.516 98.8068 184.063 98.7391 183.685 98.6037C183.306 98.4714 182.991 98.2959 182.738 98.0774C182.489 97.862 182.291 97.6312 182.143 97.3849L183.011 96.7756C183.109 96.9048 183.234 97.0526 183.385 97.2188C183.535 97.388 183.742 97.5342 184.003 97.6573C184.268 97.7835 184.614 97.8466 185.042 97.8466C185.614 97.8466 186.087 97.7081 186.459 97.4311C186.832 97.1541 187.018 96.7202 187.018 96.1293V94.6889H186.926C186.845 94.8182 186.732 94.9782 186.584 95.169C186.439 95.3568 186.23 95.5245 185.956 95.6722C185.685 95.8169 185.319 95.8892 184.857 95.8892C184.285 95.8892 183.771 95.7538 183.315 95.483C182.863 95.2121 182.504 94.8182 182.24 94.3011C181.978 93.7841 181.847 93.1562 181.847 92.4176C181.847 91.6913 181.975 91.0588 182.231 90.5202C182.486 89.9786 182.841 89.56 183.297 89.2646C183.752 88.966 184.279 88.8168 184.876 88.8168C185.337 88.8168 185.704 88.8937 185.975 89.0476C186.248 89.1984 186.458 89.3707 186.602 89.5646C186.75 89.7554 186.864 89.9124 186.944 90.0355H187.055V88.9091H188.107V96.2031C188.107 96.8125 187.969 97.308 187.692 97.6896C187.418 98.0743 187.049 98.3559 186.584 98.5344C186.122 98.716 185.608 98.8068 185.042 98.8068ZM185.005 94.9105C185.442 94.9105 185.811 94.8105 186.113 94.6104C186.415 94.4104 186.644 94.1226 186.801 93.7472C186.958 93.3717 187.036 92.9223 187.036 92.3991C187.036 91.8883 186.959 91.4374 186.805 91.0465C186.652 90.6557 186.424 90.3494 186.122 90.1278C185.821 89.9062 185.448 89.7955 185.005 89.7955C184.543 89.7955 184.159 89.9124 183.851 90.1463C183.546 90.3802 183.317 90.6941 183.163 91.0881C183.012 91.482 182.937 91.919 182.937 92.3991C182.937 92.8916 183.014 93.3271 183.168 93.7056C183.325 94.0811 183.555 94.3765 183.86 94.592C184.168 94.8043 184.55 94.9105 185.005 94.9105ZM190.896 96.0739C190.668 96.0739 190.473 95.9923 190.309 95.8292C190.146 95.6661 190.065 95.4706 190.065 95.2429C190.065 95.0152 190.146 94.8197 190.309 94.6566C190.473 94.4935 190.668 94.4119 190.896 94.4119C191.123 94.4119 191.319 94.4935 191.482 94.6566C191.645 94.8197 191.727 95.0152 191.727 95.2429C191.727 95.3937 191.688 95.5322 191.611 95.6584C191.537 95.7846 191.437 95.8861 191.311 95.9631C191.188 96.0369 191.05 96.0739 190.896 96.0739ZM193.557 86.5455V89.7955H192.541V86.5455H193.557ZM195.921 86.5455V89.7955H194.905V86.5455H195.921Z" fill="#FBFBFB"/>
<path d="M23.5823 45.477V44.147L28.0663 42.817V44.185L23.5823 45.477ZM19.494 36.468C19.494 36.0247 19.551 35.4737 19.665 34.815C19.7917 34.1437 20.064 33.3457 20.482 32.421L22.819 33.238C22.6037 33.8333 22.439 34.3463 22.325 34.777C22.211 35.195 22.154 35.6067 22.154 36.012C22.154 36.582 22.2807 37.0697 22.534 37.475C22.8 37.8803 23.1863 38.1907 23.693 38.406C24.2123 38.6213 24.8457 38.729 25.593 38.729C26.353 38.729 26.9863 38.6467 27.493 38.482C27.9997 38.3173 28.3987 38.083 28.69 37.779C28.9813 37.4877 29.1903 37.1457 29.317 36.753C29.4437 36.3603 29.507 35.936 29.507 35.48C29.507 35.1253 29.4627 34.7263 29.374 34.283C29.298 33.8397 29.184 33.3583 29.032 32.839C28.88 32.307 28.709 31.7497 28.519 31.167L31.179 30.483C31.3057 30.9643 31.407 31.376 31.483 31.718C31.5717 32.06 31.6477 32.345 31.711 32.573C31.7743 32.7883 31.825 32.9657 31.863 33.105C31.9897 33.485 32.1607 33.77 32.376 33.96C32.5913 34.15 32.87 34.2767 33.212 34.34C33.5667 34.4033 33.991 34.435 34.485 34.435C34.9663 34.435 35.3083 34.5617 35.511 34.815C35.7137 35.0557 35.815 35.3597 35.815 35.727C35.815 36.1197 35.682 36.449 35.416 36.715C35.15 36.9683 34.7763 37.095 34.295 37.095C33.8643 37.095 33.4337 37.038 33.003 36.924C32.585 36.7973 32.224 36.5947 31.92 36.316C31.616 36.0373 31.4197 35.6637 31.331 35.195L32.034 35.955C32.0087 36.8163 31.8377 37.5827 31.521 38.254C31.2043 38.9253 30.761 39.4953 30.191 39.964C29.6337 40.4327 28.956 40.7873 28.158 41.028C27.3727 41.2687 26.4923 41.389 25.517 41.389C24.6683 41.389 23.8767 41.294 23.142 41.104C22.42 40.9267 21.7803 40.6353 21.223 40.23C20.6783 39.8373 20.254 39.3307 19.95 38.71C19.646 38.0893 19.494 37.342 19.494 36.468ZM25.688 29.248C25.2953 29.248 24.9597 29.115 24.681 28.849C24.415 28.583 24.282 28.2537 24.282 27.861C24.282 27.4683 24.415 27.1327 24.681 26.854C24.9597 26.5753 25.2953 26.436 25.688 26.436C26.068 26.436 26.391 26.5753 26.657 26.854C26.9357 27.1327 27.075 27.4683 27.075 27.861C27.075 28.2537 26.9357 28.583 26.657 28.849C26.391 29.115 26.068 29.248 25.688 29.248ZM37.1643 25.79V24.46L41.6483 23.13V24.498L37.1643 25.79ZM34.2891 37.095L34.4791 34.435C35.0744 34.435 35.5304 34.4287 35.8471 34.416C36.1764 34.4033 36.4234 34.3907 36.5881 34.378C36.7527 34.3527 36.8921 34.3337 37.0061 34.321C36.8794 34.1943 36.7147 34.0107 36.5121 33.77C36.3094 33.5293 36.1257 33.219 35.9611 32.839C35.8091 32.459 35.7331 32.003 35.7331 31.471C35.7331 30.6983 35.9294 30.0207 36.3221 29.438C36.7274 28.8553 37.2721 28.3993 37.9561 28.07C38.6401 27.7407 39.4064 27.576 40.2551 27.576C40.6604 27.576 41.0341 27.6013 41.3761 27.652C41.7307 27.7027 42.0854 27.7787 42.4401 27.88L42.0221 30.407C41.7687 30.3437 41.5027 30.293 41.2241 30.255C40.9454 30.217 40.6984 30.198 40.4831 30.198C40.0651 30.198 39.6977 30.2677 39.3811 30.407C39.0771 30.5337 38.8364 30.7173 38.6591 30.958C38.4944 31.186 38.4121 31.4647 38.4121 31.794C38.4121 32.0093 38.4501 32.212 38.5261 32.402C38.6147 32.592 38.7224 32.763 38.8491 32.915C38.9757 33.067 39.1151 33.2 39.2671 33.314C39.4191 33.428 39.5647 33.523 39.7041 33.599C39.8561 33.6623 39.9827 33.7067 40.0841 33.732C40.4007 33.6433 40.6731 33.5673 40.9011 33.504C41.1417 33.428 41.3697 33.3583 41.5851 33.295C41.8131 33.219 42.0601 33.124 42.3261 33.01C42.5921 32.896 42.9214 32.7567 43.3141 32.592L44.1691 35.1C43.1051 35.6193 42.0664 36.0247 41.0531 36.316C40.0397 36.6073 38.9884 36.81 37.8991 36.924C36.8097 37.038 35.6064 37.095 34.2891 37.095ZM52.5886 30.676L52.4556 27.294H54.1846L54.3176 30.676H52.5886ZM49.7567 36.468C49.7567 36.1767 49.782 35.8347 49.8327 35.442C49.8834 35.0493 49.9784 34.606 50.1177 34.112C50.257 33.6053 50.466 33.0417 50.7447 32.421L53.0817 33.238C52.9424 33.6307 52.822 33.9917 52.7207 34.321C52.6194 34.6377 52.5434 34.9353 52.4927 35.214C52.442 35.48 52.4167 35.746 52.4167 36.012C52.4167 36.43 52.5054 36.8037 52.6827 37.133C52.8727 37.475 53.145 37.76 53.4997 37.988C53.8544 38.2287 54.285 38.4123 54.7917 38.539C55.311 38.6657 55.9064 38.729 56.5777 38.729C57.2744 38.729 57.895 38.6973 58.4397 38.634C58.997 38.5707 59.4657 38.4757 59.8457 38.349C60.2384 38.2223 60.536 38.0577 60.7387 37.855C60.9414 37.665 61.0427 37.4433 61.0427 37.19C61.0427 37.076 60.9984 36.9683 60.9097 36.867C60.8337 36.7657 60.7007 36.658 60.5107 36.544C60.3334 36.43 60.0927 36.3097 59.7887 36.183C59.4974 36.0563 59.1427 35.917 58.7247 35.765L59.3517 33.086C59.8964 33.314 60.4094 33.5167 60.8907 33.694C61.3847 33.8587 61.8534 33.998 62.2967 34.112C62.74 34.2133 63.158 34.2957 63.5507 34.359C63.9434 34.4097 64.3107 34.435 64.6527 34.435C65.134 34.435 65.476 34.5617 65.6787 34.815C65.8814 35.0557 65.9827 35.3597 65.9827 35.727C65.9827 36.1197 65.8497 36.449 65.5837 36.715C65.3177 36.9683 64.944 37.095 64.4627 37.095C64.3614 37.095 64.26 37.095 64.1587 37.095C64.07 37.095 63.975 37.095 63.8737 37.095C63.785 37.095 63.69 37.095 63.5887 37.095C63.614 37.2217 63.6267 37.3293 63.6267 37.418C63.6267 37.5193 63.6267 37.6143 63.6267 37.703C63.6267 38.121 63.481 38.5453 63.1897 38.976C62.911 39.4067 62.474 39.8057 61.8787 40.173C61.2834 40.5403 60.5234 40.8317 59.5987 41.047C58.6867 41.275 57.5974 41.389 56.3307 41.389C54.9627 41.389 53.7847 41.2117 52.7967 40.857C51.8214 40.515 51.0677 39.9767 50.5357 39.242C50.0164 38.52 49.7567 37.5953 49.7567 36.468ZM68.3547 25.79V24.46L72.8387 23.13V24.498L68.3547 25.79ZM70.843 41.18C69.9437 41.18 69.114 40.9837 68.354 40.591C67.594 40.211 66.986 39.6093 66.53 38.786C66.074 37.9753 65.846 36.9303 65.846 35.651C65.846 34.5237 65.979 33.4913 66.245 32.554C66.511 31.604 66.872 30.787 67.328 30.103C67.7967 29.4063 68.3223 28.868 68.905 28.488C69.4877 28.108 70.102 27.918 70.748 27.918C71.2293 27.918 71.6853 28.0573 72.116 28.336C72.5467 28.602 72.9013 28.9947 73.18 29.514C73.4587 30.0333 73.598 30.6667 73.598 31.414C73.598 31.8193 73.5157 32.2753 73.351 32.782C73.1863 33.2887 72.895 33.77 72.477 34.226C72.0717 34.6693 71.5017 35.024 70.767 35.29L71.223 33.789C71.6283 33.941 72.0653 34.0677 72.534 34.169C73.0027 34.2577 73.4903 34.3273 73.997 34.378C74.5037 34.416 74.9977 34.435 75.479 34.435C75.9603 34.435 76.3023 34.5617 76.505 34.815C76.7203 35.0557 76.828 35.3597 76.828 35.727C76.828 36.1197 76.695 36.449 76.429 36.715C76.163 36.9683 75.783 37.095 75.289 37.095C74.9343 37.095 74.529 37.076 74.073 37.038C73.6297 37 73.1927 36.9493 72.762 36.886C72.344 36.8227 71.9893 36.753 71.698 36.677L73.769 36.202C74.0603 36.5567 74.2567 36.9493 74.358 37.38C74.472 37.8233 74.4847 38.2667 74.396 38.71C74.32 39.1533 74.1363 39.5587 73.845 39.926C73.5663 40.306 73.1737 40.61 72.667 40.838C72.173 41.066 71.565 41.18 70.843 41.18ZM64.459 37.095L64.649 34.435C64.8643 34.435 65.1493 34.435 65.504 34.435C65.8713 34.435 66.1943 34.435 66.473 34.435L66.682 36.848C66.3147 36.924 65.9157 36.981 65.485 37.019C65.067 37.0697 64.725 37.095 64.459 37.095ZM70.767 38.558C71.0203 38.558 71.2293 38.5137 71.394 38.425C71.5587 38.349 71.679 38.235 71.755 38.083C71.8437 37.9437 71.888 37.7853 71.888 37.608C71.888 37.456 71.8373 37.285 71.736 37.095C71.6347 36.905 71.4447 36.7403 71.166 36.601C70.8873 36.449 70.4883 36.373 69.969 36.373C69.779 36.373 69.57 36.3857 69.342 36.411C69.1267 36.4363 68.8923 36.4743 68.639 36.525C68.3857 36.563 68.126 36.6137 67.86 36.677L67.955 34.397C68.4363 34.359 68.867 34.283 69.247 34.169C69.627 34.0423 69.9437 33.8777 70.197 33.675C70.463 33.4597 70.6657 33.2 70.805 32.896C70.9443 32.592 71.014 32.2373 71.014 31.832C71.014 31.6293 70.995 31.433 70.957 31.243C70.919 31.0403 70.862 30.8757 70.786 30.749C70.71 30.6097 70.615 30.54 70.501 30.54C70.2983 30.54 70.083 30.654 69.855 30.882C69.627 31.11 69.4117 31.4393 69.209 31.87C69.0063 32.288 68.8353 32.7947 68.696 33.39C68.5693 33.9727 68.506 34.625 68.506 35.347C68.506 35.955 68.5693 36.468 68.696 36.886C68.8227 37.2913 68.9937 37.6143 69.209 37.855C69.4243 38.1083 69.665 38.2857 69.931 38.387C70.2097 38.501 70.4883 38.558 70.767 38.558ZM78.8035 23.258C78.1955 23.258 77.7332 23.0743 77.4165 22.707C77.0999 22.327 76.9415 21.8837 76.9415 21.377C76.9415 20.9717 77.0239 20.6043 77.1885 20.275C77.3659 19.933 77.6002 19.6607 77.8915 19.458C78.1829 19.2553 78.5185 19.154 78.8985 19.154C79.2532 19.154 79.5635 19.2553 79.8295 19.458C80.1082 19.6607 80.3235 19.9267 80.4755 20.256C80.6402 20.5727 80.7225 20.9147 80.7225 21.282C80.7225 21.8267 80.5452 22.2953 80.1905 22.688C79.8359 23.068 79.3735 23.258 78.8035 23.258ZM78.7845 22.042C78.9999 22.042 79.1835 21.9723 79.3355 21.833C79.5002 21.6937 79.5825 21.51 79.5825 21.282C79.5825 21.0413 79.5002 20.845 79.3355 20.693C79.1709 20.5283 78.9935 20.446 78.8035 20.446C78.5629 20.446 78.3729 20.5283 78.2335 20.693C78.1069 20.8577 78.0435 21.0477 78.0435 21.263C78.0435 21.491 78.1132 21.681 78.2525 21.833C78.3919 21.9723 78.5692 22.042 78.7845 22.042ZM75.3135 37.095L75.5035 34.435C75.9848 34.435 76.3648 34.3907 76.6435 34.302C76.9348 34.2133 77.1628 34.036 77.3275 33.77C77.5048 33.4913 77.6505 33.086 77.7645 32.554C77.8911 32.022 78.0178 31.3127 78.1445 30.426L80.6335 30.844C80.6081 31.034 80.5701 31.2557 80.5195 31.509C80.4815 31.7623 80.4435 32.022 80.4055 32.288C80.3801 32.5413 80.3675 32.782 80.3675 33.01C80.3675 33.314 80.4308 33.5737 80.5575 33.789C80.6968 33.9917 80.9375 34.15 81.2795 34.264C81.6341 34.378 82.1408 34.435 82.7995 34.435C83.2808 34.435 83.6228 34.5617 83.8255 34.815C84.0281 35.0557 84.1295 35.3597 84.1295 35.727C84.1295 36.1197 83.9965 36.449 83.7305 36.715C83.4771 36.9683 83.1035 37.095 82.6095 37.095C81.7355 37.095 81.0261 37.0127 80.4815 36.848C79.9368 36.6833 79.5315 36.4047 79.2655 36.012C78.9995 35.6193 78.8285 35.081 78.7525 34.397H79.6645C79.4365 35.005 79.1705 35.4927 78.8665 35.86C78.5625 36.2147 78.2205 36.4807 77.8405 36.658C77.4605 36.8353 77.0551 36.9493 76.6245 37C76.2065 37.0633 75.7695 37.095 75.3135 37.095ZM79.1895 28.488C78.7968 28.488 78.4611 28.355 78.1825 28.089C77.9165 27.823 77.7835 27.4937 77.7835 27.101C77.7835 26.7083 77.9165 26.3727 78.1825 26.094C78.4611 25.8153 78.7968 25.676 79.1895 25.676C79.5695 25.676 79.8925 25.8153 80.1585 26.094C80.4371 26.3727 80.5765 26.7083 80.5765 27.101C80.5765 27.4937 80.4371 27.823 80.1585 28.089C79.8925 28.355 79.5695 28.488 79.1895 28.488ZM83.5881 21.79V20.46L88.0721 19.13V20.498L83.5881 21.79ZM82.6055 37.095L82.7955 34.435C83.5555 34.435 84.1381 34.397 84.5435 34.321C84.9488 34.245 85.2275 34.1057 85.3795 33.903C85.5441 33.6877 85.6265 33.3837 85.6265 32.991C85.6265 32.6363 85.5758 32.212 85.4745 31.718C85.3858 31.224 85.2655 30.711 85.1135 30.179C84.9741 29.647 84.8221 29.1593 84.6575 28.716L87.2795 27.994C87.4441 28.4247 87.6025 28.925 87.7545 29.495C87.9065 30.065 88.0331 30.654 88.1345 31.262C88.2358 31.8573 88.2865 32.4337 88.2865 32.991C88.2865 33.8523 88.1471 34.5553 87.8685 35.1C87.5898 35.632 87.1971 36.0437 86.6905 36.335C86.1965 36.6263 85.6011 36.829 84.9045 36.943C84.2078 37.0443 83.4415 37.095 82.6055 37.095ZM87.7545 26.455C87.3871 26.455 87.0705 26.3283 86.8045 26.075C86.5511 25.809 86.4245 25.4987 86.4245 25.144C86.4245 24.7767 86.5511 24.46 86.8045 24.194C87.0705 23.928 87.3871 23.795 87.7545 23.795C88.1091 23.795 88.4131 23.928 88.6665 24.194C88.9198 24.46 89.0465 24.7767 89.0465 25.144C89.0465 25.4987 88.9198 25.809 88.6665 26.075C88.4131 26.3283 88.1091 26.455 87.7545 26.455ZM84.4675 26.436C84.1001 26.436 83.7835 26.3093 83.5175 26.056C83.2641 25.79 83.1375 25.4797 83.1375 25.125C83.1375 24.7577 83.2641 24.441 83.5175 24.175C83.7835 23.909 84.1001 23.776 84.4675 23.776C84.8221 23.776 85.1261 23.909 85.3795 24.175C85.6328 24.441 85.7595 24.7577 85.7595 25.125C85.7595 25.4797 85.6328 25.79 85.3795 26.056C85.1261 26.3093 84.8221 26.436 84.4675 26.436ZM95.6487 20.79V19.46L100.133 18.13V19.498L95.6487 20.79ZM98.0681 37.057C97.3587 37.057 96.7191 36.9367 96.1491 36.696C95.5917 36.4427 95.1484 36.069 94.8191 35.575C94.5024 35.0683 94.3441 34.4413 94.3441 33.694C94.3441 32.9467 94.5974 32.117 95.1041 31.205C95.6107 30.2803 96.4594 29.3557 97.6501 28.431L97.4601 30.179L95.7501 28.849L97.5361 26.664C98.4987 27.3987 99.3221 28.1143 100.006 28.811C100.703 29.495 101.235 30.198 101.602 30.92C101.969 31.642 102.153 32.4083 102.153 33.219C102.153 33.6117 102.09 34.036 101.963 34.492C101.836 34.9353 101.621 35.3533 101.317 35.746C101.013 36.126 100.595 36.4427 100.063 36.696C99.5437 36.9367 98.8787 37.057 98.0681 37.057ZM98.2771 34.435C98.5937 34.435 98.8471 34.3717 99.0371 34.245C99.2397 34.1183 99.3917 33.9537 99.4931 33.751C99.5944 33.5483 99.6451 33.333 99.6451 33.105C99.6451 32.877 99.5944 32.63 99.4931 32.364C99.3917 32.098 99.1954 31.8003 98.9041 31.471C98.6127 31.1417 98.1821 30.7617 97.6121 30.331L99.0561 30.141C98.5367 30.4957 98.1187 30.8567 97.8021 31.224C97.4854 31.5913 97.2574 31.946 97.1181 32.288C96.9914 32.6173 96.9281 32.9213 96.9281 33.2C96.9281 33.6053 97.0611 33.9157 97.3271 34.131C97.5931 34.3337 97.9097 34.435 98.2771 34.435ZM99.8351 25.239C99.4677 25.239 99.1511 25.1123 98.8851 24.859C98.6317 24.593 98.5051 24.2827 98.5051 23.928C98.5051 23.5607 98.6317 23.244 98.8851 22.978C99.1511 22.712 99.4677 22.579 99.8351 22.579C100.19 22.579 100.494 22.712 100.747 22.978C101 23.244 101.127 23.5607 101.127 23.928C101.127 24.2827 101 24.593 100.747 24.859C100.494 25.1123 100.19 25.239 99.8351 25.239ZM96.5481 25.22C96.1807 25.22 95.8641 25.0933 95.5981 24.84C95.3447 24.574 95.2181 24.2637 95.2181 23.909C95.2181 23.5417 95.3447 23.225 95.5981 22.959C95.8641 22.693 96.1807 22.56 96.5481 22.56C96.9027 22.56 97.2067 22.693 97.4601 22.959C97.7134 23.225 97.8401 23.5417 97.8401 23.909C97.8401 24.2637 97.7134 24.574 97.4601 24.84C97.2067 25.0933 96.9027 25.22 96.5481 25.22ZM109.843 20.79V19.46L114.327 18.13V19.498L109.843 20.79ZM115.694 37.095C114.808 37.095 114.073 37.0317 113.49 36.905C112.92 36.7657 112.471 36.5567 112.141 36.278C111.812 35.9867 111.578 35.6257 111.438 35.195C111.299 34.7643 111.217 34.2513 111.191 33.656L110.792 23.092H113.452L113.851 32.383C113.877 32.9657 113.94 33.4027 114.041 33.694C114.143 33.9853 114.333 34.1817 114.611 34.283C114.903 34.3843 115.327 34.435 115.884 34.435C116.366 34.435 116.708 34.5617 116.91 34.815C117.126 35.0557 117.233 35.3597 117.233 35.727C117.233 36.1197 117.1 36.449 116.834 36.715C116.568 36.9683 116.188 37.095 115.694 37.095ZM105.472 37.095C105.13 37.095 104.782 37.0633 104.427 37C104.085 36.9493 103.845 36.9113 103.705 36.886L104.066 34.131C104.94 34.245 105.789 34.2703 106.612 34.207C107.448 34.131 108.196 33.9283 108.854 33.599C109.526 33.257 110.058 32.763 110.45 32.117C110.843 31.4583 111.039 30.6097 111.039 29.571L112.065 32.554C111.913 33.4153 111.654 34.131 111.286 34.701C110.932 35.2583 110.507 35.7017 110.013 36.031C109.532 36.3477 109.019 36.582 108.474 36.734C107.93 36.886 107.398 36.981 106.878 37.019C106.359 37.0697 105.89 37.095 105.472 37.095ZM109.595 34.492C109.405 34.1247 109.133 33.694 108.778 33.2C108.424 32.6933 107.987 32.136 107.467 31.528C106.961 30.9073 106.378 30.255 105.719 29.571C105.061 28.8743 104.332 28.1587 103.534 27.424L105.187 25.619C106.365 26.7337 107.322 27.671 108.056 28.431C108.791 29.191 109.374 29.8307 109.804 30.35C110.248 30.8567 110.583 31.2937 110.811 31.661C111.052 32.0283 111.255 32.383 111.419 32.725L109.595 34.492ZM126.264 22.79V21.46L130.748 20.13V21.498L126.264 22.79ZM127.343 26.771C126.875 26.771 126.558 26.6063 126.393 26.277C126.229 25.9477 126.146 25.5867 126.146 25.194C126.146 25.0547 126.153 24.909 126.165 24.757C126.191 24.5923 126.222 24.4087 126.26 24.206L127.4 23.94C127.362 24.1553 127.331 24.358 127.305 24.548C127.293 24.7253 127.286 24.8837 127.286 25.023C127.286 25.1877 127.318 25.3143 127.381 25.403C127.445 25.4917 127.533 25.536 127.647 25.536C127.799 25.536 127.92 25.4473 128.008 25.27C128.11 25.0927 128.16 24.7507 128.16 24.244V23.674L129.262 23.332V24.491C129.262 24.6303 129.288 24.7443 129.338 24.833C129.402 24.9217 129.497 24.966 129.623 24.966C129.801 24.966 129.921 24.9153 129.984 24.814C130.06 24.7 130.098 24.567 130.098 24.415C130.098 24.1997 130.073 23.9843 130.022 23.769C129.972 23.541 129.902 23.3193 129.813 23.104L130.858 22.838C130.985 23.0787 131.086 23.3573 131.162 23.674C131.251 23.978 131.295 24.2567 131.295 24.51C131.295 24.928 131.175 25.308 130.934 25.65C130.694 25.9793 130.301 26.144 129.756 26.144C129.414 26.144 129.123 26.0427 128.882 25.84C128.642 25.6247 128.521 25.3713 128.521 25.08L128.958 25.251C128.958 25.6817 128.806 26.0427 128.502 26.334C128.211 26.6253 127.825 26.771 127.343 26.771ZM134.764 37.095C134.118 37.095 133.497 37.038 132.902 36.924C132.307 36.7973 131.768 36.6327 131.287 36.43C130.818 36.2273 130.432 35.9993 130.128 35.746L131.838 33.903C132.294 34.093 132.763 34.2323 133.244 34.321C133.725 34.397 134.295 34.435 134.954 34.435C135.435 34.435 135.777 34.5617 135.98 34.815C136.195 35.0557 136.303 35.3597 136.303 35.727C136.303 36.1197 136.17 36.449 135.904 36.715C135.638 36.9683 135.258 37.095 134.764 37.095ZM125.549 37.342C124.371 37.342 123.389 37.2913 122.604 37.19C121.831 37.0887 121.204 36.943 120.723 36.753C120.242 36.563 119.862 36.335 119.583 36.069C119.304 35.803 119.076 35.5117 118.899 35.195L119.431 35.043C119.114 35.651 118.753 36.1007 118.348 36.392C117.943 36.6833 117.518 36.8733 117.075 36.962C116.632 37.0507 116.176 37.095 115.707 37.095L115.897 34.435C116.29 34.435 116.6 34.3717 116.828 34.245C117.056 34.1183 117.24 33.9093 117.379 33.618C117.531 33.3267 117.67 32.9403 117.797 32.459C117.924 31.9777 118.076 31.3887 118.253 30.692L120.666 31.281C120.577 31.623 120.501 31.9207 120.438 32.174C120.387 32.4273 120.343 32.649 120.305 32.839C120.28 33.0163 120.267 33.162 120.267 33.276C120.267 33.5167 120.324 33.732 120.438 33.922C120.552 34.0993 120.774 34.245 121.103 34.359C121.432 34.4603 121.914 34.5427 122.547 34.606C123.193 34.6567 124.035 34.682 125.074 34.682C126.176 34.682 127.094 34.644 127.829 34.568C128.564 34.4793 129.146 34.359 129.577 34.207C130.02 34.0423 130.337 33.846 130.527 33.618C130.717 33.3773 130.812 33.105 130.812 32.801C130.812 32.5603 130.755 32.3387 130.641 32.136C130.54 31.9207 130.369 31.7433 130.128 31.604C129.887 31.4647 129.577 31.395 129.197 31.395C128.741 31.395 128.279 31.509 127.81 31.737C127.354 31.9523 126.904 32.2437 126.461 32.611C126.018 32.9657 125.593 33.3647 125.188 33.808C124.795 34.2513 124.441 34.6947 124.124 35.138L121.274 34.815C121.768 34.017 122.325 33.2507 122.946 32.516C123.567 31.7813 124.232 31.1353 124.941 30.578C125.65 30.008 126.385 29.5583 127.145 29.229C127.905 28.8997 128.678 28.735 129.463 28.735C130.312 28.735 131.034 28.8997 131.629 29.229C132.224 29.5583 132.68 30.0143 132.997 30.597C133.314 31.1797 133.472 31.851 133.472 32.611C133.472 33.5357 133.206 34.3527 132.674 35.062C132.155 35.7713 131.312 36.3287 130.147 36.734C128.994 37.1393 127.462 37.342 125.549 37.342ZM134.781 37.095L134.971 34.435C135.554 34.435 135.972 34.378 136.225 34.264C136.479 34.1373 136.631 33.9093 136.681 33.58C136.732 33.238 136.745 32.744 136.719 32.098L136.377 23.092H139.056L139.436 32.288C139.462 33.0227 139.43 33.6877 139.341 34.283C139.265 34.8657 139.069 35.366 138.752 35.784C138.448 36.202 137.973 36.525 137.327 36.753C136.694 36.981 135.845 37.095 134.781 37.095ZM141.942 37L141.543 23.092H144.203L144.602 37H141.942ZM153.873 19.79V18.46L158.357 17.13V18.498L153.873 19.79ZM154.953 24.771C154.484 24.771 154.167 24.6063 154.003 24.277C153.838 23.9477 153.756 23.5867 153.756 23.194C153.756 23.0547 153.762 22.909 153.775 22.757C153.8 22.5923 153.832 22.4087 153.87 22.206L155.01 21.94C154.972 22.1553 154.94 22.358 154.915 22.548C154.902 22.7253 154.896 22.8837 154.896 23.023C154.896 23.1877 154.927 23.3143 154.991 23.403C155.054 23.4917 155.143 23.536 155.257 23.536C155.409 23.536 155.529 23.4473 155.618 23.27C155.719 23.0927 155.77 22.7507 155.77 22.244V21.674L156.872 21.332V22.491C156.872 22.6303 156.897 22.7443 156.948 22.833C157.011 22.9217 157.106 22.966 157.233 22.966C157.41 22.966 157.53 22.9153 157.594 22.814C157.67 22.7 157.708 22.567 157.708 22.415C157.708 22.1997 157.682 21.9843 157.632 21.769C157.581 21.541 157.511 21.3193 157.423 21.104L158.468 20.838C158.594 21.0787 158.696 21.3573 158.772 21.674C158.86 21.978 158.905 22.2567 158.905 22.51C158.905 22.928 158.784 23.308 158.544 23.65C158.303 23.9793 157.91 24.144 157.366 24.144C157.024 24.144 156.732 24.0427 156.492 23.84C156.251 23.6247 156.131 23.3713 156.131 23.08L156.568 23.251C156.568 23.6817 156.416 24.0427 156.112 24.334C155.82 24.6253 155.434 24.771 154.953 24.771ZM150.509 36.468C150.509 36.1767 150.534 35.8347 150.585 35.442C150.635 35.0493 150.73 34.606 150.87 34.112C151.009 33.6053 151.218 33.0417 151.497 32.421L153.834 33.238C153.694 33.6307 153.574 33.9917 153.473 34.321C153.371 34.6377 153.295 34.9353 153.245 35.214C153.194 35.48 153.169 35.746 153.169 36.012C153.169 36.6327 153.308 37.1393 153.587 37.532C153.878 37.9373 154.283 38.235 154.803 38.425C155.322 38.6277 155.924 38.729 156.608 38.729C157.393 38.729 158.039 38.6213 158.546 38.406C159.052 38.2033 159.445 37.931 159.724 37.589C160.002 37.2597 160.199 36.8987 160.313 36.506C160.427 36.1007 160.484 35.708 160.484 35.328C160.484 34.8087 160.395 34.1943 160.218 33.485C160.04 32.763 159.724 31.9523 159.268 31.053L161.719 30.008C161.972 30.4513 162.206 30.9707 162.422 31.566C162.637 32.1487 162.808 32.7567 162.935 33.39C163.074 34.0233 163.144 34.625 163.144 35.195C163.144 35.7017 163.08 36.24 162.954 36.81C162.827 37.3673 162.612 37.9183 162.308 38.463C162.016 39.0077 161.617 39.4953 161.111 39.926C160.604 40.3693 159.977 40.724 159.23 40.99C158.482 41.256 157.589 41.389 156.551 41.389C155.715 41.389 154.929 41.294 154.195 41.104C153.473 40.9267 152.833 40.6417 152.276 40.249C151.731 39.8563 151.3 39.3433 150.984 38.71C150.667 38.0893 150.509 37.342 150.509 36.468ZM156.703 29.248C156.31 29.248 155.974 29.115 155.696 28.849C155.43 28.583 155.297 28.2537 155.297 27.861C155.297 27.4683 155.43 27.1327 155.696 26.854C155.974 26.5753 156.31 26.436 156.703 26.436C157.083 26.436 157.406 26.5753 157.672 26.854C157.95 27.1327 158.09 27.4683 158.09 27.861C158.09 28.2537 157.95 28.583 157.672 28.849C157.406 29.115 157.083 29.248 156.703 29.248ZM165.136 46.477V45.147L169.62 43.817V45.185L165.136 46.477ZM165.618 37L165.219 23.092H167.879L168.278 37H165.618ZM165.504 42.871L165.181 41.541C165.624 41.465 165.953 41.4017 166.169 41.351C166.397 41.3003 166.637 41.2433 166.891 41.18L166.701 41.655C166.371 41.541 166.055 41.313 165.751 40.971C165.459 40.6417 165.314 40.2617 165.314 39.831C165.314 39.375 165.415 39.0077 165.618 38.729C165.82 38.4503 166.08 38.2477 166.397 38.121C166.713 37.9943 167.043 37.931 167.385 37.931C167.575 37.931 167.752 37.9437 167.917 37.969C168.094 37.9943 168.252 38.0323 168.392 38.083L168.24 39.451C168.113 39.4257 167.986 39.4003 167.86 39.375C167.733 39.3497 167.594 39.337 167.442 39.337C167.277 39.337 167.125 39.3877 166.986 39.489C166.859 39.603 166.796 39.736 166.796 39.888C166.796 40.1033 166.872 40.2933 167.024 40.458C167.176 40.6227 167.353 40.7493 167.556 40.838C167.771 40.9393 167.948 40.9963 168.088 41.009L167.043 41.123C167.385 41.0343 167.708 40.9393 168.012 40.838C168.316 40.7493 168.601 40.6543 168.867 40.553L169.247 41.826C168.93 41.94 168.556 42.0603 168.126 42.187C167.708 42.3263 167.271 42.453 166.815 42.567C166.371 42.681 165.934 42.7823 165.504 42.871ZM20.1682 68.477V67.147L24.6522 65.817V67.185L20.1682 68.477ZM19.304 64.389L18.335 62.033C19.0063 61.805 19.6207 61.539 20.178 61.235C20.748 60.931 21.242 60.5953 21.66 60.228C22.078 59.8607 22.401 59.4617 22.629 59.031C22.857 58.5877 22.971 58.1127 22.971 57.606C22.971 57.074 22.8507 56.4913 22.61 55.858C22.3693 55.2247 22.078 54.5787 21.736 53.92L24.225 52.723C24.453 53.1157 24.6493 53.54 24.814 53.996C24.9913 54.4393 25.137 54.8383 25.251 55.193C25.365 55.5477 25.441 55.7883 25.479 55.915C25.6563 56.523 25.897 56.9283 26.201 57.131C26.5177 57.3337 27.0243 57.435 27.721 57.435C28.2023 57.435 28.5443 57.5617 28.747 57.815C28.9623 58.0557 29.07 58.3597 29.07 58.727C29.07 59.1197 28.937 59.449 28.671 59.715C28.405 59.9683 28.025 60.095 27.531 60.095C27.0117 60.095 26.5557 60.019 26.163 59.867C25.7703 59.715 25.4537 59.4933 25.213 59.202C24.985 58.9107 24.8393 58.5687 24.776 58.176L25.479 58.575C25.403 59.2463 25.1813 59.8797 24.814 60.475C24.4593 61.083 23.997 61.6403 23.427 62.147C22.857 62.6537 22.2173 63.097 21.508 63.477C20.7987 63.857 20.064 64.161 19.304 64.389ZM27.7756 45.79V44.46L32.2596 43.13V44.498L27.7756 45.79ZM27.5537 60.095L27.7437 57.435H30.4037C30.847 57.435 31.1827 57.4097 31.4107 57.359C31.6514 57.3083 31.816 57.2323 31.9047 57.131C31.9934 57.017 32.0377 56.884 32.0377 56.732C32.0377 56.504 31.9364 56.238 31.7337 55.934C31.5437 55.63 31.2904 55.3133 30.9737 54.984C30.6697 54.6547 30.3467 54.3253 30.0047 53.996C29.6627 53.654 29.3334 53.3373 29.0167 53.046C28.7127 52.7547 28.4594 52.5013 28.2567 52.286C28.0667 52.058 27.9717 51.8933 27.9717 51.792C27.9717 51.4373 27.9907 51.1587 28.0287 50.956C28.0667 50.7407 28.1174 50.5697 28.1807 50.443C28.2567 50.3163 28.339 50.2087 28.4277 50.12C28.643 49.9047 28.966 49.664 29.3967 49.398C29.8274 49.1193 30.334 48.828 30.9167 48.524C31.512 48.2073 32.177 47.878 32.9117 47.536C33.6464 47.1813 34.4254 46.814 35.2487 46.434L36.3317 48.752C35.4957 49.1193 34.7484 49.4613 34.0897 49.778C33.4437 50.082 32.861 50.367 32.3417 50.633C31.835 50.8863 31.379 51.127 30.9737 51.355C30.581 51.583 30.2264 51.7983 29.9097 52.001L30.0997 50.595C30.6444 51.0637 31.1384 51.507 31.5817 51.925C32.025 52.343 32.4367 52.761 32.8167 53.179C33.1967 53.597 33.5514 54.0277 33.8807 54.471C34.2227 54.9143 34.552 55.3957 34.8687 55.915C35.1474 56.3583 35.4324 56.6877 35.7237 56.903C36.0277 57.1183 36.319 57.264 36.5977 57.34C36.889 57.4033 37.1487 57.435 37.3767 57.435C37.858 57.435 38.2 57.5617 38.4027 57.815C38.618 58.0557 38.7257 58.3597 38.7257 58.727C38.7257 59.1197 38.5927 59.449 38.3267 59.715C38.0607 59.9683 37.6807 60.095 37.1867 60.095C36.7687 60.095 36.319 60.0253 35.8377 59.886C35.3564 59.734 34.9067 59.4933 34.4887 59.164C34.0707 58.8347 33.754 58.385 33.5387 57.815L34.5647 57.891C34.3747 58.2963 34.1467 58.6447 33.8807 58.936C33.6274 59.2147 33.3234 59.4427 32.9687 59.62C32.614 59.7847 32.2087 59.905 31.7527 59.981C31.2967 60.057 30.7837 60.095 30.2137 60.095H27.5537ZM37.2021 60.095L37.3921 57.435C37.8735 57.435 38.2535 57.3907 38.5321 57.302C38.8235 57.2133 39.0515 57.036 39.2161 56.77C39.3935 56.4913 39.5391 56.086 39.6531 55.554C39.7798 55.022 39.9065 54.3127 40.0331 53.426L42.5221 53.844C42.4968 54.034 42.4588 54.2557 42.4081 54.509C42.3701 54.7623 42.3321 55.022 42.2941 55.288C42.2688 55.5413 42.2561 55.782 42.2561 56.01C42.2561 56.314 42.3195 56.5737 42.4461 56.789C42.5855 56.9917 42.8261 57.15 43.1681 57.264C43.5228 57.378 44.0295 57.435 44.6881 57.435C45.1695 57.435 45.5115 57.5617 45.7141 57.815C45.9168 58.0557 46.0181 58.3597 46.0181 58.727C46.0181 59.1197 45.8851 59.449 45.6191 59.715C45.3658 59.9683 44.9921 60.095 44.4981 60.095C43.6241 60.095 42.9148 60.0127 42.3701 59.848C41.8255 59.6833 41.4201 59.4047 41.1541 59.012C40.8881 58.6193 40.7171 58.081 40.6411 57.397H41.5531C41.3251 58.005 41.0591 58.4927 40.7551 58.86C40.4511 59.2147 40.1091 59.4807 39.7291 59.658C39.3491 59.8353 38.9438 59.9493 38.5131 60C38.0951 60.0633 37.6581 60.095 37.2021 60.095ZM41.0781 51.488C40.6855 51.488 40.3498 51.355 40.0711 51.089C39.8051 50.823 39.6721 50.4937 39.6721 50.101C39.6721 49.7083 39.8051 49.3727 40.0711 49.094C40.3498 48.8153 40.6855 48.676 41.0781 48.676C41.4581 48.676 41.7811 48.8153 42.0471 49.094C42.3258 49.3727 42.4651 49.7083 42.4651 50.101C42.4651 50.4937 42.3258 50.823 42.0471 51.089C41.7811 51.355 41.4581 51.488 41.0781 51.488ZM47.3455 49.942L47.1365 48.745C47.8078 48.745 48.4348 48.65 49.0175 48.46C49.6001 48.2573 50.0688 48.004 50.4235 47.7C50.7781 47.396 50.9555 47.0983 50.9555 46.807C50.9555 46.6297 50.9048 46.4713 50.8035 46.332C50.7021 46.1927 50.5565 46.123 50.3665 46.123C50.2018 46.123 50.0561 46.1863 49.9295 46.313C49.8028 46.4397 49.7395 46.598 49.7395 46.788C49.7395 47.0287 49.8345 47.244 50.0245 47.434C50.2145 47.6113 50.4425 47.757 50.7085 47.871L49.8915 48.593C49.5115 48.4157 49.1821 48.1813 48.9035 47.89C48.6248 47.586 48.4855 47.1997 48.4855 46.731C48.4855 46.2117 48.6628 45.781 49.0175 45.439C49.3848 45.097 49.8408 44.926 50.3855 44.926C50.9808 44.926 51.4305 45.116 51.7345 45.496C52.0385 45.876 52.1905 46.3067 52.1905 46.788C52.1905 47.396 51.9688 47.928 51.5255 48.384C51.0948 48.84 50.5121 49.201 49.7775 49.467C49.0555 49.733 48.2448 49.8913 47.3455 49.942ZM44.4941 60.095L44.6841 57.435C45.0008 57.435 45.2415 57.3717 45.4061 57.245C45.5708 57.1183 45.7355 56.8967 45.9001 56.58C46.0648 56.2633 46.2928 55.8327 46.5841 55.288C46.9008 54.68 47.2301 54.1733 47.5721 53.768C47.9141 53.35 48.2561 53.0207 48.5981 52.78C48.9528 52.5267 49.3011 52.3493 49.6431 52.248C49.9978 52.134 50.3461 52.077 50.6881 52.077C51.1568 52.077 51.5938 52.1783 51.9991 52.381C52.4171 52.571 52.8161 52.9067 53.1961 53.388C53.5761 53.8567 53.9371 54.5027 54.2791 55.326C54.5198 55.896 54.7605 56.333 55.0011 56.637C55.2418 56.941 55.4888 57.15 55.7421 57.264C56.0081 57.378 56.2741 57.435 56.5401 57.435C57.0215 57.435 57.3635 57.5617 57.5661 57.815C57.7688 58.0557 57.8701 58.3597 57.8701 58.727C57.8701 59.1197 57.7371 59.449 57.4711 59.715C57.2051 59.9683 56.8315 60.095 56.3501 60.095C55.7295 60.095 55.1658 59.9937 54.6591 59.791C54.1525 59.5883 53.7535 59.2843 53.4621 58.879L54.0131 58.461C53.8991 58.727 53.7281 59.0057 53.5001 59.297C53.2848 59.5883 52.9998 59.8353 52.6451 60.038C52.3031 60.2407 51.8915 60.342 51.4101 60.342C51.0935 60.342 50.7198 60.2787 50.2891 60.152C49.8711 60.038 49.4341 59.8417 48.9781 59.563C48.5348 59.2717 48.1231 58.879 47.7431 58.385C47.5025 58.8283 47.2365 59.1767 46.9451 59.43C46.6538 59.6707 46.3118 59.8417 45.9191 59.943C45.5265 60.0443 45.0515 60.095 44.4941 60.095ZM48.8451 56.143C48.9718 56.333 49.1238 56.523 49.3011 56.713C49.4785 56.903 49.6748 57.074 49.8901 57.226C50.1055 57.3653 50.3335 57.4793 50.5741 57.568C50.8275 57.6567 51.0745 57.701 51.3151 57.701C51.5685 57.701 51.7775 57.606 51.9421 57.416C52.1068 57.2133 52.1131 56.9157 51.9611 56.523C51.8978 56.3583 51.8091 56.1747 51.6951 55.972C51.5938 55.7567 51.4735 55.554 51.3341 55.364C51.2075 55.174 51.0618 55.0157 50.8971 54.889C50.7451 54.7623 50.5868 54.699 50.4221 54.699C50.2575 54.699 50.0865 54.7497 49.9091 54.851C49.7318 54.9523 49.5545 55.1107 49.3771 55.326C49.1998 55.5287 49.0225 55.801 48.8451 56.143ZM59.284 43.258C58.676 43.258 58.2137 43.0743 57.897 42.707C57.5803 42.327 57.422 41.8837 57.422 41.377C57.422 40.9717 57.5043 40.6043 57.669 40.275C57.8463 39.933 58.0807 39.6607 58.372 39.458C58.6633 39.2553 58.999 39.154 59.379 39.154C59.7337 39.154 60.044 39.2553 60.31 39.458C60.5887 39.6607 60.804 39.9267 60.956 40.256C61.1207 40.5727 61.203 40.9147 61.203 41.282C61.203 41.8267 61.0257 42.2953 60.671 42.688C60.3163 43.068 59.854 43.258 59.284 43.258ZM59.265 42.042C59.4803 42.042 59.664 41.9723 59.816 41.833C59.9807 41.6937 60.063 41.51 60.063 41.282C60.063 41.0413 59.9807 40.845 59.816 40.693C59.6513 40.5283 59.474 40.446 59.284 40.446C59.0433 40.446 58.8533 40.5283 58.714 40.693C58.5873 40.8577 58.524 41.0477 58.524 41.263C58.524 41.491 58.5937 41.681 58.733 41.833C58.8723 41.9723 59.0497 42.042 59.265 42.042ZM56.3506 60.095L56.5406 57.435C57.1233 57.435 57.5413 57.378 57.7946 57.264C58.0479 57.1373 58.1999 56.9093 58.2506 56.58C58.3013 56.238 58.3139 55.744 58.2886 55.098L57.9466 46.092H60.6256L61.0056 55.288C61.0309 56.0227 60.9993 56.6877 60.9106 57.283C60.8346 57.8657 60.6383 58.366 60.3216 58.784C60.0176 59.202 59.5426 59.525 58.8966 59.753C58.2633 59.981 57.4146 60.095 56.3506 60.095ZM63.5112 60L63.1122 46.092H65.7722L66.1712 60H63.5112ZM69.6907 50.79V49.46L74.1747 48.13V49.498L69.6907 50.79ZM68.2695 64.37L67.7185 61.71C68.6179 61.596 69.4032 61.4567 70.0745 61.292C70.7459 61.14 71.3095 60.9247 71.7655 60.646C72.2215 60.3673 72.5635 59.9873 72.7915 59.506C73.0195 59.012 73.1335 58.3787 73.1335 57.606C73.1335 57.3273 73.1082 57.0487 73.0575 56.77C73.0069 56.4787 72.9309 56.2127 72.8295 55.972C72.7282 55.7313 72.5952 55.535 72.4305 55.383C72.2785 55.231 72.0949 55.155 71.8795 55.155C71.6515 55.155 71.4489 55.2373 71.2715 55.402C71.0942 55.554 70.9549 55.7503 70.8535 55.991C70.7522 56.219 70.7015 56.4533 70.7015 56.694C70.7015 56.8713 70.7459 57.0233 70.8345 57.15C70.9232 57.264 71.0562 57.3527 71.2335 57.416C71.4109 57.4667 71.6325 57.492 71.8985 57.492C72.2025 57.492 72.5129 57.4603 72.8295 57.397C73.1589 57.321 73.4565 57.2197 73.7225 57.093L73.7985 59.164C73.4945 59.4047 73.1462 59.62 72.7535 59.81C72.3609 59.9873 71.8859 60.076 71.3285 60.076C70.8725 60.076 70.4482 60.0253 70.0555 59.924C69.6629 59.81 69.3145 59.639 69.0105 59.411C68.7192 59.183 68.4912 58.8917 68.3265 58.537C68.1619 58.1697 68.0795 57.7327 68.0795 57.226C68.0795 56.6053 68.1809 56.0037 68.3835 55.421C68.5862 54.8383 68.8649 54.319 69.2195 53.863C69.5869 53.3943 70.0049 53.027 70.4735 52.761C70.9549 52.4823 71.4615 52.343 71.9935 52.343C72.6269 52.343 73.1779 52.5013 73.6465 52.818C74.1279 53.1347 74.5269 53.5527 74.8435 54.072C75.1602 54.5787 75.4009 55.1297 75.5655 55.725C75.7302 56.3203 75.8125 56.8903 75.8125 57.435C75.8125 58.8663 75.5085 60.0823 74.9005 61.083C74.2925 62.0837 73.4249 62.8563 72.2975 63.401C71.1702 63.9583 69.8275 64.2813 68.2695 64.37ZM83.6067 64.477V63.147L88.0907 61.817V63.185L83.6067 64.477ZM83.7829 58.138C83.5802 58.0367 83.3775 57.8973 83.1749 57.72C82.9722 57.53 82.7885 57.3083 82.6239 57.055C82.4592 56.8017 82.3262 56.5293 82.2249 56.238C82.1362 55.934 82.0919 55.6237 82.0919 55.307C82.0919 54.6103 82.2565 53.996 82.5859 53.464C82.9152 52.9193 83.3585 52.495 83.9159 52.191C84.4732 51.8743 85.0875 51.716 85.7589 51.716C86.1262 51.716 86.4619 51.7413 86.7659 51.792C87.0825 51.83 87.3992 51.8933 87.7159 51.982L87.2979 54.452C87.0699 54.3887 86.8482 54.3443 86.6329 54.319C86.4302 54.281 86.2465 54.262 86.0819 54.262C85.8159 54.262 85.5815 54.319 85.3789 54.433C85.1762 54.5343 85.0179 54.6863 84.9039 54.889C84.8025 55.079 84.7519 55.3007 84.7519 55.554C84.7519 55.8453 84.8152 56.105 84.9419 56.333C85.0812 56.561 85.2839 56.7573 85.5499 56.922C85.8285 57.074 86.1705 57.1943 86.5759 57.283L83.7829 58.138ZM82.0729 61.083L81.2179 58.594C81.8765 58.4167 82.5922 58.214 83.3649 57.986C84.1375 57.7453 84.9482 57.473 85.7969 57.169C86.6582 56.865 87.5322 56.5357 88.4189 56.181L89.4069 58.613C88.9002 58.8157 88.3365 59.0373 87.7159 59.278C87.0952 59.506 86.4492 59.734 85.7779 59.962C85.1065 60.19 84.4542 60.399 83.8209 60.589C83.1875 60.779 82.6049 60.9437 82.0729 61.083ZM95.9947 60.095C94.8167 60.095 93.9047 59.9747 93.2587 59.734C92.6253 59.4933 92.182 59.1197 91.9287 58.613C91.6753 58.0937 91.5297 57.4413 91.4917 56.656L91.0927 46.092H93.7527L94.1517 55.383C94.177 55.9657 94.2403 56.4027 94.3417 56.694C94.443 56.9853 94.633 57.1817 94.9117 57.283C95.203 57.3843 95.6273 57.435 96.1847 57.435C96.666 57.435 97.008 57.5617 97.2107 57.815C97.426 58.0557 97.5337 58.3597 97.5337 58.727C97.5337 59.1197 97.4007 59.449 97.1347 59.715C96.8687 59.9683 96.4887 60.095 95.9947 60.095ZM103.442 43.79V42.46L107.926 41.13V42.498L103.442 43.79ZM96.0205 60.095L96.2105 57.435C96.6285 57.435 96.9705 57.4033 97.2365 57.34C97.5025 57.264 97.7178 57.1057 97.8825 56.865C98.0598 56.6117 98.2118 56.238 98.3385 55.744C98.4778 55.2373 98.6298 54.5533 98.7945 53.692L101.265 54.148C101.214 54.4267 101.144 54.775 101.056 55.193C100.98 55.611 100.942 55.972 100.942 56.276C100.942 56.5167 100.986 56.7257 101.075 56.903C101.176 57.0677 101.341 57.2007 101.569 57.302C101.809 57.3907 102.139 57.435 102.557 57.435C102.886 57.435 103.165 57.4033 103.393 57.34C103.633 57.264 103.836 57.1057 104.001 56.865C104.178 56.6117 104.33 56.2253 104.457 55.706C104.596 55.174 104.729 54.4583 104.856 53.559L107.364 53.958C107.313 54.2493 107.262 54.5597 107.212 54.889C107.161 55.2183 107.117 55.5223 107.079 55.801C107.041 56.0797 107.022 56.3077 107.022 56.485C107.022 56.6497 107.066 56.808 107.155 56.96C107.256 57.0993 107.433 57.2133 107.687 57.302C107.953 57.3907 108.32 57.435 108.789 57.435C109.359 57.435 109.777 57.3147 110.043 57.074C110.321 56.8207 110.461 56.4407 110.461 55.934C110.461 55.6427 110.454 55.3323 110.442 55.003C110.429 54.661 110.404 54.281 110.366 53.863C110.34 53.4323 110.29 52.9447 110.214 52.4L112.665 52.21C112.753 53.2993 112.855 54.186 112.969 54.87C113.083 55.554 113.235 56.086 113.425 56.466C113.627 56.8333 113.893 57.0867 114.223 57.226C114.565 57.3653 115.008 57.435 115.553 57.435C116.034 57.435 116.376 57.5617 116.579 57.815C116.794 58.0557 116.902 58.3597 116.902 58.727C116.902 59.1197 116.769 59.449 116.503 59.715C116.249 59.9683 115.869 60.095 115.363 60.095C115.021 60.095 114.666 60.0633 114.299 60C113.931 59.9493 113.577 59.8417 113.235 59.677C112.893 59.4997 112.589 59.2463 112.323 58.917C112.057 58.5877 111.848 58.1507 111.696 57.606L112.038 57.72C111.86 58.3533 111.62 58.841 111.316 59.183C111.012 59.525 110.638 59.7657 110.195 59.905C109.751 60.0317 109.219 60.095 108.599 60.095C108.029 60.095 107.522 60.019 107.079 59.867C106.635 59.715 106.281 59.468 106.015 59.126C105.761 58.7713 105.628 58.2963 105.616 57.701H106.262C106.008 58.4103 105.717 58.936 105.388 59.278C105.058 59.62 104.659 59.8417 104.191 59.943C103.722 60.0443 103.133 60.095 102.424 60.095C101.993 60.095 101.569 60.0507 101.151 59.962C100.733 59.8607 100.359 59.639 100.03 59.297C99.7002 58.9423 99.4595 58.385 99.3075 57.625L100.334 57.587C100.068 58.3343 99.7192 58.8853 99.2885 59.24C98.8705 59.5947 98.3892 59.829 97.8445 59.943C97.2998 60.0443 96.6918 60.095 96.0205 60.095ZM105.768 48.334C105.451 48.334 105.172 48.2137 104.932 47.973C104.704 47.7323 104.59 47.4473 104.59 47.118C104.59 46.7887 104.704 46.51 104.932 46.282C105.172 46.054 105.451 45.94 105.768 45.94C106.097 45.94 106.376 46.054 106.604 46.282C106.832 46.51 106.946 46.7887 106.946 47.118C106.946 47.4473 106.832 47.7323 106.604 47.973C106.376 48.2137 106.097 48.334 105.768 48.334ZM104.248 50.842C103.931 50.842 103.652 50.7217 103.412 50.481C103.184 50.2403 103.07 49.9553 103.07 49.626C103.07 49.2967 103.184 49.018 103.412 48.79C103.652 48.562 103.931 48.448 104.248 48.448C104.577 48.448 104.856 48.562 105.084 48.79C105.312 49.018 105.426 49.2967 105.426 49.626C105.426 49.9553 105.312 50.2403 105.084 50.481C104.856 50.7217 104.577 50.842 104.248 50.842ZM107.193 50.842C106.876 50.842 106.597 50.7217 106.357 50.481C106.129 50.2403 106.015 49.9553 106.015 49.626C106.015 49.2967 106.129 49.018 106.357 48.79C106.597 48.562 106.876 48.448 107.193 48.448C107.522 48.448 107.801 48.562 108.029 48.79C108.257 49.018 108.371 49.2967 108.371 49.626C108.371 49.9553 108.257 50.2403 108.029 50.481C107.801 50.7217 107.522 50.842 107.193 50.842ZM118.436 49.258C117.828 49.258 117.366 49.0743 117.049 48.707C116.733 48.327 116.574 47.8837 116.574 47.377C116.574 46.9717 116.657 46.6043 116.821 46.275C116.999 45.933 117.233 45.6607 117.524 45.458C117.816 45.2553 118.151 45.154 118.531 45.154C118.886 45.154 119.196 45.2553 119.462 45.458C119.741 45.6607 119.956 45.9267 120.108 46.256C120.273 46.5727 120.355 46.9147 120.355 47.282C120.355 47.8267 120.178 48.2953 119.823 48.688C119.469 49.068 119.006 49.258 118.436 49.258ZM118.417 48.042C118.633 48.042 118.816 47.9723 118.968 47.833C119.133 47.6937 119.215 47.51 119.215 47.282C119.215 47.0413 119.133 46.845 118.968 46.693C118.804 46.5283 118.626 46.446 118.436 46.446C118.196 46.446 118.006 46.5283 117.866 46.693C117.74 46.8577 117.676 47.0477 117.676 47.263C117.676 47.491 117.746 47.681 117.885 47.833C118.025 47.9723 118.202 48.042 118.417 48.042ZM127.799 60.095C127.216 60.095 126.672 60.0507 126.165 59.962C125.671 59.8733 125.215 59.7213 124.797 59.506C124.379 59.278 124.005 58.9677 123.676 58.575C123.359 58.1823 123.093 57.6883 122.878 57.093L124.379 55.896C124.607 56.3013 124.886 56.618 125.215 56.846C125.544 57.0613 125.937 57.2133 126.393 57.302C126.849 57.3907 127.381 57.435 127.989 57.435C128.47 57.435 128.812 57.5617 129.015 57.815C129.218 58.0557 129.319 58.3597 129.319 58.727C129.319 59.1197 129.186 59.449 128.92 59.715C128.667 59.9683 128.293 60.095 127.799 60.095ZM115.373 60.095L115.563 57.435C116.247 57.435 116.925 57.397 117.596 57.321C118.267 57.245 118.92 57.131 119.553 56.979C120.186 56.827 120.788 56.6307 121.358 56.39C121.941 56.1493 122.485 55.858 122.992 55.516C122.612 55.288 122.2 55.0917 121.757 54.927C121.314 54.7623 120.839 54.642 120.332 54.566C119.838 54.4773 119.312 54.433 118.755 54.433C118.552 54.433 118.337 54.4393 118.109 54.452C117.894 54.4647 117.672 54.49 117.444 54.528C117.216 54.5533 116.988 54.5913 116.76 54.642L116.38 52.039C116.747 51.9377 117.134 51.868 117.539 51.83C117.957 51.7793 118.324 51.754 118.641 51.754C119.325 51.754 119.952 51.83 120.522 51.982C121.105 52.134 121.637 52.324 122.118 52.552C122.612 52.78 123.068 53.008 123.486 53.236C123.917 53.464 124.322 53.654 124.702 53.806C125.095 53.958 125.475 54.034 125.842 54.034H126.545L126.849 56.561C126.304 56.5863 125.791 56.694 125.31 56.884C124.841 57.0613 124.373 57.2893 123.904 57.568C123.448 57.834 122.954 58.1127 122.422 58.404C121.903 58.6953 121.314 58.9677 120.655 59.221C119.996 59.4743 119.236 59.6833 118.375 59.848C117.514 60.0127 116.513 60.095 115.373 60.095ZM130.494 43.79V42.46L134.978 41.13V42.498L130.494 43.79ZM127.805 60.095L127.995 57.454C128.489 57.4667 128.945 57.4603 129.363 57.435C129.781 57.4097 130.154 57.3717 130.484 57.321C130.826 57.2703 131.123 57.2133 131.377 57.15C131.643 57.0867 131.864 57.0297 132.042 56.979C132.472 56.8397 132.84 56.675 133.144 56.485C133.448 56.2823 133.682 56.0543 133.847 55.801C134.011 55.5477 134.094 55.2753 134.094 54.984C134.094 54.756 134.043 54.528 133.942 54.3C133.853 54.0593 133.72 53.863 133.543 53.711C133.365 53.559 133.156 53.483 132.916 53.483C132.688 53.483 132.479 53.5527 132.289 53.692C132.099 53.8313 131.947 54.0213 131.833 54.262C131.719 54.49 131.662 54.756 131.662 55.06C131.662 55.326 131.725 55.5793 131.852 55.82C131.978 56.048 132.156 56.2697 132.384 56.485C132.612 56.7003 132.884 56.903 133.201 57.093L130.674 58.062C130.395 57.796 130.129 57.511 129.876 57.207C129.635 56.903 129.432 56.561 129.268 56.181C129.116 55.7883 129.04 55.3513 129.04 54.87C129.04 54.2873 129.154 53.7553 129.382 53.274C129.61 52.7927 129.914 52.381 130.294 52.039C130.674 51.6843 131.098 51.412 131.567 51.222C132.035 51.032 132.504 50.937 132.973 50.937C133.733 50.937 134.391 51.1143 134.949 51.469C135.506 51.8237 135.937 52.286 136.241 52.856C136.557 53.426 136.716 54.0467 136.716 54.718C136.716 55.3387 136.602 55.896 136.374 56.39C136.146 56.8713 135.835 57.302 135.443 57.682C135.063 58.0493 134.638 58.3723 134.17 58.651C133.714 58.9297 133.251 59.164 132.783 59.354C132.555 59.4553 132.27 59.5503 131.928 59.639C131.586 59.7277 131.199 59.81 130.769 59.886C130.338 59.9493 129.876 60 129.382 60.038C128.888 60.076 128.362 60.095 127.805 60.095ZM137.837 60.095C137.102 60.095 136.38 60.057 135.671 59.981C134.961 59.905 134.303 59.791 133.695 59.639C133.099 59.487 132.58 59.3033 132.137 59.088L133.448 57.036C133.828 57.1373 134.271 57.2197 134.778 57.283C135.297 57.3337 135.835 57.3717 136.393 57.397C136.963 57.4223 137.507 57.435 138.027 57.435C138.508 57.435 138.85 57.5617 139.053 57.815C139.268 58.0557 139.376 58.3597 139.376 58.727C139.376 59.1197 139.243 59.449 138.977 59.715C138.711 59.9683 138.331 60.095 137.837 60.095ZM132.992 49.17C132.599 49.17 132.263 49.037 131.985 48.771C131.719 48.505 131.586 48.1757 131.586 47.783C131.586 47.3903 131.719 47.0547 131.985 46.776C132.263 46.4973 132.599 46.358 132.992 46.358C133.372 46.358 133.695 46.4973 133.961 46.776C134.239 47.0547 134.379 47.3903 134.379 47.783C134.379 48.1757 134.239 48.505 133.961 48.771C133.695 49.037 133.372 49.17 132.992 49.17ZM140.795 43.258C140.187 43.258 139.724 43.0743 139.408 42.707C139.091 42.327 138.933 41.8837 138.933 41.377C138.933 40.9717 139.015 40.6043 139.18 40.275C139.357 39.933 139.591 39.6607 139.883 39.458C140.174 39.2553 140.51 39.154 140.89 39.154C141.244 39.154 141.555 39.2553 141.821 39.458C142.099 39.6607 142.315 39.9267 142.467 40.256C142.631 40.5727 142.714 40.9147 142.714 41.282C142.714 41.8267 142.536 42.2953 142.182 42.688C141.827 43.068 141.365 43.258 140.795 43.258ZM140.776 42.042C140.991 42.042 141.175 41.9723 141.327 41.833C141.491 41.6937 141.574 41.51 141.574 41.282C141.574 41.0413 141.491 40.845 141.327 40.693C141.162 40.5283 140.985 40.446 140.795 40.446C140.554 40.446 140.364 40.5283 140.225 40.693C140.098 40.8577 140.035 41.0477 140.035 41.263C140.035 41.491 140.104 41.681 140.244 41.833C140.383 41.9723 140.56 42.042 140.776 42.042ZM137.861 60.095L138.051 57.435C138.634 57.435 139.052 57.378 139.305 57.264C139.559 57.1373 139.711 56.9093 139.761 56.58C139.812 56.238 139.825 55.744 139.799 55.098L139.457 46.092H142.136L142.516 55.288C142.542 56.0227 142.51 56.6877 142.421 57.283C142.345 57.8657 142.149 58.366 141.832 58.784C141.528 59.202 141.053 59.525 140.407 59.753C139.774 59.981 138.925 60.095 137.861 60.095ZM145.022 60L144.623 46.092H147.283L147.682 60H145.022Z" fill="#FBFBFB"/>
</svg>
