<svg width="334" height="118" viewBox="0 0 334 118" fill="none" xmlns="http://www.w3.org/2000/svg">
<rect width="334" height="118" rx="30" fill="#42C83C"/>
<path d="M23.9389 71.5455V74.7955H22.9233V71.5455H23.9389ZM26.3026 71.5455V74.7955H25.2869V71.5455H26.3026ZM29.5329 71.5455V81H28.3881V71.5455H29.5329ZM32.7702 76.7344V81H31.6808V73.9091H32.7333V75.017H32.8256C32.9918 74.657 33.2442 74.3677 33.5827 74.1491C33.9213 73.9276 34.3583 73.8168 34.8938 73.8168C35.3739 73.8168 35.794 73.9152 36.1541 74.1122C36.5142 74.3061 36.7943 74.6016 36.9943 74.9986C37.1944 75.3925 37.2944 75.8911 37.2944 76.4943V81H36.2049V76.5682C36.2049 76.0111 36.0603 75.5772 35.771 75.2663C35.4817 74.9524 35.0846 74.7955 34.5799 74.7955C34.2321 74.7955 33.9213 74.8709 33.6474 75.0217C33.3765 75.1725 33.1626 75.3925 33.0057 75.6818C32.8487 75.9711 32.7702 76.322 32.7702 76.7344ZM41.9628 81.1477C41.3719 81.1477 40.8502 80.9985 40.3978 80.6999C39.9454 80.3983 39.5915 79.9736 39.336 79.4258C39.0806 78.8749 38.9529 78.224 38.9529 77.473C38.9529 76.7282 39.0806 76.0819 39.336 75.5341C39.5915 74.9863 39.9469 74.5631 40.4024 74.2646C40.8579 73.966 41.3842 73.8168 41.9813 73.8168C42.4429 73.8168 42.8076 73.8937 43.0754 74.0476C43.3462 74.1984 43.5524 74.3707 43.694 74.5646C43.8386 74.7554 43.951 74.9124 44.031 75.0355H44.1233V71.5455H45.2128V81H44.1602V79.9105H44.031C43.951 80.0398 43.8371 80.2029 43.6894 80.3999C43.5416 80.5937 43.3308 80.7676 43.0569 80.9215C42.783 81.0723 42.4183 81.1477 41.9628 81.1477ZM42.1105 80.169C42.5476 80.169 42.9169 80.0552 43.2185 79.8274C43.5201 79.5966 43.7494 79.2781 43.9063 78.8718C44.0633 78.4625 44.1418 77.9901 44.1418 77.4545C44.1418 76.9252 44.0648 76.462 43.911 76.065C43.7571 75.6649 43.5293 75.354 43.2277 75.1325C42.9261 74.9078 42.5537 74.7955 42.1105 74.7955C41.6489 74.7955 41.2642 74.9139 40.9564 75.1509C40.6517 75.3848 40.4224 75.7034 40.2686 76.1065C40.1177 76.5066 40.0423 76.956 40.0423 77.4545C40.0423 77.9593 40.1193 78.4179 40.2732 78.8303C40.4301 79.2396 40.661 79.5658 40.9656 79.8089C41.2734 80.049 41.655 80.169 42.1105 80.169ZM50.3325 81.1477C49.6492 81.1477 49.0599 80.9969 48.5644 80.6953C48.0719 80.3906 47.6919 79.9659 47.4241 79.4212C47.1594 78.8733 47.0271 78.2363 47.0271 77.5099C47.0271 76.7836 47.1594 76.1435 47.4241 75.5895C47.6919 75.0324 48.0642 74.5985 48.5413 74.2876C49.0214 73.9737 49.5815 73.8168 50.2217 73.8168C50.591 73.8168 50.9557 73.8783 51.3158 74.0014C51.6759 74.1245 52.0036 74.3246 52.2991 74.6016C52.5945 74.8755 52.83 75.2386 53.0054 75.6911C53.1808 76.1435 53.2686 76.7005 53.2686 77.3622V77.8239H47.8026V76.8821H52.1606C52.1606 76.482 52.0806 76.125 51.9205 75.8111C51.7636 75.4972 51.5389 75.2494 51.2465 75.0678C50.9572 74.8862 50.6156 74.7955 50.2217 74.7955C49.7877 74.7955 49.4123 74.9032 49.0953 75.1186C48.7813 75.331 48.5397 75.608 48.3705 75.9496C48.2012 76.2912 48.1166 76.6574 48.1166 77.0483V77.6761C48.1166 78.2116 48.2089 78.6656 48.3936 79.038C48.5813 79.4073 48.8414 79.6889 49.1737 79.8828C49.5061 80.0736 49.8924 80.169 50.3325 80.169C50.6187 80.169 50.8772 80.129 51.108 80.049C51.3419 79.9659 51.5435 79.8428 51.7128 79.6797C51.8821 79.5135 52.0129 79.3073 52.1052 79.0611L53.1578 79.3565C53.047 79.7135 52.8608 80.0275 52.5992 80.2983C52.3376 80.5661 52.0144 80.7753 51.6297 80.9261C51.245 81.0739 50.8126 81.1477 50.3325 81.1477ZM57.8989 81.1477C57.2156 81.1477 56.6263 80.9969 56.1308 80.6953C55.6383 80.3906 55.2583 79.9659 54.9905 79.4212C54.7258 78.8733 54.5935 78.2363 54.5935 77.5099C54.5935 76.7836 54.7258 76.1435 54.9905 75.5895C55.2583 75.0324 55.6307 74.5985 56.1077 74.2876C56.5878 73.9737 57.1479 73.8168 57.7881 73.8168C58.1574 73.8168 58.5221 73.8783 58.8822 74.0014C59.2423 74.1245 59.57 74.3246 59.8655 74.6016C60.161 74.8755 60.3964 75.2386 60.5718 75.6911C60.7472 76.1435 60.835 76.7005 60.835 77.3622V77.8239H55.3691V76.8821H59.727C59.727 76.482 59.647 76.125 59.4869 75.8111C59.33 75.4972 59.1053 75.2494 58.8129 75.0678C58.5236 74.8862 58.182 74.7955 57.7881 74.7955C57.3541 74.7955 56.9787 74.9032 56.6617 75.1186C56.3477 75.331 56.1061 75.608 55.9369 75.9496C55.7676 76.2912 55.683 76.6574 55.683 77.0483V77.6761C55.683 78.2116 55.7753 78.6656 55.96 79.038C56.1477 79.4073 56.4078 79.6889 56.7401 79.8828C57.0725 80.0736 57.4588 80.169 57.8989 80.169C58.1851 80.169 58.4436 80.129 58.6744 80.049C58.9084 79.9659 59.1099 79.8428 59.2792 79.6797C59.4485 79.5135 59.5793 79.3073 59.6716 79.0611L60.7242 79.3565C60.6134 79.7135 60.4272 80.0275 60.1656 80.2983C59.904 80.5661 59.5808 80.7753 59.1961 80.9261C58.8114 81.0739 58.379 81.1477 57.8989 81.1477ZM65.1698 81.1477C64.5789 81.1477 64.0573 80.9985 63.6048 80.6999C63.1524 80.3983 62.7985 79.9736 62.5431 79.4258C62.2876 78.8749 62.1599 78.224 62.1599 77.473C62.1599 76.7282 62.2876 76.0819 62.5431 75.5341C62.7985 74.9863 63.154 74.5631 63.6095 74.2646C64.065 73.966 64.5912 73.8168 65.1883 73.8168C65.6499 73.8168 66.0146 73.8937 66.2824 74.0476C66.5532 74.1984 66.7594 74.3707 66.901 74.5646C67.0457 74.7554 67.158 74.9124 67.238 75.0355H67.3303V71.5455H68.4198V81H67.3673V79.9105H67.238C67.158 80.0398 67.0441 80.2029 66.8964 80.3999C66.7487 80.5937 66.5378 80.7676 66.2639 80.9215C65.99 81.0723 65.6253 81.1477 65.1698 81.1477ZM65.3176 80.169C65.7546 80.169 66.1239 80.0552 66.4255 79.8274C66.7271 79.5966 66.9564 79.2781 67.1134 78.8718C67.2703 78.4625 67.3488 77.9901 67.3488 77.4545C67.3488 76.9252 67.2719 76.462 67.118 76.065C66.9641 75.6649 66.7364 75.354 66.4347 75.1325C66.1331 74.9078 65.7607 74.7955 65.3176 74.7955C64.8559 74.7955 64.4712 74.9139 64.1634 75.1509C63.8588 75.3848 63.6295 75.7034 63.4756 76.1065C63.3248 76.5066 63.2494 76.956 63.2494 77.4545C63.2494 77.9593 63.3263 78.4179 63.4802 78.8303C63.6372 79.2396 63.868 79.5658 64.1727 79.8089C64.4804 80.049 64.8621 80.169 65.3176 80.169ZM72.1915 79.7074L72.1176 80.206C72.0653 80.5568 71.9853 80.9323 71.8776 81.3324C71.7729 81.7325 71.6637 82.1095 71.5498 82.4634C71.4359 82.8174 71.3421 83.099 71.2682 83.3082H70.4372C70.4772 83.1113 70.5296 82.8512 70.5942 82.5281C70.6588 82.2049 70.7235 81.8433 70.7881 81.4432C70.8558 81.0462 70.9112 80.6399 70.9543 80.2244L71.0097 79.7074H72.1915ZM78.014 81V71.5455H81.2086C81.9503 71.5455 82.5566 71.6793 83.0275 71.9471C83.5015 72.2118 83.8523 72.5703 84.0801 73.0227C84.3078 73.4751 84.4217 73.9799 84.4217 74.5369C84.4217 75.094 84.3078 75.6003 84.0801 76.0558C83.8554 76.5112 83.5076 76.8744 83.0368 77.1452C82.5659 77.413 81.9627 77.5469 81.2271 77.5469H78.9373V76.5312H81.1902C81.698 76.5312 82.1058 76.4435 82.4135 76.2681C82.7213 76.0927 82.9444 75.8557 83.0829 75.5572C83.2245 75.2556 83.2953 74.9155 83.2953 74.5369C83.2953 74.1584 83.2245 73.8198 83.0829 73.5213C82.9444 73.2228 82.7198 72.9889 82.4089 72.8196C82.0981 72.6473 81.6857 72.5611 81.1717 72.5611H79.1589V81H78.014ZM86.1183 81V73.9091H87.1708V74.9801H87.2447C87.3739 74.6293 87.6078 74.3446 87.9464 74.1261C88.2849 73.9076 88.6665 73.7983 89.0913 73.7983C89.1713 73.7983 89.2713 73.7998 89.3913 73.8029C89.5114 73.806 89.6022 73.8106 89.6637 73.8168V74.9247C89.6268 74.9155 89.5421 74.9016 89.4098 74.8832C89.2805 74.8616 89.1436 74.8509 88.9989 74.8509C88.6542 74.8509 88.3465 74.9232 88.0756 75.0678C87.8079 75.2094 87.5955 75.4064 87.4386 75.6587C87.2847 75.908 87.2077 76.1927 87.2077 76.5128V81H86.1183ZM93.0418 81.1662C92.5925 81.1662 92.1847 81.0816 91.8184 80.9123C91.4522 80.7399 91.1614 80.4922 90.9459 80.169C90.7305 79.8428 90.6228 79.4489 90.6228 78.9872C90.6228 78.581 90.7028 78.2517 90.8628 77.9993C91.0229 77.7438 91.2368 77.5438 91.5045 77.3991C91.7723 77.2545 92.0677 77.1468 92.3909 77.076C92.7171 77.0021 93.0449 76.9437 93.3742 76.9006C93.8051 76.8452 94.1544 76.8036 94.4221 76.7759C94.693 76.7451 94.8899 76.6944 95.0131 76.6236C95.1392 76.5528 95.2023 76.4297 95.2023 76.2543V76.2173C95.2023 75.7618 95.0777 75.4079 94.8284 75.1555C94.5822 74.9032 94.2082 74.777 93.7066 74.777C93.1865 74.777 92.7787 74.8909 92.4832 75.1186C92.1878 75.3464 91.98 75.5895 91.86 75.848L90.8259 75.4787C91.0106 75.0478 91.2568 74.7124 91.5645 74.4723C91.8754 74.2292 92.2139 74.0599 92.5802 73.9645C92.9495 73.866 93.3126 73.8168 93.6697 73.8168C93.8974 73.8168 94.159 73.8445 94.4545 73.8999C94.753 73.9522 95.0407 74.0614 95.3177 74.2276C95.5978 74.3938 95.8302 74.6446 96.0148 74.9801C96.1995 75.3156 96.2918 75.7649 96.2918 76.3281V81H95.2023V80.0398H95.1469C95.0731 80.1937 94.95 80.3583 94.7776 80.5337C94.6053 80.7092 94.376 80.8584 94.0898 80.9815C93.8035 81.1046 93.4542 81.1662 93.0418 81.1662ZM93.208 80.1875C93.6389 80.1875 94.002 80.1029 94.2975 79.9336C94.596 79.7643 94.8207 79.5458 94.9715 79.2781C95.1254 79.0103 95.2023 78.7287 95.2023 78.4332V77.4361C95.1562 77.4915 95.0546 77.5423 94.8976 77.5884C94.7438 77.6315 94.5653 77.67 94.3621 77.7038C94.1621 77.7346 93.9666 77.7623 93.7758 77.7869C93.5881 77.8085 93.4358 77.8269 93.3188 77.8423C93.0357 77.8793 92.771 77.9393 92.5248 78.0224C92.2816 78.1024 92.0847 78.224 91.9339 78.3871C91.7861 78.5471 91.7123 78.7656 91.7123 79.0426C91.7123 79.4212 91.8523 79.7074 92.1324 79.9013C92.4155 80.0921 92.7741 80.1875 93.208 80.1875ZM98.7282 83.6591C98.5435 83.6591 98.3788 83.6437 98.2342 83.6129C98.0895 83.5852 97.9895 83.5575 97.9341 83.5298L98.2111 82.5696C98.4758 82.6373 98.7097 82.6619 98.9128 82.6435C99.1159 82.625 99.296 82.5342 99.4529 82.3711C99.613 82.2111 99.7592 81.951 99.8915 81.5909L100.095 81.0369L97.4725 73.9091H98.6543L100.612 79.5597H100.686L102.643 73.9091H103.825L100.815 82.0341C100.679 82.4003 100.512 82.7035 100.312 82.9435C100.112 83.1867 99.8792 83.3667 99.6145 83.4837C99.3529 83.6006 99.0575 83.6591 98.7282 83.6591ZM107.982 81.1477C107.299 81.1477 106.709 80.9969 106.214 80.6953C105.721 80.3906 105.341 79.9659 105.074 79.4212C104.809 78.8733 104.676 78.2363 104.676 77.5099C104.676 76.7836 104.809 76.1435 105.074 75.5895C105.341 75.0324 105.714 74.5985 106.191 74.2876C106.671 73.9737 107.231 73.8168 107.871 73.8168C108.24 73.8168 108.605 73.8783 108.965 74.0014C109.325 74.1245 109.653 74.3246 109.949 74.6016C110.244 74.8755 110.479 75.2386 110.655 75.6911C110.83 76.1435 110.918 76.7005 110.918 77.3622V77.8239H105.452V76.8821H109.81C109.81 76.482 109.73 76.125 109.57 75.8111C109.413 75.4972 109.188 75.2494 108.896 75.0678C108.607 74.8862 108.265 74.7955 107.871 74.7955C107.437 74.7955 107.062 74.9032 106.745 75.1186C106.431 75.331 106.189 75.608 106.02 75.9496C105.851 76.2912 105.766 76.6574 105.766 77.0483V77.6761C105.766 78.2116 105.858 78.6656 106.043 79.038C106.231 79.4073 106.491 79.6889 106.823 79.8828C107.156 80.0736 107.542 80.169 107.982 80.169C108.268 80.169 108.527 80.129 108.757 80.049C108.991 79.9659 109.193 79.8428 109.362 79.6797C109.531 79.5135 109.662 79.3073 109.755 79.0611L110.807 79.3565C110.696 79.7135 110.51 80.0275 110.249 80.2983C109.987 80.5661 109.664 80.7753 109.279 80.9261C108.894 81.0739 108.462 81.1477 107.982 81.1477ZM112.575 81V73.9091H113.628V74.9801H113.702C113.831 74.6293 114.065 74.3446 114.403 74.1261C114.742 73.9076 115.124 73.7983 115.548 73.7983C115.628 73.7983 115.728 73.7998 115.848 73.8029C115.968 73.806 116.059 73.8106 116.121 73.8168V74.9247C116.084 74.9155 115.999 74.9016 115.867 74.8832C115.738 74.8616 115.601 74.8509 115.456 74.8509C115.111 74.8509 114.804 74.9232 114.533 75.0678C114.265 75.2094 114.053 75.4064 113.896 75.6587C113.742 75.908 113.665 76.1927 113.665 76.5128V81H112.575ZM121.216 81V71.5455H124.411C125.152 71.5455 125.759 71.6793 126.23 71.9471C126.704 72.2118 127.054 72.5703 127.282 73.0227C127.51 73.4751 127.624 73.9799 127.624 74.5369C127.624 75.094 127.51 75.6003 127.282 76.0558C127.058 76.5112 126.71 76.8744 126.239 77.1452C125.768 77.413 125.165 77.5469 124.429 77.5469H122.139V76.5312H124.392C124.9 76.5312 125.308 76.4435 125.616 76.2681C125.923 76.0927 126.147 75.8557 126.285 75.5572C126.427 75.2556 126.497 74.9155 126.497 74.5369C126.497 74.1584 126.427 73.8198 126.285 73.5213C126.147 73.2228 125.922 72.9889 125.611 72.8196C125.3 72.6473 124.888 72.5611 124.374 72.5611H122.361V81H121.216ZM129.32 81V73.9091H130.373V74.9801H130.447C130.576 74.6293 130.81 74.3446 131.149 74.1261C131.487 73.9076 131.869 73.7983 132.293 73.7983C132.373 73.7983 132.473 73.7998 132.593 73.8029C132.714 73.806 132.804 73.8106 132.866 73.8168V74.9247C132.829 74.9155 132.744 74.9016 132.612 74.8832C132.483 74.8616 132.346 74.8509 132.201 74.8509C131.856 74.8509 131.549 74.9232 131.278 75.0678C131.01 75.2094 130.798 75.4064 130.641 75.6587C130.487 75.908 130.41 76.1927 130.41 76.5128V81H129.32ZM136.822 81.1477C136.182 81.1477 135.62 80.9954 135.137 80.6907C134.657 80.386 134.282 79.9598 134.011 79.4119C133.743 78.8641 133.609 78.224 133.609 77.4915C133.609 76.7528 133.743 76.1081 134.011 75.5572C134.282 75.0063 134.657 74.5785 135.137 74.2738C135.62 73.9691 136.182 73.8168 136.822 73.8168C137.462 73.8168 138.022 73.9691 138.503 74.2738C138.986 74.5785 139.361 75.0063 139.629 75.5572C139.9 76.1081 140.035 76.7528 140.035 77.4915C140.035 78.224 139.9 78.8641 139.629 79.4119C139.361 79.9598 138.986 80.386 138.503 80.6907C138.022 80.9954 137.462 81.1477 136.822 81.1477ZM136.822 80.169C137.308 80.169 137.709 80.0444 138.022 79.7951C138.336 79.5458 138.569 79.218 138.72 78.8118C138.87 78.4055 138.946 77.9654 138.946 77.4915C138.946 77.0175 138.87 76.5759 138.72 76.1665C138.569 75.7572 138.336 75.4264 138.022 75.174C137.709 74.9216 137.308 74.7955 136.822 74.7955C136.336 74.7955 135.936 74.9216 135.622 75.174C135.308 75.4264 135.076 75.7572 134.925 76.1665C134.774 76.5759 134.699 77.0175 134.699 77.4915C134.699 77.9654 134.774 78.4055 134.925 78.8118C135.076 79.218 135.308 79.5458 135.622 79.7951C135.936 80.0444 136.336 80.169 136.822 80.169ZM142.788 76.7344V81H141.698V71.5455H142.788V75.017H142.88C143.046 74.6508 143.296 74.36 143.628 74.1445C143.963 73.926 144.41 73.8168 144.967 73.8168C145.45 73.8168 145.873 73.9137 146.236 74.1076C146.599 74.2984 146.881 74.5923 147.081 74.9893C147.284 75.3833 147.386 75.8849 147.386 76.4943V81H146.296V76.5682C146.296 76.005 146.15 75.5695 145.858 75.2617C145.568 74.9509 145.167 74.7955 144.653 74.7955C144.296 74.7955 143.976 74.8709 143.693 75.0217C143.413 75.1725 143.191 75.3925 143.028 75.6818C142.868 75.9711 142.788 76.322 142.788 76.7344ZM149.379 81V73.9091H150.468V81H149.379ZM149.933 72.7273C149.721 72.7273 149.537 72.6549 149.384 72.5103C149.233 72.3656 149.157 72.1918 149.157 71.9886C149.157 71.7855 149.233 71.6116 149.384 71.467C149.537 71.3223 149.721 71.25 149.933 71.25C150.145 71.25 150.327 71.3223 150.478 71.467C150.632 71.6116 150.709 71.7855 150.709 71.9886C150.709 72.1918 150.632 72.3656 150.478 72.5103C150.327 72.6549 150.145 72.7273 149.933 72.7273ZM152.612 81V71.5455H153.701V75.0355H153.794C153.874 74.9124 153.984 74.7554 154.126 74.5646C154.271 74.3707 154.477 74.1984 154.744 74.0476C155.015 73.8937 155.382 73.8168 155.843 73.8168C156.44 73.8168 156.967 73.966 157.422 74.2646C157.878 74.5631 158.233 74.9863 158.488 75.5341C158.744 76.0819 158.872 76.7282 158.872 77.473C158.872 78.224 158.744 78.8749 158.488 79.4258C158.233 79.9736 157.879 80.3983 157.427 80.6999C156.974 80.9985 156.453 81.1477 155.862 81.1477C155.406 81.1477 155.041 81.0723 154.768 80.9215C154.494 80.7676 154.283 80.5937 154.135 80.3999C153.987 80.2029 153.874 80.0398 153.794 79.9105H153.664V81H152.612ZM153.683 77.4545C153.683 77.9901 153.761 78.4625 153.918 78.8718C154.075 79.2781 154.304 79.5966 154.606 79.8274C154.908 80.0552 155.277 80.169 155.714 80.169C156.169 80.169 156.55 80.049 156.854 79.8089C157.162 79.5658 157.393 79.2396 157.547 78.8303C157.704 78.4179 157.782 77.9593 157.782 77.4545C157.782 76.956 157.705 76.5066 157.551 76.1065C157.401 75.7034 157.171 75.3848 156.863 75.1509C156.559 74.9139 156.176 74.7955 155.714 74.7955C155.271 74.7955 154.898 74.9078 154.597 75.1325C154.295 75.354 154.067 75.6649 153.914 76.065C153.76 76.462 153.683 76.9252 153.683 77.4545ZM160.538 81V73.9091H161.628V81H160.538ZM161.092 72.7273C160.88 72.7273 160.697 72.6549 160.543 72.5103C160.392 72.3656 160.317 72.1918 160.317 71.9886C160.317 71.7855 160.392 71.6116 160.543 71.467C160.697 71.3223 160.88 71.25 161.092 71.25C161.305 71.25 161.486 71.3223 161.637 71.467C161.791 71.6116 161.868 71.7855 161.868 71.9886C161.868 72.1918 161.791 72.3656 161.637 72.5103C161.486 72.6549 161.305 72.7273 161.092 72.7273ZM166.707 73.9091V74.8324H163.032V73.9091H166.707ZM164.103 72.2102H165.193V78.9688C165.193 79.2765 165.237 79.5073 165.327 79.6612C165.419 79.812 165.536 79.9136 165.677 79.9659C165.822 80.0152 165.974 80.0398 166.134 80.0398C166.255 80.0398 166.353 80.0336 166.43 80.0213C166.507 80.0059 166.568 79.9936 166.615 79.9844L166.836 80.9631C166.762 80.9908 166.659 81.0185 166.527 81.0462C166.395 81.0769 166.227 81.0923 166.024 81.0923C165.716 81.0923 165.414 81.0262 165.119 80.8938C164.826 80.7615 164.583 80.5599 164.389 80.2891C164.199 80.0182 164.103 79.6766 164.103 79.2642V72.2102ZM173.242 75.4972L172.263 75.7741C172.201 75.611 172.111 75.4525 171.991 75.2987C171.874 75.1417 171.714 75.0124 171.51 74.9109C171.307 74.8093 171.047 74.7585 170.73 74.7585C170.296 74.7585 169.935 74.8585 169.645 75.0586C169.359 75.2556 169.216 75.5064 169.216 75.8111C169.216 76.0819 169.314 76.2958 169.511 76.4528C169.708 76.6097 170.016 76.7405 170.435 76.8452L171.487 77.1037C172.121 77.2576 172.594 77.493 172.905 77.81C173.215 78.1239 173.371 78.5286 173.371 79.0241C173.371 79.4304 173.254 79.7936 173.02 80.1136C172.789 80.4337 172.466 80.6861 172.051 80.8707C171.635 81.0554 171.152 81.1477 170.601 81.1477C169.878 81.1477 169.279 80.9908 168.805 80.6768C168.331 80.3629 168.031 79.9044 167.905 79.3011L168.939 79.0426C169.037 79.4242 169.224 79.7105 169.498 79.9013C169.775 80.0921 170.136 80.1875 170.582 80.1875C171.09 80.1875 171.493 80.0798 171.792 79.8643C172.094 79.6458 172.244 79.3842 172.244 79.0795C172.244 78.8333 172.158 78.6271 171.986 78.4609C171.814 78.2917 171.549 78.1655 171.192 78.0824L170.01 77.8054C169.361 77.6515 168.884 77.413 168.579 77.0898C168.277 76.7636 168.127 76.3558 168.127 75.8665C168.127 75.4664 168.239 75.1125 168.464 74.8047C168.691 74.4969 169.001 74.2553 169.391 74.0799C169.785 73.9045 170.232 73.8168 170.73 73.8168C171.432 73.8168 171.983 73.9706 172.383 74.2784C172.786 74.5862 173.072 74.9924 173.242 75.4972ZM24.2898 87.5455V97H23.1449V87.5455H24.2898ZM26.4376 97V89.9091H27.4901V91.017H27.5825C27.7302 90.6385 27.9687 90.3446 28.298 90.1353C28.6273 89.9229 29.0228 89.8168 29.4845 89.8168C29.9523 89.8168 30.3416 89.9229 30.6524 90.1353C30.9664 90.3446 31.211 90.6385 31.3865 91.017H31.4603C31.6419 90.6508 31.9143 90.36 32.2774 90.1445C32.6406 89.926 33.0761 89.8168 33.5839 89.8168C34.2179 89.8168 34.7365 90.0153 35.1396 90.4123C35.5428 90.8062 35.7444 91.4202 35.7444 92.2543V97H34.6549V92.2543C34.6549 91.7311 34.5118 91.3571 34.2256 91.1325C33.9394 90.9078 33.6024 90.7955 33.2146 90.7955C32.716 90.7955 32.3298 90.9463 32.0558 91.2479C31.7819 91.5464 31.645 91.925 31.645 92.3835V97H30.537V92.1435C30.537 91.7403 30.4062 91.4156 30.1446 91.1694C29.883 90.9201 29.546 90.7955 29.1336 90.7955C28.8505 90.7955 28.5858 90.8709 28.3396 91.0217C28.0964 91.1725 27.8995 91.3817 27.7487 91.6495C27.6009 91.9142 27.5271 92.2204 27.5271 92.5682V97H26.4376ZM37.7364 97V89.9091H38.789V91.017H38.8813C39.029 90.6385 39.2675 90.3446 39.5969 90.1353C39.9262 89.9229 40.3216 89.8168 40.7833 89.8168C41.2511 89.8168 41.6404 89.9229 41.9513 90.1353C42.2652 90.3446 42.5099 90.6385 42.6853 91.017H42.7591C42.9407 90.6508 43.2131 90.36 43.5763 90.1445C43.9394 89.926 44.3749 89.8168 44.8827 89.8168C45.5167 89.8168 46.0353 90.0153 46.4385 90.4123C46.8416 90.8062 47.0432 91.4202 47.0432 92.2543V97H45.9537V92.2543C45.9537 91.7311 45.8106 91.3571 45.5244 91.1325C45.2382 90.9078 44.9012 90.7955 44.5134 90.7955C44.0148 90.7955 43.6286 90.9463 43.3547 91.2479C43.0808 91.5464 42.9438 91.925 42.9438 92.3835V97H41.8358V92.1435C41.8358 91.7403 41.705 91.4156 41.4434 91.1694C41.1818 90.9201 40.8448 90.7955 40.4324 90.7955C40.1493 90.7955 39.8846 90.8709 39.6384 91.0217C39.3953 91.1725 39.1983 91.3817 39.0475 91.6495C38.8998 91.9142 38.8259 92.2204 38.8259 92.5682V97H37.7364ZM51.9159 97.1477C51.2758 97.1477 50.7141 96.9954 50.2309 96.6907C49.7508 96.386 49.3753 95.9598 49.1045 95.4119C48.8367 94.8641 48.7029 94.224 48.7029 93.4915C48.7029 92.7528 48.8367 92.1081 49.1045 91.5572C49.3753 91.0063 49.7508 90.5785 50.2309 90.2738C50.7141 89.9691 51.2758 89.8168 51.9159 89.8168C52.5561 89.8168 53.1162 89.9691 53.5963 90.2738C54.0795 90.5785 54.455 91.0063 54.7227 91.5572C54.9936 92.1081 55.129 92.7528 55.129 93.4915C55.129 94.224 54.9936 94.8641 54.7227 95.4119C54.455 95.9598 54.0795 96.386 53.5963 96.6907C53.1162 96.9954 52.5561 97.1477 51.9159 97.1477ZM51.9159 96.169C52.4022 96.169 52.8023 96.0444 53.1162 95.7951C53.4301 95.5458 53.6625 95.218 53.8133 94.8118C53.9641 94.4055 54.0395 93.9654 54.0395 93.4915C54.0395 93.0175 53.9641 92.5759 53.8133 92.1665C53.6625 91.7572 53.4301 91.4264 53.1162 91.174C52.8023 90.9216 52.4022 90.7955 51.9159 90.7955C51.4297 90.7955 51.0296 90.9216 50.7156 91.174C50.4017 91.4264 50.1694 91.7572 50.0186 92.1665C49.8677 92.5759 49.7923 93.0175 49.7923 93.4915C49.7923 93.9654 49.8677 94.4055 50.0186 94.8118C50.1694 95.218 50.4017 95.5458 50.7156 95.7951C51.0296 96.0444 51.4297 96.169 51.9159 96.169ZM56.7921 97V89.9091H57.8446V90.9801H57.9185C58.0478 90.6293 58.2817 90.3446 58.6202 90.1261C58.9587 89.9076 59.3404 89.7983 59.7651 89.7983C59.8451 89.7983 59.9451 89.7998 60.0652 89.8029C60.1852 89.806 60.276 89.8106 60.3375 89.8168V90.9247C60.3006 90.9155 60.216 90.9016 60.0836 90.8832C59.9544 90.8616 59.8174 90.8509 59.6728 90.8509C59.3281 90.8509 59.0203 90.9232 58.7495 91.0678C58.4817 91.2094 58.2694 91.4064 58.1124 91.6587C57.9585 91.908 57.8816 92.1927 57.8816 92.5128V97H56.7921ZM63.7156 97.1662C63.2663 97.1662 62.8585 97.0816 62.4923 96.9123C62.126 96.7399 61.8352 96.4922 61.6198 96.169C61.4043 95.8428 61.2966 95.4489 61.2966 94.9872C61.2966 94.581 61.3766 94.2517 61.5367 93.9993C61.6967 93.7438 61.9106 93.5438 62.1784 93.3991C62.4461 93.2545 62.7416 93.1468 63.0647 93.076C63.391 93.0021 63.7187 92.9437 64.048 92.9006C64.4789 92.8452 64.8282 92.8036 65.096 92.7759C65.3668 92.7451 65.5638 92.6944 65.6869 92.6236C65.8131 92.5528 65.8762 92.4297 65.8762 92.2543V92.2173C65.8762 91.7618 65.7515 91.4079 65.5022 91.1555C65.256 90.9032 64.8821 90.777 64.3804 90.777C63.8603 90.777 63.4525 90.8909 63.157 91.1186C62.8616 91.3464 62.6539 91.5895 62.5338 91.848L61.4997 91.4787C61.6844 91.0478 61.9306 90.7124 62.2384 90.4723C62.5492 90.2292 62.8878 90.0599 63.254 89.9645C63.6233 89.866 63.9865 89.8168 64.3435 89.8168C64.5712 89.8168 64.8328 89.8445 65.1283 89.8999C65.4268 89.9522 65.7146 90.0614 65.9916 90.2276C66.2716 90.3938 66.504 90.6446 66.6887 90.9801C66.8733 91.3156 66.9656 91.7649 66.9656 92.3281V97H65.8762V96.0398H65.8208C65.7469 96.1937 65.6238 96.3583 65.4514 96.5337C65.2791 96.7092 65.0498 96.8584 64.7636 96.9815C64.4774 97.1046 64.128 97.1662 63.7156 97.1662ZM63.8818 96.1875C64.3127 96.1875 64.6759 96.1029 64.9713 95.9336C65.2699 95.7643 65.4945 95.5458 65.6453 95.2781C65.7992 95.0103 65.8762 94.7287 65.8762 94.4332V93.4361C65.83 93.4915 65.7284 93.5423 65.5715 93.5884C65.4176 93.6315 65.2391 93.67 65.036 93.7038C64.8359 93.7346 64.6405 93.7623 64.4497 93.7869C64.2619 93.8085 64.1096 93.8269 63.9926 93.8423C63.7095 93.8793 63.4448 93.9393 63.1986 94.0224C62.9555 94.1024 62.7585 94.224 62.6077 94.3871C62.46 94.5471 62.3861 94.7656 62.3861 95.0426C62.3861 95.4212 62.5261 95.7074 62.8062 95.9013C63.0893 96.0921 63.4479 96.1875 63.8818 96.1875ZM70.0437 87.5455V97H68.9542V87.5455H70.0437ZM72.0392 97V89.9091H73.1286V97H72.0392ZM72.5931 88.7273C72.3808 88.7273 72.1977 88.6549 72.0438 88.5103C71.893 88.3656 71.8176 88.1918 71.8176 87.9886C71.8176 87.7855 71.893 87.6116 72.0438 87.467C72.1977 87.3223 72.3808 87.25 72.5931 87.25C72.8055 87.25 72.9871 87.3223 73.1379 87.467C73.2918 87.6116 73.3687 87.7855 73.3687 87.9886C73.3687 88.1918 73.2918 88.3656 73.1379 88.5103C72.9871 88.6549 72.8055 88.7273 72.5931 88.7273ZM78.2079 89.9091V90.8324H74.5332V89.9091H78.2079ZM75.6042 88.2102H76.6937V94.9688C76.6937 95.2765 76.7383 95.5073 76.8276 95.6612C76.9199 95.812 77.0369 95.9136 77.1784 95.9659C77.3231 96.0152 77.4754 96.0398 77.6355 96.0398C77.7555 96.0398 77.854 96.0336 77.9309 96.0213C78.0079 96.0059 78.0694 95.9936 78.1156 95.9844L78.3372 96.9631C78.2633 96.9908 78.1602 97.0185 78.0279 97.0462C77.8955 97.0769 77.7278 97.0923 77.5247 97.0923C77.2169 97.0923 76.9153 97.0262 76.6199 96.8938C76.3275 96.7615 76.0843 96.5599 75.8904 96.2891C75.6996 96.0182 75.6042 95.6766 75.6042 95.2642V88.2102ZM80.5485 99.6591C80.3638 99.6591 80.1992 99.6437 80.0545 99.6129C79.9099 99.5852 79.8098 99.5575 79.7544 99.5298L80.0314 98.5696C80.2961 98.6373 80.53 98.6619 80.7331 98.6435C80.9363 98.625 81.1163 98.5342 81.2733 98.3711C81.4333 98.2111 81.5795 97.951 81.7118 97.5909L81.915 97.0369L79.2928 89.9091H80.4746L82.432 95.5597H82.5059L84.4632 89.9091H85.6451L82.6351 98.0341C82.4997 98.4003 82.332 98.7035 82.1319 98.9435C81.9319 99.1867 81.6995 99.3667 81.4348 99.4837C81.1732 99.6006 80.8778 99.6591 80.5485 99.6591ZM91.2749 97H90.0746L93.5462 87.5455H94.728L98.1996 97H96.9993L94.174 89.0412H94.1001L91.2749 97ZM91.718 93.3068H96.5561V94.3224H91.718V93.3068ZM100.614 92.7344V97H99.5245V89.9091H100.577V91.017H100.669C100.836 90.657 101.088 90.3677 101.426 90.1491C101.765 89.9276 102.202 89.8168 102.738 89.8168C103.218 89.8168 103.638 89.9152 103.998 90.1122C104.358 90.3061 104.638 90.6016 104.838 90.9986C105.038 91.3925 105.138 91.8911 105.138 92.4943V97H104.049V92.5682C104.049 92.0111 103.904 91.5772 103.615 91.2663C103.325 90.9524 102.928 90.7955 102.424 90.7955C102.076 90.7955 101.765 90.8709 101.491 91.0217C101.22 91.1725 101.006 91.3925 100.849 91.6818C100.692 91.9711 100.614 92.322 100.614 92.7344ZM109.807 97.1477C109.216 97.1477 108.694 96.9985 108.242 96.6999C107.789 96.3983 107.435 95.9736 107.18 95.4258C106.924 94.8749 106.797 94.224 106.797 93.473C106.797 92.7282 106.924 92.0819 107.18 91.5341C107.435 90.9863 107.791 90.5631 108.246 90.2646C108.702 89.966 109.228 89.8168 109.825 89.8168C110.287 89.8168 110.651 89.8937 110.919 90.0476C111.19 90.1984 111.396 90.3707 111.538 90.5646C111.682 90.7554 111.795 90.9124 111.875 91.0355H111.967V87.5455H113.057V97H112.004V95.9105H111.875C111.795 96.0398 111.681 96.2029 111.533 96.3999C111.385 96.5937 111.175 96.7676 110.901 96.9215C110.627 97.0723 110.262 97.1477 109.807 97.1477ZM109.954 96.169C110.391 96.169 110.761 96.0552 111.062 95.8274C111.364 95.5966 111.593 95.2781 111.75 94.8718C111.907 94.4625 111.986 93.9901 111.986 93.4545C111.986 92.9252 111.909 92.462 111.755 92.065C111.601 91.6649 111.373 91.354 111.071 91.1325C110.77 90.9078 110.397 90.7955 109.954 90.7955C109.493 90.7955 109.108 90.9139 108.8 91.1509C108.495 91.3848 108.266 91.7034 108.112 92.1065C107.961 92.5066 107.886 92.956 107.886 93.4545C107.886 93.9593 107.963 94.4179 108.117 94.8303C108.274 95.2396 108.505 95.5658 108.809 95.8089C109.117 96.049 109.499 96.169 109.954 96.169ZM120.725 97L118.139 87.5455H119.303L121.278 95.2457H121.371L123.384 87.5455H124.676L126.689 95.2457H126.781L128.757 87.5455H129.921L127.335 97H126.153L124.067 89.4659H123.993L121.906 97H120.725ZM130.755 97V89.9091H131.808V90.9801H131.881C132.011 90.6293 132.245 90.3446 132.583 90.1261C132.922 89.9076 133.303 89.7983 133.728 89.7983C133.808 89.7983 133.908 89.7998 134.028 89.8029C134.148 89.806 134.239 89.8106 134.3 89.8168V90.9247C134.263 90.9155 134.179 90.9016 134.047 90.8832C133.917 90.8616 133.78 90.8509 133.636 90.8509C133.291 90.8509 132.983 90.9232 132.712 91.0678C132.445 91.2094 132.232 91.4064 132.075 91.6587C131.921 91.908 131.844 92.1927 131.844 92.5128V97H130.755ZM138.257 97.1477C137.617 97.1477 137.055 96.9954 136.572 96.6907C136.092 96.386 135.716 95.9598 135.445 95.4119C135.178 94.8641 135.044 94.224 135.044 93.4915C135.044 92.7528 135.178 92.1081 135.445 91.5572C135.716 91.0063 136.092 90.5785 136.572 90.2738C137.055 89.9691 137.617 89.8168 138.257 89.8168C138.897 89.8168 139.457 89.9691 139.937 90.2738C140.42 90.5785 140.796 91.0063 141.064 91.5572C141.334 92.1081 141.47 92.7528 141.47 93.4915C141.47 94.224 141.334 94.8641 141.064 95.4119C140.796 95.9598 140.42 96.386 139.937 96.6907C139.457 96.9954 138.897 97.1477 138.257 97.1477ZM138.257 96.169C138.743 96.169 139.143 96.0444 139.457 95.7951C139.771 95.5458 140.003 95.218 140.154 94.8118C140.305 94.4055 140.38 93.9654 140.38 93.4915C140.38 93.0175 140.305 92.5759 140.154 92.1665C140.003 91.7572 139.771 91.4264 139.457 91.174C139.143 90.9216 138.743 90.7955 138.257 90.7955C137.77 90.7955 137.37 90.9216 137.056 91.174C136.743 91.4264 136.51 91.7572 136.359 92.1665C136.209 92.5759 136.133 93.0175 136.133 93.4915C136.133 93.9654 136.209 94.4055 136.359 94.8118C136.51 95.218 136.743 95.5458 137.056 95.7951C137.37 96.0444 137.77 96.169 138.257 96.169ZM144.222 92.7344V97H143.133V89.9091H144.185V91.017H144.278C144.444 90.657 144.696 90.3677 145.035 90.1491C145.373 89.9276 145.81 89.8168 146.346 89.8168C146.826 89.8168 147.246 89.9152 147.606 90.1122C147.966 90.3061 148.246 90.6016 148.446 90.9986C148.647 91.3925 148.747 91.8911 148.747 92.4943V97H147.657V92.5682C147.657 92.0111 147.512 91.5772 147.223 91.2663C146.934 90.9524 146.537 90.7955 146.032 90.7955C145.684 90.7955 145.373 90.8709 145.1 91.0217C144.829 91.1725 144.615 91.3925 144.458 91.6818C144.301 91.9711 144.222 92.322 144.222 92.7344ZM153.6 99.8068C153.073 99.8068 152.621 99.7391 152.242 99.6037C151.864 99.4714 151.548 99.2959 151.296 99.0774C151.047 98.862 150.848 98.6312 150.7 98.3849L151.568 97.7756C151.667 97.9048 151.791 98.0526 151.942 98.2188C152.093 98.388 152.299 98.5342 152.561 98.6573C152.826 98.7835 153.172 98.8466 153.6 98.8466C154.172 98.8466 154.644 98.7081 155.017 98.4311C155.389 98.1541 155.575 97.7202 155.575 97.1293V95.6889H155.483C155.403 95.8182 155.289 95.9782 155.142 96.169C154.997 96.3568 154.788 96.5245 154.514 96.6722C154.243 96.8169 153.877 96.8892 153.415 96.8892C152.843 96.8892 152.329 96.7538 151.873 96.483C151.421 96.2121 151.062 95.8182 150.797 95.3011C150.536 94.7841 150.405 94.1562 150.405 93.4176C150.405 92.6913 150.533 92.0588 150.788 91.5202C151.044 90.9786 151.399 90.56 151.855 90.2646C152.31 89.966 152.836 89.8168 153.433 89.8168C153.895 89.8168 154.261 89.8937 154.532 90.0476C154.806 90.1984 155.015 90.3707 155.16 90.5646C155.308 90.7554 155.422 90.9124 155.502 91.0355H155.612V89.9091H156.665V97.2031C156.665 97.8125 156.526 98.308 156.249 98.6896C155.976 99.0743 155.606 99.3559 155.142 99.5344C154.68 99.716 154.166 99.8068 153.6 99.8068ZM153.563 95.9105C154 95.9105 154.369 95.8105 154.671 95.6104C154.972 95.4104 155.202 95.1226 155.358 94.7472C155.515 94.3717 155.594 93.9223 155.594 93.3991C155.594 92.8883 155.517 92.4374 155.363 92.0465C155.209 91.6557 154.981 91.3494 154.68 91.1278C154.378 90.9062 154.006 90.7955 153.563 90.7955C153.101 90.7955 152.716 90.9124 152.409 91.1463C152.104 91.3802 151.875 91.6941 151.721 92.0881C151.57 92.482 151.494 92.919 151.494 93.3991C151.494 93.8916 151.571 94.3271 151.725 94.7056C151.882 95.0811 152.113 95.3765 152.418 95.592C152.726 95.8043 153.107 95.9105 153.563 95.9105ZM161.337 97.1477C160.746 97.1477 160.224 96.9985 159.772 96.6999C159.319 96.3983 158.965 95.9736 158.71 95.4258C158.455 94.8749 158.327 94.224 158.327 93.473C158.327 92.7282 158.455 92.0819 158.71 91.5341C158.965 90.9863 159.321 90.5631 159.776 90.2646C160.232 89.966 160.758 89.8168 161.355 89.8168C161.817 89.8168 162.182 89.8937 162.449 90.0476C162.72 90.1984 162.926 90.3707 163.068 90.5646C163.213 90.7554 163.325 90.9124 163.405 91.0355H163.497V87.5455H164.587V97H163.534V95.9105H163.405C163.325 96.0398 163.211 96.2029 163.063 96.3999C162.916 96.5937 162.705 96.7676 162.431 96.9215C162.157 97.0723 161.792 97.1477 161.337 97.1477ZM161.485 96.169C161.922 96.169 162.291 96.0552 162.593 95.8274C162.894 95.5966 163.123 95.2781 163.28 94.8718C163.437 94.4625 163.516 93.9901 163.516 93.4545C163.516 92.9252 163.439 92.462 163.285 92.065C163.131 91.6649 162.903 91.354 162.602 91.1325C162.3 90.9078 161.928 90.7955 161.485 90.7955C161.023 90.7955 160.638 90.9139 160.33 91.1509C160.026 91.3848 159.796 91.7034 159.643 92.1065C159.492 92.5066 159.416 92.956 159.416 93.4545C159.416 93.9593 159.493 94.4179 159.647 94.8303C159.804 95.2396 160.035 95.5658 160.34 95.8089C160.647 96.049 161.029 96.169 161.485 96.169ZM169.614 97.1477C168.974 97.1477 168.412 96.9954 167.929 96.6907C167.449 96.386 167.074 95.9598 166.803 95.4119C166.535 94.8641 166.401 94.224 166.401 93.4915C166.401 92.7528 166.535 92.1081 166.803 91.5572C167.074 91.0063 167.449 90.5785 167.929 90.2738C168.412 89.9691 168.974 89.8168 169.614 89.8168C170.254 89.8168 170.814 89.9691 171.295 90.2738C171.778 90.5785 172.153 91.0063 172.421 91.5572C172.692 92.1081 172.827 92.7528 172.827 93.4915C172.827 94.224 172.692 94.8641 172.421 95.4119C172.153 95.9598 171.778 96.386 171.295 96.6907C170.814 96.9954 170.254 97.1477 169.614 97.1477ZM169.614 96.169C170.1 96.169 170.501 96.0444 170.814 95.7951C171.128 95.5458 171.361 95.218 171.512 94.8118C171.662 94.4055 171.738 93.9654 171.738 93.4915C171.738 93.0175 171.662 92.5759 171.512 92.1665C171.361 91.7572 171.128 91.4264 170.814 91.174C170.501 90.9216 170.1 90.7955 169.614 90.7955C169.128 90.7955 168.728 90.9216 168.414 91.174C168.1 91.4264 167.868 91.7572 167.717 92.1665C167.566 92.5759 167.491 93.0175 167.491 93.4915C167.491 93.9654 167.566 94.4055 167.717 94.8118C167.868 95.218 168.1 95.5458 168.414 95.7951C168.728 96.0444 169.128 96.169 169.614 96.169ZM174.49 97V89.9091H175.58V97H174.49ZM175.044 88.7273C174.832 88.7273 174.649 88.6549 174.495 88.5103C174.344 88.3656 174.269 88.1918 174.269 87.9886C174.269 87.7855 174.344 87.6116 174.495 87.467C174.649 87.3223 174.832 87.25 175.044 87.25C175.257 87.25 175.438 87.3223 175.589 87.467C175.743 87.6116 175.82 87.7855 175.82 87.9886C175.82 88.1918 175.743 88.3656 175.589 88.5103C175.438 88.6549 175.257 88.7273 175.044 88.7273ZM178.665 92.7344V97H177.575V89.9091H178.628V91.017H178.72C178.886 90.657 179.139 90.3677 179.477 90.1491C179.816 89.9276 180.253 89.8168 180.788 89.8168C181.268 89.8168 181.689 89.9152 182.049 90.1122C182.409 90.3061 182.689 90.6016 182.889 90.9986C183.089 91.3925 183.189 91.8911 183.189 92.4943V97H182.099V92.5682C182.099 92.0111 181.955 91.5772 181.665 91.2663C181.376 90.9524 180.979 90.7955 180.474 90.7955C180.127 90.7955 179.816 90.8709 179.542 91.0217C179.271 91.1725 179.057 91.3925 178.9 91.6818C178.743 91.9711 178.665 92.322 178.665 92.7344ZM188.042 99.8068C187.516 99.8068 187.063 99.7391 186.685 99.6037C186.306 99.4714 185.991 99.2959 185.738 99.0774C185.489 98.862 185.291 98.6312 185.143 98.3849L186.011 97.7756C186.109 97.9048 186.234 98.0526 186.385 98.2188C186.535 98.388 186.742 98.5342 187.003 98.6573C187.268 98.7835 187.614 98.8466 188.042 98.8466C188.614 98.8466 189.087 98.7081 189.459 98.4311C189.832 98.1541 190.018 97.7202 190.018 97.1293V95.6889H189.926C189.845 95.8182 189.732 95.9782 189.584 96.169C189.439 96.3568 189.23 96.5245 188.956 96.6722C188.685 96.8169 188.319 96.8892 187.857 96.8892C187.285 96.8892 186.771 96.7538 186.315 96.483C185.863 96.2121 185.504 95.8182 185.24 95.3011C184.978 94.7841 184.847 94.1562 184.847 93.4176C184.847 92.6913 184.975 92.0588 185.231 91.5202C185.486 90.9786 185.841 90.56 186.297 90.2646C186.752 89.966 187.279 89.8168 187.876 89.8168C188.337 89.8168 188.704 89.8937 188.975 90.0476C189.248 90.1984 189.458 90.3707 189.602 90.5646C189.75 90.7554 189.864 90.9124 189.944 91.0355H190.055V89.9091H191.107V97.2031C191.107 97.8125 190.969 98.308 190.692 98.6896C190.418 99.0743 190.049 99.3559 189.584 99.5344C189.122 99.716 188.608 99.8068 188.042 99.8068ZM188.005 95.9105C188.442 95.9105 188.811 95.8105 189.113 95.6104C189.415 95.4104 189.644 95.1226 189.801 94.7472C189.958 94.3717 190.036 93.9223 190.036 93.3991C190.036 92.8883 189.959 92.4374 189.805 92.0465C189.652 91.6557 189.424 91.3494 189.122 91.1278C188.821 90.9062 188.448 90.7955 188.005 90.7955C187.543 90.7955 187.159 90.9124 186.851 91.1463C186.546 91.3802 186.317 91.6941 186.163 92.0881C186.012 92.482 185.937 92.919 185.937 93.3991C185.937 93.8916 186.014 94.3271 186.168 94.7056C186.325 95.0811 186.555 95.3765 186.86 95.592C187.168 95.8043 187.55 95.9105 188.005 95.9105ZM193.896 97.0739C193.668 97.0739 193.473 96.9923 193.309 96.8292C193.146 96.6661 193.065 96.4706 193.065 96.2429C193.065 96.0152 193.146 95.8197 193.309 95.6566C193.473 95.4935 193.668 95.4119 193.896 95.4119C194.123 95.4119 194.319 95.4935 194.482 95.6566C194.645 95.8197 194.727 96.0152 194.727 96.2429C194.727 96.3937 194.688 96.5322 194.611 96.6584C194.537 96.7846 194.437 96.8861 194.311 96.9631C194.188 97.0369 194.05 97.0739 193.896 97.0739ZM196.557 87.5455V90.7955H195.541V87.5455H196.557ZM198.921 87.5455V90.7955H197.905V87.5455H198.921Z" fill="#FBFBFB"/>
<path d="M23.5823 41.477V40.147L28.0663 38.817V40.185L23.5823 41.477ZM19.494 32.468C19.494 32.0247 19.551 31.4737 19.665 30.815C19.7917 30.1437 20.064 29.3457 20.482 28.421L22.819 29.238C22.6037 29.8333 22.439 30.3463 22.325 30.777C22.211 31.195 22.154 31.6067 22.154 32.012C22.154 32.582 22.2807 33.0697 22.534 33.475C22.8 33.8803 23.1863 34.1907 23.693 34.406C24.2123 34.6213 24.8457 34.729 25.593 34.729C26.353 34.729 26.9863 34.6467 27.493 34.482C27.9997 34.3173 28.3987 34.083 28.69 33.779C28.9813 33.4877 29.1903 33.1457 29.317 32.753C29.4437 32.3603 29.507 31.936 29.507 31.48C29.507 31.1253 29.4627 30.7263 29.374 30.283C29.298 29.8397 29.184 29.3583 29.032 28.839C28.88 28.307 28.709 27.7497 28.519 27.167L31.179 26.483C31.3057 26.9643 31.407 27.376 31.483 27.718C31.5717 28.06 31.6477 28.345 31.711 28.573C31.7743 28.7883 31.825 28.9657 31.863 29.105C31.9897 29.485 32.1607 29.77 32.376 29.96C32.5913 30.15 32.87 30.2767 33.212 30.34C33.5667 30.4033 33.991 30.435 34.485 30.435C34.9663 30.435 35.3083 30.5617 35.511 30.815C35.7137 31.0557 35.815 31.3597 35.815 31.727C35.815 32.1197 35.682 32.449 35.416 32.715C35.15 32.9683 34.7763 33.095 34.295 33.095C33.8643 33.095 33.4337 33.038 33.003 32.924C32.585 32.7973 32.224 32.5947 31.92 32.316C31.616 32.0373 31.4197 31.6637 31.331 31.195L32.034 31.955C32.0087 32.8163 31.8377 33.5827 31.521 34.254C31.2043 34.9253 30.761 35.4953 30.191 35.964C29.6337 36.4327 28.956 36.7873 28.158 37.028C27.3727 37.2687 26.4923 37.389 25.517 37.389C24.6683 37.389 23.8767 37.294 23.142 37.104C22.42 36.9267 21.7803 36.6353 21.223 36.23C20.6783 35.8373 20.254 35.3307 19.95 34.71C19.646 34.0893 19.494 33.342 19.494 32.468ZM25.688 25.248C25.2953 25.248 24.9597 25.115 24.681 24.849C24.415 24.583 24.282 24.2537 24.282 23.861C24.282 23.4683 24.415 23.1327 24.681 22.854C24.9597 22.5753 25.2953 22.436 25.688 22.436C26.068 22.436 26.391 22.5753 26.657 22.854C26.9357 23.1327 27.075 23.4683 27.075 23.861C27.075 24.2537 26.9357 24.583 26.657 24.849C26.391 25.115 26.068 25.248 25.688 25.248ZM37.1643 21.79V20.46L41.6483 19.13V20.498L37.1643 21.79ZM34.2891 33.095L34.4791 30.435C35.0744 30.435 35.5304 30.4287 35.8471 30.416C36.1764 30.4033 36.4234 30.3907 36.5881 30.378C36.7527 30.3527 36.8921 30.3337 37.0061 30.321C36.8794 30.1943 36.7147 30.0107 36.5121 29.77C36.3094 29.5293 36.1257 29.219 35.9611 28.839C35.8091 28.459 35.7331 28.003 35.7331 27.471C35.7331 26.6983 35.9294 26.0207 36.3221 25.438C36.7274 24.8553 37.2721 24.3993 37.9561 24.07C38.6401 23.7407 39.4064 23.576 40.2551 23.576C40.6604 23.576 41.0341 23.6013 41.3761 23.652C41.7307 23.7027 42.0854 23.7787 42.4401 23.88L42.0221 26.407C41.7687 26.3437 41.5027 26.293 41.2241 26.255C40.9454 26.217 40.6984 26.198 40.4831 26.198C40.0651 26.198 39.6977 26.2677 39.3811 26.407C39.0771 26.5337 38.8364 26.7173 38.6591 26.958C38.4944 27.186 38.4121 27.4647 38.4121 27.794C38.4121 28.0093 38.4501 28.212 38.5261 28.402C38.6147 28.592 38.7224 28.763 38.8491 28.915C38.9757 29.067 39.1151 29.2 39.2671 29.314C39.4191 29.428 39.5647 29.523 39.7041 29.599C39.8561 29.6623 39.9827 29.7067 40.0841 29.732C40.4007 29.6433 40.6731 29.5673 40.9011 29.504C41.1417 29.428 41.3697 29.3583 41.5851 29.295C41.8131 29.219 42.0601 29.124 42.3261 29.01C42.5921 28.896 42.9214 28.7567 43.3141 28.592L44.1691 31.1C43.1051 31.6193 42.0664 32.0247 41.0531 32.316C40.0397 32.6073 38.9884 32.81 37.8991 32.924C36.8097 33.038 35.6064 33.095 34.2891 33.095ZM52.5886 26.676L52.4556 23.294H54.1846L54.3176 26.676H52.5886ZM49.7567 32.468C49.7567 32.1767 49.782 31.8347 49.8327 31.442C49.8834 31.0493 49.9784 30.606 50.1177 30.112C50.257 29.6053 50.466 29.0417 50.7447 28.421L53.0817 29.238C52.9424 29.6307 52.822 29.9917 52.7207 30.321C52.6194 30.6377 52.5434 30.9353 52.4927 31.214C52.442 31.48 52.4167 31.746 52.4167 32.012C52.4167 32.43 52.5054 32.8037 52.6827 33.133C52.8727 33.475 53.145 33.76 53.4997 33.988C53.8544 34.2287 54.285 34.4123 54.7917 34.539C55.311 34.6657 55.9064 34.729 56.5777 34.729C57.2744 34.729 57.895 34.6973 58.4397 34.634C58.997 34.5707 59.4657 34.4757 59.8457 34.349C60.2384 34.2223 60.536 34.0577 60.7387 33.855C60.9414 33.665 61.0427 33.4433 61.0427 33.19C61.0427 33.076 60.9984 32.9683 60.9097 32.867C60.8337 32.7657 60.7007 32.658 60.5107 32.544C60.3334 32.43 60.0927 32.3097 59.7887 32.183C59.4974 32.0563 59.1427 31.917 58.7247 31.765L59.3517 29.086C59.8964 29.314 60.4094 29.5167 60.8907 29.694C61.3847 29.8587 61.8534 29.998 62.2967 30.112C62.74 30.2133 63.158 30.2957 63.5507 30.359C63.9434 30.4097 64.3107 30.435 64.6527 30.435C65.134 30.435 65.476 30.5617 65.6787 30.815C65.8814 31.0557 65.9827 31.3597 65.9827 31.727C65.9827 32.1197 65.8497 32.449 65.5837 32.715C65.3177 32.9683 64.944 33.095 64.4627 33.095C64.3614 33.095 64.26 33.095 64.1587 33.095C64.07 33.095 63.975 33.095 63.8737 33.095C63.785 33.095 63.69 33.095 63.5887 33.095C63.614 33.2217 63.6267 33.3293 63.6267 33.418C63.6267 33.5193 63.6267 33.6143 63.6267 33.703C63.6267 34.121 63.481 34.5453 63.1897 34.976C62.911 35.4067 62.474 35.8057 61.8787 36.173C61.2834 36.5403 60.5234 36.8317 59.5987 37.047C58.6867 37.275 57.5974 37.389 56.3307 37.389C54.9627 37.389 53.7847 37.2117 52.7967 36.857C51.8214 36.515 51.0677 35.9767 50.5357 35.242C50.0164 34.52 49.7567 33.5953 49.7567 32.468ZM68.3547 21.79V20.46L72.8387 19.13V20.498L68.3547 21.79ZM70.843 37.18C69.9437 37.18 69.114 36.9837 68.354 36.591C67.594 36.211 66.986 35.6093 66.53 34.786C66.074 33.9753 65.846 32.9303 65.846 31.651C65.846 30.5237 65.979 29.4913 66.245 28.554C66.511 27.604 66.872 26.787 67.328 26.103C67.7967 25.4063 68.3223 24.868 68.905 24.488C69.4877 24.108 70.102 23.918 70.748 23.918C71.2293 23.918 71.6853 24.0573 72.116 24.336C72.5467 24.602 72.9013 24.9947 73.18 25.514C73.4587 26.0333 73.598 26.6667 73.598 27.414C73.598 27.8193 73.5157 28.2753 73.351 28.782C73.1863 29.2887 72.895 29.77 72.477 30.226C72.0717 30.6693 71.5017 31.024 70.767 31.29L71.223 29.789C71.6283 29.941 72.0653 30.0677 72.534 30.169C73.0027 30.2577 73.4903 30.3273 73.997 30.378C74.5037 30.416 74.9977 30.435 75.479 30.435C75.9603 30.435 76.3023 30.5617 76.505 30.815C76.7203 31.0557 76.828 31.3597 76.828 31.727C76.828 32.1197 76.695 32.449 76.429 32.715C76.163 32.9683 75.783 33.095 75.289 33.095C74.9343 33.095 74.529 33.076 74.073 33.038C73.6297 33 73.1927 32.9493 72.762 32.886C72.344 32.8227 71.9893 32.753 71.698 32.677L73.769 32.202C74.0603 32.5567 74.2567 32.9493 74.358 33.38C74.472 33.8233 74.4847 34.2667 74.396 34.71C74.32 35.1533 74.1363 35.5587 73.845 35.926C73.5663 36.306 73.1737 36.61 72.667 36.838C72.173 37.066 71.565 37.18 70.843 37.18ZM64.459 33.095L64.649 30.435C64.8643 30.435 65.1493 30.435 65.504 30.435C65.8713 30.435 66.1943 30.435 66.473 30.435L66.682 32.848C66.3147 32.924 65.9157 32.981 65.485 33.019C65.067 33.0697 64.725 33.095 64.459 33.095ZM70.767 34.558C71.0203 34.558 71.2293 34.5137 71.394 34.425C71.5587 34.349 71.679 34.235 71.755 34.083C71.8437 33.9437 71.888 33.7853 71.888 33.608C71.888 33.456 71.8373 33.285 71.736 33.095C71.6347 32.905 71.4447 32.7403 71.166 32.601C70.8873 32.449 70.4883 32.373 69.969 32.373C69.779 32.373 69.57 32.3857 69.342 32.411C69.1267 32.4363 68.8923 32.4743 68.639 32.525C68.3857 32.563 68.126 32.6137 67.86 32.677L67.955 30.397C68.4363 30.359 68.867 30.283 69.247 30.169C69.627 30.0423 69.9437 29.8777 70.197 29.675C70.463 29.4597 70.6657 29.2 70.805 28.896C70.9443 28.592 71.014 28.2373 71.014 27.832C71.014 27.6293 70.995 27.433 70.957 27.243C70.919 27.0403 70.862 26.8757 70.786 26.749C70.71 26.6097 70.615 26.54 70.501 26.54C70.2983 26.54 70.083 26.654 69.855 26.882C69.627 27.11 69.4117 27.4393 69.209 27.87C69.0063 28.288 68.8353 28.7947 68.696 29.39C68.5693 29.9727 68.506 30.625 68.506 31.347C68.506 31.955 68.5693 32.468 68.696 32.886C68.8227 33.2913 68.9937 33.6143 69.209 33.855C69.4243 34.1083 69.665 34.2857 69.931 34.387C70.2097 34.501 70.4883 34.558 70.767 34.558ZM78.8035 19.258C78.1955 19.258 77.7332 19.0743 77.4165 18.707C77.0999 18.327 76.9415 17.8837 76.9415 17.377C76.9415 16.9717 77.0239 16.6043 77.1885 16.275C77.3659 15.933 77.6002 15.6607 77.8915 15.458C78.1829 15.2553 78.5185 15.154 78.8985 15.154C79.2532 15.154 79.5635 15.2553 79.8295 15.458C80.1082 15.6607 80.3235 15.9267 80.4755 16.256C80.6402 16.5727 80.7225 16.9147 80.7225 17.282C80.7225 17.8267 80.5452 18.2953 80.1905 18.688C79.8359 19.068 79.3735 19.258 78.8035 19.258ZM78.7845 18.042C78.9999 18.042 79.1835 17.9723 79.3355 17.833C79.5002 17.6937 79.5825 17.51 79.5825 17.282C79.5825 17.0413 79.5002 16.845 79.3355 16.693C79.1709 16.5283 78.9935 16.446 78.8035 16.446C78.5629 16.446 78.3729 16.5283 78.2335 16.693C78.1069 16.8577 78.0435 17.0477 78.0435 17.263C78.0435 17.491 78.1132 17.681 78.2525 17.833C78.3919 17.9723 78.5692 18.042 78.7845 18.042ZM75.3135 33.095L75.5035 30.435C75.9848 30.435 76.3648 30.3907 76.6435 30.302C76.9348 30.2133 77.1628 30.036 77.3275 29.77C77.5048 29.4913 77.6505 29.086 77.7645 28.554C77.8911 28.022 78.0178 27.3127 78.1445 26.426L80.6335 26.844C80.6081 27.034 80.5701 27.2557 80.5195 27.509C80.4815 27.7623 80.4435 28.022 80.4055 28.288C80.3801 28.5413 80.3675 28.782 80.3675 29.01C80.3675 29.314 80.4308 29.5737 80.5575 29.789C80.6968 29.9917 80.9375 30.15 81.2795 30.264C81.6341 30.378 82.1408 30.435 82.7995 30.435C83.2808 30.435 83.6228 30.5617 83.8255 30.815C84.0281 31.0557 84.1295 31.3597 84.1295 31.727C84.1295 32.1197 83.9965 32.449 83.7305 32.715C83.4771 32.9683 83.1035 33.095 82.6095 33.095C81.7355 33.095 81.0261 33.0127 80.4815 32.848C79.9368 32.6833 79.5315 32.4047 79.2655 32.012C78.9995 31.6193 78.8285 31.081 78.7525 30.397H79.6645C79.4365 31.005 79.1705 31.4927 78.8665 31.86C78.5625 32.2147 78.2205 32.4807 77.8405 32.658C77.4605 32.8353 77.0551 32.9493 76.6245 33C76.2065 33.0633 75.7695 33.095 75.3135 33.095ZM79.1895 24.488C78.7968 24.488 78.4611 24.355 78.1825 24.089C77.9165 23.823 77.7835 23.4937 77.7835 23.101C77.7835 22.7083 77.9165 22.3727 78.1825 22.094C78.4611 21.8153 78.7968 21.676 79.1895 21.676C79.5695 21.676 79.8925 21.8153 80.1585 22.094C80.4371 22.3727 80.5765 22.7083 80.5765 23.101C80.5765 23.4937 80.4371 23.823 80.1585 24.089C79.8925 24.355 79.5695 24.488 79.1895 24.488ZM83.5881 17.79V16.46L88.0721 15.13V16.498L83.5881 17.79ZM82.6055 33.095L82.7955 30.435C83.5555 30.435 84.1381 30.397 84.5435 30.321C84.9488 30.245 85.2275 30.1057 85.3795 29.903C85.5441 29.6877 85.6265 29.3837 85.6265 28.991C85.6265 28.6363 85.5758 28.212 85.4745 27.718C85.3858 27.224 85.2655 26.711 85.1135 26.179C84.9741 25.647 84.8221 25.1593 84.6575 24.716L87.2795 23.994C87.4441 24.4247 87.6025 24.925 87.7545 25.495C87.9065 26.065 88.0331 26.654 88.1345 27.262C88.2358 27.8573 88.2865 28.4337 88.2865 28.991C88.2865 29.8523 88.1471 30.5553 87.8685 31.1C87.5898 31.632 87.1971 32.0437 86.6905 32.335C86.1965 32.6263 85.6011 32.829 84.9045 32.943C84.2078 33.0443 83.4415 33.095 82.6055 33.095ZM87.7545 22.455C87.3871 22.455 87.0705 22.3283 86.8045 22.075C86.5511 21.809 86.4245 21.4987 86.4245 21.144C86.4245 20.7767 86.5511 20.46 86.8045 20.194C87.0705 19.928 87.3871 19.795 87.7545 19.795C88.1091 19.795 88.4131 19.928 88.6665 20.194C88.9198 20.46 89.0465 20.7767 89.0465 21.144C89.0465 21.4987 88.9198 21.809 88.6665 22.075C88.4131 22.3283 88.1091 22.455 87.7545 22.455ZM84.4675 22.436C84.1001 22.436 83.7835 22.3093 83.5175 22.056C83.2641 21.79 83.1375 21.4797 83.1375 21.125C83.1375 20.7577 83.2641 20.441 83.5175 20.175C83.7835 19.909 84.1001 19.776 84.4675 19.776C84.8221 19.776 85.1261 19.909 85.3795 20.175C85.6328 20.441 85.7595 20.7577 85.7595 21.125C85.7595 21.4797 85.6328 21.79 85.3795 22.056C85.1261 22.3093 84.8221 22.436 84.4675 22.436ZM95.6487 16.79V15.46L100.133 14.13V15.498L95.6487 16.79ZM98.0681 33.057C97.3587 33.057 96.7191 32.9367 96.1491 32.696C95.5917 32.4427 95.1484 32.069 94.8191 31.575C94.5024 31.0683 94.3441 30.4413 94.3441 29.694C94.3441 28.9467 94.5974 28.117 95.1041 27.205C95.6107 26.2803 96.4594 25.3557 97.6501 24.431L97.4601 26.179L95.7501 24.849L97.5361 22.664C98.4987 23.3987 99.3221 24.1143 100.006 24.811C100.703 25.495 101.235 26.198 101.602 26.92C101.969 27.642 102.153 28.4083 102.153 29.219C102.153 29.6117 102.09 30.036 101.963 30.492C101.836 30.9353 101.621 31.3533 101.317 31.746C101.013 32.126 100.595 32.4427 100.063 32.696C99.5437 32.9367 98.8787 33.057 98.0681 33.057ZM98.2771 30.435C98.5937 30.435 98.8471 30.3717 99.0371 30.245C99.2397 30.1183 99.3917 29.9537 99.4931 29.751C99.5944 29.5483 99.6451 29.333 99.6451 29.105C99.6451 28.877 99.5944 28.63 99.4931 28.364C99.3917 28.098 99.1954 27.8003 98.9041 27.471C98.6127 27.1417 98.1821 26.7617 97.6121 26.331L99.0561 26.141C98.5367 26.4957 98.1187 26.8567 97.8021 27.224C97.4854 27.5913 97.2574 27.946 97.1181 28.288C96.9914 28.6173 96.9281 28.9213 96.9281 29.2C96.9281 29.6053 97.0611 29.9157 97.3271 30.131C97.5931 30.3337 97.9097 30.435 98.2771 30.435ZM99.8351 21.239C99.4677 21.239 99.1511 21.1123 98.8851 20.859C98.6317 20.593 98.5051 20.2827 98.5051 19.928C98.5051 19.5607 98.6317 19.244 98.8851 18.978C99.1511 18.712 99.4677 18.579 99.8351 18.579C100.19 18.579 100.494 18.712 100.747 18.978C101 19.244 101.127 19.5607 101.127 19.928C101.127 20.2827 101 20.593 100.747 20.859C100.494 21.1123 100.19 21.239 99.8351 21.239ZM96.5481 21.22C96.1807 21.22 95.8641 21.0933 95.5981 20.84C95.3447 20.574 95.2181 20.2637 95.2181 19.909C95.2181 19.5417 95.3447 19.225 95.5981 18.959C95.8641 18.693 96.1807 18.56 96.5481 18.56C96.9027 18.56 97.2067 18.693 97.4601 18.959C97.7134 19.225 97.8401 19.5417 97.8401 19.909C97.8401 20.2637 97.7134 20.574 97.4601 20.84C97.2067 21.0933 96.9027 21.22 96.5481 21.22ZM109.843 16.79V15.46L114.327 14.13V15.498L109.843 16.79ZM115.694 33.095C114.808 33.095 114.073 33.0317 113.49 32.905C112.92 32.7657 112.471 32.5567 112.141 32.278C111.812 31.9867 111.578 31.6257 111.438 31.195C111.299 30.7643 111.217 30.2513 111.191 29.656L110.792 19.092H113.452L113.851 28.383C113.877 28.9657 113.94 29.4027 114.041 29.694C114.143 29.9853 114.333 30.1817 114.611 30.283C114.903 30.3843 115.327 30.435 115.884 30.435C116.366 30.435 116.708 30.5617 116.91 30.815C117.126 31.0557 117.233 31.3597 117.233 31.727C117.233 32.1197 117.1 32.449 116.834 32.715C116.568 32.9683 116.188 33.095 115.694 33.095ZM105.472 33.095C105.13 33.095 104.782 33.0633 104.427 33C104.085 32.9493 103.845 32.9113 103.705 32.886L104.066 30.131C104.94 30.245 105.789 30.2703 106.612 30.207C107.448 30.131 108.196 29.9283 108.854 29.599C109.526 29.257 110.058 28.763 110.45 28.117C110.843 27.4583 111.039 26.6097 111.039 25.571L112.065 28.554C111.913 29.4153 111.654 30.131 111.286 30.701C110.932 31.2583 110.507 31.7017 110.013 32.031C109.532 32.3477 109.019 32.582 108.474 32.734C107.93 32.886 107.398 32.981 106.878 33.019C106.359 33.0697 105.89 33.095 105.472 33.095ZM109.595 30.492C109.405 30.1247 109.133 29.694 108.778 29.2C108.424 28.6933 107.987 28.136 107.467 27.528C106.961 26.9073 106.378 26.255 105.719 25.571C105.061 24.8743 104.332 24.1587 103.534 23.424L105.187 21.619C106.365 22.7337 107.322 23.671 108.056 24.431C108.791 25.191 109.374 25.8307 109.804 26.35C110.248 26.8567 110.583 27.2937 110.811 27.661C111.052 28.0283 111.255 28.383 111.419 28.725L109.595 30.492ZM126.264 18.79V17.46L130.748 16.13V17.498L126.264 18.79ZM127.343 22.771C126.875 22.771 126.558 22.6063 126.393 22.277C126.229 21.9477 126.146 21.5867 126.146 21.194C126.146 21.0547 126.153 20.909 126.165 20.757C126.191 20.5923 126.222 20.4087 126.26 20.206L127.4 19.94C127.362 20.1553 127.331 20.358 127.305 20.548C127.293 20.7253 127.286 20.8837 127.286 21.023C127.286 21.1877 127.318 21.3143 127.381 21.403C127.445 21.4917 127.533 21.536 127.647 21.536C127.799 21.536 127.92 21.4473 128.008 21.27C128.11 21.0927 128.16 20.7507 128.16 20.244V19.674L129.262 19.332V20.491C129.262 20.6303 129.288 20.7443 129.338 20.833C129.402 20.9217 129.497 20.966 129.623 20.966C129.801 20.966 129.921 20.9153 129.984 20.814C130.06 20.7 130.098 20.567 130.098 20.415C130.098 20.1997 130.073 19.9843 130.022 19.769C129.972 19.541 129.902 19.3193 129.813 19.104L130.858 18.838C130.985 19.0787 131.086 19.3573 131.162 19.674C131.251 19.978 131.295 20.2567 131.295 20.51C131.295 20.928 131.175 21.308 130.934 21.65C130.694 21.9793 130.301 22.144 129.756 22.144C129.414 22.144 129.123 22.0427 128.882 21.84C128.642 21.6247 128.521 21.3713 128.521 21.08L128.958 21.251C128.958 21.6817 128.806 22.0427 128.502 22.334C128.211 22.6253 127.825 22.771 127.343 22.771ZM134.764 33.095C134.118 33.095 133.497 33.038 132.902 32.924C132.307 32.7973 131.768 32.6327 131.287 32.43C130.818 32.2273 130.432 31.9993 130.128 31.746L131.838 29.903C132.294 30.093 132.763 30.2323 133.244 30.321C133.725 30.397 134.295 30.435 134.954 30.435C135.435 30.435 135.777 30.5617 135.98 30.815C136.195 31.0557 136.303 31.3597 136.303 31.727C136.303 32.1197 136.17 32.449 135.904 32.715C135.638 32.9683 135.258 33.095 134.764 33.095ZM125.549 33.342C124.371 33.342 123.389 33.2913 122.604 33.19C121.831 33.0887 121.204 32.943 120.723 32.753C120.242 32.563 119.862 32.335 119.583 32.069C119.304 31.803 119.076 31.5117 118.899 31.195L119.431 31.043C119.114 31.651 118.753 32.1007 118.348 32.392C117.943 32.6833 117.518 32.8733 117.075 32.962C116.632 33.0507 116.176 33.095 115.707 33.095L115.897 30.435C116.29 30.435 116.6 30.3717 116.828 30.245C117.056 30.1183 117.24 29.9093 117.379 29.618C117.531 29.3267 117.67 28.9403 117.797 28.459C117.924 27.9777 118.076 27.3887 118.253 26.692L120.666 27.281C120.577 27.623 120.501 27.9207 120.438 28.174C120.387 28.4273 120.343 28.649 120.305 28.839C120.28 29.0163 120.267 29.162 120.267 29.276C120.267 29.5167 120.324 29.732 120.438 29.922C120.552 30.0993 120.774 30.245 121.103 30.359C121.432 30.4603 121.914 30.5427 122.547 30.606C123.193 30.6567 124.035 30.682 125.074 30.682C126.176 30.682 127.094 30.644 127.829 30.568C128.564 30.4793 129.146 30.359 129.577 30.207C130.02 30.0423 130.337 29.846 130.527 29.618C130.717 29.3773 130.812 29.105 130.812 28.801C130.812 28.5603 130.755 28.3387 130.641 28.136C130.54 27.9207 130.369 27.7433 130.128 27.604C129.887 27.4647 129.577 27.395 129.197 27.395C128.741 27.395 128.279 27.509 127.81 27.737C127.354 27.9523 126.904 28.2437 126.461 28.611C126.018 28.9657 125.593 29.3647 125.188 29.808C124.795 30.2513 124.441 30.6947 124.124 31.138L121.274 30.815C121.768 30.017 122.325 29.2507 122.946 28.516C123.567 27.7813 124.232 27.1353 124.941 26.578C125.65 26.008 126.385 25.5583 127.145 25.229C127.905 24.8997 128.678 24.735 129.463 24.735C130.312 24.735 131.034 24.8997 131.629 25.229C132.224 25.5583 132.68 26.0143 132.997 26.597C133.314 27.1797 133.472 27.851 133.472 28.611C133.472 29.5357 133.206 30.3527 132.674 31.062C132.155 31.7713 131.312 32.3287 130.147 32.734C128.994 33.1393 127.462 33.342 125.549 33.342ZM134.781 33.095L134.971 30.435C135.554 30.435 135.972 30.378 136.225 30.264C136.479 30.1373 136.631 29.9093 136.681 29.58C136.732 29.238 136.745 28.744 136.719 28.098L136.377 19.092H139.056L139.436 28.288C139.462 29.0227 139.43 29.6877 139.341 30.283C139.265 30.8657 139.069 31.366 138.752 31.784C138.448 32.202 137.973 32.525 137.327 32.753C136.694 32.981 135.845 33.095 134.781 33.095ZM141.942 33L141.543 19.092H144.203L144.602 33H141.942ZM153.873 15.79V14.46L158.357 13.13V14.498L153.873 15.79ZM154.953 20.771C154.484 20.771 154.167 20.6063 154.003 20.277C153.838 19.9477 153.756 19.5867 153.756 19.194C153.756 19.0547 153.762 18.909 153.775 18.757C153.8 18.5923 153.832 18.4087 153.87 18.206L155.01 17.94C154.972 18.1553 154.94 18.358 154.915 18.548C154.902 18.7253 154.896 18.8837 154.896 19.023C154.896 19.1877 154.927 19.3143 154.991 19.403C155.054 19.4917 155.143 19.536 155.257 19.536C155.409 19.536 155.529 19.4473 155.618 19.27C155.719 19.0927 155.77 18.7507 155.77 18.244V17.674L156.872 17.332V18.491C156.872 18.6303 156.897 18.7443 156.948 18.833C157.011 18.9217 157.106 18.966 157.233 18.966C157.41 18.966 157.53 18.9153 157.594 18.814C157.67 18.7 157.708 18.567 157.708 18.415C157.708 18.1997 157.682 17.9843 157.632 17.769C157.581 17.541 157.511 17.3193 157.423 17.104L158.468 16.838C158.594 17.0787 158.696 17.3573 158.772 17.674C158.86 17.978 158.905 18.2567 158.905 18.51C158.905 18.928 158.784 19.308 158.544 19.65C158.303 19.9793 157.91 20.144 157.366 20.144C157.024 20.144 156.732 20.0427 156.492 19.84C156.251 19.6247 156.131 19.3713 156.131 19.08L156.568 19.251C156.568 19.6817 156.416 20.0427 156.112 20.334C155.82 20.6253 155.434 20.771 154.953 20.771ZM150.509 32.468C150.509 32.1767 150.534 31.8347 150.585 31.442C150.635 31.0493 150.73 30.606 150.87 30.112C151.009 29.6053 151.218 29.0417 151.497 28.421L153.834 29.238C153.694 29.6307 153.574 29.9917 153.473 30.321C153.371 30.6377 153.295 30.9353 153.245 31.214C153.194 31.48 153.169 31.746 153.169 32.012C153.169 32.6327 153.308 33.1393 153.587 33.532C153.878 33.9373 154.283 34.235 154.803 34.425C155.322 34.6277 155.924 34.729 156.608 34.729C157.393 34.729 158.039 34.6213 158.546 34.406C159.052 34.2033 159.445 33.931 159.724 33.589C160.002 33.2597 160.199 32.8987 160.313 32.506C160.427 32.1007 160.484 31.708 160.484 31.328C160.484 30.8087 160.395 30.1943 160.218 29.485C160.04 28.763 159.724 27.9523 159.268 27.053L161.719 26.008C161.972 26.4513 162.206 26.9707 162.422 27.566C162.637 28.1487 162.808 28.7567 162.935 29.39C163.074 30.0233 163.144 30.625 163.144 31.195C163.144 31.7017 163.08 32.24 162.954 32.81C162.827 33.3673 162.612 33.9183 162.308 34.463C162.016 35.0077 161.617 35.4953 161.111 35.926C160.604 36.3693 159.977 36.724 159.23 36.99C158.482 37.256 157.589 37.389 156.551 37.389C155.715 37.389 154.929 37.294 154.195 37.104C153.473 36.9267 152.833 36.6417 152.276 36.249C151.731 35.8563 151.3 35.3433 150.984 34.71C150.667 34.0893 150.509 33.342 150.509 32.468ZM156.703 25.248C156.31 25.248 155.974 25.115 155.696 24.849C155.43 24.583 155.297 24.2537 155.297 23.861C155.297 23.4683 155.43 23.1327 155.696 22.854C155.974 22.5753 156.31 22.436 156.703 22.436C157.083 22.436 157.406 22.5753 157.672 22.854C157.95 23.1327 158.09 23.4683 158.09 23.861C158.09 24.2537 157.95 24.583 157.672 24.849C157.406 25.115 157.083 25.248 156.703 25.248ZM165.136 42.477V41.147L169.62 39.817V41.185L165.136 42.477ZM165.618 33L165.219 19.092H167.879L168.278 33H165.618ZM165.504 38.871L165.181 37.541C165.624 37.465 165.953 37.4017 166.169 37.351C166.397 37.3003 166.637 37.2433 166.891 37.18L166.701 37.655C166.371 37.541 166.055 37.313 165.751 36.971C165.459 36.6417 165.314 36.2617 165.314 35.831C165.314 35.375 165.415 35.0077 165.618 34.729C165.82 34.4503 166.08 34.2477 166.397 34.121C166.713 33.9943 167.043 33.931 167.385 33.931C167.575 33.931 167.752 33.9437 167.917 33.969C168.094 33.9943 168.252 34.0323 168.392 34.083L168.24 35.451C168.113 35.4257 167.986 35.4003 167.86 35.375C167.733 35.3497 167.594 35.337 167.442 35.337C167.277 35.337 167.125 35.3877 166.986 35.489C166.859 35.603 166.796 35.736 166.796 35.888C166.796 36.1033 166.872 36.2933 167.024 36.458C167.176 36.6227 167.353 36.7493 167.556 36.838C167.771 36.9393 167.948 36.9963 168.088 37.009L167.043 37.123C167.385 37.0343 167.708 36.9393 168.012 36.838C168.316 36.7493 168.601 36.6543 168.867 36.553L169.247 37.826C168.93 37.94 168.556 38.0603 168.126 38.187C167.708 38.3263 167.271 38.453 166.815 38.567C166.371 38.681 165.934 38.7823 165.504 38.871ZM20.1682 64.477V63.147L24.6522 61.817V63.185L20.1682 64.477ZM19.304 60.389L18.335 58.033C19.0063 57.805 19.6207 57.539 20.178 57.235C20.748 56.931 21.242 56.5953 21.66 56.228C22.078 55.8607 22.401 55.4617 22.629 55.031C22.857 54.5877 22.971 54.1127 22.971 53.606C22.971 53.074 22.8507 52.4913 22.61 51.858C22.3693 51.2247 22.078 50.5787 21.736 49.92L24.225 48.723C24.453 49.1157 24.6493 49.54 24.814 49.996C24.9913 50.4393 25.137 50.8383 25.251 51.193C25.365 51.5477 25.441 51.7883 25.479 51.915C25.6563 52.523 25.897 52.9283 26.201 53.131C26.5177 53.3337 27.0243 53.435 27.721 53.435C28.2023 53.435 28.5443 53.5617 28.747 53.815C28.9623 54.0557 29.07 54.3597 29.07 54.727C29.07 55.1197 28.937 55.449 28.671 55.715C28.405 55.9683 28.025 56.095 27.531 56.095C27.0117 56.095 26.5557 56.019 26.163 55.867C25.7703 55.715 25.4537 55.4933 25.213 55.202C24.985 54.9107 24.8393 54.5687 24.776 54.176L25.479 54.575C25.403 55.2463 25.1813 55.8797 24.814 56.475C24.4593 57.083 23.997 57.6403 23.427 58.147C22.857 58.6537 22.2173 59.097 21.508 59.477C20.7987 59.857 20.064 60.161 19.304 60.389ZM27.7756 41.79V40.46L32.2596 39.13V40.498L27.7756 41.79ZM27.5537 56.095L27.7437 53.435H30.4037C30.847 53.435 31.1827 53.4097 31.4107 53.359C31.6514 53.3083 31.816 53.2323 31.9047 53.131C31.9934 53.017 32.0377 52.884 32.0377 52.732C32.0377 52.504 31.9364 52.238 31.7337 51.934C31.5437 51.63 31.2904 51.3133 30.9737 50.984C30.6697 50.6547 30.3467 50.3253 30.0047 49.996C29.6627 49.654 29.3334 49.3373 29.0167 49.046C28.7127 48.7547 28.4594 48.5013 28.2567 48.286C28.0667 48.058 27.9717 47.8933 27.9717 47.792C27.9717 47.4373 27.9907 47.1587 28.0287 46.956C28.0667 46.7407 28.1174 46.5697 28.1807 46.443C28.2567 46.3163 28.339 46.2087 28.4277 46.12C28.643 45.9047 28.966 45.664 29.3967 45.398C29.8274 45.1193 30.334 44.828 30.9167 44.524C31.512 44.2073 32.177 43.878 32.9117 43.536C33.6464 43.1813 34.4254 42.814 35.2487 42.434L36.3317 44.752C35.4957 45.1193 34.7484 45.4613 34.0897 45.778C33.4437 46.082 32.861 46.367 32.3417 46.633C31.835 46.8863 31.379 47.127 30.9737 47.355C30.581 47.583 30.2264 47.7983 29.9097 48.001L30.0997 46.595C30.6444 47.0637 31.1384 47.507 31.5817 47.925C32.025 48.343 32.4367 48.761 32.8167 49.179C33.1967 49.597 33.5514 50.0277 33.8807 50.471C34.2227 50.9143 34.552 51.3957 34.8687 51.915C35.1474 52.3583 35.4324 52.6877 35.7237 52.903C36.0277 53.1183 36.319 53.264 36.5977 53.34C36.889 53.4033 37.1487 53.435 37.3767 53.435C37.858 53.435 38.2 53.5617 38.4027 53.815C38.618 54.0557 38.7257 54.3597 38.7257 54.727C38.7257 55.1197 38.5927 55.449 38.3267 55.715C38.0607 55.9683 37.6807 56.095 37.1867 56.095C36.7687 56.095 36.319 56.0253 35.8377 55.886C35.3564 55.734 34.9067 55.4933 34.4887 55.164C34.0707 54.8347 33.754 54.385 33.5387 53.815L34.5647 53.891C34.3747 54.2963 34.1467 54.6447 33.8807 54.936C33.6274 55.2147 33.3234 55.4427 32.9687 55.62C32.614 55.7847 32.2087 55.905 31.7527 55.981C31.2967 56.057 30.7837 56.095 30.2137 56.095H27.5537ZM37.2021 56.095L37.3921 53.435C37.8735 53.435 38.2535 53.3907 38.5321 53.302C38.8235 53.2133 39.0515 53.036 39.2161 52.77C39.3935 52.4913 39.5391 52.086 39.6531 51.554C39.7798 51.022 39.9065 50.3127 40.0331 49.426L42.5221 49.844C42.4968 50.034 42.4588 50.2557 42.4081 50.509C42.3701 50.7623 42.3321 51.022 42.2941 51.288C42.2688 51.5413 42.2561 51.782 42.2561 52.01C42.2561 52.314 42.3195 52.5737 42.4461 52.789C42.5855 52.9917 42.8261 53.15 43.1681 53.264C43.5228 53.378 44.0295 53.435 44.6881 53.435C45.1695 53.435 45.5115 53.5617 45.7141 53.815C45.9168 54.0557 46.0181 54.3597 46.0181 54.727C46.0181 55.1197 45.8851 55.449 45.6191 55.715C45.3658 55.9683 44.9921 56.095 44.4981 56.095C43.6241 56.095 42.9148 56.0127 42.3701 55.848C41.8255 55.6833 41.4201 55.4047 41.1541 55.012C40.8881 54.6193 40.7171 54.081 40.6411 53.397H41.5531C41.3251 54.005 41.0591 54.4927 40.7551 54.86C40.4511 55.2147 40.1091 55.4807 39.7291 55.658C39.3491 55.8353 38.9438 55.9493 38.5131 56C38.0951 56.0633 37.6581 56.095 37.2021 56.095ZM41.0781 47.488C40.6855 47.488 40.3498 47.355 40.0711 47.089C39.8051 46.823 39.6721 46.4937 39.6721 46.101C39.6721 45.7083 39.8051 45.3727 40.0711 45.094C40.3498 44.8153 40.6855 44.676 41.0781 44.676C41.4581 44.676 41.7811 44.8153 42.0471 45.094C42.3258 45.3727 42.4651 45.7083 42.4651 46.101C42.4651 46.4937 42.3258 46.823 42.0471 47.089C41.7811 47.355 41.4581 47.488 41.0781 47.488ZM47.3455 45.942L47.1365 44.745C47.8078 44.745 48.4348 44.65 49.0175 44.46C49.6001 44.2573 50.0688 44.004 50.4235 43.7C50.7781 43.396 50.9555 43.0983 50.9555 42.807C50.9555 42.6297 50.9048 42.4713 50.8035 42.332C50.7021 42.1927 50.5565 42.123 50.3665 42.123C50.2018 42.123 50.0561 42.1863 49.9295 42.313C49.8028 42.4397 49.7395 42.598 49.7395 42.788C49.7395 43.0287 49.8345 43.244 50.0245 43.434C50.2145 43.6113 50.4425 43.757 50.7085 43.871L49.8915 44.593C49.5115 44.4157 49.1821 44.1813 48.9035 43.89C48.6248 43.586 48.4855 43.1997 48.4855 42.731C48.4855 42.2117 48.6628 41.781 49.0175 41.439C49.3848 41.097 49.8408 40.926 50.3855 40.926C50.9808 40.926 51.4305 41.116 51.7345 41.496C52.0385 41.876 52.1905 42.3067 52.1905 42.788C52.1905 43.396 51.9688 43.928 51.5255 44.384C51.0948 44.84 50.5121 45.201 49.7775 45.467C49.0555 45.733 48.2448 45.8913 47.3455 45.942ZM44.4941 56.095L44.6841 53.435C45.0008 53.435 45.2415 53.3717 45.4061 53.245C45.5708 53.1183 45.7355 52.8967 45.9001 52.58C46.0648 52.2633 46.2928 51.8327 46.5841 51.288C46.9008 50.68 47.2301 50.1733 47.5721 49.768C47.9141 49.35 48.2561 49.0207 48.5981 48.78C48.9528 48.5267 49.3011 48.3493 49.6431 48.248C49.9978 48.134 50.3461 48.077 50.6881 48.077C51.1568 48.077 51.5938 48.1783 51.9991 48.381C52.4171 48.571 52.8161 48.9067 53.1961 49.388C53.5761 49.8567 53.9371 50.5027 54.2791 51.326C54.5198 51.896 54.7605 52.333 55.0011 52.637C55.2418 52.941 55.4888 53.15 55.7421 53.264C56.0081 53.378 56.2741 53.435 56.5401 53.435C57.0215 53.435 57.3635 53.5617 57.5661 53.815C57.7688 54.0557 57.8701 54.3597 57.8701 54.727C57.8701 55.1197 57.7371 55.449 57.4711 55.715C57.2051 55.9683 56.8315 56.095 56.3501 56.095C55.7295 56.095 55.1658 55.9937 54.6591 55.791C54.1525 55.5883 53.7535 55.2843 53.4621 54.879L54.0131 54.461C53.8991 54.727 53.7281 55.0057 53.5001 55.297C53.2848 55.5883 52.9998 55.8353 52.6451 56.038C52.3031 56.2407 51.8915 56.342 51.4101 56.342C51.0935 56.342 50.7198 56.2787 50.2891 56.152C49.8711 56.038 49.4341 55.8417 48.9781 55.563C48.5348 55.2717 48.1231 54.879 47.7431 54.385C47.5025 54.8283 47.2365 55.1767 46.9451 55.43C46.6538 55.6707 46.3118 55.8417 45.9191 55.943C45.5265 56.0443 45.0515 56.095 44.4941 56.095ZM48.8451 52.143C48.9718 52.333 49.1238 52.523 49.3011 52.713C49.4785 52.903 49.6748 53.074 49.8901 53.226C50.1055 53.3653 50.3335 53.4793 50.5741 53.568C50.8275 53.6567 51.0745 53.701 51.3151 53.701C51.5685 53.701 51.7775 53.606 51.9421 53.416C52.1068 53.2133 52.1131 52.9157 51.9611 52.523C51.8978 52.3583 51.8091 52.1747 51.6951 51.972C51.5938 51.7567 51.4735 51.554 51.3341 51.364C51.2075 51.174 51.0618 51.0157 50.8971 50.889C50.7451 50.7623 50.5868 50.699 50.4221 50.699C50.2575 50.699 50.0865 50.7497 49.9091 50.851C49.7318 50.9523 49.5545 51.1107 49.3771 51.326C49.1998 51.5287 49.0225 51.801 48.8451 52.143ZM59.284 39.258C58.676 39.258 58.2137 39.0743 57.897 38.707C57.5803 38.327 57.422 37.8837 57.422 37.377C57.422 36.9717 57.5043 36.6043 57.669 36.275C57.8463 35.933 58.0807 35.6607 58.372 35.458C58.6633 35.2553 58.999 35.154 59.379 35.154C59.7337 35.154 60.044 35.2553 60.31 35.458C60.5887 35.6607 60.804 35.9267 60.956 36.256C61.1207 36.5727 61.203 36.9147 61.203 37.282C61.203 37.8267 61.0257 38.2953 60.671 38.688C60.3163 39.068 59.854 39.258 59.284 39.258ZM59.265 38.042C59.4803 38.042 59.664 37.9723 59.816 37.833C59.9807 37.6937 60.063 37.51 60.063 37.282C60.063 37.0413 59.9807 36.845 59.816 36.693C59.6513 36.5283 59.474 36.446 59.284 36.446C59.0433 36.446 58.8533 36.5283 58.714 36.693C58.5873 36.8577 58.524 37.0477 58.524 37.263C58.524 37.491 58.5937 37.681 58.733 37.833C58.8723 37.9723 59.0497 38.042 59.265 38.042ZM56.3506 56.095L56.5406 53.435C57.1233 53.435 57.5413 53.378 57.7946 53.264C58.0479 53.1373 58.1999 52.9093 58.2506 52.58C58.3013 52.238 58.3139 51.744 58.2886 51.098L57.9466 42.092H60.6256L61.0056 51.288C61.0309 52.0227 60.9993 52.6877 60.9106 53.283C60.8346 53.8657 60.6383 54.366 60.3216 54.784C60.0176 55.202 59.5426 55.525 58.8966 55.753C58.2633 55.981 57.4146 56.095 56.3506 56.095ZM63.5112 56L63.1122 42.092H65.7722L66.1712 56H63.5112ZM69.6907 46.79V45.46L74.1747 44.13V45.498L69.6907 46.79ZM68.2695 60.37L67.7185 57.71C68.6179 57.596 69.4032 57.4567 70.0745 57.292C70.7459 57.14 71.3095 56.9247 71.7655 56.646C72.2215 56.3673 72.5635 55.9873 72.7915 55.506C73.0195 55.012 73.1335 54.3787 73.1335 53.606C73.1335 53.3273 73.1082 53.0487 73.0575 52.77C73.0069 52.4787 72.9309 52.2127 72.8295 51.972C72.7282 51.7313 72.5952 51.535 72.4305 51.383C72.2785 51.231 72.0949 51.155 71.8795 51.155C71.6515 51.155 71.4489 51.2373 71.2715 51.402C71.0942 51.554 70.9549 51.7503 70.8535 51.991C70.7522 52.219 70.7015 52.4533 70.7015 52.694C70.7015 52.8713 70.7459 53.0233 70.8345 53.15C70.9232 53.264 71.0562 53.3527 71.2335 53.416C71.4109 53.4667 71.6325 53.492 71.8985 53.492C72.2025 53.492 72.5129 53.4603 72.8295 53.397C73.1589 53.321 73.4565 53.2197 73.7225 53.093L73.7985 55.164C73.4945 55.4047 73.1462 55.62 72.7535 55.81C72.3609 55.9873 71.8859 56.076 71.3285 56.076C70.8725 56.076 70.4482 56.0253 70.0555 55.924C69.6629 55.81 69.3145 55.639 69.0105 55.411C68.7192 55.183 68.4912 54.8917 68.3265 54.537C68.1619 54.1697 68.0795 53.7327 68.0795 53.226C68.0795 52.6053 68.1809 52.0037 68.3835 51.421C68.5862 50.8383 68.8649 50.319 69.2195 49.863C69.5869 49.3943 70.0049 49.027 70.4735 48.761C70.9549 48.4823 71.4615 48.343 71.9935 48.343C72.6269 48.343 73.1779 48.5013 73.6465 48.818C74.1279 49.1347 74.5269 49.5527 74.8435 50.072C75.1602 50.5787 75.4009 51.1297 75.5655 51.725C75.7302 52.3203 75.8125 52.8903 75.8125 53.435C75.8125 54.8663 75.5085 56.0823 74.9005 57.083C74.2925 58.0837 73.4249 58.8563 72.2975 59.401C71.1702 59.9583 69.8275 60.2813 68.2695 60.37ZM83.6067 60.477V59.147L88.0907 57.817V59.185L83.6067 60.477ZM83.7829 54.138C83.5802 54.0367 83.3775 53.8973 83.1749 53.72C82.9722 53.53 82.7885 53.3083 82.6239 53.055C82.4592 52.8017 82.3262 52.5293 82.2249 52.238C82.1362 51.934 82.0919 51.6237 82.0919 51.307C82.0919 50.6103 82.2565 49.996 82.5859 49.464C82.9152 48.9193 83.3585 48.495 83.9159 48.191C84.4732 47.8743 85.0875 47.716 85.7589 47.716C86.1262 47.716 86.4619 47.7413 86.7659 47.792C87.0825 47.83 87.3992 47.8933 87.7159 47.982L87.2979 50.452C87.0699 50.3887 86.8482 50.3443 86.6329 50.319C86.4302 50.281 86.2465 50.262 86.0819 50.262C85.8159 50.262 85.5815 50.319 85.3789 50.433C85.1762 50.5343 85.0179 50.6863 84.9039 50.889C84.8025 51.079 84.7519 51.3007 84.7519 51.554C84.7519 51.8453 84.8152 52.105 84.9419 52.333C85.0812 52.561 85.2839 52.7573 85.5499 52.922C85.8285 53.074 86.1705 53.1943 86.5759 53.283L83.7829 54.138ZM82.0729 57.083L81.2179 54.594C81.8765 54.4167 82.5922 54.214 83.3649 53.986C84.1375 53.7453 84.9482 53.473 85.7969 53.169C86.6582 52.865 87.5322 52.5357 88.4189 52.181L89.4069 54.613C88.9002 54.8157 88.3365 55.0373 87.7159 55.278C87.0952 55.506 86.4492 55.734 85.7779 55.962C85.1065 56.19 84.4542 56.399 83.8209 56.589C83.1875 56.779 82.6049 56.9437 82.0729 57.083ZM95.9947 56.095C94.8167 56.095 93.9047 55.9747 93.2587 55.734C92.6253 55.4933 92.182 55.1197 91.9287 54.613C91.6753 54.0937 91.5297 53.4413 91.4917 52.656L91.0927 42.092H93.7527L94.1517 51.383C94.177 51.9657 94.2403 52.4027 94.3417 52.694C94.443 52.9853 94.633 53.1817 94.9117 53.283C95.203 53.3843 95.6273 53.435 96.1847 53.435C96.666 53.435 97.008 53.5617 97.2107 53.815C97.426 54.0557 97.5337 54.3597 97.5337 54.727C97.5337 55.1197 97.4007 55.449 97.1347 55.715C96.8687 55.9683 96.4887 56.095 95.9947 56.095ZM103.442 39.79V38.46L107.926 37.13V38.498L103.442 39.79ZM96.0205 56.095L96.2105 53.435C96.6285 53.435 96.9705 53.4033 97.2365 53.34C97.5025 53.264 97.7178 53.1057 97.8825 52.865C98.0598 52.6117 98.2118 52.238 98.3385 51.744C98.4778 51.2373 98.6298 50.5533 98.7945 49.692L101.265 50.148C101.214 50.4267 101.144 50.775 101.056 51.193C100.98 51.611 100.942 51.972 100.942 52.276C100.942 52.5167 100.986 52.7257 101.075 52.903C101.176 53.0677 101.341 53.2007 101.569 53.302C101.809 53.3907 102.139 53.435 102.557 53.435C102.886 53.435 103.165 53.4033 103.393 53.34C103.633 53.264 103.836 53.1057 104.001 52.865C104.178 52.6117 104.33 52.2253 104.457 51.706C104.596 51.174 104.729 50.4583 104.856 49.559L107.364 49.958C107.313 50.2493 107.262 50.5597 107.212 50.889C107.161 51.2183 107.117 51.5223 107.079 51.801C107.041 52.0797 107.022 52.3077 107.022 52.485C107.022 52.6497 107.066 52.808 107.155 52.96C107.256 53.0993 107.433 53.2133 107.687 53.302C107.953 53.3907 108.32 53.435 108.789 53.435C109.359 53.435 109.777 53.3147 110.043 53.074C110.321 52.8207 110.461 52.4407 110.461 51.934C110.461 51.6427 110.454 51.3323 110.442 51.003C110.429 50.661 110.404 50.281 110.366 49.863C110.34 49.4323 110.29 48.9447 110.214 48.4L112.665 48.21C112.753 49.2993 112.855 50.186 112.969 50.87C113.083 51.554 113.235 52.086 113.425 52.466C113.627 52.8333 113.893 53.0867 114.223 53.226C114.565 53.3653 115.008 53.435 115.553 53.435C116.034 53.435 116.376 53.5617 116.579 53.815C116.794 54.0557 116.902 54.3597 116.902 54.727C116.902 55.1197 116.769 55.449 116.503 55.715C116.249 55.9683 115.869 56.095 115.363 56.095C115.021 56.095 114.666 56.0633 114.299 56C113.931 55.9493 113.577 55.8417 113.235 55.677C112.893 55.4997 112.589 55.2463 112.323 54.917C112.057 54.5877 111.848 54.1507 111.696 53.606L112.038 53.72C111.86 54.3533 111.62 54.841 111.316 55.183C111.012 55.525 110.638 55.7657 110.195 55.905C109.751 56.0317 109.219 56.095 108.599 56.095C108.029 56.095 107.522 56.019 107.079 55.867C106.635 55.715 106.281 55.468 106.015 55.126C105.761 54.7713 105.628 54.2963 105.616 53.701H106.262C106.008 54.4103 105.717 54.936 105.388 55.278C105.058 55.62 104.659 55.8417 104.191 55.943C103.722 56.0443 103.133 56.095 102.424 56.095C101.993 56.095 101.569 56.0507 101.151 55.962C100.733 55.8607 100.359 55.639 100.03 55.297C99.7002 54.9423 99.4595 54.385 99.3075 53.625L100.334 53.587C100.068 54.3343 99.7192 54.8853 99.2885 55.24C98.8705 55.5947 98.3892 55.829 97.8445 55.943C97.2998 56.0443 96.6918 56.095 96.0205 56.095ZM105.768 44.334C105.451 44.334 105.172 44.2137 104.932 43.973C104.704 43.7323 104.59 43.4473 104.59 43.118C104.59 42.7887 104.704 42.51 104.932 42.282C105.172 42.054 105.451 41.94 105.768 41.94C106.097 41.94 106.376 42.054 106.604 42.282C106.832 42.51 106.946 42.7887 106.946 43.118C106.946 43.4473 106.832 43.7323 106.604 43.973C106.376 44.2137 106.097 44.334 105.768 44.334ZM104.248 46.842C103.931 46.842 103.652 46.7217 103.412 46.481C103.184 46.2403 103.07 45.9553 103.07 45.626C103.07 45.2967 103.184 45.018 103.412 44.79C103.652 44.562 103.931 44.448 104.248 44.448C104.577 44.448 104.856 44.562 105.084 44.79C105.312 45.018 105.426 45.2967 105.426 45.626C105.426 45.9553 105.312 46.2403 105.084 46.481C104.856 46.7217 104.577 46.842 104.248 46.842ZM107.193 46.842C106.876 46.842 106.597 46.7217 106.357 46.481C106.129 46.2403 106.015 45.9553 106.015 45.626C106.015 45.2967 106.129 45.018 106.357 44.79C106.597 44.562 106.876 44.448 107.193 44.448C107.522 44.448 107.801 44.562 108.029 44.79C108.257 45.018 108.371 45.2967 108.371 45.626C108.371 45.9553 108.257 46.2403 108.029 46.481C107.801 46.7217 107.522 46.842 107.193 46.842ZM118.436 45.258C117.828 45.258 117.366 45.0743 117.049 44.707C116.733 44.327 116.574 43.8837 116.574 43.377C116.574 42.9717 116.657 42.6043 116.821 42.275C116.999 41.933 117.233 41.6607 117.524 41.458C117.816 41.2553 118.151 41.154 118.531 41.154C118.886 41.154 119.196 41.2553 119.462 41.458C119.741 41.6607 119.956 41.9267 120.108 42.256C120.273 42.5727 120.355 42.9147 120.355 43.282C120.355 43.8267 120.178 44.2953 119.823 44.688C119.469 45.068 119.006 45.258 118.436 45.258ZM118.417 44.042C118.633 44.042 118.816 43.9723 118.968 43.833C119.133 43.6937 119.215 43.51 119.215 43.282C119.215 43.0413 119.133 42.845 118.968 42.693C118.804 42.5283 118.626 42.446 118.436 42.446C118.196 42.446 118.006 42.5283 117.866 42.693C117.74 42.8577 117.676 43.0477 117.676 43.263C117.676 43.491 117.746 43.681 117.885 43.833C118.025 43.9723 118.202 44.042 118.417 44.042ZM127.799 56.095C127.216 56.095 126.672 56.0507 126.165 55.962C125.671 55.8733 125.215 55.7213 124.797 55.506C124.379 55.278 124.005 54.9677 123.676 54.575C123.359 54.1823 123.093 53.6883 122.878 53.093L124.379 51.896C124.607 52.3013 124.886 52.618 125.215 52.846C125.544 53.0613 125.937 53.2133 126.393 53.302C126.849 53.3907 127.381 53.435 127.989 53.435C128.47 53.435 128.812 53.5617 129.015 53.815C129.218 54.0557 129.319 54.3597 129.319 54.727C129.319 55.1197 129.186 55.449 128.92 55.715C128.667 55.9683 128.293 56.095 127.799 56.095ZM115.373 56.095L115.563 53.435C116.247 53.435 116.925 53.397 117.596 53.321C118.267 53.245 118.92 53.131 119.553 52.979C120.186 52.827 120.788 52.6307 121.358 52.39C121.941 52.1493 122.485 51.858 122.992 51.516C122.612 51.288 122.2 51.0917 121.757 50.927C121.314 50.7623 120.839 50.642 120.332 50.566C119.838 50.4773 119.312 50.433 118.755 50.433C118.552 50.433 118.337 50.4393 118.109 50.452C117.894 50.4647 117.672 50.49 117.444 50.528C117.216 50.5533 116.988 50.5913 116.76 50.642L116.38 48.039C116.747 47.9377 117.134 47.868 117.539 47.83C117.957 47.7793 118.324 47.754 118.641 47.754C119.325 47.754 119.952 47.83 120.522 47.982C121.105 48.134 121.637 48.324 122.118 48.552C122.612 48.78 123.068 49.008 123.486 49.236C123.917 49.464 124.322 49.654 124.702 49.806C125.095 49.958 125.475 50.034 125.842 50.034H126.545L126.849 52.561C126.304 52.5863 125.791 52.694 125.31 52.884C124.841 53.0613 124.373 53.2893 123.904 53.568C123.448 53.834 122.954 54.1127 122.422 54.404C121.903 54.6953 121.314 54.9677 120.655 55.221C119.996 55.4743 119.236 55.6833 118.375 55.848C117.514 56.0127 116.513 56.095 115.373 56.095ZM130.494 39.79V38.46L134.978 37.13V38.498L130.494 39.79ZM127.805 56.095L127.995 53.454C128.489 53.4667 128.945 53.4603 129.363 53.435C129.781 53.4097 130.154 53.3717 130.484 53.321C130.826 53.2703 131.123 53.2133 131.377 53.15C131.643 53.0867 131.864 53.0297 132.042 52.979C132.472 52.8397 132.84 52.675 133.144 52.485C133.448 52.2823 133.682 52.0543 133.847 51.801C134.011 51.5477 134.094 51.2753 134.094 50.984C134.094 50.756 134.043 50.528 133.942 50.3C133.853 50.0593 133.72 49.863 133.543 49.711C133.365 49.559 133.156 49.483 132.916 49.483C132.688 49.483 132.479 49.5527 132.289 49.692C132.099 49.8313 131.947 50.0213 131.833 50.262C131.719 50.49 131.662 50.756 131.662 51.06C131.662 51.326 131.725 51.5793 131.852 51.82C131.978 52.048 132.156 52.2697 132.384 52.485C132.612 52.7003 132.884 52.903 133.201 53.093L130.674 54.062C130.395 53.796 130.129 53.511 129.876 53.207C129.635 52.903 129.432 52.561 129.268 52.181C129.116 51.7883 129.04 51.3513 129.04 50.87C129.04 50.2873 129.154 49.7553 129.382 49.274C129.61 48.7927 129.914 48.381 130.294 48.039C130.674 47.6843 131.098 47.412 131.567 47.222C132.035 47.032 132.504 46.937 132.973 46.937C133.733 46.937 134.391 47.1143 134.949 47.469C135.506 47.8237 135.937 48.286 136.241 48.856C136.557 49.426 136.716 50.0467 136.716 50.718C136.716 51.3387 136.602 51.896 136.374 52.39C136.146 52.8713 135.835 53.302 135.443 53.682C135.063 54.0493 134.638 54.3723 134.17 54.651C133.714 54.9297 133.251 55.164 132.783 55.354C132.555 55.4553 132.27 55.5503 131.928 55.639C131.586 55.7277 131.199 55.81 130.769 55.886C130.338 55.9493 129.876 56 129.382 56.038C128.888 56.076 128.362 56.095 127.805 56.095ZM137.837 56.095C137.102 56.095 136.38 56.057 135.671 55.981C134.961 55.905 134.303 55.791 133.695 55.639C133.099 55.487 132.58 55.3033 132.137 55.088L133.448 53.036C133.828 53.1373 134.271 53.2197 134.778 53.283C135.297 53.3337 135.835 53.3717 136.393 53.397C136.963 53.4223 137.507 53.435 138.027 53.435C138.508 53.435 138.85 53.5617 139.053 53.815C139.268 54.0557 139.376 54.3597 139.376 54.727C139.376 55.1197 139.243 55.449 138.977 55.715C138.711 55.9683 138.331 56.095 137.837 56.095ZM132.992 45.17C132.599 45.17 132.263 45.037 131.985 44.771C131.719 44.505 131.586 44.1757 131.586 43.783C131.586 43.3903 131.719 43.0547 131.985 42.776C132.263 42.4973 132.599 42.358 132.992 42.358C133.372 42.358 133.695 42.4973 133.961 42.776C134.239 43.0547 134.379 43.3903 134.379 43.783C134.379 44.1757 134.239 44.505 133.961 44.771C133.695 45.037 133.372 45.17 132.992 45.17ZM140.795 39.258C140.187 39.258 139.724 39.0743 139.408 38.707C139.091 38.327 138.933 37.8837 138.933 37.377C138.933 36.9717 139.015 36.6043 139.18 36.275C139.357 35.933 139.591 35.6607 139.883 35.458C140.174 35.2553 140.51 35.154 140.89 35.154C141.244 35.154 141.555 35.2553 141.821 35.458C142.099 35.6607 142.315 35.9267 142.467 36.256C142.631 36.5727 142.714 36.9147 142.714 37.282C142.714 37.8267 142.536 38.2953 142.182 38.688C141.827 39.068 141.365 39.258 140.795 39.258ZM140.776 38.042C140.991 38.042 141.175 37.9723 141.327 37.833C141.491 37.6937 141.574 37.51 141.574 37.282C141.574 37.0413 141.491 36.845 141.327 36.693C141.162 36.5283 140.985 36.446 140.795 36.446C140.554 36.446 140.364 36.5283 140.225 36.693C140.098 36.8577 140.035 37.0477 140.035 37.263C140.035 37.491 140.104 37.681 140.244 37.833C140.383 37.9723 140.56 38.042 140.776 38.042ZM137.861 56.095L138.051 53.435C138.634 53.435 139.052 53.378 139.305 53.264C139.559 53.1373 139.711 52.9093 139.761 52.58C139.812 52.238 139.825 51.744 139.799 51.098L139.457 42.092H142.136L142.516 51.288C142.542 52.0227 142.51 52.6877 142.421 53.283C142.345 53.8657 142.149 54.366 141.832 54.784C141.528 55.202 141.053 55.525 140.407 55.753C139.774 55.981 138.925 56.095 137.861 56.095ZM145.022 56L144.623 42.092H147.283L147.682 56H145.022Z" fill="#FBFBFB"/>
</svg>
