<svg width="334" height="174" viewBox="0 0 334 174" fill="none" xmlns="http://www.w3.org/2000/svg">
<rect y="45" width="334" height="118" rx="30" fill="#42C83C"/>
<path d="M24.52 82L24.121 68.092H26.781L27.18 82H24.52ZM29.5491 70.795V69.465L34.0331 68.135V69.503L29.5491 70.795ZM29.5491 72.79V71.46L34.0331 70.13V71.498L29.5491 72.79ZM28.0169 86.389L27.0479 84.033C27.7192 83.805 28.3336 83.539 28.8909 83.235C29.4609 82.931 29.9549 82.5953 30.3729 82.228C30.7909 81.8607 31.1139 81.4617 31.3419 81.031C31.5699 80.5877 31.6839 80.1127 31.6839 79.606C31.6839 79.074 31.5636 78.4913 31.3229 77.858C31.0822 77.2247 30.7909 76.5787 30.4489 75.92L32.9379 74.723C33.1659 75.1157 33.3622 75.54 33.5269 75.996C33.7042 76.4393 33.8499 76.8383 33.9639 77.193C34.0779 77.5477 34.1539 77.7883 34.1919 77.915C34.3692 78.523 34.6099 78.9283 34.9139 79.131C35.2306 79.3337 35.7372 79.435 36.4339 79.435C36.9152 79.435 37.2572 79.5617 37.4599 79.815C37.6752 80.0557 37.7829 80.3597 37.7829 80.727C37.7829 81.1197 37.6499 81.449 37.3839 81.715C37.1179 81.9683 36.7379 82.095 36.2439 82.095C35.7246 82.095 35.2686 82.019 34.8759 81.867C34.4832 81.715 34.1666 81.4933 33.9259 81.202C33.6979 80.9107 33.5522 80.5687 33.4889 80.176L34.1919 80.575C34.1159 81.2463 33.8942 81.8797 33.5269 82.475C33.1722 83.083 32.7099 83.6403 32.1399 84.147C31.5699 84.6537 30.9302 85.097 30.2209 85.477C29.5116 85.857 28.7769 86.161 28.0169 86.389ZM45.6756 72.258C45.0676 72.258 44.6053 72.0743 44.2886 71.707C43.9719 71.327 43.8136 70.8837 43.8136 70.377C43.8136 69.9717 43.8959 69.6043 44.0606 69.275C44.2379 68.933 44.4723 68.6607 44.7636 68.458C45.0549 68.2553 45.3906 68.154 45.7706 68.154C46.1253 68.154 46.4356 68.2553 46.7016 68.458C46.9803 68.6607 47.1956 68.9267 47.3476 69.256C47.5123 69.5727 47.5946 69.9147 47.5946 70.282C47.5946 70.8267 47.4173 71.2953 47.0626 71.688C46.7079 72.068 46.2456 72.258 45.6756 72.258ZM45.6566 71.042C45.8719 71.042 46.0556 70.9723 46.2076 70.833C46.3723 70.6937 46.4546 70.51 46.4546 70.282C46.4546 70.0413 46.3723 69.845 46.2076 69.693C46.0429 69.5283 45.8656 69.446 45.6756 69.446C45.4349 69.446 45.2449 69.5283 45.1056 69.693C44.9789 69.8577 44.9156 70.0477 44.9156 70.263C44.9156 70.491 44.9853 70.681 45.1246 70.833C45.2639 70.9723 45.4413 71.042 45.6566 71.042ZM36.2666 82.095L36.4566 79.435C36.8746 79.435 37.2166 79.4033 37.4826 79.34C37.7486 79.264 37.9639 79.1057 38.1286 78.865C38.3059 78.6117 38.4579 78.238 38.5846 77.744C38.7239 77.2373 38.8759 76.5533 39.0406 75.692L41.5106 76.148C41.4599 76.4267 41.3903 76.775 41.3016 77.193C41.2256 77.611 41.1876 77.972 41.1876 78.276C41.1876 78.5167 41.2319 78.7257 41.3206 78.903C41.4219 79.0677 41.5866 79.2007 41.8146 79.302C42.0553 79.3907 42.3846 79.435 42.8026 79.435C43.1319 79.435 43.4106 79.4033 43.6386 79.34C43.8793 79.264 44.0819 79.1057 44.2466 78.865C44.4239 78.6117 44.5759 78.2253 44.7026 77.706C44.8419 77.174 44.9749 76.4583 45.1016 75.559L47.6096 75.958C47.5589 76.2493 47.5083 76.5597 47.4576 76.889C47.4069 77.2183 47.3626 77.5223 47.3246 77.801C47.2866 78.0797 47.2676 78.3077 47.2676 78.485C47.2676 78.6497 47.3119 78.808 47.4006 78.96C47.5019 79.0993 47.6793 79.2133 47.9326 79.302C48.1986 79.3907 48.5659 79.435 49.0346 79.435C49.6046 79.435 50.0226 79.3147 50.2886 79.074C50.5673 78.8207 50.7066 78.4407 50.7066 77.934C50.7066 77.6427 50.7003 77.3323 50.6876 77.003C50.6749 76.661 50.6496 76.281 50.6116 75.863C50.5863 75.4323 50.5356 74.9447 50.4596 74.4L52.9106 74.21C52.9993 75.2993 53.1006 76.186 53.2146 76.87C53.3286 77.554 53.4806 78.086 53.6706 78.466C53.8733 78.8333 54.1393 79.0867 54.4686 79.226C54.8106 79.3653 55.2539 79.435 55.7986 79.435C56.2799 79.435 56.6219 79.5617 56.8246 79.815C57.0399 80.0557 57.1476 80.3597 57.1476 80.727C57.1476 81.1197 57.0146 81.449 56.7486 81.715C56.4953 81.9683 56.1153 82.095 55.6086 82.095C55.2666 82.095 54.9119 82.0633 54.5446 82C54.1773 81.9493 53.8226 81.8417 53.4806 81.677C53.1386 81.4997 52.8346 81.2463 52.5686 80.917C52.3026 80.5877 52.0936 80.1507 51.9416 79.606L52.2836 79.72C52.1063 80.3533 51.8656 80.841 51.5616 81.183C51.2576 81.525 50.8839 81.7657 50.4406 81.905C49.9973 82.0317 49.4653 82.095 48.8446 82.095C48.2746 82.095 47.7679 82.019 47.3246 81.867C46.8813 81.715 46.5266 81.468 46.2606 81.126C46.0073 80.7713 45.8743 80.2963 45.8616 79.701H46.5076C46.2543 80.4103 45.9629 80.936 45.6336 81.278C45.3043 81.62 44.9053 81.8417 44.4366 81.943C43.9679 82.0443 43.3789 82.095 42.6696 82.095C42.2389 82.095 41.8146 82.0507 41.3966 81.962C40.9786 81.8607 40.6049 81.639 40.2756 81.297C39.9463 80.9423 39.7056 80.385 39.5536 79.625L40.5796 79.587C40.3136 80.3343 39.9653 80.8853 39.5346 81.24C39.1166 81.5947 38.6353 81.829 38.0906 81.943C37.5459 82.0443 36.9379 82.095 36.2666 82.095ZM56.0955 70.942L55.8865 69.745C56.5578 69.745 57.1848 69.65 57.7675 69.46C58.3501 69.2573 58.8188 69.004 59.1735 68.7C59.5281 68.396 59.7055 68.0983 59.7055 67.807C59.7055 67.6297 59.6548 67.4713 59.5535 67.332C59.4521 67.1927 59.3065 67.123 59.1165 67.123C58.9518 67.123 58.8061 67.1863 58.6795 67.313C58.5528 67.4397 58.4895 67.598 58.4895 67.788C58.4895 68.0287 58.5845 68.244 58.7745 68.434C58.9645 68.6113 59.1925 68.757 59.4585 68.871L58.6415 69.593C58.2615 69.4157 57.9321 69.1813 57.6535 68.89C57.3748 68.586 57.2355 68.1997 57.2355 67.731C57.2355 67.2117 57.4128 66.781 57.7675 66.439C58.1348 66.097 58.5908 65.926 59.1355 65.926C59.7308 65.926 60.1805 66.116 60.4845 66.496C60.7885 66.876 60.9405 67.3067 60.9405 67.788C60.9405 68.396 60.7188 68.928 60.2755 69.384C59.8448 69.84 59.2621 70.201 58.5275 70.467C57.8055 70.733 56.9948 70.8913 56.0955 70.942ZM55.6191 82.095L55.8091 79.435C56.5691 79.435 57.1518 79.397 57.5571 79.321C57.9625 79.245 58.2411 79.1057 58.3931 78.903C58.5578 78.6877 58.6401 78.3837 58.6401 77.991C58.6401 77.6363 58.5895 77.212 58.4881 76.718C58.3995 76.224 58.2791 75.711 58.1271 75.179C57.9878 74.647 57.8358 74.1593 57.6711 73.716L60.2931 72.994C60.4578 73.4247 60.6161 73.925 60.7681 74.495C60.9201 75.065 61.0468 75.654 61.1481 76.262C61.2495 76.8573 61.3001 77.4337 61.3001 77.991C61.3001 78.8523 61.1608 79.5553 60.8821 80.1C60.6035 80.632 60.2108 81.0437 59.7041 81.335C59.2101 81.6263 58.6148 81.829 57.9181 81.943C57.2215 82.0443 56.4551 82.095 55.6191 82.095ZM60.3121 86.503C59.9448 86.503 59.6281 86.37 59.3621 86.104C59.1088 85.8507 58.9821 85.5467 58.9821 85.192C58.9821 84.8247 59.1088 84.508 59.3621 84.242C59.6281 83.976 59.9448 83.843 60.3121 83.843C60.6668 83.843 60.9708 83.976 61.2241 84.242C61.4775 84.508 61.6041 84.8247 61.6041 85.192C61.6041 85.5467 61.4775 85.8507 61.2241 86.104C60.9708 86.37 60.6668 86.503 60.3121 86.503ZM57.0251 86.503C56.6578 86.503 56.3411 86.37 56.0751 86.104C55.8218 85.8507 55.6951 85.5467 55.6951 85.192C55.6951 84.8247 55.8218 84.508 56.0751 84.242C56.3411 83.976 56.6578 83.843 57.0251 83.843C57.3798 83.843 57.6838 83.976 57.9371 84.242C58.1905 84.508 58.3171 84.8247 58.3171 85.192C58.3171 85.5467 58.1905 85.8507 57.9371 86.104C57.6838 86.37 57.3798 86.503 57.0251 86.503ZM68.0129 90.477V89.147L72.4969 87.817V89.185L68.0129 90.477ZM67.1487 86.389L66.1797 84.033C66.8511 83.805 67.4654 83.539 68.0227 83.235C68.5927 82.931 69.0867 82.5953 69.5047 82.228C69.9227 81.8607 70.2457 81.4617 70.4737 81.031C70.7017 80.5877 70.8157 80.1127 70.8157 79.606C70.8157 79.074 70.6954 78.4913 70.4547 77.858C70.2141 77.2247 69.9227 76.5787 69.5807 75.92L72.0697 74.723C72.2977 75.1157 72.4941 75.54 72.6587 75.996C72.8361 76.4393 72.9817 76.8383 73.0957 77.193C73.2097 77.5477 73.2857 77.7883 73.3237 77.915C73.5011 78.523 73.7417 78.9283 74.0457 79.131C74.3624 79.3337 74.8691 79.435 75.5657 79.435C76.0471 79.435 76.3891 79.5617 76.5917 79.815C76.8071 80.0557 76.9147 80.3597 76.9147 80.727C76.9147 81.1197 76.7817 81.449 76.5157 81.715C76.2497 81.9683 75.8697 82.095 75.3757 82.095C74.8564 82.095 74.4004 82.019 74.0077 81.867C73.6151 81.715 73.2984 81.4933 73.0577 81.202C72.8297 80.9107 72.6841 80.5687 72.6207 80.176L73.3237 80.575C73.2477 81.2463 73.0261 81.8797 72.6587 82.475C72.3041 83.083 71.8417 83.6403 71.2717 84.147C70.7017 84.6537 70.0621 85.097 69.3527 85.477C68.6434 85.857 67.9087 86.161 67.1487 86.389ZM84.8074 72.258C84.1994 72.258 83.7371 72.0743 83.4204 71.707C83.1038 71.327 82.9454 70.8837 82.9454 70.377C82.9454 69.9717 83.0278 69.6043 83.1924 69.275C83.3698 68.933 83.6041 68.6607 83.8954 68.458C84.1868 68.2553 84.5224 68.154 84.9024 68.154C85.2571 68.154 85.5674 68.2553 85.8334 68.458C86.1121 68.6607 86.3274 68.9267 86.4794 69.256C86.6441 69.5727 86.7264 69.9147 86.7264 70.282C86.7264 70.8267 86.5491 71.2953 86.1944 71.688C85.8398 72.068 85.3774 72.258 84.8074 72.258ZM84.7884 71.042C85.0038 71.042 85.1874 70.9723 85.3394 70.833C85.5041 70.6937 85.5864 70.51 85.5864 70.282C85.5864 70.0413 85.5041 69.845 85.3394 69.693C85.1748 69.5283 84.9974 69.446 84.8074 69.446C84.5668 69.446 84.3768 69.5283 84.2374 69.693C84.1108 69.8577 84.0474 70.0477 84.0474 70.263C84.0474 70.491 84.1171 70.681 84.2564 70.833C84.3958 70.9723 84.5731 71.042 84.7884 71.042ZM75.3984 82.095L75.5884 79.435C76.0064 79.435 76.3484 79.4033 76.6144 79.34C76.8804 79.264 77.0958 79.1057 77.2604 78.865C77.4378 78.6117 77.5898 78.238 77.7164 77.744C77.8558 77.2373 78.0078 76.5533 78.1724 75.692L80.6424 76.148C80.5918 76.4267 80.5221 76.775 80.4334 77.193C80.3574 77.611 80.3194 77.972 80.3194 78.276C80.3194 78.5167 80.3638 78.7257 80.4524 78.903C80.5538 79.0677 80.7184 79.2007 80.9464 79.302C81.1871 79.3907 81.5164 79.435 81.9344 79.435C82.2638 79.435 82.5424 79.4033 82.7704 79.34C83.0111 79.264 83.2138 79.1057 83.3784 78.865C83.5558 78.6117 83.7078 78.2253 83.8344 77.706C83.9738 77.174 84.1068 76.4583 84.2334 75.559L86.7414 75.958C86.6908 76.2493 86.6401 76.5597 86.5894 76.889C86.5388 77.2183 86.4944 77.5223 86.4564 77.801C86.4184 78.0797 86.3994 78.3077 86.3994 78.485C86.3994 78.6497 86.4438 78.808 86.5324 78.96C86.6338 79.0993 86.8111 79.2133 87.0644 79.302C87.3304 79.3907 87.6978 79.435 88.1664 79.435C88.7364 79.435 89.1544 79.3147 89.4204 79.074C89.6991 78.8207 89.8384 78.4407 89.8384 77.934C89.8384 77.6427 89.8321 77.3323 89.8194 77.003C89.8068 76.661 89.7814 76.281 89.7434 75.863C89.7181 75.4323 89.6674 74.9447 89.5914 74.4L92.0424 74.21C92.1311 75.2993 92.2324 76.186 92.3464 76.87C92.4604 77.554 92.6124 78.086 92.8024 78.466C93.0051 78.8333 93.2711 79.0867 93.6004 79.226C93.9424 79.3653 94.3858 79.435 94.9304 79.435C95.4118 79.435 95.7538 79.5617 95.9564 79.815C96.1718 80.0557 96.2794 80.3597 96.2794 80.727C96.2794 81.1197 96.1464 81.449 95.8804 81.715C95.6271 81.9683 95.2471 82.095 94.7404 82.095C94.3984 82.095 94.0438 82.0633 93.6764 82C93.3091 81.9493 92.9544 81.8417 92.6124 81.677C92.2704 81.4997 91.9664 81.2463 91.7004 80.917C91.4344 80.5877 91.2254 80.1507 91.0734 79.606L91.4154 79.72C91.2381 80.3533 90.9974 80.841 90.6934 81.183C90.3894 81.525 90.0158 81.7657 89.5724 81.905C89.1291 82.0317 88.5971 82.095 87.9764 82.095C87.4064 82.095 86.8998 82.019 86.4564 81.867C86.0131 81.715 85.6584 81.468 85.3924 81.126C85.1391 80.7713 85.0061 80.2963 84.9934 79.701H85.6394C85.3861 80.4103 85.0948 80.936 84.7654 81.278C84.4361 81.62 84.0371 81.8417 83.5684 81.943C83.0998 82.0443 82.5108 82.095 81.8014 82.095C81.3708 82.095 80.9464 82.0507 80.5284 81.962C80.1104 81.8607 79.7368 81.639 79.4074 81.297C79.0781 80.9423 78.8374 80.385 78.6854 79.625L79.7114 79.587C79.4454 80.3343 79.0971 80.8853 78.6664 81.24C78.2484 81.5947 77.7671 81.829 77.2224 81.943C76.6778 82.0443 76.0698 82.095 75.3984 82.095ZM97.4168 70.942L97.2078 69.745C97.8791 69.745 98.5061 69.65 99.0888 69.46C99.6714 69.2573 100.14 69.004 100.495 68.7C100.849 68.396 101.027 68.0983 101.027 67.807C101.027 67.6297 100.976 67.4713 100.875 67.332C100.773 67.1927 100.628 67.123 100.438 67.123C100.273 67.123 100.127 67.1863 100.001 67.313C99.8741 67.4397 99.8108 67.598 99.8108 67.788C99.8108 68.0287 99.9058 68.244 100.096 68.434C100.286 68.6113 100.514 68.757 100.78 68.871L99.9628 69.593C99.5828 69.4157 99.2534 69.1813 98.9748 68.89C98.6961 68.586 98.5568 68.1997 98.5568 67.731C98.5568 67.2117 98.7341 66.781 99.0888 66.439C99.4561 66.097 99.9121 65.926 100.457 65.926C101.052 65.926 101.502 66.116 101.806 66.496C102.11 66.876 102.262 67.3067 102.262 67.788C102.262 68.396 102.04 68.928 101.597 69.384C101.166 69.84 100.583 70.201 99.8488 70.467C99.1268 70.733 98.3161 70.8913 97.4168 70.942ZM94.675 82.095L94.865 79.435C95.7516 79.435 96.5496 79.378 97.259 79.264C97.9683 79.1373 98.589 78.9727 99.121 78.77C99.6656 78.5673 100.115 78.333 100.47 78.067C100.837 77.801 101.11 77.5223 101.287 77.231C101.477 76.927 101.572 76.6293 101.572 76.338C101.572 76.1733 101.528 76.0213 101.439 75.882C101.363 75.73 101.23 75.6097 101.04 75.521C100.85 75.4197 100.59 75.369 100.261 75.369C100.096 75.369 99.9 75.388 99.672 75.426C99.444 75.464 99.216 75.521 98.988 75.597C98.76 75.6603 98.5446 75.749 98.342 75.863C98.608 76.0657 98.8993 76.3253 99.216 76.642C99.5326 76.946 99.8493 77.269 100.166 77.611C100.483 77.9403 100.755 78.2633 100.983 78.58C101.249 78.694 101.54 78.808 101.857 78.922C102.186 79.0233 102.541 79.112 102.921 79.188C103.301 79.264 103.7 79.3273 104.118 79.378C104.536 79.416 104.967 79.435 105.41 79.435C105.891 79.435 106.233 79.5617 106.436 79.815C106.651 80.0557 106.759 80.3597 106.759 80.727C106.759 81.1197 106.626 81.449 106.36 81.715C106.094 81.9683 105.714 82.095 105.22 82.095C104.207 82.095 103.307 82.019 102.522 81.867C101.737 81.7023 101.034 81.468 100.413 81.164C99.805 80.8473 99.235 80.4673 98.703 80.024C98.551 79.758 98.3356 79.473 98.057 79.169C97.791 78.8523 97.506 78.5483 97.202 78.257C96.9106 77.9657 96.6446 77.725 96.404 77.535C96.3406 77.4843 96.2646 77.3513 96.176 77.136C96.1 76.908 96.0303 76.6737 95.967 76.433C95.9036 76.1797 95.872 76.0023 95.872 75.901C95.872 75.6097 96.005 75.2993 96.271 74.97C96.5496 74.6407 96.917 74.3367 97.373 74.058C97.8416 73.7667 98.3546 73.5323 98.912 73.355C99.482 73.165 100.058 73.07 100.641 73.07C101.426 73.07 102.079 73.1903 102.598 73.431C103.13 73.659 103.529 73.982 103.795 74.4C104.061 74.8053 104.194 75.2803 104.194 75.825C104.194 76.433 104.061 77.041 103.795 77.649C103.529 78.2443 103.136 78.808 102.617 79.34C102.11 79.872 101.471 80.347 100.698 80.765C99.938 81.1703 99.0513 81.4933 98.038 81.734C97.0373 81.9747 95.9163 82.095 94.675 82.095ZM108.168 65.258C107.56 65.258 107.097 65.0743 106.781 64.707C106.464 64.327 106.306 63.8837 106.306 63.377C106.306 62.9717 106.388 62.6043 106.553 62.275C106.73 61.933 106.964 61.6607 107.256 61.458C107.547 61.2553 107.883 61.154 108.263 61.154C108.617 61.154 108.928 61.2553 109.194 61.458C109.472 61.6607 109.688 61.9267 109.84 62.256C110.004 62.5727 110.087 62.9147 110.087 63.282C110.087 63.8267 109.909 64.2953 109.555 64.688C109.2 65.068 108.738 65.258 108.168 65.258ZM108.149 64.042C108.364 64.042 108.548 63.9723 108.7 63.833C108.864 63.6937 108.947 63.51 108.947 63.282C108.947 63.0413 108.864 62.845 108.7 62.693C108.535 62.5283 108.358 62.446 108.168 62.446C107.927 62.446 107.737 62.5283 107.598 62.693C107.471 62.8577 107.408 63.0477 107.408 63.263C107.408 63.491 107.477 63.681 107.617 63.833C107.756 63.9723 107.933 64.042 108.149 64.042ZM105.234 82.095L105.424 79.435C106.007 79.435 106.425 79.378 106.678 79.264C106.932 79.1373 107.084 78.9093 107.134 78.58C107.185 78.238 107.198 77.744 107.172 77.098L106.83 68.092H109.509L109.889 77.288C109.915 78.0227 109.883 78.6877 109.794 79.283C109.718 79.8657 109.522 80.366 109.205 80.784C108.901 81.202 108.426 81.525 107.78 81.753C107.147 81.981 106.298 82.095 105.234 82.095ZM112.395 82L111.996 68.092H114.656L115.055 82H112.395ZM124.252 70.79V69.46L128.736 68.13V69.498L124.252 70.79ZM126.662 89.486C125.826 89.486 125.04 89.3973 124.306 89.22C123.571 89.0427 122.925 88.7703 122.368 88.403C121.823 88.0357 121.392 87.5607 121.076 86.978C120.772 86.3953 120.62 85.705 120.62 84.907C120.62 84.0837 120.791 83.3553 121.133 82.722C121.475 82.1013 121.912 81.5567 122.444 81.088C122.976 80.6067 123.539 80.176 124.135 79.796C124.743 79.4033 125.313 79.0297 125.845 78.675C126.377 78.3203 126.814 77.9593 127.156 77.592C127.498 77.212 127.669 76.794 127.669 76.338C127.669 76.1733 127.624 76.0213 127.536 75.882C127.46 75.73 127.327 75.6097 127.137 75.521C126.959 75.4197 126.706 75.369 126.377 75.369C126.161 75.369 125.94 75.3943 125.712 75.445C125.484 75.483 125.262 75.54 125.047 75.616C124.831 75.6793 124.629 75.7617 124.439 75.863C124.768 76.129 125.091 76.4267 125.408 76.756C125.737 77.0727 126.035 77.383 126.301 77.687C126.579 77.9783 126.795 78.2317 126.947 78.447C127.238 78.599 127.555 78.7383 127.897 78.865C128.239 78.979 128.6 79.0803 128.98 79.169C129.372 79.2577 129.778 79.3273 130.196 79.378C130.614 79.416 131.044 79.435 131.488 79.435C131.969 79.435 132.311 79.5617 132.514 79.815C132.716 80.0557 132.818 80.3597 132.818 80.727C132.818 81.1197 132.685 81.449 132.419 81.715C132.153 81.9683 131.779 82.095 131.298 82.095C130.246 82.095 129.347 82.019 128.6 81.867C127.865 81.715 127.2 81.487 126.605 81.183C126.022 80.8663 125.42 80.48 124.8 80.024C124.648 79.758 124.426 79.4667 124.135 79.15C123.843 78.8207 123.546 78.5103 123.242 78.219C122.95 77.9277 122.703 77.6997 122.501 77.535C122.463 77.497 122.399 77.3703 122.311 77.155C122.222 76.927 122.14 76.6863 122.064 76.433C122 76.1797 121.969 76.0023 121.969 75.901C121.969 75.6477 122.089 75.3627 122.33 75.046C122.57 74.7167 122.906 74.4063 123.337 74.115C123.78 73.811 124.293 73.564 124.876 73.374C125.458 73.1713 126.092 73.07 126.776 73.07C128.017 73.07 128.91 73.336 129.455 73.868C130.012 74.3873 130.291 75.0587 130.291 75.882C130.291 76.642 130.12 77.3197 129.778 77.915C129.448 78.5103 129.018 79.055 128.486 79.549C127.954 80.043 127.39 80.499 126.795 80.917C126.212 81.335 125.655 81.7403 125.123 82.133C124.591 82.5383 124.154 82.9437 123.812 83.349C123.482 83.767 123.318 84.2167 123.318 84.698C123.318 85.1033 123.419 85.439 123.622 85.705C123.837 85.9837 124.109 86.2053 124.439 86.37C124.768 86.5347 125.129 86.6487 125.522 86.712C125.927 86.788 126.32 86.826 126.7 86.826C127.092 86.826 127.498 86.7943 127.916 86.731C128.346 86.6677 128.79 86.5663 129.246 86.427C129.714 86.3003 130.196 86.1357 130.69 85.933L131.488 88.213C131.006 88.4663 130.493 88.688 129.949 88.878C129.404 89.0807 128.853 89.2327 128.296 89.334C127.738 89.4353 127.194 89.486 126.662 89.486ZM135.515 71.79V70.46L139.999 69.13V70.498L135.515 71.79ZM131.304 82.095L131.494 79.435C131.785 79.435 132.032 79.3653 132.235 79.226C132.45 79.074 132.672 78.827 132.9 78.485C133.128 78.1303 133.394 77.6553 133.698 77.06C134.078 76.3 134.47 75.7047 134.876 75.274C135.294 74.8433 135.718 74.5393 136.149 74.362C136.592 74.172 137.035 74.077 137.479 74.077C138.036 74.077 138.555 74.1973 139.037 74.438C139.518 74.6787 139.936 75.008 140.291 75.426C140.645 75.8313 140.918 76.3 141.108 76.832C141.31 77.3513 141.412 77.8897 141.412 78.447C141.412 79.1183 141.266 79.7263 140.975 80.271C140.696 80.803 140.303 81.2273 139.797 81.544C139.303 81.848 138.733 82 138.087 82C137.542 82 136.909 81.905 136.187 81.715C135.465 81.525 134.705 81.126 133.907 80.518L134.876 78.219C135.446 78.6117 135.978 78.8967 136.472 79.074C136.978 79.2513 137.396 79.34 137.726 79.34C137.979 79.34 138.188 79.3147 138.353 79.264C138.517 79.2133 138.638 79.131 138.714 79.017C138.79 78.903 138.828 78.751 138.828 78.561C138.828 78.295 138.764 78.0227 138.638 77.744C138.511 77.4653 138.34 77.231 138.125 77.041C137.922 76.8383 137.681 76.737 137.403 76.737C137.137 76.737 136.909 76.8383 136.719 77.041C136.541 77.231 136.364 77.5097 136.187 77.877C136.022 78.2317 135.819 78.6497 135.579 79.131C135.287 79.7137 135.002 80.2013 134.724 80.594C134.445 80.974 134.147 81.278 133.831 81.506C133.527 81.7213 133.166 81.8733 132.748 81.962C132.342 82.0507 131.861 82.095 131.304 82.095ZM150.618 64.79V63.46L155.102 62.13V63.498L150.618 64.79ZM151.698 69.771C151.229 69.771 150.913 69.6063 150.748 69.277C150.583 68.9477 150.501 68.5867 150.501 68.194C150.501 68.0547 150.507 67.909 150.52 67.757C150.545 67.5923 150.577 67.4087 150.615 67.206L151.755 66.94C151.717 67.1553 151.685 67.358 151.66 67.548C151.647 67.7253 151.641 67.8837 151.641 68.023C151.641 68.1877 151.673 68.3143 151.736 68.403C151.799 68.4917 151.888 68.536 152.002 68.536C152.154 68.536 152.274 68.4473 152.363 68.27C152.464 68.0927 152.515 67.7507 152.515 67.244V66.674L153.617 66.332V67.491C153.617 67.6303 153.642 67.7443 153.693 67.833C153.756 67.9217 153.851 67.966 153.978 67.966C154.155 67.966 154.276 67.9153 154.339 67.814C154.415 67.7 154.453 67.567 154.453 67.415C154.453 67.1997 154.428 66.9843 154.377 66.769C154.326 66.541 154.257 66.3193 154.168 66.104L155.213 65.838C155.34 66.0787 155.441 66.3573 155.517 66.674C155.606 66.978 155.65 67.2567 155.65 67.51C155.65 67.928 155.53 68.308 155.289 68.65C155.048 68.9793 154.656 69.144 154.111 69.144C153.769 69.144 153.478 69.0427 153.237 68.84C152.996 68.6247 152.876 68.3713 152.876 68.08L153.313 68.251C153.313 68.6817 153.161 69.0427 152.857 69.334C152.566 69.6253 152.179 69.771 151.698 69.771ZM147.254 81.468C147.254 81.1767 147.279 80.8347 147.33 80.442C147.38 80.0493 147.475 79.606 147.615 79.112C147.754 78.6053 147.963 78.0417 148.242 77.421L150.579 78.238C150.439 78.6307 150.319 78.9917 150.218 79.321C150.116 79.6377 150.04 79.9353 149.99 80.214C149.939 80.48 149.914 80.746 149.914 81.012C149.914 81.6327 150.053 82.1393 150.332 82.532C150.623 82.9373 151.028 83.235 151.548 83.425C152.067 83.6277 152.669 83.729 153.353 83.729C154.138 83.729 154.784 83.6213 155.291 83.406C155.797 83.2033 156.19 82.931 156.469 82.589C156.747 82.2597 156.944 81.8987 157.058 81.506C157.172 81.1007 157.229 80.708 157.229 80.328C157.229 79.8087 157.14 79.1943 156.963 78.485C156.785 77.763 156.469 76.9523 156.013 76.053L158.464 75.008C158.717 75.4513 158.951 75.9707 159.167 76.566C159.382 77.1487 159.553 77.7567 159.68 78.39C159.819 79.0233 159.889 79.625 159.889 80.195C159.889 80.7017 159.825 81.24 159.699 81.81C159.572 82.3673 159.357 82.9183 159.053 83.463C158.761 84.0077 158.362 84.4953 157.856 84.926C157.349 85.3693 156.722 85.724 155.975 85.99C155.227 86.256 154.334 86.389 153.296 86.389C152.46 86.389 151.674 86.294 150.94 86.104C150.218 85.9267 149.578 85.6417 149.021 85.249C148.476 84.8563 148.045 84.3433 147.729 83.71C147.412 83.0893 147.254 82.342 147.254 81.468ZM153.448 74.248C153.055 74.248 152.719 74.115 152.441 73.849C152.175 73.583 152.042 73.2537 152.042 72.861C152.042 72.4683 152.175 72.1327 152.441 71.854C152.719 71.5753 153.055 71.436 153.448 71.436C153.828 71.436 154.151 71.5753 154.417 71.854C154.695 72.1327 154.835 72.4683 154.835 72.861C154.835 73.2537 154.695 73.583 154.417 73.849C154.151 74.115 153.828 74.248 153.448 74.248ZM161.881 91.477V90.147L166.365 88.817V90.185L161.881 91.477ZM162.363 82L161.964 68.092H164.624L165.023 82H162.363ZM162.249 87.871L161.926 86.541C162.369 86.465 162.698 86.4017 162.914 86.351C163.142 86.3003 163.382 86.2433 163.636 86.18L163.446 86.655C163.116 86.541 162.8 86.313 162.496 85.971C162.204 85.6417 162.059 85.2617 162.059 84.831C162.059 84.375 162.16 84.0077 162.363 83.729C162.565 83.4503 162.825 83.2477 163.142 83.121C163.458 82.9943 163.788 82.931 164.13 82.931C164.32 82.931 164.497 82.9437 164.662 82.969C164.839 82.9943 164.997 83.0323 165.137 83.083L164.985 84.451C164.858 84.4257 164.731 84.4003 164.605 84.375C164.478 84.3497 164.339 84.337 164.187 84.337C164.022 84.337 163.87 84.3877 163.731 84.489C163.604 84.603 163.541 84.736 163.541 84.888C163.541 85.1033 163.617 85.2933 163.769 85.458C163.921 85.6227 164.098 85.7493 164.301 85.838C164.516 85.9393 164.693 85.9963 164.833 86.009L163.788 86.123C164.13 86.0343 164.453 85.9393 164.757 85.838C165.061 85.7493 165.346 85.6543 165.612 85.553L165.992 86.826C165.675 86.94 165.301 87.0603 164.871 87.187C164.453 87.3263 164.016 87.453 163.56 87.567C163.116 87.681 162.679 87.7823 162.249 87.871Z" fill="#FBFBFB"/>
<path d="M24.9389 116.545V119.795H23.9233V116.545H24.9389ZM27.3026 116.545V119.795H26.2869V116.545H27.3026ZM30.5329 116.545V126H29.3881V116.545H30.5329ZM33.7702 121.734V126H32.6808V118.909H33.7333V120.017H33.8256C33.9918 119.657 34.2442 119.368 34.5827 119.149C34.9213 118.928 35.3583 118.817 35.8938 118.817C36.3739 118.817 36.794 118.915 37.1541 119.112C37.5142 119.306 37.7943 119.602 37.9943 119.999C38.1944 120.393 38.2944 120.891 38.2944 121.494V126H37.2049V121.568C37.2049 121.011 37.0603 120.577 36.771 120.266C36.4817 119.952 36.0846 119.795 35.5799 119.795C35.2321 119.795 34.9213 119.871 34.6474 120.022C34.3765 120.172 34.1626 120.393 34.0057 120.682C33.8487 120.971 33.7702 121.322 33.7702 121.734ZM42.9628 126.148C42.3719 126.148 41.8502 125.998 41.3978 125.7C40.9454 125.398 40.5915 124.974 40.336 124.426C40.0806 123.875 39.9529 123.224 39.9529 122.473C39.9529 121.728 40.0806 121.082 40.336 120.534C40.5915 119.986 40.9469 119.563 41.4024 119.265C41.8579 118.966 42.3842 118.817 42.9813 118.817C43.4429 118.817 43.8076 118.894 44.0754 119.048C44.3462 119.198 44.5524 119.371 44.694 119.565C44.8386 119.755 44.951 119.912 45.031 120.036H45.1233V116.545H46.2128V126H45.1602V124.911H45.031C44.951 125.04 44.8371 125.203 44.6894 125.4C44.5416 125.594 44.3308 125.768 44.0569 125.922C43.783 126.072 43.4183 126.148 42.9628 126.148ZM43.1105 125.169C43.5476 125.169 43.9169 125.055 44.2185 124.827C44.5201 124.597 44.7494 124.278 44.9063 123.872C45.0633 123.462 45.1418 122.99 45.1418 122.455C45.1418 121.925 45.0648 121.462 44.911 121.065C44.7571 120.665 44.5293 120.354 44.2277 120.132C43.9261 119.908 43.5537 119.795 43.1105 119.795C42.6489 119.795 42.2642 119.914 41.9564 120.151C41.6517 120.385 41.4224 120.703 41.2686 121.107C41.1177 121.507 41.0423 121.956 41.0423 122.455C41.0423 122.959 41.1193 123.418 41.2732 123.83C41.4301 124.24 41.661 124.566 41.9656 124.809C42.2734 125.049 42.655 125.169 43.1105 125.169ZM51.3325 126.148C50.6492 126.148 50.0599 125.997 49.5644 125.695C49.0719 125.391 48.6919 124.966 48.4241 124.421C48.1594 123.873 48.0271 123.236 48.0271 122.51C48.0271 121.784 48.1594 121.143 48.4241 120.589C48.6919 120.032 49.0642 119.598 49.5413 119.288C50.0214 118.974 50.5815 118.817 51.2217 118.817C51.591 118.817 51.9557 118.878 52.3158 119.001C52.6759 119.125 53.0036 119.325 53.2991 119.602C53.5945 119.875 53.83 120.239 54.0054 120.691C54.1808 121.143 54.2686 121.701 54.2686 122.362V122.824H48.8026V121.882H53.1606C53.1606 121.482 53.0806 121.125 52.9205 120.811C52.7636 120.497 52.5389 120.249 52.2465 120.068C51.9572 119.886 51.6156 119.795 51.2217 119.795C50.7877 119.795 50.4123 119.903 50.0953 120.119C49.7813 120.331 49.5397 120.608 49.3705 120.95C49.2012 121.291 49.1166 121.657 49.1166 122.048V122.676C49.1166 123.212 49.2089 123.666 49.3936 124.038C49.5813 124.407 49.8414 124.689 50.1737 124.883C50.5061 125.074 50.8924 125.169 51.3325 125.169C51.6187 125.169 51.8772 125.129 52.108 125.049C52.3419 124.966 52.5435 124.843 52.7128 124.68C52.8821 124.513 53.0129 124.307 53.1052 124.061L54.1578 124.357C54.047 124.714 53.8608 125.027 53.5992 125.298C53.3376 125.566 53.0144 125.775 52.6297 125.926C52.245 126.074 51.8126 126.148 51.3325 126.148ZM58.8989 126.148C58.2156 126.148 57.6263 125.997 57.1308 125.695C56.6383 125.391 56.2583 124.966 55.9905 124.421C55.7258 123.873 55.5935 123.236 55.5935 122.51C55.5935 121.784 55.7258 121.143 55.9905 120.589C56.2583 120.032 56.6307 119.598 57.1077 119.288C57.5878 118.974 58.1479 118.817 58.7881 118.817C59.1574 118.817 59.5221 118.878 59.8822 119.001C60.2423 119.125 60.57 119.325 60.8655 119.602C61.161 119.875 61.3964 120.239 61.5718 120.691C61.7472 121.143 61.835 121.701 61.835 122.362V122.824H56.3691V121.882H60.727C60.727 121.482 60.647 121.125 60.4869 120.811C60.33 120.497 60.1053 120.249 59.8129 120.068C59.5236 119.886 59.182 119.795 58.7881 119.795C58.3541 119.795 57.9787 119.903 57.6617 120.119C57.3477 120.331 57.1061 120.608 56.9369 120.95C56.7676 121.291 56.683 121.657 56.683 122.048V122.676C56.683 123.212 56.7753 123.666 56.96 124.038C57.1477 124.407 57.4078 124.689 57.7401 124.883C58.0725 125.074 58.4588 125.169 58.8989 125.169C59.1851 125.169 59.4436 125.129 59.6744 125.049C59.9084 124.966 60.1099 124.843 60.2792 124.68C60.4485 124.513 60.5793 124.307 60.6716 124.061L61.7242 124.357C61.6134 124.714 61.4272 125.027 61.1656 125.298C60.904 125.566 60.5808 125.775 60.1961 125.926C59.8114 126.074 59.379 126.148 58.8989 126.148ZM66.1698 126.148C65.5789 126.148 65.0573 125.998 64.6048 125.7C64.1524 125.398 63.7985 124.974 63.5431 124.426C63.2876 123.875 63.1599 123.224 63.1599 122.473C63.1599 121.728 63.2876 121.082 63.5431 120.534C63.7985 119.986 64.154 119.563 64.6095 119.265C65.065 118.966 65.5912 118.817 66.1883 118.817C66.6499 118.817 67.0146 118.894 67.2824 119.048C67.5532 119.198 67.7594 119.371 67.901 119.565C68.0457 119.755 68.158 119.912 68.238 120.036H68.3303V116.545H69.4198V126H68.3673V124.911H68.238C68.158 125.04 68.0441 125.203 67.8964 125.4C67.7487 125.594 67.5378 125.768 67.2639 125.922C66.99 126.072 66.6253 126.148 66.1698 126.148ZM66.3176 125.169C66.7546 125.169 67.1239 125.055 67.4255 124.827C67.7271 124.597 67.9564 124.278 68.1134 123.872C68.2703 123.462 68.3488 122.99 68.3488 122.455C68.3488 121.925 68.2719 121.462 68.118 121.065C67.9641 120.665 67.7364 120.354 67.4347 120.132C67.1331 119.908 66.7607 119.795 66.3176 119.795C65.8559 119.795 65.4712 119.914 65.1634 120.151C64.8588 120.385 64.6295 120.703 64.4756 121.107C64.3248 121.507 64.2494 121.956 64.2494 122.455C64.2494 122.959 64.3263 123.418 64.4802 123.83C64.6372 124.24 64.868 124.566 65.1727 124.809C65.4804 125.049 65.8621 125.169 66.3176 125.169ZM73.1915 124.707L73.1176 125.206C73.0653 125.557 72.9853 125.932 72.8776 126.332C72.7729 126.732 72.6637 127.109 72.5498 127.463C72.4359 127.817 72.3421 128.099 72.2682 128.308H71.4372C71.4772 128.111 71.5296 127.851 71.5942 127.528C71.6588 127.205 71.7235 126.843 71.7881 126.443C71.8558 126.046 71.9112 125.64 71.9543 125.224L72.0097 124.707H73.1915ZM80.7314 126L78.1461 116.545H79.3095L81.2853 124.246H81.3777L83.3904 116.545H84.6831L86.6958 124.246H86.7882L88.764 116.545H89.9274L87.3422 126H86.1603L84.0737 118.466H83.9998L81.9132 126H80.7314ZM91.2061 126V118.909H92.2956V126H91.2061ZM91.7601 117.727C91.5478 117.727 91.3646 117.655 91.2108 117.51C91.06 117.366 90.9846 117.192 90.9846 116.989C90.9846 116.786 91.06 116.612 91.2108 116.467C91.3646 116.322 91.5478 116.25 91.7601 116.25C91.9725 116.25 92.1541 116.322 92.3049 116.467C92.4587 116.612 92.5357 116.786 92.5357 116.989C92.5357 117.192 92.4587 117.366 92.3049 117.51C92.1541 117.655 91.9725 117.727 91.7601 117.727ZM97.3749 118.909V119.832H93.7002V118.909H97.3749ZM94.7712 117.21H95.8607V123.969C95.8607 124.277 95.9053 124.507 95.9946 124.661C96.0869 124.812 96.2039 124.914 96.3454 124.966C96.4901 125.015 96.6424 125.04 96.8025 125.04C96.9225 125.04 97.021 125.034 97.0979 125.021C97.1749 125.006 97.2364 124.994 97.2826 124.984L97.5042 125.963C97.4303 125.991 97.3272 126.018 97.1949 126.046C97.0625 126.077 96.8948 126.092 96.6917 126.092C96.3839 126.092 96.0823 126.026 95.7868 125.894C95.4945 125.761 95.2513 125.56 95.0574 125.289C94.8666 125.018 94.7712 124.677 94.7712 124.264V117.21ZM100.256 121.734V126H99.1661V116.545H100.256V120.017H100.348C100.514 119.651 100.763 119.36 101.096 119.145C101.431 118.926 101.878 118.817 102.435 118.817C102.918 118.817 103.341 118.914 103.704 119.108C104.067 119.298 104.349 119.592 104.549 119.989C104.752 120.383 104.854 120.885 104.854 121.494V126H103.764V121.568C103.764 121.005 103.618 120.569 103.326 120.262C103.036 119.951 102.635 119.795 102.121 119.795C101.764 119.795 101.444 119.871 101.16 120.022C100.88 120.172 100.659 120.393 100.496 120.682C100.336 120.971 100.256 121.322 100.256 121.734ZM24.1449 142V132.545H25.2898V136.756H30.331V132.545H31.4759V142H30.331V137.771H25.2898V142H24.1449ZM35.7069 142.166C35.2575 142.166 34.8497 142.082 34.4835 141.912C34.1172 141.74 33.8264 141.492 33.611 141.169C33.3955 140.843 33.2878 140.449 33.2878 139.987C33.2878 139.581 33.3678 139.252 33.5279 138.999C33.6879 138.744 33.9018 138.544 34.1696 138.399C34.4373 138.254 34.7328 138.147 35.0559 138.076C35.3822 138.002 35.7099 137.944 36.0392 137.901C36.4701 137.845 36.8194 137.804 37.0872 137.776C37.358 137.745 37.555 137.694 37.6781 137.624C37.8043 137.553 37.8674 137.43 37.8674 137.254V137.217C37.8674 136.762 37.7427 136.408 37.4934 136.156C37.2472 135.903 36.8733 135.777 36.3716 135.777C35.8515 135.777 35.4437 135.891 35.1483 136.119C34.8528 136.346 34.6451 136.589 34.525 136.848L33.4909 136.479C33.6756 136.048 33.9218 135.712 34.2296 135.472C34.5404 135.229 34.879 135.06 35.2452 134.964C35.6145 134.866 35.9777 134.817 36.3347 134.817C36.5624 134.817 36.824 134.844 37.1195 134.9C37.418 134.952 37.7058 135.061 37.9828 135.228C38.2628 135.394 38.4952 135.645 38.6799 135.98C38.8645 136.316 38.9569 136.765 38.9569 137.328V142H37.8674V141.04H37.812C37.7381 141.194 37.615 141.358 37.4426 141.534C37.2703 141.709 37.041 141.858 36.7548 141.982C36.4686 142.105 36.1193 142.166 35.7069 142.166ZM35.873 141.188C36.3039 141.188 36.6671 141.103 36.9625 140.934C37.2611 140.764 37.4857 140.546 37.6365 140.278C37.7904 140.01 37.8674 139.729 37.8674 139.433V138.436C37.8212 138.491 37.7196 138.542 37.5627 138.588C37.4088 138.632 37.2303 138.67 37.0272 138.704C36.8271 138.735 36.6317 138.762 36.4409 138.787C36.2531 138.808 36.1008 138.827 35.9838 138.842C35.7007 138.879 35.436 138.939 35.1898 139.022C34.9467 139.102 34.7497 139.224 34.5989 139.387C34.4512 139.547 34.3773 139.766 34.3773 140.043C34.3773 140.421 34.5173 140.707 34.7974 140.901C35.0806 141.092 35.4391 141.188 35.873 141.188ZM40.9454 142V134.909H41.998V135.98H42.0718C42.2011 135.629 42.435 135.345 42.7735 135.126C43.1121 134.908 43.4937 134.798 43.9184 134.798C43.9984 134.798 44.0985 134.8 44.2185 134.803C44.3385 134.806 44.4293 134.811 44.4909 134.817V135.925C44.4539 135.915 44.3693 135.902 44.2369 135.883C44.1077 135.862 43.9707 135.851 43.8261 135.851C43.4814 135.851 43.1736 135.923 42.9028 136.068C42.635 136.209 42.4227 136.406 42.2657 136.659C42.1118 136.908 42.0349 137.193 42.0349 137.513V142H40.9454ZM48.2441 142.148C47.6531 142.148 47.1315 141.998 46.6791 141.7C46.2267 141.398 45.8727 140.974 45.6173 140.426C45.3618 139.875 45.2341 139.224 45.2341 138.473C45.2341 137.728 45.3618 137.082 45.6173 136.534C45.8727 135.986 46.2282 135.563 46.6837 135.265C47.1392 134.966 47.6655 134.817 48.2625 134.817C48.7242 134.817 49.0889 134.894 49.3566 135.048C49.6275 135.198 49.8337 135.371 49.9752 135.565C50.1199 135.755 50.2322 135.912 50.3122 136.036H50.4046V132.545H51.4941V142H50.4415V140.911H50.3122C50.2322 141.04 50.1183 141.203 49.9706 141.4C49.8229 141.594 49.6121 141.768 49.3382 141.922C49.0642 142.072 48.6995 142.148 48.2441 142.148ZM48.3918 141.169C48.8288 141.169 49.1981 141.055 49.4997 140.827C49.8013 140.597 50.0306 140.278 50.1876 139.872C50.3445 139.462 50.423 138.99 50.423 138.455C50.423 137.925 50.3461 137.462 50.1922 137.065C50.0383 136.665 49.8106 136.354 49.509 136.132C49.2074 135.908 48.835 135.795 48.3918 135.795C47.9301 135.795 47.5454 135.914 47.2377 136.151C46.933 136.385 46.7037 136.703 46.5498 137.107C46.399 137.507 46.3236 137.956 46.3236 138.455C46.3236 138.959 46.4005 139.418 46.5544 139.83C46.7114 140.24 46.9422 140.566 47.2469 140.809C47.5547 141.049 47.9363 141.169 48.3918 141.169ZM58.6634 136.497L57.6847 136.774C57.6232 136.611 57.5324 136.453 57.4124 136.299C57.2954 136.142 57.1354 136.012 56.9323 135.911C56.7291 135.809 56.4691 135.759 56.1521 135.759C55.7181 135.759 55.3565 135.859 55.0672 136.059C54.781 136.256 54.6379 136.506 54.6379 136.811C54.6379 137.082 54.7364 137.296 54.9333 137.453C55.1303 137.61 55.4381 137.741 55.8566 137.845L56.9092 138.104C57.5432 138.258 58.0156 138.493 58.3264 138.81C58.6373 139.124 58.7927 139.529 58.7927 140.024C58.7927 140.43 58.6758 140.794 58.4419 141.114C58.211 141.434 57.8879 141.686 57.4724 141.871C57.0569 142.055 56.5737 142.148 56.0228 142.148C55.2996 142.148 54.701 141.991 54.227 141.677C53.753 141.363 53.453 140.904 53.3268 140.301L54.3609 140.043C54.4594 140.424 54.6456 140.71 54.9195 140.901C55.1965 141.092 55.5581 141.188 56.0044 141.188C56.5122 141.188 56.9153 141.08 57.2139 140.864C57.5155 140.646 57.6663 140.384 57.6663 140.08C57.6663 139.833 57.5801 139.627 57.4078 139.461C57.2354 139.292 56.9707 139.165 56.6137 139.082L55.4319 138.805C54.7825 138.652 54.3055 138.413 54.0008 138.09C53.6992 137.764 53.5484 137.356 53.5484 136.866C53.5484 136.466 53.6607 136.112 53.8854 135.805C54.1131 135.497 54.4224 135.255 54.8133 135.08C55.2072 134.904 55.6535 134.817 56.1521 134.817C56.8538 134.817 57.4047 134.971 57.8048 135.278C58.2079 135.586 58.4942 135.992 58.6634 136.497ZM61.5222 137.734V142H60.4327V132.545H61.5222V136.017H61.6145C61.7807 135.651 62.03 135.36 62.3624 135.145C62.6979 134.926 63.1441 134.817 63.7012 134.817C64.1844 134.817 64.6075 134.914 64.9707 135.108C65.3339 135.298 65.6155 135.592 65.8155 135.989C66.0186 136.383 66.1202 136.885 66.1202 137.494V142H65.0307V137.568C65.0307 137.005 64.8845 136.569 64.5922 136.262C64.3029 135.951 63.9012 135.795 63.3873 135.795C63.0302 135.795 62.7102 135.871 62.427 136.022C62.147 136.172 61.9254 136.393 61.7623 136.682C61.6022 136.971 61.5222 137.322 61.5222 137.734ZM68.1134 142V134.909H69.2029V142H68.1134ZM68.6673 133.727C68.455 133.727 68.2719 133.655 68.118 133.51C67.9672 133.366 67.8918 133.192 67.8918 132.989C67.8918 132.786 67.9672 132.612 68.118 132.467C68.2719 132.322 68.455 132.25 68.6673 132.25C68.8797 132.25 69.0613 132.322 69.2121 132.467C69.366 132.612 69.4429 132.786 69.4429 132.989C69.4429 133.192 69.366 133.366 69.2121 133.51C69.0613 133.655 68.8797 133.727 68.6673 133.727ZM71.1983 144.659V134.909H72.2509V136.036H72.3801C72.4602 135.912 72.571 135.755 72.7125 135.565C72.8572 135.371 73.0634 135.198 73.3311 135.048C73.602 134.894 73.9682 134.817 74.4299 134.817C75.0269 134.817 75.5532 134.966 76.0087 135.265C76.4642 135.563 76.8197 135.986 77.0751 136.534C77.3306 137.082 77.4583 137.728 77.4583 138.473C77.4583 139.224 77.3306 139.875 77.0751 140.426C76.8197 140.974 76.4657 141.398 76.0133 141.7C75.5609 141.998 75.0392 142.148 74.4483 142.148C73.9928 142.148 73.6281 142.072 73.3542 141.922C73.0803 141.768 72.8695 141.594 72.7218 141.4C72.574 141.203 72.4602 141.04 72.3801 140.911H72.2878V144.659H71.1983ZM72.2694 138.455C72.2694 138.99 72.3478 139.462 72.5048 139.872C72.6618 140.278 72.891 140.597 73.1926 140.827C73.4943 141.055 73.8636 141.169 74.3006 141.169C74.7561 141.169 75.1362 141.049 75.4409 140.809C75.7486 140.566 75.9795 140.24 76.1333 139.83C76.2903 139.418 76.3688 138.959 76.3688 138.455C76.3688 137.956 76.2918 137.507 76.138 137.107C75.9872 136.703 75.7579 136.385 75.4501 136.151C75.1454 135.914 74.7623 135.795 74.3006 135.795C73.8574 135.795 73.485 135.908 73.1834 136.132C72.8818 136.354 72.6541 136.665 72.5002 137.065C72.3463 137.462 72.2694 137.925 72.2694 138.455ZM90.5321 135.5H89.3873C89.3195 135.171 89.2011 134.881 89.0318 134.632C88.8656 134.383 88.6625 134.174 88.4224 134.004C88.1854 133.832 87.9223 133.703 87.633 133.616C87.3437 133.53 87.0421 133.487 86.7282 133.487C86.1557 133.487 85.6371 133.632 85.1724 133.921C84.7108 134.21 84.343 134.637 84.0691 135.2C83.7982 135.763 83.6628 136.454 83.6628 137.273C83.6628 138.091 83.7982 138.782 84.0691 139.346C84.343 139.909 84.7108 140.335 85.1724 140.624C85.6371 140.914 86.1557 141.058 86.7282 141.058C87.0421 141.058 87.3437 141.015 87.633 140.929C87.9223 140.843 88.1854 140.715 88.4224 140.546C88.6625 140.373 88.8656 140.163 89.0318 139.913C89.2011 139.661 89.3195 139.372 89.3873 139.045H90.5321C90.446 139.529 90.289 139.961 90.0613 140.343C89.8335 140.724 89.5504 141.049 89.2118 141.317C88.8733 141.581 88.4932 141.783 88.0716 141.922C87.653 142.06 87.2052 142.129 86.7282 142.129C85.9218 142.129 85.2047 141.932 84.5769 141.538C83.949 141.144 83.4551 140.584 83.095 139.858C82.7349 139.132 82.5549 138.27 82.5549 137.273C82.5549 136.276 82.7349 135.414 83.095 134.688C83.4551 133.961 83.949 133.401 84.5769 133.007C85.2047 132.613 85.9218 132.416 86.7282 132.416C87.2052 132.416 87.653 132.485 88.0716 132.624C88.4932 132.762 88.8733 132.966 89.2118 133.233C89.5504 133.498 89.8335 133.821 90.0613 134.203C90.289 134.581 90.446 135.014 90.5321 135.5ZM95.1151 142.148C94.475 142.148 93.9133 141.995 93.4301 141.691C92.95 141.386 92.5745 140.96 92.3037 140.412C92.036 139.864 91.9021 139.224 91.9021 138.491C91.9021 137.753 92.036 137.108 92.3037 136.557C92.5745 136.006 92.95 135.578 93.4301 135.274C93.9133 134.969 94.475 134.817 95.1151 134.817C95.7553 134.817 96.3154 134.969 96.7955 135.274C97.2787 135.578 97.6542 136.006 97.922 136.557C98.1928 137.108 98.3282 137.753 98.3282 138.491C98.3282 139.224 98.1928 139.864 97.922 140.412C97.6542 140.96 97.2787 141.386 96.7955 141.691C96.3154 141.995 95.7553 142.148 95.1151 142.148ZM95.1151 141.169C95.6014 141.169 96.0015 141.044 96.3154 140.795C96.6294 140.546 96.8617 140.218 97.0125 139.812C97.1633 139.406 97.2387 138.965 97.2387 138.491C97.2387 138.018 97.1633 137.576 97.0125 137.167C96.8617 136.757 96.6294 136.426 96.3154 136.174C96.0015 135.922 95.6014 135.795 95.1151 135.795C94.6289 135.795 94.2288 135.922 93.9149 136.174C93.6009 136.426 93.3686 136.757 93.2178 137.167C93.067 137.576 92.9916 138.018 92.9916 138.491C92.9916 138.965 93.067 139.406 93.2178 139.812C93.3686 140.218 93.6009 140.546 93.9149 140.795C94.2288 141.044 94.6289 141.169 95.1151 141.169ZM99.9913 142V134.909H101.044V136.017H101.136C101.284 135.638 101.522 135.345 101.852 135.135C102.181 134.923 102.577 134.817 103.038 134.817C103.506 134.817 103.895 134.923 104.206 135.135C104.52 135.345 104.765 135.638 104.94 136.017H105.014C105.196 135.651 105.468 135.36 105.831 135.145C106.194 134.926 106.63 134.817 107.138 134.817C107.772 134.817 108.29 135.015 108.693 135.412C109.097 135.806 109.298 136.42 109.298 137.254V142H108.209V137.254C108.209 136.731 108.066 136.357 107.779 136.132C107.493 135.908 107.156 135.795 106.768 135.795C106.27 135.795 105.883 135.946 105.61 136.248C105.336 136.546 105.199 136.925 105.199 137.384V142H104.091V137.143C104.091 136.74 103.96 136.416 103.698 136.169C103.437 135.92 103.1 135.795 102.687 135.795C102.404 135.795 102.14 135.871 101.893 136.022C101.65 136.172 101.453 136.382 101.302 136.65C101.155 136.914 101.081 137.22 101.081 137.568V142H99.9913ZM114.263 142.148C113.58 142.148 112.991 141.997 112.495 141.695C112.003 141.391 111.623 140.966 111.355 140.421C111.09 139.873 110.958 139.236 110.958 138.51C110.958 137.784 111.09 137.143 111.355 136.589C111.623 136.032 111.995 135.598 112.472 135.288C112.952 134.974 113.512 134.817 114.152 134.817C114.522 134.817 114.886 134.878 115.246 135.001C115.607 135.125 115.934 135.325 116.23 135.602C116.525 135.875 116.761 136.239 116.936 136.691C117.112 137.143 117.199 137.701 117.199 138.362V138.824H111.733V137.882H116.091C116.091 137.482 116.011 137.125 115.851 136.811C115.694 136.497 115.47 136.249 115.177 136.068C114.888 135.886 114.546 135.795 114.152 135.795C113.718 135.795 113.343 135.903 113.026 136.119C112.712 136.331 112.47 136.608 112.301 136.95C112.132 137.291 112.047 137.657 112.047 138.048V138.676C112.047 139.212 112.14 139.666 112.324 140.038C112.512 140.407 112.772 140.689 113.104 140.883C113.437 141.074 113.823 141.169 114.263 141.169C114.549 141.169 114.808 141.129 115.039 141.049C115.273 140.966 115.474 140.843 115.643 140.68C115.813 140.513 115.944 140.307 116.036 140.061L117.088 140.357C116.978 140.714 116.791 141.027 116.53 141.298C116.268 141.566 115.945 141.775 115.56 141.926C115.176 142.074 114.743 142.148 114.263 142.148ZM123.879 136.497L122.901 136.774C122.839 136.611 122.748 136.453 122.628 136.299C122.511 136.142 122.351 136.012 122.148 135.911C121.945 135.809 121.685 135.759 121.368 135.759C120.934 135.759 120.572 135.859 120.283 136.059C119.997 136.256 119.854 136.506 119.854 136.811C119.854 137.082 119.952 137.296 120.149 137.453C120.346 137.61 120.654 137.741 121.072 137.845L122.125 138.104C122.759 138.258 123.231 138.493 123.542 138.81C123.853 139.124 124.009 139.529 124.009 140.024C124.009 140.43 123.892 140.794 123.658 141.114C123.427 141.434 123.104 141.686 122.688 141.871C122.273 142.055 121.79 142.148 121.239 142.148C120.515 142.148 119.917 141.991 119.443 141.677C118.969 141.363 118.669 140.904 118.543 140.301L119.577 140.043C119.675 140.424 119.861 140.71 120.135 140.901C120.412 141.092 120.774 141.188 121.22 141.188C121.728 141.188 122.131 141.08 122.43 140.864C122.731 140.646 122.882 140.384 122.882 140.08C122.882 139.833 122.796 139.627 122.624 139.461C122.451 139.292 122.187 139.165 121.83 139.082L120.648 138.805C119.998 138.652 119.521 138.413 119.217 138.09C118.915 137.764 118.764 137.356 118.764 136.866C118.764 136.466 118.877 136.112 119.101 135.805C119.329 135.497 119.638 135.255 120.029 135.08C120.423 134.904 120.869 134.817 121.368 134.817C122.07 134.817 122.621 134.971 123.021 135.278C123.424 135.586 123.71 135.992 123.879 136.497ZM129.453 142V132.545H135.158V133.561H130.597V136.756H134.863V137.771H130.597V140.984H135.232V142H129.453ZM139.161 142.166C138.712 142.166 138.304 142.082 137.938 141.912C137.571 141.74 137.281 141.492 137.065 141.169C136.85 140.843 136.742 140.449 136.742 139.987C136.742 139.581 136.822 139.252 136.982 138.999C137.142 138.744 137.356 138.544 137.624 138.399C137.891 138.254 138.187 138.147 138.51 138.076C138.836 138.002 139.164 137.944 139.493 137.901C139.924 137.845 140.274 137.804 140.541 137.776C140.812 137.745 141.009 137.694 141.132 137.624C141.258 137.553 141.321 137.43 141.321 137.254V137.217C141.321 136.762 141.197 136.408 140.948 136.156C140.701 135.903 140.327 135.777 139.826 135.777C139.306 135.777 138.898 135.891 138.602 136.119C138.307 136.346 138.099 136.589 137.979 136.848L136.945 136.479C137.13 136.048 137.376 135.712 137.684 135.472C137.995 135.229 138.333 135.06 138.699 134.964C139.069 134.866 139.432 134.817 139.789 134.817C140.017 134.817 140.278 134.844 140.574 134.9C140.872 134.952 141.16 135.061 141.437 135.228C141.717 135.394 141.949 135.645 142.134 135.98C142.319 136.316 142.411 136.765 142.411 137.328V142H141.321V141.04H141.266C141.192 141.194 141.069 141.358 140.897 141.534C140.724 141.709 140.495 141.858 140.209 141.982C139.923 142.105 139.573 142.166 139.161 142.166ZM139.327 141.188C139.758 141.188 140.121 141.103 140.417 140.934C140.715 140.764 140.94 140.546 141.091 140.278C141.245 140.01 141.321 139.729 141.321 139.433V138.436C141.275 138.491 141.174 138.542 141.017 138.588C140.863 138.632 140.684 138.67 140.481 138.704C140.281 138.735 140.086 138.762 139.895 138.787C139.707 138.808 139.555 138.827 139.438 138.842C139.155 138.879 138.89 138.939 138.644 139.022C138.401 139.102 138.204 139.224 138.053 139.387C137.905 139.547 137.831 139.766 137.831 140.043C137.831 140.421 137.971 140.707 138.252 140.901C138.535 141.092 138.893 141.188 139.327 141.188ZM149.422 136.497L148.444 136.774C148.382 136.611 148.291 136.453 148.171 136.299C148.054 136.142 147.894 136.012 147.691 135.911C147.488 135.809 147.228 135.759 146.911 135.759C146.477 135.759 146.115 135.859 145.826 136.059C145.54 136.256 145.397 136.506 145.397 136.811C145.397 137.082 145.495 137.296 145.692 137.453C145.889 137.61 146.197 137.741 146.615 137.845L147.668 138.104C148.302 138.258 148.774 138.493 149.085 138.81C149.396 139.124 149.551 139.529 149.551 140.024C149.551 140.43 149.435 140.794 149.201 141.114C148.97 141.434 148.647 141.686 148.231 141.871C147.816 142.055 147.333 142.148 146.782 142.148C146.058 142.148 145.46 141.991 144.986 141.677C144.512 141.363 144.212 140.904 144.086 140.301L145.12 140.043C145.218 140.424 145.404 140.71 145.678 140.901C145.955 141.092 146.317 141.188 146.763 141.188C147.271 141.188 147.674 141.08 147.973 140.864C148.274 140.646 148.425 140.384 148.425 140.08C148.425 139.833 148.339 139.627 148.167 139.461C147.994 139.292 147.73 139.165 147.373 139.082L146.191 138.805C145.541 138.652 145.064 138.413 144.76 138.09C144.458 137.764 144.307 137.356 144.307 136.866C144.307 136.466 144.42 136.112 144.644 135.805C144.872 135.497 145.181 135.255 145.572 135.08C145.966 134.904 146.412 134.817 146.911 134.817C147.613 134.817 148.163 134.971 148.564 135.278C148.967 135.586 149.253 135.992 149.422 136.497ZM154.165 142.148C153.481 142.148 152.892 141.997 152.396 141.695C151.904 141.391 151.524 140.966 151.256 140.421C150.991 139.873 150.859 139.236 150.859 138.51C150.859 137.784 150.991 137.143 151.256 136.589C151.524 136.032 151.896 135.598 152.373 135.288C152.853 134.974 153.414 134.817 154.054 134.817C154.423 134.817 154.788 134.878 155.148 135.001C155.508 135.125 155.836 135.325 156.131 135.602C156.427 135.875 156.662 136.239 156.837 136.691C157.013 137.143 157.101 137.701 157.101 138.362V138.824H151.635V137.882H155.993C155.993 137.482 155.913 137.125 155.753 136.811C155.596 136.497 155.371 136.249 155.079 136.068C154.789 135.886 154.448 135.795 154.054 135.795C153.62 135.795 153.244 135.903 152.927 136.119C152.613 136.331 152.372 136.608 152.203 136.95C152.033 137.291 151.949 137.657 151.949 138.048V138.676C151.949 139.212 152.041 139.666 152.226 140.038C152.413 140.407 152.673 140.689 153.006 140.883C153.338 141.074 153.724 141.169 154.165 141.169C154.451 141.169 154.709 141.129 154.94 141.049C155.174 140.966 155.376 140.843 155.545 140.68C155.714 140.513 155.845 140.307 155.937 140.061L156.99 140.357C156.879 140.714 156.693 141.027 156.431 141.298C156.17 141.566 155.846 141.775 155.462 141.926C155.077 142.074 154.645 142.148 154.165 142.148ZM159.552 142.074C159.324 142.074 159.129 141.992 158.966 141.829C158.803 141.666 158.721 141.471 158.721 141.243C158.721 141.015 158.803 140.82 158.966 140.657C159.129 140.493 159.324 140.412 159.552 140.412C159.78 140.412 159.975 140.493 160.138 140.657C160.301 140.82 160.383 141.015 160.383 141.243C160.383 141.394 160.344 141.532 160.267 141.658C160.194 141.785 160.094 141.886 159.967 141.963C159.844 142.037 159.706 142.074 159.552 142.074ZM162.213 132.545V135.795H161.198V132.545H162.213ZM164.577 132.545V135.795H163.561V132.545H164.577Z" fill="#FBFBFB"/>
</svg>
