<svg width="334" height="174" viewBox="0 0 334 174" fill="none" xmlns="http://www.w3.org/2000/svg">
<rect y="45" width="334" height="118" rx="30" fill="#42C83C"/>
<path d="M28.3153 118.909C28.2599 118.441 28.0353 118.078 27.6413 117.82C27.2474 117.561 26.7642 117.432 26.1918 117.432C25.7732 117.432 25.407 117.5 25.093 117.635C24.7822 117.77 24.5391 117.957 24.3636 118.194C24.1913 118.431 24.1051 118.7 24.1051 119.001C24.1051 119.254 24.1651 119.471 24.2852 119.652C24.4083 119.831 24.5652 119.98 24.756 120.1C24.9469 120.217 25.1469 120.314 25.3562 120.391C25.5655 120.465 25.7578 120.525 25.9332 120.571L26.8935 120.83C27.1397 120.894 27.4136 120.983 27.7152 121.097C28.0199 121.211 28.3107 121.367 28.5877 121.564C28.8678 121.757 29.0986 122.007 29.2802 122.311C29.4618 122.616 29.5526 122.99 29.5526 123.433C29.5526 123.944 29.4187 124.406 29.1509 124.818C28.8862 125.231 28.4985 125.558 27.9876 125.801C27.4798 126.045 26.8627 126.166 26.1364 126.166C25.4593 126.166 24.873 126.057 24.3775 125.838C23.8851 125.62 23.4973 125.315 23.2141 124.924C22.9341 124.533 22.7756 124.08 22.7386 123.562H23.9205C23.9512 123.92 24.0713 124.215 24.2805 124.449C24.4929 124.68 24.7607 124.852 25.0838 124.966C25.41 125.077 25.7609 125.132 26.1364 125.132C26.5734 125.132 26.9658 125.061 27.3136 124.92C27.6613 124.775 27.9368 124.575 28.1399 124.32C28.343 124.061 28.4446 123.759 28.4446 123.415C28.4446 123.101 28.3569 122.845 28.1815 122.648C28.006 122.451 27.7752 122.291 27.489 122.168C27.2028 122.045 26.8935 121.937 26.5611 121.845L25.3977 121.513C24.6591 121.3 24.0743 120.997 23.6435 120.603C23.2126 120.209 22.9972 119.694 22.9972 119.057C22.9972 118.527 23.1403 118.066 23.4265 117.672C23.7158 117.275 24.1036 116.967 24.5898 116.749C25.0792 116.527 25.6255 116.416 26.2287 116.416C26.8381 116.416 27.3797 116.525 27.8537 116.744C28.3277 116.959 28.7031 117.255 28.9801 117.63C29.2602 118.006 29.4079 118.432 29.4233 118.909H28.3153ZM34.1679 126.148C33.5277 126.148 32.9661 125.995 32.4829 125.691C32.0028 125.386 31.6273 124.96 31.3564 124.412C31.0887 123.864 30.9548 123.224 30.9548 122.491C30.9548 121.753 31.0887 121.108 31.3564 120.557C31.6273 120.006 32.0028 119.578 32.4829 119.274C32.9661 118.969 33.5277 118.817 34.1679 118.817C34.808 118.817 35.3682 118.969 35.8483 119.274C36.3315 119.578 36.7069 120.006 36.9747 120.557C37.2455 121.108 37.3809 121.753 37.3809 122.491C37.3809 123.224 37.2455 123.864 36.9747 124.412C36.7069 124.96 36.3315 125.386 35.8483 125.691C35.3682 125.995 34.808 126.148 34.1679 126.148ZM34.1679 125.169C34.6541 125.169 35.0542 125.044 35.3682 124.795C35.6821 124.546 35.9144 124.218 36.0653 123.812C36.2161 123.406 36.2915 122.965 36.2915 122.491C36.2915 122.018 36.2161 121.576 36.0653 121.167C35.9144 120.757 35.6821 120.426 35.3682 120.174C35.0542 119.922 34.6541 119.795 34.1679 119.795C33.6816 119.795 33.2815 119.922 32.9676 120.174C32.6537 120.426 32.4213 120.757 32.2705 121.167C32.1197 121.576 32.0443 122.018 32.0443 122.491C32.0443 122.965 32.1197 123.406 32.2705 123.812C32.4213 124.218 32.6537 124.546 32.9676 124.795C33.2815 125.044 33.6816 125.169 34.1679 125.169ZM44.5653 126L41.9801 116.545H43.1435L45.1193 124.246H45.2116L47.2244 116.545H48.517L50.5298 124.246H50.6222L52.598 116.545H53.7614L51.1761 126H49.9943L47.9077 118.466H47.8338L45.7472 126H44.5653ZM56.1296 121.734V126H55.0401V116.545H56.1296V120.017H56.2219C56.3881 119.651 56.6374 119.36 56.9698 119.145C57.3053 118.926 57.7515 118.817 58.3086 118.817C58.7918 118.817 59.215 118.914 59.5781 119.108C59.9413 119.298 60.2229 119.592 60.4229 119.989C60.6261 120.383 60.7276 120.885 60.7276 121.494V126H59.6381V121.568C59.6381 121.005 59.492 120.569 59.1996 120.262C58.9103 119.951 58.5086 119.795 57.9947 119.795C57.6377 119.795 57.3176 119.871 57.0344 120.022C56.7544 120.172 56.5328 120.393 56.3697 120.682C56.2096 120.971 56.1296 121.322 56.1296 121.734ZM62.7208 126V118.909H63.8103V126H62.7208ZM63.2748 117.727C63.0624 117.727 62.8793 117.655 62.7254 117.51C62.5746 117.366 62.4992 117.192 62.4992 116.989C62.4992 116.786 62.5746 116.612 62.7254 116.467C62.8793 116.322 63.0624 116.25 63.2748 116.25C63.4871 116.25 63.6687 116.322 63.8195 116.467C63.9734 116.612 64.0503 116.786 64.0503 116.989C64.0503 117.192 63.9734 117.366 63.8195 117.51C63.6687 117.655 63.4871 117.727 63.2748 117.727ZM68.6864 126.148C68.0217 126.148 67.4492 125.991 66.9691 125.677C66.489 125.363 66.1197 124.931 65.8612 124.38C65.6026 123.829 65.4734 123.199 65.4734 122.491C65.4734 121.771 65.6057 121.136 65.8704 120.585C66.1381 120.031 66.5105 119.598 66.9876 119.288C67.4677 118.974 68.0278 118.817 68.668 118.817C69.1665 118.817 69.6159 118.909 70.016 119.094C70.4161 119.278 70.7438 119.537 70.9993 119.869C71.2547 120.202 71.4132 120.589 71.4748 121.033H70.3853C70.3022 120.71 70.1175 120.423 69.8313 120.174C69.5482 119.922 69.1665 119.795 68.6864 119.795C68.2617 119.795 67.8893 119.906 67.5692 120.128C67.2522 120.346 67.0045 120.656 66.826 121.056C66.6506 121.453 66.5629 121.919 66.5629 122.455C66.5629 123.002 66.649 123.479 66.8214 123.886C66.9968 124.292 67.243 124.607 67.56 124.832C67.8801 125.057 68.2556 125.169 68.6864 125.169C68.9696 125.169 69.2266 125.12 69.4574 125.021C69.6882 124.923 69.8836 124.781 70.0437 124.597C70.2037 124.412 70.3176 124.19 70.3853 123.932H71.4748C71.4132 124.35 71.2609 124.727 71.0178 125.063C70.7777 125.395 70.4592 125.66 70.0621 125.857C69.6682 126.051 69.2096 126.148 68.6864 126.148ZM74.157 121.734V126H73.0675V116.545H74.157V120.017H74.2493C74.4155 119.651 74.6648 119.36 74.9972 119.145C75.3326 118.926 75.7789 118.817 76.3359 118.817C76.8191 118.817 77.2423 118.914 77.6055 119.108C77.9686 119.298 78.2502 119.592 78.4503 119.989C78.6534 120.383 78.755 120.885 78.755 121.494V126H77.6655V121.568C77.6655 121.005 77.5193 120.569 77.2269 120.262C76.9376 119.951 76.536 119.795 76.022 119.795C75.665 119.795 75.3449 119.871 75.0618 120.022C74.7817 120.172 74.5601 120.393 74.397 120.682C74.237 120.971 74.157 121.322 74.157 121.734ZM92.5294 121.273C92.5294 122.27 92.3493 123.132 91.9893 123.858C91.6292 124.584 91.1352 125.144 90.5074 125.538C89.8795 125.932 89.1624 126.129 88.3561 126.129C87.5497 126.129 86.8327 125.932 86.2048 125.538C85.577 125.144 85.083 124.584 84.7229 123.858C84.3628 123.132 84.1828 122.27 84.1828 121.273C84.1828 120.276 84.3628 119.414 84.7229 118.688C85.083 117.961 85.577 117.401 86.2048 117.007C86.8327 116.613 87.5497 116.416 88.3561 116.416C89.1624 116.416 89.8795 116.613 90.5074 117.007C91.1352 117.401 91.6292 117.961 91.9893 118.688C92.3493 119.414 92.5294 120.276 92.5294 121.273ZM91.4214 121.273C91.4214 120.454 91.2845 119.763 91.0106 119.2C90.7397 118.637 90.372 118.21 89.9072 117.921C89.4456 117.632 88.9285 117.487 88.3561 117.487C87.7836 117.487 87.2651 117.632 86.8003 117.921C86.3387 118.21 85.9709 118.637 85.697 119.2C85.4262 119.763 85.2907 120.454 85.2907 121.273C85.2907 122.091 85.4262 122.782 85.697 123.346C85.9709 123.909 86.3387 124.335 86.8003 124.624C87.2651 124.914 87.7836 125.058 88.3561 125.058C88.9285 125.058 89.4456 124.914 89.9072 124.624C90.372 124.335 90.7397 123.909 91.0106 123.346C91.2845 122.782 91.4214 122.091 91.4214 121.273ZM97.4644 118.909V119.832H93.642V118.909H97.4644ZM94.7868 126V117.93C94.7868 117.524 94.8823 117.186 95.0731 116.915C95.2639 116.644 95.5116 116.441 95.8163 116.305C96.121 116.17 96.4426 116.102 96.7812 116.102C97.0489 116.102 97.2674 116.124 97.4367 116.167C97.606 116.21 97.7322 116.25 97.8153 116.287L97.5013 117.229C97.4459 117.21 97.369 117.187 97.2705 117.159C97.1751 117.132 97.0489 117.118 96.892 117.118C96.5319 117.118 96.2718 117.209 96.1118 117.39C95.9548 117.572 95.8763 117.838 95.8763 118.189V126H94.7868ZM102.278 117.561V116.545H109.369V117.561H106.396V126H105.251V117.561H102.278ZM112.078 121.734V126H110.988V116.545H112.078V120.017H112.17C112.336 119.651 112.586 119.36 112.918 119.145C113.254 118.926 113.7 118.817 114.257 118.817C114.74 118.817 115.163 118.914 115.526 119.108C115.89 119.298 116.171 119.592 116.371 119.989C116.574 120.383 116.676 120.885 116.676 121.494V126H115.586V121.568C115.586 121.005 115.44 120.569 115.148 120.262C114.859 119.951 114.457 119.795 113.943 119.795C113.586 119.795 113.266 119.871 112.983 120.022C112.703 120.172 112.481 120.393 112.318 120.682C112.158 120.971 112.078 121.322 112.078 121.734ZM121.642 126.148C120.959 126.148 120.369 125.997 119.874 125.695C119.382 125.391 119.001 124.966 118.734 124.421C118.469 123.873 118.337 123.236 118.337 122.51C118.337 121.784 118.469 121.143 118.734 120.589C119.001 120.032 119.374 119.598 119.851 119.288C120.331 118.974 120.891 118.817 121.531 118.817C121.901 118.817 122.265 118.878 122.625 119.001C122.985 119.125 123.313 119.325 123.609 119.602C123.904 119.875 124.14 120.239 124.315 120.691C124.49 121.143 124.578 121.701 124.578 122.362V122.824H119.112V121.882H123.47C123.47 121.482 123.39 121.125 123.23 120.811C123.073 120.497 122.848 120.249 122.556 120.068C122.267 119.886 121.925 119.795 121.531 119.795C121.097 119.795 120.722 119.903 120.405 120.119C120.091 120.331 119.849 120.608 119.68 120.95C119.511 121.291 119.426 121.657 119.426 122.048V122.676C119.426 123.212 119.518 123.666 119.703 124.038C119.891 124.407 120.151 124.689 120.483 124.883C120.816 125.074 121.202 125.169 121.642 125.169C121.928 125.169 122.187 125.129 122.418 125.049C122.652 124.966 122.853 124.843 123.022 124.68C123.192 124.513 123.322 124.307 123.415 124.061L124.467 124.357C124.357 124.714 124.17 125.027 123.909 125.298C123.647 125.566 123.324 125.775 122.939 125.926C122.555 126.074 122.122 126.148 121.642 126.148ZM130.039 126V116.545H135.708V117.561H131.184V120.756H135.284V121.771H131.184V126H130.039ZM139.608 126.166C139.159 126.166 138.751 126.082 138.385 125.912C138.019 125.74 137.728 125.492 137.512 125.169C137.297 124.843 137.189 124.449 137.189 123.987C137.189 123.581 137.269 123.252 137.429 122.999C137.589 122.744 137.803 122.544 138.071 122.399C138.339 122.254 138.634 122.147 138.957 122.076C139.284 122.002 139.611 121.944 139.941 121.901C140.371 121.845 140.721 121.804 140.989 121.776C141.259 121.745 141.456 121.694 141.579 121.624C141.706 121.553 141.769 121.43 141.769 121.254V121.217C141.769 120.762 141.644 120.408 141.395 120.156C141.149 119.903 140.775 119.777 140.273 119.777C139.753 119.777 139.345 119.891 139.05 120.119C138.754 120.346 138.546 120.589 138.426 120.848L137.392 120.479C137.577 120.048 137.823 119.712 138.131 119.472C138.442 119.229 138.78 119.06 139.147 118.964C139.516 118.866 139.879 118.817 140.236 118.817C140.464 118.817 140.725 118.844 141.021 118.9C141.319 118.952 141.607 119.061 141.884 119.228C142.164 119.394 142.397 119.645 142.581 119.98C142.766 120.316 142.858 120.765 142.858 121.328V126H141.769V125.04H141.713C141.639 125.194 141.516 125.358 141.344 125.534C141.172 125.709 140.942 125.858 140.656 125.982C140.37 126.105 140.021 126.166 139.608 126.166ZM139.774 125.188C140.205 125.188 140.568 125.103 140.864 124.934C141.162 124.764 141.387 124.546 141.538 124.278C141.692 124.01 141.769 123.729 141.769 123.433V122.436C141.723 122.491 141.621 122.542 141.464 122.588C141.31 122.632 141.132 122.67 140.929 122.704C140.728 122.735 140.533 122.762 140.342 122.787C140.155 122.808 140.002 122.827 139.885 122.842C139.602 122.879 139.337 122.939 139.091 123.022C138.848 123.102 138.651 123.224 138.5 123.387C138.353 123.547 138.279 123.766 138.279 124.043C138.279 124.421 138.419 124.707 138.699 124.901C138.982 125.092 139.34 125.188 139.774 125.188ZM150.391 118.909L147.769 126H146.661L144.039 118.909H145.221L147.178 124.56H147.252L149.209 118.909H150.391ZM154.456 126.148C153.816 126.148 153.254 125.995 152.771 125.691C152.291 125.386 151.915 124.96 151.645 124.412C151.377 123.864 151.243 123.224 151.243 122.491C151.243 121.753 151.377 121.108 151.645 120.557C151.915 120.006 152.291 119.578 152.771 119.274C153.254 118.969 153.816 118.817 154.456 118.817C155.096 118.817 155.656 118.969 156.136 119.274C156.62 119.578 156.995 120.006 157.263 120.557C157.534 121.108 157.669 121.753 157.669 122.491C157.669 123.224 157.534 123.864 157.263 124.412C156.995 124.96 156.62 125.386 156.136 125.691C155.656 125.995 155.096 126.148 154.456 126.148ZM154.456 125.169C154.942 125.169 155.342 125.044 155.656 124.795C155.97 124.546 156.203 124.218 156.353 123.812C156.504 123.406 156.58 122.965 156.58 122.491C156.58 122.018 156.504 121.576 156.353 121.167C156.203 120.757 155.97 120.426 155.656 120.174C155.342 119.922 154.942 119.795 154.456 119.795C153.97 119.795 153.57 119.922 153.256 120.174C152.942 120.426 152.709 120.757 152.559 121.167C152.408 121.576 152.332 122.018 152.332 122.491C152.332 122.965 152.408 123.406 152.559 123.812C152.709 124.218 152.942 124.546 153.256 124.795C153.57 125.044 153.97 125.169 154.456 125.169ZM159.332 126V118.909H160.385V119.98H160.459C160.588 119.629 160.822 119.345 161.16 119.126C161.499 118.908 161.88 118.798 162.305 118.798C162.385 118.798 162.485 118.8 162.605 118.803C162.725 118.806 162.816 118.811 162.878 118.817V119.925C162.841 119.915 162.756 119.902 162.624 119.883C162.494 119.862 162.357 119.851 162.213 119.851C161.868 119.851 161.56 119.923 161.29 120.068C161.022 120.209 160.809 120.406 160.652 120.659C160.499 120.908 160.422 121.193 160.422 121.513V126H159.332ZM169.192 120.497L168.213 120.774C168.152 120.611 168.061 120.453 167.941 120.299C167.824 120.142 167.664 120.012 167.461 119.911C167.257 119.809 166.997 119.759 166.68 119.759C166.246 119.759 165.885 119.859 165.596 120.059C165.309 120.256 165.166 120.506 165.166 120.811C165.166 121.082 165.265 121.296 165.462 121.453C165.659 121.61 165.966 121.741 166.385 121.845L167.438 122.104C168.071 122.258 168.544 122.493 168.855 122.81C169.166 123.124 169.321 123.529 169.321 124.024C169.321 124.43 169.204 124.794 168.97 125.114C168.739 125.434 168.416 125.686 168.001 125.871C167.585 126.055 167.102 126.148 166.551 126.148C165.828 126.148 165.229 125.991 164.755 125.677C164.281 125.363 163.981 124.904 163.855 124.301L164.889 124.043C164.988 124.424 165.174 124.71 165.448 124.901C165.725 125.092 166.086 125.188 166.533 125.188C167.04 125.188 167.444 125.08 167.742 124.864C168.044 124.646 168.195 124.384 168.195 124.08C168.195 123.833 168.108 123.627 167.936 123.461C167.764 123.292 167.499 123.165 167.142 123.082L165.96 122.805C165.311 122.652 164.834 122.413 164.529 122.09C164.228 121.764 164.077 121.356 164.077 120.866C164.077 120.466 164.189 120.112 164.414 119.805C164.641 119.497 164.951 119.255 165.342 119.08C165.736 118.904 166.182 118.817 166.68 118.817C167.382 118.817 167.933 118.971 168.333 119.278C168.736 119.586 169.022 119.992 169.192 120.497ZM182.742 121.273C182.742 122.27 182.562 123.132 182.202 123.858C181.842 124.584 181.348 125.144 180.72 125.538C180.092 125.932 179.375 126.129 178.569 126.129C177.763 126.129 177.046 125.932 176.418 125.538C175.79 125.144 175.296 124.584 174.936 123.858C174.576 123.132 174.396 122.27 174.396 121.273C174.396 120.276 174.576 119.414 174.936 118.688C175.296 117.961 175.79 117.401 176.418 117.007C177.046 116.613 177.763 116.416 178.569 116.416C179.375 116.416 180.092 116.613 180.72 117.007C181.348 117.401 181.842 117.961 182.202 118.688C182.562 119.414 182.742 120.276 182.742 121.273ZM181.634 121.273C181.634 120.454 181.497 119.763 181.223 119.2C180.953 118.637 180.585 118.21 180.12 117.921C179.658 117.632 179.141 117.487 178.569 117.487C177.997 117.487 177.478 117.632 177.013 117.921C176.552 118.21 176.184 118.637 175.91 119.2C175.639 119.763 175.504 120.454 175.504 121.273C175.504 122.091 175.639 122.782 175.91 123.346C176.184 123.909 176.552 124.335 177.013 124.624C177.478 124.914 177.997 125.058 178.569 125.058C179.141 125.058 179.658 124.914 180.12 124.624C180.585 124.335 180.953 123.909 181.223 123.346C181.497 122.782 181.634 122.091 181.634 121.273ZM187.677 118.909V119.832H183.855V118.909H187.677ZM185 126V117.93C185 117.524 185.095 117.186 185.286 116.915C185.477 116.644 185.725 116.441 186.029 116.305C186.334 116.17 186.656 116.102 186.994 116.102C187.262 116.102 187.48 116.124 187.65 116.167C187.819 116.21 187.945 116.25 188.028 116.287L187.714 117.229C187.659 117.21 187.582 117.187 187.483 117.159C187.388 117.132 187.262 117.118 187.105 117.118C186.745 117.118 186.485 117.209 186.325 117.39C186.168 117.572 186.089 117.838 186.089 118.189V126H185ZM22.3324 132.545H23.6435L26.2656 136.959H26.3764L28.9986 132.545H30.3097L26.8935 138.104V142H25.7486V138.104L22.3324 132.545ZM33.5204 142.148C32.8803 142.148 32.3186 141.995 31.8354 141.691C31.3553 141.386 30.9798 140.96 30.709 140.412C30.4412 139.864 30.3074 139.224 30.3074 138.491C30.3074 137.753 30.4412 137.108 30.709 136.557C30.9798 136.006 31.3553 135.578 31.8354 135.274C32.3186 134.969 32.8803 134.817 33.5204 134.817C34.1606 134.817 34.7207 134.969 35.2008 135.274C35.684 135.578 36.0595 136.006 36.3272 136.557C36.5981 137.108 36.7335 137.753 36.7335 138.491C36.7335 139.224 36.5981 139.864 36.3272 140.412C36.0595 140.96 35.684 141.386 35.2008 141.691C34.7207 141.995 34.1606 142.148 33.5204 142.148ZM33.5204 141.169C34.0067 141.169 34.4068 141.044 34.7207 140.795C35.0346 140.546 35.267 140.218 35.4178 139.812C35.5686 139.406 35.644 138.965 35.644 138.491C35.644 138.018 35.5686 137.576 35.4178 137.167C35.267 136.757 35.0346 136.426 34.7207 136.174C34.4068 135.922 34.0067 135.795 33.5204 135.795C33.0342 135.795 32.6341 135.922 32.3201 136.174C32.0062 136.426 31.7739 136.757 31.623 137.167C31.4722 137.576 31.3968 138.018 31.3968 138.491C31.3968 138.965 31.4722 139.406 31.623 139.812C31.7739 140.218 32.0062 140.546 32.3201 140.795C32.6341 141.044 33.0342 141.169 33.5204 141.169ZM42.8653 139.101V134.909H43.9548V142H42.8653V140.8H42.7915C42.6253 141.16 42.3667 141.466 42.0159 141.718C41.665 141.968 41.2219 142.092 40.6863 142.092C40.2432 142.092 39.8492 141.995 39.5045 141.801C39.1598 141.605 38.889 141.309 38.692 140.915C38.4951 140.518 38.3966 140.018 38.3966 139.415V134.909H39.4861V139.341C39.4861 139.858 39.6307 140.27 39.92 140.578C40.2124 140.886 40.5848 141.04 41.0372 141.04C41.308 141.04 41.5835 140.971 41.8635 140.832C42.1467 140.694 42.3837 140.481 42.5745 140.195C42.7684 139.909 42.8653 139.544 42.8653 139.101ZM45.9503 142V134.909H47.0028V135.98H47.0767C47.206 135.629 47.4399 135.345 47.7784 135.126C48.117 134.908 48.4986 134.798 48.9233 134.798C49.0033 134.798 49.1033 134.8 49.2234 134.803C49.3434 134.806 49.4342 134.811 49.4957 134.817V135.925C49.4588 135.915 49.3742 135.902 49.2418 135.883C49.1126 135.862 48.9756 135.851 48.831 135.851C48.4863 135.851 48.1785 135.923 47.9077 136.068C47.6399 136.209 47.4276 136.406 47.2706 136.659C47.1167 136.908 47.0398 137.193 47.0398 137.513V142H45.9503ZM54.5912 142V132.545H55.7361V140.984H60.1309V142H54.5912ZM64.6366 142.148C63.9965 142.148 63.4348 141.995 62.9516 141.691C62.4715 141.386 62.096 140.96 61.8252 140.412C61.5574 139.864 61.4236 139.224 61.4236 138.491C61.4236 137.753 61.5574 137.108 61.8252 136.557C62.096 136.006 62.4715 135.578 62.9516 135.274C63.4348 134.969 63.9965 134.817 64.6366 134.817C65.2768 134.817 65.8369 134.969 66.317 135.274C66.8002 135.578 67.1757 136.006 67.4434 136.557C67.7143 137.108 67.8497 137.753 67.8497 138.491C67.8497 139.224 67.7143 139.864 67.4434 140.412C67.1757 140.96 66.8002 141.386 66.317 141.691C65.8369 141.995 65.2768 142.148 64.6366 142.148ZM64.6366 141.169C65.1229 141.169 65.523 141.044 65.8369 140.795C66.1508 140.546 66.3832 140.218 66.534 139.812C66.6848 139.406 66.7602 138.965 66.7602 138.491C66.7602 138.018 66.6848 137.576 66.534 137.167C66.3832 136.757 66.1508 136.426 65.8369 136.174C65.523 135.922 65.1229 135.795 64.6366 135.795C64.1504 135.795 63.7503 135.922 63.4363 136.174C63.1224 136.426 62.8901 136.757 62.7393 137.167C62.5885 137.576 62.5131 138.018 62.5131 138.491C62.5131 138.965 62.5885 139.406 62.7393 139.812C62.8901 140.218 63.1224 140.546 63.4363 140.795C63.7503 141.044 64.1504 141.169 64.6366 141.169ZM69.5128 142V134.909H70.5653V135.98H70.6392C70.7685 135.629 71.0024 135.345 71.3409 135.126C71.6795 134.908 72.0611 134.798 72.4858 134.798C72.5658 134.798 72.6658 134.8 72.7859 134.803C72.9059 134.806 72.9967 134.811 73.0582 134.817V135.925C73.0213 135.915 72.9367 135.902 72.8043 135.883C72.6751 135.862 72.5381 135.851 72.3935 135.851C72.0488 135.851 71.741 135.923 71.4702 136.068C71.2024 136.209 70.9901 136.406 70.8331 136.659C70.6792 136.908 70.6023 137.193 70.6023 137.513V142H69.5128ZM76.8114 142.148C76.2205 142.148 75.6989 141.998 75.2464 141.7C74.794 141.398 74.4401 140.974 74.1847 140.426C73.9292 139.875 73.8015 139.224 73.8015 138.473C73.8015 137.728 73.9292 137.082 74.1847 136.534C74.4401 135.986 74.7956 135.563 75.2511 135.265C75.7066 134.966 76.2328 134.817 76.8299 134.817C77.2915 134.817 77.6563 134.894 77.924 135.048C78.1948 135.198 78.401 135.371 78.5426 135.565C78.6873 135.755 78.7996 135.912 78.8796 136.036H78.9719V132.545H80.0614V142H79.0089V140.911H78.8796C78.7996 141.04 78.6857 141.203 78.538 141.4C78.3903 141.594 78.1795 141.768 77.9055 141.922C77.6316 142.072 77.2669 142.148 76.8114 142.148ZM76.9592 141.169C77.3962 141.169 77.7655 141.055 78.0671 140.827C78.3687 140.597 78.598 140.278 78.755 139.872C78.9119 139.462 78.9904 138.99 78.9904 138.455C78.9904 137.925 78.9135 137.462 78.7596 137.065C78.6057 136.665 78.378 136.354 78.0763 136.132C77.7747 135.908 77.4023 135.795 76.9592 135.795C76.4975 135.795 76.1128 135.914 75.805 136.151C75.5004 136.385 75.2711 136.703 75.1172 137.107C74.9664 137.507 74.891 137.956 74.891 138.455C74.891 138.959 74.9679 139.418 75.1218 139.83C75.2788 140.24 75.5096 140.566 75.8143 140.809C76.122 141.049 76.5037 141.169 76.9592 141.169ZM87.7294 142L85.1442 132.545H86.3075L88.2834 140.246H88.3757L90.3885 132.545H91.6811L93.6939 140.246H93.7862L95.7621 132.545H96.9254L94.3402 142H93.1584L91.0717 134.466H90.9979L88.9112 142H87.7294ZM100.425 142.148C99.7846 142.148 99.2229 141.995 98.7397 141.691C98.2596 141.386 97.8841 140.96 97.6133 140.412C97.3455 139.864 97.2116 139.224 97.2116 138.491C97.2116 137.753 97.3455 137.108 97.6133 136.557C97.8841 136.006 98.2596 135.578 98.7397 135.274C99.2229 134.969 99.7846 134.817 100.425 134.817C101.065 134.817 101.625 134.969 102.105 135.274C102.588 135.578 102.964 136.006 103.232 136.557C103.502 137.108 103.638 137.753 103.638 138.491C103.638 139.224 103.502 139.864 103.232 140.412C102.964 140.96 102.588 141.386 102.105 141.691C101.625 141.995 101.065 142.148 100.425 142.148ZM100.425 141.169C100.911 141.169 101.311 141.044 101.625 140.795C101.939 140.546 102.171 140.218 102.322 139.812C102.473 139.406 102.548 138.965 102.548 138.491C102.548 138.018 102.473 137.576 102.322 137.167C102.171 136.757 101.939 136.426 101.625 136.174C101.311 135.922 100.911 135.795 100.425 135.795C99.9384 135.795 99.5384 135.922 99.2244 136.174C98.9105 136.426 98.6781 136.757 98.5273 137.167C98.3765 137.576 98.3011 138.018 98.3011 138.491C98.3011 138.965 98.3765 139.406 98.5273 139.812C98.6781 140.218 98.9105 140.546 99.2244 140.795C99.5384 141.044 99.9384 141.169 100.425 141.169ZM109.77 139.101V134.909H110.859V142H109.77V140.8H109.696C109.53 141.16 109.271 141.466 108.92 141.718C108.569 141.968 108.126 142.092 107.591 142.092C107.147 142.092 106.754 141.995 106.409 141.801C106.064 141.605 105.793 141.309 105.596 140.915C105.399 140.518 105.301 140.018 105.301 139.415V134.909H106.39V139.341C106.39 139.858 106.535 140.27 106.824 140.578C107.117 140.886 107.489 141.04 107.941 141.04C108.212 141.04 108.488 140.971 108.768 140.832C109.051 140.694 109.288 140.481 109.479 140.195C109.673 139.909 109.77 139.544 109.77 139.101ZM113.944 132.545V142H112.855V132.545H113.944ZM118.617 142.148C118.026 142.148 117.505 141.998 117.052 141.7C116.6 141.398 116.246 140.974 115.99 140.426C115.735 139.875 115.607 139.224 115.607 138.473C115.607 137.728 115.735 137.082 115.99 136.534C116.246 135.986 116.601 135.563 117.057 135.265C117.512 134.966 118.039 134.817 118.636 134.817C119.097 134.817 119.462 134.894 119.73 135.048C120.001 135.198 120.207 135.371 120.348 135.565C120.493 135.755 120.605 135.912 120.685 136.036H120.778V132.545H121.867V142H120.815V140.911H120.685C120.605 141.04 120.491 141.203 120.344 141.4C120.196 141.594 119.985 141.768 119.711 141.922C119.437 142.072 119.073 142.148 118.617 142.148ZM118.765 141.169C119.202 141.169 119.571 141.055 119.873 140.827C120.174 140.597 120.404 140.278 120.561 139.872C120.718 139.462 120.796 138.99 120.796 138.455C120.796 137.925 120.719 137.462 120.565 137.065C120.411 136.665 120.184 136.354 119.882 136.132C119.58 135.908 119.208 135.795 118.765 135.795C118.303 135.795 117.918 135.914 117.611 136.151C117.306 136.385 117.077 136.703 116.923 137.107C116.772 137.507 116.697 137.956 116.697 138.455C116.697 138.959 116.774 139.418 116.927 139.83C117.084 140.24 117.315 140.566 117.62 140.809C117.928 141.049 118.309 141.169 118.765 141.169ZM127.005 132.545H128.316L130.938 136.959H131.049L133.671 132.545H134.983L131.566 138.104V142H130.421V138.104L127.005 132.545ZM138.193 142.148C137.553 142.148 136.991 141.995 136.508 141.691C136.028 141.386 135.653 140.96 135.382 140.412C135.114 139.864 134.98 139.224 134.98 138.491C134.98 137.753 135.114 137.108 135.382 136.557C135.653 136.006 136.028 135.578 136.508 135.274C136.991 134.969 137.553 134.817 138.193 134.817C138.833 134.817 139.394 134.969 139.874 135.274C140.357 135.578 140.732 136.006 141 136.557C141.271 137.108 141.406 137.753 141.406 138.491C141.406 139.224 141.271 139.864 141 140.412C140.732 140.96 140.357 141.386 139.874 141.691C139.394 141.995 138.833 142.148 138.193 142.148ZM138.193 141.169C138.68 141.169 139.08 141.044 139.394 140.795C139.707 140.546 139.94 140.218 140.091 139.812C140.241 139.406 140.317 138.965 140.317 138.491C140.317 138.018 140.241 137.576 140.091 137.167C139.94 136.757 139.707 136.426 139.394 136.174C139.08 135.922 138.68 135.795 138.193 135.795C137.707 135.795 137.307 135.922 136.993 136.174C136.679 136.426 136.447 136.757 136.296 137.167C136.145 137.576 136.07 138.018 136.07 138.491C136.07 138.965 136.145 139.406 136.296 139.812C136.447 140.218 136.679 140.546 136.993 140.795C137.307 141.044 137.707 141.169 138.193 141.169ZM147.538 139.101V134.909H148.628V142H147.538V140.8H147.464C147.298 141.16 147.04 141.466 146.689 141.718C146.338 141.968 145.895 142.092 145.359 142.092C144.916 142.092 144.522 141.995 144.177 141.801C143.833 141.605 143.562 141.309 143.365 140.915C143.168 140.518 143.069 140.018 143.069 139.415V134.909H144.159V139.341C144.159 139.858 144.304 140.27 144.593 140.578C144.885 140.886 145.258 141.04 145.71 141.04C145.981 141.04 146.256 140.971 146.536 140.832C146.82 140.694 147.057 140.481 147.247 140.195C147.441 139.909 147.538 139.544 147.538 139.101ZM157.345 142H154.427V132.545H157.474C158.391 132.545 159.176 132.735 159.828 133.113C160.481 133.489 160.981 134.029 161.329 134.734C161.677 135.435 161.85 136.276 161.85 137.254C161.85 138.239 161.675 139.087 161.324 139.798C160.973 140.506 160.462 141.051 159.791 141.432C159.121 141.811 158.305 142 157.345 142ZM155.572 140.984H157.271C158.053 140.984 158.7 140.834 159.214 140.532C159.728 140.23 160.112 139.801 160.364 139.244C160.616 138.687 160.742 138.024 160.742 137.254C160.742 136.491 160.618 135.834 160.369 135.283C160.119 134.729 159.747 134.304 159.251 134.009C158.756 133.71 158.139 133.561 157.4 133.561H155.572V140.984ZM166.596 142.148C165.913 142.148 165.324 141.997 164.828 141.695C164.336 141.391 163.956 140.966 163.688 140.421C163.423 139.873 163.291 139.236 163.291 138.51C163.291 137.784 163.423 137.143 163.688 136.589C163.956 136.032 164.328 135.598 164.805 135.288C165.285 134.974 165.845 134.817 166.485 134.817C166.855 134.817 167.219 134.878 167.579 135.001C167.94 135.125 168.267 135.325 168.563 135.602C168.858 135.875 169.094 136.239 169.269 136.691C169.445 137.143 169.532 137.701 169.532 138.362V138.824H164.066V137.882H168.424C168.424 137.482 168.344 137.125 168.184 136.811C168.027 136.497 167.803 136.249 167.51 136.068C167.221 135.886 166.879 135.795 166.485 135.795C166.051 135.795 165.676 135.903 165.359 136.119C165.045 136.331 164.803 136.608 164.634 136.95C164.465 137.291 164.38 137.657 164.38 138.048V138.676C164.38 139.212 164.473 139.666 164.657 140.038C164.845 140.407 165.105 140.689 165.437 140.883C165.77 141.074 166.156 141.169 166.596 141.169C166.882 141.169 167.141 141.129 167.372 141.049C167.606 140.966 167.807 140.843 167.976 140.68C168.146 140.513 168.277 140.307 168.369 140.061L169.421 140.357C169.311 140.714 169.124 141.027 168.863 141.298C168.601 141.566 168.278 141.775 167.893 141.926C167.509 142.074 167.076 142.148 166.596 142.148ZM172.279 137.734V142H171.19V134.909H172.242V136.017H172.334C172.501 135.657 172.753 135.368 173.092 135.149C173.43 134.928 173.867 134.817 174.403 134.817C174.883 134.817 175.303 134.915 175.663 135.112C176.023 135.306 176.303 135.602 176.503 135.999C176.703 136.393 176.803 136.891 176.803 137.494V142H175.714V137.568C175.714 137.011 175.569 136.577 175.28 136.266C174.99 135.952 174.593 135.795 174.089 135.795C173.741 135.795 173.43 135.871 173.156 136.022C172.885 136.172 172.671 136.393 172.514 136.682C172.358 136.971 172.279 137.322 172.279 137.734ZM179.242 144.659C179.057 144.659 178.893 144.644 178.748 144.613C178.603 144.585 178.503 144.558 178.448 144.53L178.725 143.57C178.989 143.637 179.223 143.662 179.426 143.643C179.63 143.625 179.81 143.534 179.967 143.371C180.127 143.211 180.273 142.951 180.405 142.591L180.608 142.037L177.986 134.909H179.168L181.125 140.56H181.199L183.157 134.909H184.338L181.328 143.034C181.193 143.4 181.025 143.703 180.825 143.944C180.625 144.187 180.393 144.367 180.128 144.484C179.867 144.601 179.571 144.659 179.242 144.659Z" fill="#FBFBFB"/>
<path d="M23.6008 86.477V85.147L28.0848 83.817V85.185L23.6008 86.477ZM19.494 77.468C19.494 77.1767 19.5193 76.8347 19.57 76.442C19.6207 76.0493 19.7157 75.606 19.855 75.112C19.9943 74.6053 20.2033 74.0417 20.482 73.421L22.819 74.238C22.6797 74.6307 22.5593 74.9917 22.458 75.321C22.3567 75.6377 22.2807 75.9353 22.23 76.214C22.1793 76.48 22.154 76.746 22.154 77.012C22.154 77.6327 22.2933 78.1393 22.572 78.532C22.8633 78.9373 23.2687 79.235 23.788 79.425C24.3073 79.6277 24.909 79.729 25.593 79.729C26.3783 79.729 27.0243 79.6213 27.531 79.406C28.0377 79.2033 28.4303 78.931 28.709 78.589C28.9877 78.2597 29.184 77.8987 29.298 77.506C29.412 77.1007 29.469 76.708 29.469 76.328C29.469 75.8087 29.3803 75.1943 29.203 74.485C29.0257 73.763 28.709 72.9523 28.253 72.053L30.704 71.008C30.9573 71.4513 31.1917 71.9707 31.407 72.566C31.6223 73.1487 31.7933 73.7567 31.92 74.39C32.0593 75.0233 32.129 75.625 32.129 76.195C32.129 76.7017 32.0657 77.24 31.939 77.81C31.8123 78.3673 31.597 78.9183 31.293 79.463C31.0017 80.0077 30.6027 80.4953 30.096 80.926C29.5893 81.3693 28.9623 81.724 28.215 81.99C27.4677 82.256 26.5747 82.389 25.536 82.389C24.7 82.389 23.9147 82.294 23.18 82.104C22.458 81.9267 21.8183 81.6417 21.261 81.249C20.7163 80.8563 20.2857 80.3433 19.969 79.71C19.6523 79.0893 19.494 78.342 19.494 77.468ZM25.688 70.248C25.2953 70.248 24.9597 70.115 24.681 69.849C24.415 69.583 24.282 69.2537 24.282 68.861C24.282 68.4683 24.415 68.1327 24.681 67.854C24.9597 67.5753 25.2953 67.436 25.688 67.436C26.068 67.436 26.391 67.5753 26.657 67.854C26.9357 68.1327 27.075 68.4683 27.075 68.861C27.075 69.2537 26.9357 69.583 26.657 69.849C26.391 70.115 26.068 70.248 25.688 70.248ZM39.106 78.095C37.928 78.095 37.016 77.9747 36.37 77.734C35.7367 77.4933 35.2933 77.1197 35.04 76.613C34.7867 76.0937 34.641 75.4413 34.603 74.656L34.204 64.092H36.864L37.263 73.383C37.2883 73.9657 37.3517 74.4027 37.453 74.694C37.5543 74.9853 37.7443 75.1817 38.023 75.283C38.3143 75.3843 38.7387 75.435 39.296 75.435C39.7773 75.435 40.1193 75.5617 40.322 75.815C40.5373 76.0557 40.645 76.3597 40.645 76.727C40.645 77.1197 40.512 77.449 40.246 77.715C39.98 77.9683 39.6 78.095 39.106 78.095ZM39.5207 66.79V65.46L44.0047 64.13V65.498L39.5207 66.79ZM39.1318 78.095L39.3218 75.435C39.8792 75.435 40.3162 75.397 40.6328 75.321C40.9622 75.245 41.1965 75.1057 41.3358 74.903C41.4752 74.6877 41.5448 74.3837 41.5448 73.991C41.5448 73.6363 41.4942 73.212 41.3928 72.718C41.3042 72.224 41.1838 71.711 41.0318 71.179C40.8798 70.647 40.7278 70.1593 40.5758 69.716L43.1978 68.994C43.3498 69.4247 43.5018 69.925 43.6538 70.495C43.8058 71.065 43.9325 71.654 44.0338 72.262C44.1478 72.8573 44.2048 73.4337 44.2048 73.991C44.2048 74.6877 44.1162 75.2767 43.9388 75.758C43.7615 76.2267 43.5145 76.6193 43.1978 76.936C42.8938 77.24 42.5265 77.4807 42.0958 77.658C41.6778 77.8227 41.2155 77.9367 40.7088 78C40.2022 78.0633 39.6765 78.095 39.1318 78.095ZM41.4688 82.465C41.1015 82.465 40.7848 82.3383 40.5188 82.085C40.2655 81.8317 40.1388 81.5213 40.1388 81.154C40.1388 80.7867 40.2655 80.4637 40.5188 80.185C40.7848 79.919 41.1015 79.786 41.4688 79.786C41.8362 79.786 42.1465 79.919 42.3998 80.185C42.6658 80.4637 42.7988 80.7867 42.7988 81.154C42.7988 81.5213 42.6658 81.8317 42.3998 82.085C42.1465 82.3383 41.8362 82.465 41.4688 82.465ZM46.9144 61.99V60.66L51.3984 59.33V60.698L46.9144 61.99ZM47.7314 58.38C47.2627 58.38 46.9461 58.2153 46.7814 57.886C46.6167 57.5567 46.5344 57.1957 46.5344 56.803C46.5344 56.6637 46.5407 56.518 46.5534 56.366C46.5787 56.2013 46.6104 56.0177 46.6484 55.815L47.7884 55.549C47.7504 55.7643 47.7187 55.967 47.6934 56.157C47.6807 56.3343 47.6744 56.4927 47.6744 56.632C47.6744 56.7967 47.7061 56.9233 47.7694 57.012C47.8327 57.1007 47.9214 57.145 48.0354 57.145C48.1874 57.145 48.3077 57.0563 48.3964 56.879C48.4977 56.7017 48.5484 56.3597 48.5484 55.853V55.283L49.6504 54.941V56.1C49.6504 56.2393 49.6757 56.3533 49.7264 56.442C49.7897 56.5307 49.8847 56.575 50.0114 56.575C50.1887 56.575 50.3091 56.5243 50.3724 56.423C50.4484 56.309 50.4864 56.176 50.4864 56.024C50.4864 55.8087 50.4611 55.5933 50.4104 55.378C50.3597 55.15 50.2901 54.9283 50.2014 54.713L51.2464 54.447C51.3731 54.6877 51.4744 54.9663 51.5504 55.283C51.6391 55.587 51.6834 55.8657 51.6834 56.119C51.6834 56.537 51.5631 56.917 51.3224 57.259C51.0817 57.5883 50.6891 57.753 50.1444 57.753C49.8024 57.753 49.5111 57.6517 49.2704 57.449C49.0297 57.2337 48.9094 56.9803 48.9094 56.689L49.3464 56.86C49.3464 57.2907 49.1944 57.6517 48.8904 57.943C48.5991 58.2343 48.2127 58.38 47.7314 58.38ZM49.3041 75.435C49.8741 75.435 50.3111 75.3843 50.6151 75.283C50.9191 75.1817 51.1281 75.0487 51.2421 74.884C51.3561 74.7193 51.4131 74.542 51.4131 74.352C51.4131 74.048 51.3244 73.6933 51.1471 73.288C50.9824 72.8827 50.7734 72.4583 50.5201 72.015C50.2668 71.5717 50.0008 71.1473 49.7221 70.742C49.4561 70.3367 49.2154 69.982 49.0001 69.678L51.2611 68.177C51.8058 68.9117 52.2744 69.64 52.6671 70.362C53.0598 71.0713 53.3764 71.73 53.6171 72.338C53.8704 72.946 54.0478 73.4653 54.1491 73.896C54.2504 74.3013 54.4024 74.618 54.6051 74.846C54.8204 75.0613 55.0674 75.2133 55.3461 75.302C55.6248 75.3907 55.9034 75.435 56.1821 75.435C56.6634 75.435 57.0054 75.5617 57.2081 75.815C57.4234 76.0557 57.5311 76.3597 57.5311 76.727C57.5311 77.1197 57.3981 77.449 57.1321 77.715C56.8788 77.9683 56.4988 78.095 55.9921 78.095C55.4348 78.095 54.9471 78.019 54.5291 77.867C54.1111 77.715 53.7564 77.4743 53.4651 77.145C53.1738 76.8157 52.9268 76.3977 52.7241 75.891L53.8831 76.138C53.7818 76.4927 53.5474 76.822 53.1801 77.126C52.8254 77.4173 52.3504 77.658 51.7551 77.848C51.1724 78.0253 50.4821 78.114 49.6841 78.114C49.3041 78.114 48.8798 78.0823 48.4111 78.019C47.9551 77.9557 47.4991 77.8607 47.0431 77.734C46.5998 77.6073 46.1944 77.4427 45.8271 77.24L46.7581 74.827C47.2268 75.0297 47.6764 75.1817 48.1071 75.283C48.5504 75.3843 48.9494 75.435 49.3041 75.435ZM49.4181 66.733C49.0254 66.733 48.6898 66.6 48.4111 66.334C48.1451 66.068 48.0121 65.7387 48.0121 65.346C48.0121 64.9533 48.1451 64.6177 48.4111 64.339C48.6898 64.0603 49.0254 63.921 49.4181 63.921C49.7981 63.921 50.1211 64.0603 50.3871 64.339C50.6658 64.6177 50.8051 64.9533 50.8051 65.346C50.8051 65.7387 50.6658 66.068 50.3871 66.334C50.1211 66.6 49.7981 66.733 49.4181 66.733ZM56.2385 63.79V62.46L60.7225 61.13V62.498L56.2385 63.79ZM56.0166 78.095L56.2066 75.435H58.8666C59.3099 75.435 59.6456 75.4097 59.8736 75.359C60.1143 75.3083 60.2789 75.2323 60.3676 75.131C60.4563 75.017 60.5006 74.884 60.5006 74.732C60.5006 74.504 60.3993 74.238 60.1966 73.934C60.0066 73.63 59.7533 73.3133 59.4366 72.984C59.1326 72.6547 58.8096 72.3253 58.4676 71.996C58.1256 71.654 57.7963 71.3373 57.4796 71.046C57.1756 70.7547 56.9223 70.5013 56.7196 70.286C56.5296 70.058 56.4346 69.8933 56.4346 69.792C56.4346 69.4373 56.4536 69.1587 56.4916 68.956C56.5296 68.7407 56.5803 68.5697 56.6436 68.443C56.7196 68.3163 56.8019 68.2087 56.8906 68.12C57.1059 67.9047 57.4289 67.664 57.8596 67.398C58.2903 67.1193 58.7969 66.828 59.3796 66.524C59.9749 66.2073 60.6399 65.878 61.3746 65.536C62.1093 65.1813 62.8883 64.814 63.7116 64.434L64.7946 66.752C63.9586 67.1193 63.2113 67.4613 62.5526 67.778C61.9066 68.082 61.3239 68.367 60.8046 68.633C60.2979 68.8863 59.8419 69.127 59.4366 69.355C59.0439 69.583 58.6893 69.7983 58.3726 70.001L58.5626 68.595C59.1073 69.0637 59.6013 69.507 60.0446 69.925C60.4879 70.343 60.8996 70.761 61.2796 71.179C61.6596 71.597 62.0143 72.0277 62.3436 72.471C62.6856 72.9143 63.0149 73.3957 63.3316 73.915C63.6103 74.3583 63.8953 74.6877 64.1866 74.903C64.4906 75.1183 64.7819 75.264 65.0606 75.34C65.3519 75.4033 65.6116 75.435 65.8396 75.435C66.3209 75.435 66.6629 75.5617 66.8656 75.815C67.0809 76.0557 67.1886 76.3597 67.1886 76.727C67.1886 77.1197 67.0556 77.449 66.7896 77.715C66.5236 77.9683 66.1436 78.095 65.6496 78.095C65.2316 78.095 64.7819 78.0253 64.3006 77.886C63.8193 77.734 63.3696 77.4933 62.9516 77.164C62.5336 76.8347 62.2169 76.385 62.0016 75.815L63.0276 75.891C62.8376 76.2963 62.6096 76.6447 62.3436 76.936C62.0903 77.2147 61.7863 77.4427 61.4316 77.62C61.0769 77.7847 60.6716 77.905 60.2156 77.981C59.7596 78.057 59.2466 78.095 58.6766 78.095H56.0166ZM65.9558 62.942L65.7468 61.745C66.4182 61.745 67.0452 61.65 67.6278 61.46C68.2105 61.2573 68.6792 61.004 69.0338 60.7C69.3885 60.396 69.5658 60.0983 69.5658 59.807C69.5658 59.6297 69.5152 59.4713 69.4138 59.332C69.3125 59.1927 69.1668 59.123 68.9768 59.123C68.8122 59.123 68.6665 59.1863 68.5398 59.313C68.4132 59.4397 68.3498 59.598 68.3498 59.788C68.3498 60.0287 68.4448 60.244 68.6348 60.434C68.8248 60.6113 69.0528 60.757 69.3188 60.871L68.5018 61.593C68.1218 61.4157 67.7925 61.1813 67.5138 60.89C67.2352 60.586 67.0958 60.1997 67.0958 59.731C67.0958 59.2117 67.2732 58.781 67.6278 58.439C67.9952 58.097 68.4512 57.926 68.9958 57.926C69.5912 57.926 70.0408 58.116 70.3448 58.496C70.6488 58.876 70.8008 59.3067 70.8008 59.788C70.8008 60.396 70.5792 60.928 70.1358 61.384C69.7052 61.84 69.1225 62.201 68.3878 62.467C67.6658 62.733 66.8552 62.8913 65.9558 62.942ZM65.665 78.095L65.855 75.435C66.615 75.435 67.1977 75.397 67.603 75.321C68.0084 75.245 68.287 75.1057 68.439 74.903C68.6037 74.6877 68.686 74.3837 68.686 73.991C68.686 73.6363 68.6354 73.212 68.534 72.718C68.4454 72.224 68.325 71.711 68.173 71.179C68.0337 70.647 67.8817 70.1593 67.717 69.716L70.339 68.994C70.5037 69.4247 70.662 69.925 70.814 70.495C70.966 71.065 71.0927 71.654 71.194 72.262C71.2954 72.8573 71.346 73.4337 71.346 73.991C71.346 74.8523 71.2067 75.5553 70.928 76.1C70.6494 76.632 70.2567 77.0437 69.75 77.335C69.256 77.6263 68.6607 77.829 67.964 77.943C67.2674 78.0443 66.501 78.095 65.665 78.095ZM70.814 67.455C70.4467 67.455 70.13 67.3283 69.864 67.075C69.6107 66.809 69.484 66.4987 69.484 66.144C69.484 65.7767 69.6107 65.46 69.864 65.194C70.13 64.928 70.4467 64.795 70.814 64.795C71.1687 64.795 71.4727 64.928 71.726 65.194C71.9794 65.46 72.106 65.7767 72.106 66.144C72.106 66.4987 71.9794 66.809 71.726 67.075C71.4727 67.3283 71.1687 67.455 70.814 67.455ZM67.527 67.436C67.1597 67.436 66.843 67.3093 66.577 67.056C66.3237 66.79 66.197 66.4797 66.197 66.125C66.197 65.7577 66.3237 65.441 66.577 65.175C66.843 64.909 67.1597 64.776 67.527 64.776C67.8817 64.776 68.1857 64.909 68.439 65.175C68.6924 65.441 68.819 65.7577 68.819 66.125C68.819 66.4797 68.6924 66.79 68.439 67.056C68.1857 67.3093 67.8817 67.436 67.527 67.436ZM82.9136 78.095C81.7356 78.095 80.8236 77.9747 80.1776 77.734C79.5443 77.4933 79.101 77.1197 78.8476 76.613C78.5943 76.0937 78.4486 75.4413 78.4106 74.656L78.0116 64.092H80.6716L81.0706 73.383C81.096 73.9657 81.1593 74.4027 81.2606 74.694C81.362 74.9853 81.552 75.1817 81.8306 75.283C82.122 75.3843 82.5463 75.435 83.1036 75.435C83.585 75.435 83.927 75.5617 84.1296 75.815C84.345 76.0557 84.4526 76.3597 84.4526 76.727C84.4526 77.1197 84.3196 77.449 84.0536 77.715C83.7876 77.9683 83.4076 78.095 82.9136 78.095ZM86.4641 67.79V66.46L90.9481 65.13V66.498L86.4641 67.79ZM82.9395 78.095L83.1295 75.435C83.4461 75.435 83.6868 75.3717 83.8515 75.245C84.0161 75.1183 84.1808 74.8967 84.3455 74.58C84.5101 74.2633 84.7381 73.8327 85.0295 73.288C85.3461 72.68 85.6755 72.1733 86.0175 71.768C86.3595 71.35 86.7015 71.0207 87.0435 70.78C87.3981 70.5267 87.7465 70.3493 88.0885 70.248C88.4431 70.134 88.7915 70.077 89.1335 70.077C89.6021 70.077 90.0391 70.1783 90.4445 70.381C90.8625 70.571 91.2615 70.9067 91.6415 71.388C92.0215 71.8567 92.3825 72.5027 92.7245 73.326C92.9651 73.896 93.2058 74.333 93.4465 74.637C93.6871 74.941 93.9341 75.15 94.1875 75.264C94.4535 75.378 94.7195 75.435 94.9855 75.435C95.4668 75.435 95.8088 75.5617 96.0115 75.815C96.2141 76.0557 96.3155 76.3597 96.3155 76.727C96.3155 77.1197 96.1825 77.449 95.9165 77.715C95.6505 77.9683 95.2768 78.095 94.7955 78.095C94.1748 78.095 93.6111 77.9937 93.1045 77.791C92.5978 77.5883 92.1988 77.2843 91.9075 76.879L92.4585 76.461C92.3445 76.727 92.1735 77.0057 91.9455 77.297C91.7301 77.5883 91.4451 77.8353 91.0905 78.038C90.7485 78.2407 90.3368 78.342 89.8555 78.342C89.5388 78.342 89.1651 78.2787 88.7345 78.152C88.3165 78.038 87.8795 77.8417 87.4235 77.563C86.9801 77.2717 86.5685 76.879 86.1885 76.385C85.9478 76.8283 85.6818 77.1767 85.3905 77.43C85.0991 77.6707 84.7571 77.8417 84.3645 77.943C83.9718 78.0443 83.4968 78.095 82.9395 78.095ZM87.2905 74.143C87.4171 74.333 87.5691 74.523 87.7465 74.713C87.9238 74.903 88.1201 75.074 88.3355 75.226C88.5508 75.3653 88.7788 75.4793 89.0195 75.568C89.2728 75.6567 89.5198 75.701 89.7605 75.701C90.0138 75.701 90.2228 75.606 90.3875 75.416C90.5521 75.2133 90.5585 74.9157 90.4065 74.523C90.3431 74.3583 90.2545 74.1747 90.1405 73.972C90.0391 73.7567 89.9188 73.554 89.7795 73.364C89.6528 73.174 89.5071 73.0157 89.3425 72.889C89.1905 72.7623 89.0321 72.699 88.8675 72.699C88.7028 72.699 88.5318 72.7497 88.3545 72.851C88.1771 72.9523 87.9998 73.1107 87.8225 73.326C87.6451 73.5287 87.4678 73.801 87.2905 74.143ZM94.3445 63.942L94.1355 62.745C94.8068 62.745 95.4338 62.65 96.0165 62.46C96.5992 62.2573 97.0678 62.004 97.4225 61.7C97.7772 61.396 97.9545 61.0983 97.9545 60.807C97.9545 60.6297 97.9038 60.4713 97.8025 60.332C97.7012 60.1927 97.5555 60.123 97.3655 60.123C97.2008 60.123 97.0552 60.1863 96.9285 60.313C96.8018 60.4397 96.7385 60.598 96.7385 60.788C96.7385 61.0287 96.8335 61.244 97.0235 61.434C97.2135 61.6113 97.4415 61.757 97.7075 61.871L96.8905 62.593C96.5105 62.4157 96.1812 62.1813 95.9025 61.89C95.6238 61.586 95.4845 61.1997 95.4845 60.731C95.4845 60.2117 95.6618 59.781 96.0165 59.439C96.3838 59.097 96.8398 58.926 97.3845 58.926C97.9798 58.926 98.4295 59.116 98.7335 59.496C99.0375 59.876 99.1895 60.3067 99.1895 60.788C99.1895 61.396 98.9678 61.928 98.5245 62.384C98.0938 62.84 97.5112 63.201 96.7765 63.467C96.0545 63.733 95.2438 63.8913 94.3445 63.942ZM94.7959 78.095L94.9859 75.435H97.6459C98.0892 75.435 98.4249 75.4097 98.6529 75.359C98.8936 75.3083 99.0582 75.2323 99.1469 75.131C99.2356 75.017 99.2799 74.884 99.2799 74.732C99.2799 74.504 99.1786 74.238 98.9759 73.934C98.7859 73.63 98.5326 73.3133 98.2159 72.984C97.9119 72.6547 97.5889 72.3253 97.2469 71.996C96.9049 71.654 96.5756 71.3373 96.2589 71.046C95.9549 70.7547 95.7016 70.5013 95.4989 70.286C95.3089 70.058 95.2139 69.8933 95.2139 69.792C95.2139 69.4373 95.2329 69.1587 95.2709 68.956C95.3089 68.7407 95.3596 68.5697 95.4229 68.443C95.4989 68.3163 95.5812 68.2087 95.6699 68.12C95.8852 67.9047 96.2082 67.664 96.6389 67.398C97.0696 67.1193 97.5762 66.828 98.1589 66.524C98.7542 66.2073 99.4192 65.878 100.154 65.536C100.889 65.1813 101.668 64.814 102.491 64.434L103.574 66.752C102.738 67.1193 101.991 67.4613 101.332 67.778C100.686 68.082 100.103 68.367 99.5839 68.633C99.0772 68.8863 98.6212 69.127 98.2159 69.355C97.8232 69.583 97.4686 69.7983 97.1519 70.001L97.3419 68.595C97.8866 69.0637 98.3806 69.507 98.8239 69.925C99.2672 70.343 99.6789 70.761 100.059 71.179C100.439 71.597 100.794 72.0277 101.123 72.471C101.465 72.9143 101.794 73.3957 102.111 73.915C102.39 74.3583 102.675 74.6877 102.966 74.903C103.27 75.1183 103.561 75.264 103.84 75.34C104.131 75.4033 104.391 75.435 104.619 75.435C105.1 75.435 105.442 75.5617 105.645 75.815C105.86 76.0557 105.968 76.3597 105.968 76.727C105.968 77.1197 105.835 77.449 105.569 77.715C105.303 77.9683 104.923 78.095 104.429 78.095C104.011 78.095 103.561 78.0253 103.08 77.886C102.599 77.734 102.149 77.4933 101.731 77.164C101.313 76.8347 100.996 76.385 100.781 75.815L101.807 75.891C101.617 76.2963 101.389 76.6447 101.123 76.936C100.87 77.2147 100.566 77.4427 100.211 77.62C99.8562 77.7847 99.4509 77.905 98.9949 77.981C98.5389 78.057 98.0259 78.095 97.4559 78.095H94.7959ZM104.824 66.99V65.66L109.308 64.33V65.698L104.824 66.99ZM105.641 63.38C105.172 63.38 104.855 63.2153 104.691 62.886C104.526 62.5567 104.444 62.1957 104.444 61.803C104.444 61.6637 104.45 61.518 104.463 61.366C104.488 61.2013 104.52 61.0177 104.558 60.815L105.698 60.549C105.66 60.7643 105.628 60.967 105.603 61.157C105.59 61.3343 105.584 61.4927 105.584 61.632C105.584 61.7967 105.615 61.9233 105.679 62.012C105.742 62.1007 105.831 62.145 105.945 62.145C106.097 62.145 106.217 62.0563 106.306 61.879C106.407 61.7017 106.458 61.3597 106.458 60.853V60.283L107.56 59.941V61.1C107.56 61.2393 107.585 61.3533 107.636 61.442C107.699 61.5307 107.794 61.575 107.921 61.575C108.098 61.575 108.218 61.5243 108.282 61.423C108.358 61.309 108.396 61.176 108.396 61.024C108.396 60.8087 108.37 60.5933 108.32 60.378C108.269 60.15 108.199 59.9283 108.111 59.713L109.156 59.447C109.282 59.6877 109.384 59.9663 109.46 60.283C109.548 60.587 109.593 60.8657 109.593 61.119C109.593 61.537 109.472 61.917 109.232 62.259C108.991 62.5883 108.598 62.753 108.054 62.753C107.712 62.753 107.42 62.6517 107.18 62.449C106.939 62.2337 106.819 61.9803 106.819 61.689L107.256 61.86C107.256 62.2907 107.104 62.6517 106.8 62.943C106.508 63.2343 106.122 63.38 105.641 63.38ZM104.444 78.095L104.634 75.435C105.192 75.435 105.629 75.397 105.945 75.321C106.275 75.245 106.509 75.1057 106.648 74.903C106.788 74.6877 106.857 74.3837 106.857 73.991C106.857 73.6363 106.807 73.212 106.705 72.718C106.617 72.224 106.496 71.711 106.344 71.179C106.192 70.647 106.04 70.1593 105.888 69.716L108.51 68.994C108.662 69.4247 108.814 69.925 108.966 70.495C109.118 71.065 109.245 71.654 109.346 72.262C109.46 72.8573 109.517 73.4337 109.517 73.991C109.517 74.6877 109.429 75.2767 109.251 75.758C109.074 76.2267 108.827 76.6193 108.51 76.936C108.206 77.24 107.839 77.4807 107.408 77.658C106.99 77.8227 106.528 77.9367 106.021 78C105.515 78.0633 104.989 78.095 104.444 78.095ZM106.781 82.465C106.414 82.465 106.097 82.3383 105.831 82.085C105.578 81.8317 105.451 81.5213 105.451 81.154C105.451 80.7867 105.578 80.4637 105.831 80.185C106.097 79.919 106.414 79.786 106.781 79.786C107.149 79.786 107.459 79.919 107.712 80.185C107.978 80.4637 108.111 80.7867 108.111 81.154C108.111 81.5213 107.978 81.8317 107.712 82.085C107.459 82.3383 107.149 82.465 106.781 82.465ZM112.589 68.79V67.46L117.073 66.13V67.498L112.589 68.79ZM110.779 82.37L109.81 79.938C110.899 79.558 111.779 79.14 112.451 78.684C113.135 78.228 113.635 77.7403 113.952 77.221C114.281 76.7017 114.446 76.1633 114.446 75.606C114.446 75.2513 114.395 74.884 114.294 74.504C114.192 74.1113 114.047 73.6997 113.857 73.269C113.679 72.8383 113.464 72.3887 113.211 71.92L115.7 70.723C116.143 71.5717 116.485 72.3823 116.726 73.155C116.979 73.9277 117.106 74.6497 117.106 75.321C117.106 75.9417 117.023 76.537 116.859 77.107C116.707 77.677 116.466 78.209 116.137 78.703C115.82 79.2097 115.408 79.6847 114.902 80.128C114.395 80.5713 113.8 80.9767 113.116 81.344C112.432 81.724 111.653 82.066 110.779 82.37ZM125.206 82.477V81.147L129.69 79.817V81.185L125.206 82.477ZM125.382 76.138C125.18 76.0367 124.977 75.8973 124.774 75.72C124.572 75.53 124.388 75.3083 124.223 75.055C124.059 74.8017 123.926 74.5293 123.824 74.238C123.736 73.934 123.691 73.6237 123.691 73.307C123.691 72.6103 123.856 71.996 124.185 71.464C124.515 70.9193 124.958 70.495 125.515 70.191C126.073 69.8743 126.687 69.716 127.358 69.716C127.726 69.716 128.061 69.7413 128.365 69.792C128.682 69.83 128.999 69.8933 129.315 69.982L128.897 72.452C128.669 72.3887 128.448 72.3443 128.232 72.319C128.03 72.281 127.846 72.262 127.681 72.262C127.415 72.262 127.181 72.319 126.978 72.433C126.776 72.5343 126.617 72.6863 126.503 72.889C126.402 73.079 126.351 73.3007 126.351 73.554C126.351 73.8453 126.415 74.105 126.541 74.333C126.681 74.561 126.883 74.7573 127.149 74.922C127.428 75.074 127.77 75.1943 128.175 75.283L125.382 76.138ZM123.672 79.083L122.817 76.594C123.476 76.4167 124.192 76.214 124.964 75.986C125.737 75.7453 126.548 75.473 127.396 75.169C128.258 74.865 129.132 74.5357 130.018 74.181L131.006 76.613C130.5 76.8157 129.936 77.0373 129.315 77.278C128.695 77.506 128.049 77.734 127.377 77.962C126.706 78.19 126.054 78.399 125.42 78.589C124.787 78.779 124.204 78.9437 123.672 79.083ZM137.694 61.79V60.46L142.178 59.13V60.498L137.694 61.79ZM139.057 67.816C139.057 67.398 139.032 66.98 138.981 66.562C138.943 66.144 138.893 65.7513 138.829 65.384C138.766 65.004 138.709 64.6747 138.658 64.396L141.318 64.016C141.369 64.2693 141.42 64.605 141.47 65.023C141.521 65.441 141.565 65.8843 141.603 66.353C141.641 66.809 141.66 67.246 141.66 67.664C141.66 68.3227 141.603 68.9433 141.489 69.526C141.375 70.1087 141.204 70.6597 140.976 71.179C140.748 71.6857 140.463 72.1733 140.121 72.642L139.779 73.098C139.45 73.5033 139.064 73.9023 138.62 74.295C138.19 74.6877 137.715 75.0677 137.195 75.435H138.43C138.861 75.435 139.19 75.4097 139.418 75.359C139.646 75.3083 139.798 75.2387 139.874 75.15C139.963 75.0487 140.007 74.9347 140.007 74.808C140.007 74.58 139.811 74.2443 139.418 73.801C139.026 73.345 138.481 72.8257 137.784 72.243C137.088 71.6477 136.271 71.0207 135.333 70.362C134.409 69.6907 133.408 69.0193 132.331 68.348L133.718 66.315C135.213 67.2397 136.473 68.0883 137.499 68.861C138.538 69.6337 139.387 70.3367 140.045 70.97C140.717 71.6033 141.236 72.1797 141.603 72.699C141.971 73.2183 142.224 73.687 142.363 74.105C142.503 74.5103 142.572 74.8777 142.572 75.207C142.572 75.5743 142.515 75.929 142.401 76.271C142.287 76.6003 142.104 76.898 141.85 77.164C141.597 77.4173 141.268 77.62 140.862 77.772C140.457 77.924 139.957 78 139.361 78H133.775V75.454C135.08 74.5167 136.112 73.63 136.872 72.794C137.645 71.958 138.202 71.1347 138.544 70.324C138.886 69.5133 139.057 68.6773 139.057 67.816ZM145.058 78L144.697 65.422H147.357L147.718 78H145.058ZM147.224 63.579C146.844 63.579 146.502 63.5157 146.198 63.389C145.894 63.2497 145.616 63.1167 145.362 62.99C145.109 62.8633 144.875 62.8 144.659 62.8C144.431 62.8 144.222 62.857 144.032 62.971C143.855 63.085 143.665 63.2433 143.462 63.446L142.569 62.61C142.911 62.1793 143.253 61.8563 143.595 61.641C143.95 61.4257 144.305 61.318 144.659 61.318C144.976 61.318 145.267 61.3813 145.533 61.508C145.799 61.6347 146.065 61.7613 146.331 61.888C146.61 62.0147 146.908 62.078 147.224 62.078C147.427 62.078 147.617 62.0463 147.794 61.983C147.972 61.907 148.187 61.793 148.44 61.641L149.105 62.686C148.649 63.0787 148.269 63.3257 147.965 63.427C147.674 63.5283 147.427 63.579 147.224 63.579ZM155.144 71.99V70.66L159.628 69.33V70.698L155.144 71.99ZM155.961 68.38C155.492 68.38 155.176 68.2153 155.011 67.886C154.846 67.5567 154.764 67.1957 154.764 66.803C154.764 66.6637 154.77 66.518 154.783 66.366C154.808 66.2013 154.84 66.0177 154.878 65.815L156.018 65.549C155.98 65.7643 155.948 65.967 155.923 66.157C155.91 66.3343 155.904 66.4927 155.904 66.632C155.904 66.7967 155.936 66.9233 155.999 67.012C156.062 67.1007 156.151 67.145 156.265 67.145C156.417 67.145 156.537 67.0563 156.626 66.879C156.727 66.7017 156.778 66.3597 156.778 65.853V65.283L157.88 64.941V66.1C157.88 66.2393 157.905 66.3533 157.956 66.442C158.019 66.5307 158.114 66.575 158.241 66.575C158.418 66.575 158.539 66.5243 158.602 66.423C158.678 66.309 158.716 66.176 158.716 66.024C158.716 65.8087 158.691 65.5933 158.64 65.378C158.589 65.15 158.52 64.9283 158.431 64.713L159.476 64.447C159.603 64.6877 159.704 64.9663 159.78 65.283C159.869 65.587 159.913 65.8657 159.913 66.119C159.913 66.537 159.793 66.917 159.552 67.259C159.311 67.5883 158.919 67.753 158.374 67.753C158.032 67.753 157.741 67.6517 157.5 67.449C157.259 67.2337 157.139 66.9803 157.139 66.689L157.576 66.86C157.576 67.2907 157.424 67.6517 157.12 67.943C156.829 68.2343 156.442 68.38 155.961 68.38ZM153.626 77.468C153.626 77.1767 153.651 76.8347 153.702 76.442C153.753 76.0493 153.848 75.606 153.987 75.112C154.126 74.6053 154.335 74.0417 154.614 73.421L156.951 74.238C156.812 74.6307 156.691 74.9917 156.59 75.321C156.489 75.6377 156.413 75.9353 156.362 76.214C156.311 76.48 156.286 76.746 156.286 77.012C156.286 77.392 156.368 77.7467 156.533 78.076C156.698 78.4053 156.945 78.6903 157.274 78.931C157.603 79.1843 158.009 79.3807 158.49 79.52C158.984 79.6593 159.554 79.729 160.2 79.729C160.935 79.729 161.581 79.6593 162.138 79.52C162.708 79.3933 163.183 79.2223 163.563 79.007C163.956 78.8043 164.253 78.589 164.456 78.361C164.659 78.133 164.76 77.924 164.76 77.734C164.76 77.582 164.652 77.449 164.437 77.335C164.234 77.221 163.962 77.107 163.62 76.993C163.291 76.8663 162.936 76.727 162.556 76.575C162.189 76.423 161.834 76.233 161.492 76.005C161.163 75.777 160.89 75.4983 160.675 75.169C160.472 74.8397 160.371 74.4407 160.371 73.972C160.371 73.4907 160.498 72.965 160.751 72.395C161.004 71.8123 161.365 71.2613 161.834 70.742C162.303 70.21 162.86 69.7793 163.506 69.45C164.165 69.108 164.887 68.937 165.672 68.937C166.229 68.937 166.736 69.0257 167.192 69.203C167.661 69.3803 168.053 69.583 168.37 69.811L167.382 72.034C167.116 71.8567 166.831 71.7237 166.527 71.635C166.223 71.5337 165.932 71.483 165.653 71.483C165.298 71.483 164.956 71.5527 164.627 71.692C164.31 71.8313 164.025 72.015 163.772 72.243C163.531 72.4583 163.341 72.6927 163.202 72.946C163.063 73.1993 162.993 73.44 162.993 73.668C162.993 73.896 163.101 74.0987 163.316 74.276C163.544 74.4407 163.835 74.599 164.19 74.751C164.545 74.8903 164.918 75.036 165.311 75.188C165.704 75.34 166.077 75.511 166.432 75.701C166.787 75.891 167.072 76.119 167.287 76.385C167.515 76.651 167.629 76.974 167.629 77.354C167.629 77.8987 167.458 78.4623 167.116 79.045C166.787 79.6403 166.293 80.1913 165.634 80.698C164.975 81.2047 164.165 81.61 163.202 81.914C162.252 82.2307 161.15 82.389 159.896 82.389C158.984 82.389 158.148 82.2813 157.388 82.066C156.628 81.8633 155.963 81.553 155.393 81.135C154.836 80.7297 154.399 80.2167 154.082 79.596C153.778 78.988 153.626 78.2787 153.626 77.468ZM161.625 86.797C161.258 86.797 160.941 86.664 160.675 86.398C160.422 86.1447 160.295 85.8407 160.295 85.486C160.295 85.1187 160.422 84.802 160.675 84.536C160.941 84.27 161.258 84.137 161.625 84.137C161.98 84.137 162.284 84.27 162.537 84.536C162.79 84.802 162.917 85.1187 162.917 85.486C162.917 85.8407 162.79 86.1447 162.537 86.398C162.284 86.664 161.98 86.797 161.625 86.797ZM158.338 86.797C157.971 86.797 157.654 86.664 157.388 86.398C157.135 86.1447 157.008 85.8407 157.008 85.486C157.008 85.1187 157.135 84.802 157.388 84.536C157.654 84.27 157.971 84.137 158.338 84.137C158.693 84.137 158.997 84.27 159.25 84.536C159.503 84.802 159.63 85.1187 159.63 85.486C159.63 85.8407 159.503 86.1447 159.25 86.398C158.997 86.664 158.693 86.797 158.338 86.797ZM168.847 58.79V57.46L173.331 56.13V57.498L168.847 58.79ZM174.721 78.095C173.543 78.095 172.631 77.9747 171.985 77.734C171.352 77.4933 170.909 77.1197 170.655 76.613C170.402 76.0937 170.256 75.4413 170.218 74.656L169.857 65.422H172.517L172.878 73.383C172.904 73.9657 172.967 74.4027 173.068 74.694C173.17 74.9853 173.36 75.1817 173.638 75.283C173.93 75.3843 174.354 75.435 174.911 75.435C175.393 75.435 175.735 75.5617 175.937 75.815C176.153 76.0557 176.26 76.3597 176.26 76.727C176.26 77.1197 176.127 77.449 175.861 77.715C175.595 77.9683 175.215 78.095 174.721 78.095ZM169.306 64.206L168.983 62.876C169.427 62.8 169.756 62.7367 169.971 62.686C170.199 62.6353 170.44 62.5783 170.693 62.515L170.503 62.99C170.174 62.876 169.857 62.6543 169.553 62.325C169.262 61.983 169.116 61.5967 169.116 61.166C169.116 60.71 169.218 60.3427 169.42 60.064C169.623 59.7853 169.883 59.5827 170.199 59.456C170.516 59.3293 170.845 59.266 171.187 59.266C171.377 59.266 171.555 59.2787 171.719 59.304C171.897 59.3293 172.055 59.3673 172.194 59.418L172.042 60.786C171.916 60.7607 171.789 60.7353 171.662 60.71C171.536 60.6847 171.396 60.672 171.244 60.672C171.08 60.672 170.928 60.729 170.788 60.843C170.662 60.9443 170.598 61.071 170.598 61.223C170.598 61.4383 170.674 61.6283 170.826 61.793C170.978 61.9577 171.156 62.0907 171.358 62.192C171.574 62.2807 171.751 62.3313 171.89 62.344L170.845 62.458C171.187 62.3693 171.51 62.2807 171.814 62.192C172.118 62.0907 172.403 61.9893 172.669 61.888L173.049 63.161C172.733 63.275 172.359 63.4017 171.928 63.541C171.51 63.6677 171.073 63.788 170.617 63.902C170.174 64.016 169.737 64.1173 169.306 64.206ZM176.195 86.477V85.147L180.679 83.817V85.185L176.195 86.477ZM174.748 78.095L174.938 75.435C175.419 75.435 175.799 75.3907 176.078 75.302C176.369 75.2133 176.597 75.036 176.762 74.77C176.939 74.4913 177.085 74.086 177.199 73.554C177.326 73.022 177.452 72.3127 177.579 71.426L180.068 71.844C180.043 72.034 180.005 72.2557 179.954 72.509C179.916 72.7623 179.878 73.022 179.84 73.288C179.815 73.5413 179.802 73.782 179.802 74.01C179.802 74.314 179.865 74.5737 179.992 74.789C180.131 74.9917 180.372 75.15 180.714 75.264C181.069 75.378 181.575 75.435 182.234 75.435C182.715 75.435 183.057 75.5617 183.26 75.815C183.463 76.0557 183.564 76.3597 183.564 76.727C183.564 77.1197 183.431 77.449 183.165 77.715C182.912 77.9683 182.538 78.095 182.044 78.095C181.17 78.095 180.461 78.0127 179.916 77.848C179.371 77.6833 178.966 77.4047 178.7 77.012C178.434 76.6193 178.263 76.081 178.187 75.397H179.099C178.871 76.005 178.605 76.4927 178.301 76.86C177.997 77.2147 177.655 77.4807 177.275 77.658C176.895 77.8353 176.49 77.9493 176.059 78C175.641 78.0633 175.204 78.095 174.748 78.095ZM178.13 82.465C177.763 82.465 177.446 82.3383 177.18 82.085C176.927 81.8317 176.8 81.5213 176.8 81.154C176.8 80.7867 176.927 80.4637 177.18 80.185C177.446 79.919 177.763 79.786 178.13 79.786C178.497 79.786 178.808 79.919 179.061 80.185C179.327 80.4637 179.46 80.7867 179.46 81.154C179.46 81.5213 179.327 81.8317 179.061 82.085C178.808 82.3383 178.497 82.465 178.13 82.465ZM184.544 60.79V59.46L189.028 58.13V59.498L184.544 60.79ZM182.04 78.095L182.23 75.454C183.281 75.454 184.124 75.4477 184.757 75.435C185.403 75.4223 185.903 75.397 186.258 75.359C186.625 75.3083 186.898 75.2513 187.075 75.188C187.252 75.112 187.404 75.0297 187.531 74.941C187.683 74.827 187.81 74.675 187.911 74.485C188.025 74.2823 188.114 74.0163 188.177 73.687C188.24 73.3577 188.272 72.946 188.272 72.452C188.272 71.8313 188.215 71.312 188.101 70.894C188 70.4633 187.848 70.1403 187.645 69.925C187.455 69.7097 187.221 69.602 186.942 69.602C186.739 69.602 186.549 69.6717 186.372 69.811C186.195 69.9377 186.049 70.115 185.935 70.343C185.821 70.571 185.764 70.8307 185.764 71.122C185.764 71.2867 185.808 71.4323 185.897 71.559C185.986 71.6857 186.125 71.7807 186.315 71.844C186.505 71.9073 186.746 71.939 187.037 71.939C187.316 71.939 187.607 71.9073 187.911 71.844C188.228 71.768 188.519 71.6667 188.785 71.54L188.861 73.801C188.658 73.9403 188.424 74.067 188.158 74.181C187.892 74.295 187.607 74.3837 187.303 74.447C187.012 74.4977 186.714 74.523 186.41 74.523C185.739 74.523 185.156 74.4343 184.662 74.257C184.181 74.067 183.807 73.763 183.541 73.345C183.275 72.927 183.142 72.357 183.142 71.635C183.142 71.0777 183.237 70.5267 183.427 69.982C183.617 69.4247 183.889 68.9243 184.244 68.481C184.599 68.025 185.017 67.664 185.498 67.398C185.979 67.1193 186.511 66.98 187.094 66.98C187.955 66.98 188.665 67.2333 189.222 67.74C189.792 68.234 190.21 68.9053 190.476 69.754C190.755 70.59 190.894 71.521 190.894 72.547C190.894 73.4463 190.761 74.2317 190.495 74.903C190.229 75.5617 189.912 76.081 189.545 76.461C189.241 76.7777 188.893 77.0437 188.5 77.259C188.107 77.4743 187.626 77.6453 187.056 77.772C186.499 77.886 185.808 77.9683 184.985 78.019C184.174 78.0697 183.193 78.095 182.04 78.095ZM187.056 65.213C186.663 65.213 186.328 65.08 186.049 64.814C185.783 64.548 185.65 64.2187 185.65 63.826C185.65 63.4333 185.783 63.0977 186.049 62.819C186.328 62.5403 186.663 62.401 187.056 62.401C187.436 62.401 187.759 62.5403 188.025 62.819C188.304 63.0977 188.443 63.4333 188.443 63.826C188.443 64.2187 188.304 64.548 188.025 64.814C187.759 65.08 187.436 65.213 187.056 65.213Z" fill="#FBFBFB"/>
</svg>
