<svg width="172" height="33" viewBox="0 0 172 33" fill="none" xmlns="http://www.w3.org/2000/svg">
<path d="M37 9V12M34.0455 9V11.25C34.0455 11.4489 33.8587 11.6397 33.5262 11.7803C33.1938 11.921 32.7429 12 32.2727 12C31.8026 12 31.3517 11.921 31.0192 11.7803C30.6868 11.6397 30.5 11.4489 30.5 11.25M30.5 11.25V8M30.5 11.25V9M30.5 11.25C30.5 11.4489 30.3132 11.6397 29.9808 11.7803C29.6483 11.921 29.1974 12 28.7273 12C28.2571 12 27.8062 11.921 27.4738 11.7803C27.1413 11.6397 26.9545 11.4489 26.9545 11.25V9C26.9545 9 24 9.25 24 10.5" stroke="#02AC21" stroke-width="2" stroke-linecap="round" stroke-linejoin="round"/>
<path d="M3.872 26.472C2.03733 24.552 1.12 22.28 1.12 19.656C1.12 17.032 2.048 14.76 3.904 12.84C5.76 10.92 8 9.96 10.624 9.96C13.248 9.96 15.488 10.92 17.344 12.84C19.2 14.76 20.128 17.032 20.128 19.656C20.128 21.4267 19.6693 23.0693 18.752 24.584C17.856 26.0773 16.6613 27.2507 15.168 28.104C15.2107 28.2107 15.296 28.424 15.424 28.744C15.552 29.064 15.6373 29.2773 15.68 29.384C15.744 29.512 15.8293 29.6933 15.936 29.928C16.0427 30.1627 16.1387 30.3227 16.224 30.408C16.3307 30.5147 16.448 30.632 16.576 30.76C16.704 30.9093 16.8427 31.0053 16.992 31.048C17.1413 31.0907 17.312 31.112 17.504 31.112C18.016 31.112 18.4853 30.984 18.912 30.728C19.3387 30.4933 19.6373 30.2587 19.808 30.024L20.064 29.64L20.544 29.992C20.5227 30.056 20.48 30.1307 20.416 30.216C20.3733 30.3227 20.256 30.504 20.064 30.76C19.8933 31.0373 19.7013 31.272 19.488 31.464C19.2747 31.6773 18.9867 31.8587 18.624 32.008C18.2613 32.1787 17.888 32.264 17.504 32.264C16.0747 32.264 14.976 31.9867 14.208 31.432C13.44 30.8773 12.8107 30.12 12.32 29.16C11.7227 29.2667 11.1573 29.32 10.624 29.32C7.97867 29.32 5.728 28.3707 3.872 26.472ZM11.84 28.104C11.648 27.656 11.4987 27.3467 11.392 27.176C11.3067 26.984 11.168 26.7493 10.976 26.472C10.784 26.1947 10.5707 26.0027 10.336 25.896C10.1227 25.7893 9.86667 25.736 9.568 25.736C8.71467 25.736 7.94667 25.96 7.264 26.408C8.16 27.624 9.32267 28.232 10.752 28.232C11.2 28.232 11.5627 28.1893 11.84 28.104ZM14.24 26.376C15.2853 24.8827 15.808 22.728 15.808 19.912C15.808 18.4827 15.648 17.128 15.328 15.848C15.008 14.568 14.432 13.448 13.6 12.488C12.768 11.528 11.7333 11.048 10.496 11.048C9.536 11.048 8.71467 11.304 8.032 11.816C7.34933 12.328 6.82667 13.0107 6.464 13.864C6.10133 14.7173 5.83467 15.6027 5.664 16.52C5.51467 17.416 5.44 18.376 5.44 19.4C5.44 21.8533 5.87733 23.912 6.752 25.576C7.584 24.744 8.58667 24.328 9.76 24.328C11.7653 24.328 13.2587 25.0107 14.24 26.376ZM37.026 27.08C38.178 27.1653 38.85 27.208 39.042 27.208V27.944C38.6367 27.944 37.6553 28.1787 36.098 28.648C34.5407 29.096 33.5167 29.32 33.026 29.32V28.392C31.938 29.0107 30.85 29.32 29.762 29.32C25.6447 29.32 23.586 27.8053 23.586 24.776V16.232C23.394 15.8053 22.722 15.592 21.57 15.592V14.92H27.586V25C27.586 25.448 27.586 25.8 27.586 26.056C27.6073 26.2907 27.6607 26.568 27.746 26.888C27.8313 27.208 27.9487 27.4533 28.098 27.624C28.2687 27.7947 28.5033 27.944 28.802 28.072C29.122 28.1787 29.506 28.232 29.954 28.232C30.9993 28.232 32.0233 27.944 33.026 27.368V16.232C32.834 15.8053 32.162 15.592 31.01 15.592V14.92H37.026V27.08ZM40.268 29V28.328C41.42 28.328 42.092 28.1147 42.284 27.688V16.84C41.132 16.7547 40.46 16.712 40.268 16.712V15.976C40.6733 15.976 41.6547 15.752 43.212 15.304C44.7693 14.8347 45.7933 14.6 46.284 14.6V15.944C47.3933 15.048 48.4493 14.6 49.452 14.6C52.0973 14.6 53.42 15.24 53.42 16.52C53.42 17.032 53.26 17.4373 52.94 17.736C52.6413 18.0347 52.268 18.184 51.82 18.184C51.3293 18.184 50.956 18.056 50.7 17.8C50.444 17.544 50.284 17.256 50.22 16.936C50.156 16.616 50.028 16.328 49.836 16.072C49.6653 15.816 49.4093 15.688 49.068 15.688C48.2573 15.688 47.3293 16.136 46.284 17.032V27.688C46.476 28.1147 47.148 28.328 48.3 28.328V29H40.268ZM57.5975 17.288C58.0882 17.288 58.3335 17.7253 58.3335 18.6C58.3335 18.9627 58.1522 19.24 57.7895 19.432C57.4268 19.624 57.0428 19.72 56.6375 19.72C56.2108 19.72 55.8268 19.5707 55.4855 19.272C55.1655 18.9733 55.0055 18.5893 55.0055 18.12C55.0055 17.032 55.5388 16.1787 56.6055 15.56C57.6935 14.92 59.1015 14.6 60.8295 14.6C62.8562 14.6 64.4348 15.112 65.5655 16.136C66.6962 17.1387 67.2615 18.4187 67.2615 19.976V26.312C67.2615 26.9947 67.3682 27.496 67.5815 27.816C67.8162 28.136 68.0935 28.296 68.4135 28.296C68.6908 28.296 68.9362 28.2213 69.1495 28.072C69.3842 27.9227 69.5015 27.7413 69.5015 27.528H70.0775C70.0775 28.68 68.9042 29.256 66.5575 29.256C65.4695 29.256 64.6268 28.872 64.0295 28.104C62.7495 28.9147 61.2668 29.32 59.5815 29.32C56.0188 29.32 54.2375 28.0187 54.2375 25.416C54.2375 24.8827 54.4188 24.4027 54.7815 23.976C55.1655 23.5493 55.7415 23.1867 56.5095 22.888C57.2775 22.5893 57.9602 22.3547 58.5575 22.184C59.1762 22.0133 60.0188 21.8213 61.0855 21.608C62.1522 21.3733 62.8775 21.2027 63.2615 21.096C63.2615 19.0907 63.0908 17.704 62.7495 16.936C62.4295 16.1467 61.6828 15.752 60.5095 15.752C59.8055 15.752 59.1655 15.9013 58.5895 16.2C58.0348 16.4773 57.7042 16.84 57.5975 17.288ZM63.5815 27.336C63.3682 26.76 63.2615 26.12 63.2615 25.416V21.8C61.4482 22.3547 60.2535 22.8133 59.6775 23.176C58.7815 23.7733 58.3335 24.5413 58.3335 25.48C58.3335 26.4613 58.5362 27.1653 58.9415 27.592C59.3682 28.0187 59.8482 28.232 60.3815 28.232C61.3202 28.232 62.3868 27.9333 63.5815 27.336ZM70.2993 29V28.328C71.4513 28.328 72.1233 28.1147 72.3153 27.688V16.84C71.1633 16.7547 70.4912 16.712 70.2993 16.712V15.976C70.7046 15.976 71.6859 15.752 73.2433 15.304C74.8006 14.8347 75.8246 14.6 76.3153 14.6V15.944C77.3819 15.048 78.5553 14.6 79.8353 14.6C81.8833 14.6 83.4726 14.984 84.6033 15.752C85.7339 16.4987 86.2993 17.6293 86.2993 19.144V27.688C86.4913 28.1147 87.1633 28.328 88.3153 28.328V29H80.2833V28.328C81.4353 28.328 82.1073 28.1147 82.2993 27.688V18.92C82.2993 17.96 82.0753 17.1813 81.6273 16.584C81.2006 15.9867 80.5393 15.688 79.6433 15.688C78.3206 15.688 77.2113 16.1147 76.3153 16.968V27.688C76.5073 28.1147 77.1793 28.328 78.3313 28.328V29H70.2993ZM87.0098 10.28H103.554V13.384H102.882C102.882 12.36 102.508 11.688 101.762 11.368H97.3138V27.688C97.5058 28.1147 98.1778 28.328 99.3298 28.328V29H91.2338V28.328C92.3858 28.328 93.0578 28.1147 93.2498 27.688V11.368H88.8018C88.0551 11.688 87.6818 12.36 87.6818 13.384H87.0098V10.28ZM118.401 27.08C119.553 27.1653 120.225 27.208 120.417 27.208V27.944C120.012 27.944 119.03 28.1787 117.473 28.648C115.916 29.096 114.892 29.32 114.401 29.32V28.392C113.313 29.0107 112.225 29.32 111.137 29.32C107.02 29.32 104.961 27.8053 104.961 24.776V16.232C104.769 15.8053 104.097 15.592 102.945 15.592V14.92H108.961V25C108.961 25.448 108.961 25.8 108.961 26.056C108.982 26.2907 109.036 26.568 109.121 26.888C109.206 27.208 109.324 27.4533 109.473 27.624C109.644 27.7947 109.878 27.944 110.177 28.072C110.497 28.1787 110.881 28.232 111.329 28.232C112.374 28.232 113.398 27.944 114.401 27.368V16.232C114.209 15.8053 113.537 15.592 112.385 15.592V14.92H118.401V27.08ZM121.643 29V28.328C122.795 28.328 123.467 28.1147 123.659 27.688V16.84C122.507 16.7547 121.835 16.712 121.643 16.712V15.976C122.048 15.976 123.03 15.752 124.587 15.304C126.144 14.8347 127.168 14.6 127.659 14.6V15.944C128.726 15.048 129.899 14.6 131.179 14.6C133.227 14.6 134.816 14.984 135.947 15.752C137.078 16.4987 137.643 17.6293 137.643 19.144V27.688C137.835 28.1147 138.507 28.328 139.659 28.328V29H131.627V28.328C132.779 28.328 133.451 28.1147 133.643 27.688V18.92C133.643 17.96 133.419 17.1813 132.971 16.584C132.544 15.9867 131.883 15.688 130.987 15.688C129.664 15.688 128.555 16.1147 127.659 16.968V27.688C127.851 28.1147 128.523 28.328 129.675 28.328V29H121.643ZM144.996 21.288C145.038 23.144 145.454 24.744 146.244 26.088C147.054 27.432 148.078 28.104 149.316 28.104C151.172 28.104 152.665 27.4 153.796 25.992L154.564 26.376C153.945 27.4 153.134 28.1467 152.132 28.616C151.15 29.0853 149.849 29.32 148.228 29.32C147.396 29.32 146.585 29.2027 145.796 28.968C145.006 28.712 144.217 28.3067 143.428 27.752C142.66 27.176 142.03 26.3333 141.54 25.224C141.07 24.1147 140.836 22.792 140.836 21.256C140.836 19.4 141.486 17.832 142.788 16.552C144.11 15.2507 145.817 14.6 147.908 14.6C150.19 14.6 151.961 15.2507 153.22 16.552C154.478 17.832 155.108 19.4107 155.108 21.288H144.996ZM145.028 20.296H150.852C150.724 18.7813 150.457 17.6187 150.052 16.808C149.668 15.976 149.038 15.56 148.164 15.56C147.396 15.56 146.702 15.9547 146.084 16.744C145.486 17.512 145.134 18.696 145.028 20.296ZM162.467 28.04C163.918 28.04 164.643 27.3787 164.643 26.056C164.643 25.6933 164.387 25.3413 163.875 25C163.363 24.6373 162.744 24.2853 162.019 23.944C161.294 23.5813 160.568 23.176 159.843 22.728C159.118 22.28 158.499 21.6933 157.987 20.968C157.475 20.2213 157.219 19.3893 157.219 18.472C157.219 17.2773 157.667 16.3387 158.563 15.656C159.48 14.952 160.568 14.6 161.827 14.6C162.552 14.6 163.299 14.76 164.067 15.08C164.835 15.4 165.272 15.56 165.379 15.56C165.635 15.56 165.763 15.3467 165.763 14.92H166.499L166.819 19.592H166.115C165.902 18.696 165.347 17.8213 164.451 16.968C163.576 16.1147 162.734 15.688 161.923 15.688C160.408 15.688 159.651 16.2427 159.651 17.352C159.651 17.736 160.067 18.184 160.899 18.696C161.731 19.1867 162.638 19.6667 163.619 20.136C164.6 20.6053 165.507 21.2773 166.339 22.152C167.171 23.0267 167.587 23.9867 167.587 25.032C167.587 26.3547 167.086 27.4 166.083 28.168C165.08 28.936 163.79 29.32 162.211 29.32C161.443 29.32 160.664 29.16 159.875 28.84C159.086 28.52 158.648 28.36 158.563 28.36C158.307 28.36 158.179 28.5733 158.179 29H157.411L157.091 24.104H157.795C158.008 24.9573 158.648 25.832 159.715 26.728C160.803 27.6027 161.72 28.04 162.467 28.04Z" fill="#02AC21"/>
</svg>
